<?xml version="1.0" encoding="UTF-8" standalone="no"?><svg xmlns="http://www.w3.org/2000/svg" xmlns:xlink="http://www.w3.org/1999/xlink" height="1003" version="1.1" width="1648.71435546875"><defs/><g><g transform="translate(-14,-294) scale(1,1)"><rect fill="#C0C0C0" height="475" opacity="0.2" stroke="none" width="571.681640625" x="559" y="383"/></g><g transform="translate(-14,-294) scale(1,1)"><rect fill="#ffffff" height="475" stroke="none" width="571.681640625" x="552" y="376"/></g><g transform="translate(-14,-294) scale(1,1)"><path d="M 552 376 L 1123.681640625 376 L 1123.681640625 851 L 552 851 L 552 376 Z Z" fill="none" stroke="#000000" stroke-miterlimit="10"/></g><g transform="translate(-14,-294) scale(1,1)"><path d="M 552 416 L 1123.681640625 416" fill="none" stroke="#000000" stroke-miterlimit="10"/></g><g transform="translate(-14,-294) scale(1,1)"><path d="M 552 724 L 1123.681640625 724" fill="none" stroke="#000000" stroke-miterlimit="10"/></g><g transform="translate(-14,-294) scale(1,1)"><g><path fill="none" stroke="none"/><text fill="#000000" font-family="Arial" font-size="13px" font-style="normal" font-weight="bold" stroke="none" text-decoration="none" x="762.72900390625" y="394">ManualControlFragment</text></g></g><g transform="translate(-14,-294) scale(1,1)"><g><path fill="none" stroke="none"/><text fill="#000000" font-family="Arial" font-size="13px" font-style="normal" font-weight="normal" stroke="none" text-decoration="none" x="777.877685546875" y="409">(from manualcontrol)</text></g></g><g transform="translate(-14,-294) scale(1,1)"><g><path fill="none" stroke="none"/><text fill="#000000" font-family="Arial" font-size="13px" font-style="normal" font-weight="normal" stroke="none" text-decoration="none" x="557" y="432">-angularMaxVel: MutableLiveData&lt;Float&gt;</text></g></g><g transform="translate(-14,-294) scale(1,1)"><g><path fill="none" stroke="none"/><text fill="#000000" font-family="Arial" font-size="13px" font-style="normal" font-weight="normal" stroke="none" text-decoration="none" x="557" y="447">-binding: FragmentManualControlBinding</text></g></g><g transform="translate(-14,-294) scale(1,1)"><g><path fill="none" stroke="none"/><text fill="#000000" font-family="Arial" font-size="13px" font-style="normal" font-weight="normal" stroke="none" text-decoration="none" x="557" y="462">-connectionViewModel: ConnectionViewModel</text></g></g><g transform="translate(-14,-294) scale(1,1)"><g><path fill="none" stroke="none"/><text fill="#000000" font-family="Arial" font-size="13px" font-style="normal" font-weight="normal" stroke="none" text-decoration="none" x="557" y="477">-controlHardware: ControlHardware</text></g></g><g transform="translate(-14,-294) scale(1,1)"><g><path fill="none" stroke="none"/><text fill="#000000" font-family="Arial" font-size="13px" font-style="normal" font-weight="normal" stroke="none" text-decoration="none" x="557" y="492">-currentRouteObserver: Observer&lt;Route&gt;</text></g></g><g transform="translate(-14,-294) scale(1,1)"><g><path fill="none" stroke="none"/><text fill="#000000" font-family="Arial" font-size="13px" font-style="normal" font-weight="normal" stroke="none" text-decoration="none" x="557" y="507">-frontUrlObserver: Observer&lt;String&gt;</text></g></g><g transform="translate(-14,-294) scale(1,1)"><g><path fill="none" stroke="none"/><text fill="#000000" font-family="Arial" font-size="13px" font-style="normal" font-weight="normal" stroke="none" text-decoration="none" x="557" y="522">-linearMaxVel: MutableLiveData&lt;Float&gt;</text></g></g><g transform="translate(-14,-294) scale(1,1)"><g><path fill="none" stroke="none"/><text fill="#000000" font-family="Arial" font-size="13px" font-style="normal" font-weight="normal" stroke="none" text-decoration="none" x="557" y="537">-mapFrameLayout: MapFrameLayout</text></g></g><g transform="translate(-14,-294) scale(1,1)"><g><path fill="none" stroke="none"/><text fill="#000000" font-family="Arial" font-size="13px" font-style="normal" font-weight="normal" stroke="none" text-decoration="none" x="557" y="552">-mapObserver: RosObserver&lt;GetMap_Response&gt;</text></g></g><g transform="translate(-14,-294) scale(1,1)"><g><path fill="none" stroke="none"/><text fill="#000000" font-family="Arial" font-size="13px" font-style="normal" font-weight="normal" stroke="none" text-decoration="none" x="557" y="567">-mqttPubViewModel: MqttPubViewModel</text></g></g><g transform="translate(-14,-294) scale(1,1)"><g><path fill="none" stroke="none"/><text fill="#000000" font-family="Arial" font-size="13px" font-style="normal" font-weight="normal" stroke="none" text-decoration="none" x="557" y="582">-mqttSubViewModel: MqttSubViewModel</text></g></g><g transform="translate(-14,-294) scale(1,1)"><g><path fill="none" stroke="none"/><text fill="#000000" font-family="Arial" font-size="13px" font-style="normal" font-weight="normal" stroke="none" text-decoration="none" x="557" y="597">-newWaypointObserver: Observer&lt;Waypoint&gt;</text></g></g><g transform="translate(-14,-294) scale(1,1)"><g><path fill="none" stroke="none"/><text fill="#000000" font-family="Arial" font-size="13px" font-style="normal" font-weight="normal" stroke="none" text-decoration="none" x="557" y="612">-odomObserver: RosObserver&lt;Odometry&gt;</text></g></g><g transform="translate(-14,-294) scale(1,1)"><g><path fill="none" stroke="none"/><text fill="#000000" font-family="Arial" font-size="13px" font-style="normal" font-weight="normal" stroke="none" text-decoration="none" x="557" y="627">-rearUrlObserver: Observer&lt;String&gt;</text></g></g><g transform="translate(-14,-294) scale(1,1)"><g><path fill="none" stroke="none"/><text fill="#000000" font-family="Arial" font-size="13px" font-style="normal" font-weight="normal" stroke="none" text-decoration="none" x="557" y="642">-robotPoseObserver: RosObserver&lt;Pose&gt;</text></g></g><g transform="translate(-14,-294) scale(1,1)"><g><path fill="none" stroke="none"/><text fill="#000000" font-family="Arial" font-size="13px" font-style="normal" font-weight="normal" stroke="none" text-decoration="none" x="557" y="657">-routeViewModel: RouteViewModel</text></g></g><g transform="translate(-14,-294) scale(1,1)"><g><path fill="none" stroke="none"/><text fill="#000000" font-family="Arial" font-size="13px" font-style="normal" font-weight="normal" stroke="none" text-decoration="none" x="557" y="672">-scanObserver: RosObserver&lt;LaserScan&gt;</text></g></g><g transform="translate(-14,-294) scale(1,1)"><g><path fill="none" stroke="none"/><text fill="#000000" font-family="Arial" font-size="13px" font-style="normal" font-weight="normal" stroke="none" text-decoration="none" x="557" y="687">-tfObserver: RosObserver&lt;TFMessage&gt;</text></g></g><g transform="translate(-14,-294) scale(1,1)"><g><path fill="none" stroke="none"/><text fill="#000000" font-family="Arial" font-size="13px" font-style="normal" font-weight="normal" stroke="none" text-decoration="none" x="557" y="702">-twist: Twist</text></g></g><g transform="translate(-14,-294) scale(1,1)"><g><path fill="none" stroke="none"/><text fill="#000000" font-family="Arial" font-size="13px" font-style="normal" font-weight="normal" stroke="none" text-decoration="none" x="557" y="717">-waypointViewModel: WaypointViewModel</text></g></g><g transform="translate(-14,-294) scale(1,1)"><g><path fill="none" stroke="none"/><text fill="#000000" font-family="Arial" font-size="13px" font-style="normal" font-weight="normal" stroke="none" text-decoration="none" x="557" y="740">+newInstance(num: int): ManualControlFragment</text></g></g><g transform="translate(-14,-294) scale(1,1)"><g><path fill="none" stroke="none"/><text fill="#000000" font-family="Arial" font-size="13px" font-style="normal" font-weight="normal" stroke="none" text-decoration="none" x="557" y="755">+onCreate(savedInstanceState: Bundle)</text></g></g><g transform="translate(-14,-294) scale(1,1)"><g><path fill="none" stroke="none"/><text fill="#000000" font-family="Arial" font-size="13px" font-style="normal" font-weight="normal" stroke="none" text-decoration="none" x="557" y="770">+onCreateView(inflater: LayoutInflater, container: ViewGroup, savedInstanceState: Bundle): View</text></g></g><g transform="translate(-14,-294) scale(1,1)"><g><path fill="none" stroke="none"/><text fill="#000000" font-family="Arial" font-size="13px" font-style="normal" font-weight="normal" stroke="none" text-decoration="none" x="557" y="785">+onDestroyView()</text></g></g><g transform="translate(-14,-294) scale(1,1)"><g><path fill="none" stroke="none"/><text fill="#000000" font-family="Arial" font-size="13px" font-style="normal" font-weight="normal" stroke="none" text-decoration="none" x="557" y="800">+onPause()</text></g></g><g transform="translate(-14,-294) scale(1,1)"><g><path fill="none" stroke="none"/><text fill="#000000" font-family="Arial" font-size="13px" font-style="normal" font-weight="normal" stroke="none" text-decoration="none" x="557" y="815">+onResume()</text></g></g><g transform="translate(-14,-294) scale(1,1)"><g><path fill="none" stroke="none"/><text fill="#000000" font-family="Arial" font-size="13px" font-style="normal" font-weight="normal" stroke="none" text-decoration="none" x="557" y="830">-restorePreference()</text></g></g><g transform="translate(-14,-294) scale(1,1)"><g><path fill="none" stroke="none"/><text fill="#000000" font-family="Arial" font-size="13px" font-style="normal" font-weight="normal" stroke="none" text-decoration="none" x="557" y="845">-saveMaxVelPreference(tag: String, maxVel: float)</text></g></g><g transform="translate(-14,-294) scale(1,1)"><rect fill="#C0C0C0" height="145" opacity="0.2" stroke="none" width="372.71435546875" x="1287" y="535"/></g><g transform="translate(-14,-294) scale(1,1)"><rect fill="#ffffff" height="145" stroke="none" width="372.71435546875" x="1280" y="528"/></g><g transform="translate(-14,-294) scale(1,1)"><path d="M 1280 528 L 1652.71435546875 528 L 1652.71435546875 673 L 1280 673 L 1280 528 Z Z" fill="none" stroke="#000000" stroke-miterlimit="10"/></g><g transform="translate(-14,-294) scale(1,1)"><path d="M 1280 568 L 1652.71435546875 568" fill="none" stroke="#000000" stroke-miterlimit="10"/></g><g transform="translate(-14,-294) scale(1,1)"><path d="M 1280 621 L 1652.71435546875 621" fill="none" stroke="#000000" stroke-miterlimit="10"/></g><g transform="translate(-14,-294) scale(1,1)"><g><path fill="none" stroke="none"/><text fill="#000000" font-family="Arial" font-size="13px" font-style="normal" font-weight="bold" stroke="none" text-decoration="none" x="1406.8955078125" y="546">MqttPubViewModel</text></g></g><g transform="translate(-14,-294) scale(1,1)"><g><path fill="none" stroke="none"/><text fill="#000000" font-family="Arial" font-size="13px" font-style="normal" font-weight="normal" stroke="none" text-decoration="none" x="1416.515380859375" y="561">(from viewmodel)</text></g></g><g transform="translate(-14,-294) scale(1,1)"><g><path fill="none" stroke="none"/><text fill="#000000" font-family="Arial" font-size="13px" font-style="normal" font-weight="normal" stroke="none" text-decoration="none" x="1285" y="584">-pubTopicNameMap: HashMap</text></g></g><g transform="translate(-14,-294) scale(1,1)"><g><path fill="none" stroke="none"/><text fill="#000000" font-family="Arial" font-size="13px" font-style="normal" font-weight="normal" stroke="none" text-decoration="none" x="1285" y="599">-publisher: MutableLiveData</text></g></g><g transform="translate(-14,-294) scale(1,1)"><g><path fill="none" stroke="none"/><text fill="#000000" font-family="Arial" font-size="13px" font-style="normal" font-weight="normal" stroke="none" text-decoration="none" x="1285" y="614">-topicViewModel: TopicViewModel</text></g></g><g transform="translate(-14,-294) scale(1,1)"><g><path fill="none" stroke="none"/><text fill="#000000" font-family="Arial" font-size="13px" font-style="normal" font-weight="normal" stroke="none" text-decoration="none" x="1285" y="637">+publishCall(widgetName: String, rosMessage: RosMessage)</text></g></g><g transform="translate(-14,-294) scale(1,1)"><g><path fill="none" stroke="none"/><text fill="#000000" font-family="Arial" font-size="13px" font-style="normal" font-weight="normal" stroke="none" text-decoration="none" x="1285" y="652">+publishGoal(widgetName: String, rosMessage: RosMessage)</text></g></g><g transform="translate(-14,-294) scale(1,1)"><g><path fill="none" stroke="none"/><text fill="#000000" font-family="Arial" font-size="13px" font-style="normal" font-weight="normal" stroke="none" text-decoration="none" x="1285" y="667">+publishTopic(widgetName: String, rosMessage: RosMessage)</text></g></g><g transform="translate(-14,-294) scale(1,1)"><path d="M 1125 607 L 1279 604" fill="none" stroke="#000000" stroke-dasharray="3" stroke-miterlimit="10"/></g><g transform="translate(-14,-294) scale(1,1)"><path d="M 1258.8424819019656 612.813311757076 L 1279 604 L 1258.5145297528497 595.9784347691289" fill="#FFFFFF" stroke="none"/></g><g transform="translate(-14,-294) scale(1,1)"><path d="M 1258.8424819019656 612.813311757076 L 1279 604 L 1258.5145297528497 595.9784347691289 L 1258.8424819019656 612.813311757076" fill="none" stroke="#000000" stroke-miterlimit="10"/></g><g transform="translate(-14,-294) scale(1,1)"><g><path fill="none" stroke="none"/><text fill="#000000" font-family="Arial" font-size="13px" font-style="normal" font-weight="normal" stroke="none" text-decoration="none" x="1136.5849609375" y="595">-mqttPubViewModel</text></g></g><g transform="translate(-14,-294) scale(1,1)"><rect fill="#C0C0C0" height="280" opacity="0.2" stroke="none" width="415.3896484375" x="39" y="615"/></g><g transform="translate(-14,-294) scale(1,1)"><rect fill="#ffffff" height="280" stroke="none" width="415.3896484375" x="32" y="608"/></g><g transform="translate(-14,-294) scale(1,1)"><path d="M 32 608 L 447.3896484375 608 L 447.3896484375 888 L 32 888 L 32 608 Z Z" fill="none" stroke="#000000" stroke-miterlimit="10"/></g><g transform="translate(-14,-294) scale(1,1)"><path d="M 32 648 L 447.3896484375 648" fill="none" stroke="#000000" stroke-miterlimit="10"/></g><g transform="translate(-14,-294) scale(1,1)"><path d="M 32 776 L 447.3896484375 776" fill="none" stroke="#000000" stroke-miterlimit="10"/></g><g transform="translate(-14,-294) scale(1,1)"><g><path fill="none" stroke="none"/><text fill="#000000" font-family="Arial" font-size="13px" font-style="normal" font-weight="bold" stroke="none" text-decoration="none" x="179.477783203125" y="626">LinearJoystickView</text></g></g><g transform="translate(-14,-294) scale(1,1)"><g><path fill="none" stroke="none"/><text fill="#000000" font-family="Arial" font-size="13px" font-style="normal" font-weight="normal" stroke="none" text-decoration="none" x="204.665283203125" y="641">(from move)</text></g></g><g transform="translate(-14,-294) scale(1,1)"><g><path fill="none" stroke="none"/><text fill="#000000" font-family="Arial" font-size="13px" font-style="normal" font-weight="normal" stroke="none" text-decoration="none" x="37" y="664">-arcRect: RectF</text></g></g><g transform="translate(-14,-294) scale(1,1)"><g><path fill="none" stroke="none"/><text fill="#000000" font-family="Arial" font-size="13px" font-style="normal" font-weight="normal" stroke="none" text-decoration="none" x="37" y="679">-arrowPaint: Paint</text></g></g><g transform="translate(-14,-294) scale(1,1)"><g><path fill="none" stroke="none"/><text fill="#000000" font-family="Arial" font-size="13px" font-style="normal" font-weight="normal" stroke="none" text-decoration="none" x="37" y="694">-joystickPaint: Paint</text></g></g><g transform="translate(-14,-294) scale(1,1)"><g><path fill="none" stroke="none"/><text fill="#000000" font-family="Arial" font-size="13px" font-style="normal" font-weight="normal" stroke="none" text-decoration="none" x="37" y="709">-joystickRadius: float[1]</text></g></g><g transform="translate(-14,-294) scale(1,1)"><g><path fill="none" stroke="none"/><text fill="#000000" font-family="Arial" font-size="13px" font-style="normal" font-weight="normal" stroke="none" text-decoration="none" x="37" y="724">-linearJoystickMoveListener: OnLinearJoystickMoveListener</text></g></g><g transform="translate(-14,-294) scale(1,1)"><g><path fill="none" stroke="none"/><text fill="#000000" font-family="Arial" font-size="13px" font-style="normal" font-weight="normal" stroke="none" text-decoration="none" x="37" y="739">-maxVel: float[1]</text></g></g><g transform="translate(-14,-294) scale(1,1)"><g><path fill="none" stroke="none"/><text fill="#000000" font-family="Arial" font-size="13px" font-style="normal" font-weight="normal" stroke="none" text-decoration="none" x="37" y="754">-outerPaint: Paint</text></g></g><g transform="translate(-14,-294) scale(1,1)"><g><path fill="none" stroke="none"/><text fill="#000000" font-family="Arial" font-size="13px" font-style="normal" font-weight="normal" stroke="none" text-decoration="none" x="37" y="769">-posY: float[1]</text></g></g><g transform="translate(-14,-294) scale(1,1)"><g><path fill="none" stroke="none"/><text fill="#000000" font-family="Arial" font-size="13px" font-style="normal" font-weight="normal" stroke="none" text-decoration="none" x="37" y="792">-convertPolarToPx(y: float): float</text></g></g><g transform="translate(-14,-294) scale(1,1)"><g><path fill="none" stroke="none"/><text fill="#000000" font-family="Arial" font-size="13px" font-style="normal" font-weight="normal" stroke="none" text-decoration="none" x="37" y="807">-convertPxToPolar(y: float): float</text></g></g><g transform="translate(-14,-294) scale(1,1)"><g><path fill="none" stroke="none"/><text fill="#000000" font-family="Arial" font-size="13px" font-style="normal" font-weight="normal" stroke="none" text-decoration="none" x="37" y="822">-init()</text></g></g><g transform="translate(-14,-294) scale(1,1)"><g><path fill="none" stroke="none"/><text fill="#000000" font-family="Arial" font-size="13px" font-style="normal" font-weight="normal" stroke="none" text-decoration="none" x="37" y="837">-moveTo(y: float)</text></g></g><g transform="translate(-14,-294) scale(1,1)"><g><path fill="none" stroke="none"/><text fill="#000000" font-family="Arial" font-size="13px" font-style="normal" font-weight="normal" stroke="none" text-decoration="none" x="37" y="852">#onDraw(canvas: Canvas)</text></g></g><g transform="translate(-14,-294) scale(1,1)"><g><path fill="none" stroke="none"/><text fill="#000000" font-family="Arial" font-size="13px" font-style="normal" font-weight="normal" stroke="none" text-decoration="none" x="37" y="867">#onLayout(changed: boolean, left: int, top: int, right: int, bottom: int)</text></g></g><g transform="translate(-14,-294) scale(1,1)"><g><path fill="none" stroke="none"/><text fill="#000000" font-family="Arial" font-size="13px" font-style="normal" font-weight="normal" stroke="none" text-decoration="none" x="37" y="882">+onTouchEvent(event: MotionEvent): boolean</text></g></g><g transform="translate(-14,-294) scale(1,1)"><rect fill="#C0C0C0" height="265" opacity="0.2" stroke="none" width="415.3896484375" x="31" y="311"/></g><g transform="translate(-14,-294) scale(1,1)"><rect fill="#ffffff" height="265" stroke="none" width="415.3896484375" x="24" y="304"/></g><g transform="translate(-14,-294) scale(1,1)"><path d="M 24 304 L 439.3896484375 304 L 439.3896484375 569 L 24 569 L 24 304 Z Z" fill="none" stroke="#000000" stroke-miterlimit="10"/></g><g transform="translate(-14,-294) scale(1,1)"><path d="M 24 344 L 439.3896484375 344" fill="none" stroke="#000000" stroke-miterlimit="10"/></g><g transform="translate(-14,-294) scale(1,1)"><path d="M 24 457 L 439.3896484375 457" fill="none" stroke="#000000" stroke-miterlimit="10"/></g><g transform="translate(-14,-294) scale(1,1)"><g><path fill="none" stroke="none"/><text fill="#000000" font-family="Arial" font-size="13px" font-style="normal" font-weight="bold" stroke="none" text-decoration="none" x="166.42822265625" y="322">AngularJoystickView</text></g></g><g transform="translate(-14,-294) scale(1,1)"><g><path fill="none" stroke="none"/><text fill="#000000" font-family="Arial" font-size="13px" font-style="normal" font-weight="normal" stroke="none" text-decoration="none" x="196.665283203125" y="337">(from move)</text></g></g><g transform="translate(-14,-294) scale(1,1)"><g><path fill="none" stroke="none"/><text fill="#000000" font-family="Arial" font-size="13px" font-style="normal" font-weight="normal" stroke="none" text-decoration="none" x="29" y="360">-angularJoystickMoveListener: OnAngularJoystickMoveListener</text></g></g><g transform="translate(-14,-294) scale(1,1)"><g><path fill="none" stroke="none"/><text fill="#000000" font-family="Arial" font-size="13px" font-style="normal" font-weight="normal" stroke="none" text-decoration="none" x="29" y="375">-arcRect: RectF</text></g></g><g transform="translate(-14,-294) scale(1,1)"><g><path fill="none" stroke="none"/><text fill="#000000" font-family="Arial" font-size="13px" font-style="normal" font-weight="normal" stroke="none" text-decoration="none" x="29" y="390">-joystickPaint: Paint</text></g></g><g transform="translate(-14,-294) scale(1,1)"><g><path fill="none" stroke="none"/><text fill="#000000" font-family="Arial" font-size="13px" font-style="normal" font-weight="normal" stroke="none" text-decoration="none" x="29" y="405">-joystickRadius: float[1]</text></g></g><g transform="translate(-14,-294) scale(1,1)"><g><path fill="none" stroke="none"/><text fill="#000000" font-family="Arial" font-size="13px" font-style="normal" font-weight="normal" stroke="none" text-decoration="none" x="29" y="420">-maxVel: float[1]</text></g></g><g transform="translate(-14,-294) scale(1,1)"><g><path fill="none" stroke="none"/><text fill="#000000" font-family="Arial" font-size="13px" font-style="normal" font-weight="normal" stroke="none" text-decoration="none" x="29" y="435">-outerPaint: Paint</text></g></g><g transform="translate(-14,-294) scale(1,1)"><g><path fill="none" stroke="none"/><text fill="#000000" font-family="Arial" font-size="13px" font-style="normal" font-weight="normal" stroke="none" text-decoration="none" x="29" y="450">-posX: float[1]</text></g></g><g transform="translate(-14,-294) scale(1,1)"><g><path fill="none" stroke="none"/><text fill="#000000" font-family="Arial" font-size="13px" font-style="normal" font-weight="normal" stroke="none" text-decoration="none" x="29" y="473">-convertPolarToPx(x: float): float</text></g></g><g transform="translate(-14,-294) scale(1,1)"><g><path fill="none" stroke="none"/><text fill="#000000" font-family="Arial" font-size="13px" font-style="normal" font-weight="normal" stroke="none" text-decoration="none" x="29" y="488">-convertPxToPolar(x: float): float</text></g></g><g transform="translate(-14,-294) scale(1,1)"><g><path fill="none" stroke="none"/><text fill="#000000" font-family="Arial" font-size="13px" font-style="normal" font-weight="normal" stroke="none" text-decoration="none" x="29" y="503">-init()</text></g></g><g transform="translate(-14,-294) scale(1,1)"><g><path fill="none" stroke="none"/><text fill="#000000" font-family="Arial" font-size="13px" font-style="normal" font-weight="normal" stroke="none" text-decoration="none" x="29" y="518">-moveTo(x: float)</text></g></g><g transform="translate(-14,-294) scale(1,1)"><g><path fill="none" stroke="none"/><text fill="#000000" font-family="Arial" font-size="13px" font-style="normal" font-weight="normal" stroke="none" text-decoration="none" x="29" y="533">#onDraw(canvas: Canvas)</text></g></g><g transform="translate(-14,-294) scale(1,1)"><g><path fill="none" stroke="none"/><text fill="#000000" font-family="Arial" font-size="13px" font-style="normal" font-weight="normal" stroke="none" text-decoration="none" x="29" y="548">#onLayout(changed: boolean, left: int, top: int, right: int, bottom: int)</text></g></g><g transform="translate(-14,-294) scale(1,1)"><g><path fill="none" stroke="none"/><text fill="#000000" font-family="Arial" font-size="13px" font-style="normal" font-weight="normal" stroke="none" text-decoration="none" x="29" y="563">+onTouchEvent(event: MotionEvent): boolean</text></g></g><g transform="translate(-14,-294) scale(1,1)"><path d="M 551 529 L 440 497" fill="none" stroke="#000000" stroke-dasharray="3" stroke-miterlimit="10"/></g><g transform="translate(-14,-294) scale(1,1)"><path d="M 461.86210778598206 494.54068238039446 L 440 497 L 457.19784483241375 510.7198445005845" fill="#FFFFFF" stroke="none"/></g><g transform="translate(-14,-294) scale(1,1)"><path d="M 461.86210778598206 494.54068238039446 L 440 497 L 457.19784483241375 510.7198445005845 L 461.86210778598206 494.54068238039446" fill="none" stroke="#000000" stroke-miterlimit="10"/></g><g transform="translate(-14,-294) scale(1,1)"><g><path fill="none" stroke="none"/><text fill="#000000" font-family="Arial" font-size="13px" font-style="normal" font-weight="normal" stroke="none" text-decoration="none" x="435.757080078125" y="554">-angularJoystickView</text></g></g><g transform="translate(-14,-294) scale(1,1)"><path d="M 551 678 L 448 701" fill="none" stroke="#000000" stroke-dasharray="3" stroke-miterlimit="10"/></g><g transform="translate(-14,-294) scale(1,1)"><path d="M 466.002010499224 688.3537508333171 L 448 701 L 469.67159224132894 704.7870951566565" fill="#FFFFFF" stroke="none"/></g><g transform="translate(-14,-294) scale(1,1)"><path d="M 466.002010499224 688.3537508333171 L 448 701 L 469.67159224132894 704.7870951566565 L 466.002010499224 688.3537508333171" fill="none" stroke="#000000" stroke-miterlimit="10"/></g><g transform="translate(-14,-294) scale(1,1)"><g><path fill="none" stroke="none"/><text fill="#000000" font-family="Arial" font-size="13px" font-style="normal" font-weight="normal" stroke="none" text-decoration="none" x="442.13134765625" y="666">-linearJoystickView</text></g></g><g transform="translate(-14,-294) scale(1,1)"><rect fill="#C0C0C0" height="145" opacity="0.2" stroke="none" width="171.37939453125" x="759" y="927"/></g><g transform="translate(-14,-294) scale(1,1)"><rect fill="#ffffff" height="145" stroke="none" width="171.37939453125" x="752" y="920"/></g><g transform="translate(-14,-294) scale(1,1)"><path d="M 752 920 L 923.37939453125 920 L 923.37939453125 1065 L 752 1065 L 752 920 Z Z" fill="none" stroke="#000000" stroke-miterlimit="10"/></g><g transform="translate(-14,-294) scale(1,1)"><path d="M 752 960 L 923.37939453125 960" fill="none" stroke="#000000" stroke-miterlimit="10"/></g><g transform="translate(-14,-294) scale(1,1)"><path d="M 752 998 L 923.37939453125 998" fill="none" stroke="#000000" stroke-miterlimit="10"/></g><g transform="translate(-14,-294) scale(1,1)"><g><path fill="none" stroke="none"/><text fill="#000000" font-family="Arial" font-size="13px" font-style="normal" font-weight="bold" stroke="none" text-decoration="none" x="821.560302734375" y="938">Twist</text></g></g><g transform="translate(-14,-294) scale(1,1)"><g><path fill="none" stroke="none"/><text fill="#000000" font-family="Arial" font-size="13px" font-style="normal" font-weight="normal" stroke="none" text-decoration="none" x="803.025146484375" y="953">(from msgs)</text></g></g><g transform="translate(-14,-294) scale(1,1)"><g><path fill="none" stroke="none"/><text fill="#000000" font-family="Arial" font-size="13px" font-style="normal" font-weight="normal" stroke="none" text-decoration="none" x="757" y="976">-linear: Vector3</text></g></g><g transform="translate(-14,-294) scale(1,1)"><g><path fill="none" stroke="none"/><text fill="#000000" font-family="Arial" font-size="13px" font-style="normal" font-weight="normal" stroke="none" text-decoration="none" x="757" y="991">-angular: Vector3</text></g></g><g transform="translate(-14,-294) scale(1,1)"><g><path fill="none" stroke="none"/><text fill="#000000" font-family="Arial" font-size="13px" font-style="normal" font-weight="normal" stroke="none" text-decoration="none" x="757" y="1014">+getLinear(): Vector3</text></g></g><g transform="translate(-14,-294) scale(1,1)"><g><path fill="none" stroke="none"/><text fill="#000000" font-family="Arial" font-size="13px" font-style="normal" font-weight="normal" stroke="none" text-decoration="none" x="757" y="1029">+setLinear(value: Vector3)</text></g></g><g transform="translate(-14,-294) scale(1,1)"><g><path fill="none" stroke="none"/><text fill="#000000" font-family="Arial" font-size="13px" font-style="normal" font-weight="normal" stroke="none" text-decoration="none" x="757" y="1044">+getAngular(): Vector3</text></g></g><g transform="translate(-14,-294) scale(1,1)"><g><path fill="none" stroke="none"/><text fill="#000000" font-family="Arial" font-size="13px" font-style="normal" font-weight="normal" stroke="none" text-decoration="none" x="757" y="1059">+setAngular(value: Vector3)</text></g></g><g transform="translate(-14,-294) scale(1,1)"><path d="M 837 852 L 837 919" fill="none" stroke="#000000" stroke-dasharray="3" stroke-miterlimit="10"/></g><g transform="translate(-14,-294) scale(1,1)"><path d="M 828.580964487968 898.6746502847517 L 837 919 L 845.419035512032 898.6746502847517" fill="#FFFFFF" stroke="none"/></g><g transform="translate(-14,-294) scale(1,1)"><path d="M 828.580964487968 898.6746502847517 L 837 919 L 845.419035512032 898.6746502847517 L 828.580964487968 898.6746502847517" fill="none" stroke="#000000" stroke-miterlimit="10"/></g><g transform="translate(-14,-294) scale(1,1)"><g><path fill="none" stroke="none"/><text fill="#000000" font-family="Arial" font-size="13px" font-style="normal" font-weight="normal" stroke="none" text-decoration="none" x="849.13134765625" y="891">-twist</text></g></g><g transform="translate(-14,-294) scale(1,1)"><rect fill="#C0C0C0" height="87" opacity="0.2" stroke="none" width="343.05810546875" x="679" y="1207"/></g><g transform="translate(-14,-294) scale(1,1)"><rect fill="#ffffff" height="87" stroke="none" width="343.05810546875" x="672" y="1200"/></g><g transform="translate(-14,-294) scale(1,1)"><path d="M 672 1200 L 1015.05810546875 1200 L 1015.05810546875 1287 L 672 1287 L 672 1200 Z Z" fill="none" stroke="#000000" stroke-miterlimit="10"/></g><g transform="translate(-14,-294) scale(1,1)"><path d="M 672 1240 L 1015.05810546875 1240" fill="none" stroke="#000000" stroke-miterlimit="10"/></g><g transform="translate(-14,-294) scale(1,1)"><path d="M 672 1250 L 1015.05810546875 1250" fill="none" stroke="#000000" stroke-miterlimit="10"/></g><g transform="translate(-14,-294) scale(1,1)"><g><path fill="none" stroke="none"/><text fill="#000000" font-family="Arial" font-size="13px" font-style="normal" font-weight="bold" stroke="none" text-decoration="none" x="803.78955078125" y="1218">RosMessage</text></g></g><g transform="translate(-14,-294) scale(1,1)"><g><path fill="none" stroke="none"/><text fill="#000000" font-family="Arial" font-size="13px" font-style="normal" font-weight="normal" stroke="none" text-decoration="none" x="808.864501953125" y="1233">(from msgs)</text></g></g><g transform="translate(-14,-294) scale(1,1)"><g><path fill="none" stroke="none"/><text fill="#000000" font-family="Arial" font-size="13px" font-style="normal" font-weight="normal" stroke="none" text-decoration="none" x="677" y="1266">+fromJson(json: String, widgetType: String): RosMessage</text></g></g><g transform="translate(-14,-294) scale(1,1)"><g><path fill="none" stroke="none"/><text fill="#000000" font-family="Arial" font-size="13px" font-style="normal" font-weight="normal" stroke="none" text-decoration="none" x="677" y="1281">+toJson(message: RosMessage): String</text></g></g><g transform="translate(-14,-294) scale(1,1)"><path d="M 839 1066 L 842 1199" fill="none" stroke="#000000" stroke-miterlimit="10"/></g><g transform="translate(-14,-294) scale(1,1)"><path d="M 833.1247554871832 1178.869673752328 L 842 1199 L 849.958544617525 1178.489964223072" fill="#FFFFFF" stroke="none"/></g><g transform="translate(-14,-294) scale(1,1)"><path d="M 833.1247554871832 1178.869673752328 L 842 1199 L 849.958544617525 1178.489964223072 L 833.1247554871832 1178.869673752328" fill="none" stroke="#000000" stroke-miterlimit="10"/></g></g></svg>