<?xml version="1.0" encoding="UTF-8" standalone="no"?><svg xmlns="http://www.w3.org/2000/svg" xmlns:xlink="http://www.w3.org/1999/xlink" height="702" version="1.1" width="1294.17724609375"><defs/><g><g transform="translate(-62,-102) scale(1,1)"><path d="M 88.40935031960227 369.68 C 88.40935031960227 364.886167936 92.29519264454773 361 97.088623046875 361 C 101.88205344920227 361 105.76789577414773 364.886167936 105.76789577414773 369.68 C 105.76789577414773 374.473832064 101.88205344920227 378.36 97.088623046875 378.36 C 92.29519264454773 378.36 88.40935031960227 374.473832064 88.40935031960227 369.68 Z" fill="#ffffff" stroke="none"/></g><g transform="translate(-62,-102) scale(1,1)"><path d="M 88.40935031960227 369.68 C 88.40935031960227 364.886167936 92.29519264454773 361 97.088623046875 361 C 101.88205344920227 361 105.76789577414773 364.886167936 105.76789577414773 369.68 C 105.76789577414773 374.473832064 101.88205344920227 378.36 97.088623046875 378.36 C 92.29519264454773 378.36 88.40935031960227 374.473832064 88.40935031960227 369.68 Z" fill="none" stroke="#000000" stroke-miterlimit="10"/></g><g transform="translate(-62,-102) scale(1,1)"><path d="M 97.088623046875 378.36 L 97.088623046875 395.64" fill="none" stroke="#000000" stroke-miterlimit="10"/></g><g transform="translate(-62,-102) scale(1,1)"><path d="M 87.89880486505682 384.84 L 106.27844122869318 384.84" fill="none" stroke="#000000" stroke-miterlimit="10"/></g><g transform="translate(-62,-102) scale(1,1)"><path d="M 97.088623046875 395.64 L 84.32498668323863 413" fill="none" stroke="#000000" stroke-miterlimit="10"/></g><g transform="translate(-62,-102) scale(1,1)"><path d="M 97.088623046875 395.64 L 109.85225941051137 413" fill="none" stroke="#000000" stroke-miterlimit="10"/></g><g transform="translate(-62,-102) scale(1,1)"><g><path fill="none" stroke="none"/><text fill="#000000" font-family="Arial" font-size="13px" font-style="normal" font-weight="bold" stroke="none" text-decoration="none" x="77.588623046875" y="432.5">사용자</text></g></g><g transform="translate(-62,-102) scale(1,1)"><path d="M 263 392 C 263 382.6111584 291.8776304 375 327.5 375 C 363.1223696 375 392 382.6111584 392 392 C 392 401.3888416 363.1223696 409 327.5 409 C 291.8776304 409 263 401.3888416 263 392 Z" fill="#C0C0C0" opacity="0.2" stroke="none"/></g><g transform="translate(-62,-102) scale(1,1)"><path d="M 256 385 C 256 375.6111584 284.8776304 368 320.5 368 C 356.1223696 368 385 375.6111584 385 385 C 385 394.3888416 356.1223696 402 320.5 402 C 284.8776304 402 256 394.3888416 256 385 Z" fill="#ffffff" stroke="none"/></g><g transform="translate(-62,-102) scale(1,1)"><path d="M 256 385 C 256 375.6111584 284.8776304 368 320.5 368 C 356.1223696 368 385 375.6111584 385 385 C 385 394.3888416 356.1223696 402 320.5 402 C 284.8776304 402 256 394.3888416 256 385 Z" fill="none" stroke="#000000" stroke-miterlimit="10"/></g><g transform="translate(-62,-102) scale(1,1)"><g><path fill="none" stroke="none"/><text fill="#000000" font-family="Arial" font-size="13px" font-style="normal" font-weight="bold" stroke="none" text-decoration="none" x="279.694091796875" y="391">주행경로 설정</text></g></g><g transform="translate(-62,-102) scale(1,1)"><path d="M 123 397 L 255 389" fill="none" stroke="#000000" stroke-miterlimit="10"/></g><g transform="translate(-62,-102) scale(1,1)"><path d="M 263 208 C 263 198.6111584 291.8776304 191 327.5 191 C 363.1223696 191 392 198.6111584 392 208 C 392 217.3888416 363.1223696 225 327.5 225 C 291.8776304 225 263 217.3888416 263 208 Z" fill="#C0C0C0" opacity="0.2" stroke="none"/></g><g transform="translate(-62,-102) scale(1,1)"><path d="M 256 201 C 256 191.6111584 284.8776304 184 320.5 184 C 356.1223696 184 385 191.6111584 385 201 C 385 210.3888416 356.1223696 218 320.5 218 C 284.8776304 218 256 210.3888416 256 201 Z" fill="#ffffff" stroke="none"/></g><g transform="translate(-62,-102) scale(1,1)"><path d="M 256 201 C 256 191.6111584 284.8776304 184 320.5 184 C 356.1223696 184 385 191.6111584 385 201 C 385 210.3888416 356.1223696 218 320.5 218 C 284.8776304 218 256 210.3888416 256 201 Z" fill="none" stroke="#000000" stroke-miterlimit="10"/></g><g transform="translate(-62,-102) scale(1,1)"><g><path fill="none" stroke="none"/><text fill="#000000" font-family="Arial" font-size="13px" font-style="normal" font-weight="bold" stroke="none" text-decoration="none" x="279.694091796875" y="207">주행경로 관리</text></g></g><g transform="translate(-62,-102) scale(1,1)"><path d="M 320 367 L 320 219" fill="none" stroke="#000000" stroke-dasharray="3" stroke-miterlimit="10"/></g><g transform="translate(-62,-102) scale(1,1)"><path d="M 324.209517756016 229.16267485762415 L 320 219 L 315.790482243984 229.16267485762415" fill="none" stroke="#000000" stroke-miterlimit="10"/></g><g transform="translate(-62,-102) scale(1,1)"><g><path fill="none" stroke="none"/><text fill="#000000" font-family="Arial" font-size="13px" font-style="normal" font-weight="normal" stroke="none" text-decoration="none" x="290.5" y="307">«extend»</text></g></g><g transform="translate(-62,-102) scale(1,1)"><path d="M 423 136 C 423 126.6111584 451.8776304 119 487.5 119 C 523.1223696 119 552 126.6111584 552 136 C 552 145.3888416 523.1223696 153 487.5 153 C 451.8776304 153 423 145.3888416 423 136 Z" fill="#C0C0C0" opacity="0.2" stroke="none"/></g><g transform="translate(-62,-102) scale(1,1)"><path d="M 416 129 C 416 119.6111584 444.8776304 112 480.5 112 C 516.1223696 112 545 119.6111584 545 129 C 545 138.3888416 516.1223696 146 480.5 146 C 444.8776304 146 416 138.3888416 416 129 Z" fill="#ffffff" stroke="none"/></g><g transform="translate(-62,-102) scale(1,1)"><path d="M 416 129 C 416 119.6111584 444.8776304 112 480.5 112 C 516.1223696 112 545 119.6111584 545 129 C 545 138.3888416 516.1223696 146 480.5 146 C 444.8776304 146 416 138.3888416 416 129 Z" fill="none" stroke="#000000" stroke-miterlimit="10"/></g><g transform="translate(-62,-102) scale(1,1)"><g><path fill="none" stroke="none"/><text fill="#000000" font-family="Arial" font-size="13px" font-style="normal" font-weight="bold" stroke="none" text-decoration="none" x="439.694091796875" y="135">주행경로 저장</text></g></g><g transform="translate(-62,-102) scale(1,1)"><path d="M 423 208 C 423 198.6111584 451.8776304 191 487.5 191 C 523.1223696 191 552 198.6111584 552 208 C 552 217.3888416 523.1223696 225 487.5 225 C 451.8776304 225 423 217.3888416 423 208 Z" fill="#C0C0C0" opacity="0.2" stroke="none"/></g><g transform="translate(-62,-102) scale(1,1)"><path d="M 416 201 C 416 191.6111584 444.8776304 184 480.5 184 C 516.1223696 184 545 191.6111584 545 201 C 545 210.3888416 516.1223696 218 480.5 218 C 444.8776304 218 416 210.3888416 416 201 Z" fill="#ffffff" stroke="none"/></g><g transform="translate(-62,-102) scale(1,1)"><path d="M 416 201 C 416 191.6111584 444.8776304 184 480.5 184 C 516.1223696 184 545 191.6111584 545 201 C 545 210.3888416 516.1223696 218 480.5 218 C 444.8776304 218 416 210.3888416 416 201 Z" fill="none" stroke="#000000" stroke-miterlimit="10"/></g><g transform="translate(-62,-102) scale(1,1)"><g><path fill="none" stroke="none"/><text fill="#000000" font-family="Arial" font-size="13px" font-style="normal" font-weight="bold" stroke="none" text-decoration="none" x="439.694091796875" y="207">주행경로 수정</text></g></g><g transform="translate(-62,-102) scale(1,1)"><path d="M 423 280 C 423 270.6111584 451.8776304 263 487.5 263 C 523.1223696 263 552 270.6111584 552 280 C 552 289.3888416 523.1223696 297 487.5 297 C 451.8776304 297 423 289.3888416 423 280 Z" fill="#C0C0C0" opacity="0.2" stroke="none"/></g><g transform="translate(-62,-102) scale(1,1)"><path d="M 416 273 C 416 263.6111584 444.8776304 256 480.5 256 C 516.1223696 256 545 263.6111584 545 273 C 545 282.3888416 516.1223696 290 480.5 290 C 444.8776304 290 416 282.3888416 416 273 Z" fill="#ffffff" stroke="none"/></g><g transform="translate(-62,-102) scale(1,1)"><path d="M 416 273 C 416 263.6111584 444.8776304 256 480.5 256 C 516.1223696 256 545 263.6111584 545 273 C 545 282.3888416 516.1223696 290 480.5 290 C 444.8776304 290 416 282.3888416 416 273 Z" fill="none" stroke="#000000" stroke-miterlimit="10"/></g><g transform="translate(-62,-102) scale(1,1)"><g><path fill="none" stroke="none"/><text fill="#000000" font-family="Arial" font-size="13px" font-style="normal" font-weight="bold" stroke="none" text-decoration="none" x="439.694091796875" y="279">주행경로 삭제</text></g></g><g transform="translate(-62,-102) scale(1,1)"><path d="M 440 147 L 360 183" fill="none" stroke="#000000" stroke-miterlimit="10"/></g><g transform="translate(-62,-102) scale(1,1)"><path d="M 375.080248714225 166.98169488625228 L 360 183 L 381.98999829685437 182.33669395876203" fill="#FFFFFF" stroke="none"/></g><g transform="translate(-62,-102) scale(1,1)"><path d="M 375.080248714225 166.98169488625228 L 360 183 L 381.98999829685437 182.33669395876203 L 375.080248714225 166.98169488625228" fill="none" stroke="#000000" stroke-miterlimit="10"/></g><g transform="translate(-62,-102) scale(1,1)"><path d="M 415 201 L 386 201" fill="none" stroke="#000000" stroke-miterlimit="10"/></g><g transform="translate(-62,-102) scale(1,1)"><path d="M 406.3253497152483 192.58096448796803 L 386 201 L 406.3253497152483 209.41903551203197" fill="#FFFFFF" stroke="none"/></g><g transform="translate(-62,-102) scale(1,1)"><path d="M 406.3253497152483 192.58096448796803 L 386 201 L 406.3253497152483 209.41903551203197 L 406.3253497152483 192.58096448796803" fill="none" stroke="#000000" stroke-miterlimit="10"/></g><g transform="translate(-62,-102) scale(1,1)"><path d="M 440 255 L 360 219" fill="none" stroke="#000000" stroke-miterlimit="10"/></g><g transform="translate(-62,-102) scale(1,1)"><path d="M 381.98999829685437 219.66330604123797 L 360 219 L 375.080248714225 235.01830511374772" fill="#FFFFFF" stroke="none"/></g><g transform="translate(-62,-102) scale(1,1)"><path d="M 381.98999829685437 219.66330604123797 L 360 219 L 375.080248714225 235.01830511374772 L 381.98999829685437 219.66330604123797" fill="none" stroke="#000000" stroke-miterlimit="10"/></g><g transform="translate(-62,-102) scale(1,1)"><path d="M 615 208 C 615 198.6111584 639.8481936 191 670.5 191 C 701.1518064 191 726 198.6111584 726 208 C 726 217.3888416 701.1518064 225 670.5 225 C 639.8481936 225 615 217.3888416 615 208 Z" fill="#C0C0C0" opacity="0.2" stroke="none"/></g><g transform="translate(-62,-102) scale(1,1)"><path d="M 608 201 C 608 191.6111584 632.8481936 184 663.5 184 C 694.1518064 184 719 191.6111584 719 201 C 719 210.3888416 694.1518064 218 663.5 218 C 632.8481936 218 608 210.3888416 608 201 Z" fill="#ffffff" stroke="none"/></g><g transform="translate(-62,-102) scale(1,1)"><path d="M 608 201 C 608 191.6111584 632.8481936 184 663.5 184 C 694.1518064 184 719 191.6111584 719 201 C 719 210.3888416 694.1518064 218 663.5 218 C 632.8481936 218 608 210.3888416 608 201 Z" fill="none" stroke="#000000" stroke-miterlimit="10"/></g><g transform="translate(-62,-102) scale(1,1)"><g><path fill="none" stroke="none"/><text fill="#000000" font-family="Arial" font-size="13px" font-style="normal" font-weight="bold" stroke="none" text-decoration="none" x="629.194091796875" y="207">경유지 관리</text></g></g><g transform="translate(-62,-102) scale(1,1)"><path d="M 607 201 L 546 201" fill="none" stroke="#000000" stroke-miterlimit="10"/></g><g transform="translate(-62,-102) scale(1,1)"><path d="M 566.3253497152483 192.58096448796803 L 546 201 L 566.3253497152483 209.41903551203197" fill="#FFFFFF" stroke="none"/></g><g transform="translate(-62,-102) scale(1,1)"><path d="M 566.3253497152483 192.58096448796803 L 546 201 L 566.3253497152483 209.41903551203197 L 566.3253497152483 192.58096448796803" fill="none" stroke="#000000" stroke-miterlimit="10"/></g><g transform="translate(-62,-102) scale(1,1)"><path d="M 783 144 C 783 134.6111584 807.8481936 127 838.5 127 C 869.1518064 127 894 134.6111584 894 144 C 894 153.3888416 869.1518064 161 838.5 161 C 807.8481936 161 783 153.3888416 783 144 Z" fill="#C0C0C0" opacity="0.2" stroke="none"/></g><g transform="translate(-62,-102) scale(1,1)"><path d="M 776 137 C 776 127.6111584 800.8481936 120 831.5 120 C 862.1518064 120 887 127.6111584 887 137 C 887 146.3888416 862.1518064 154 831.5 154 C 800.8481936 154 776 146.3888416 776 137 Z" fill="#ffffff" stroke="none"/></g><g transform="translate(-62,-102) scale(1,1)"><path d="M 776 137 C 776 127.6111584 800.8481936 120 831.5 120 C 862.1518064 120 887 127.6111584 887 137 C 887 146.3888416 862.1518064 154 831.5 154 C 800.8481936 154 776 146.3888416 776 137 Z" fill="none" stroke="#000000" stroke-miterlimit="10"/></g><g transform="translate(-62,-102) scale(1,1)"><g><path fill="none" stroke="none"/><text fill="#000000" font-family="Arial" font-size="13px" font-style="normal" font-weight="bold" stroke="none" text-decoration="none" x="797.194091796875" y="143">경유지 저장</text></g></g><g transform="translate(-62,-102) scale(1,1)"><path d="M 783 208 C 783 198.6111584 807.8481936 191 838.5 191 C 869.1518064 191 894 198.6111584 894 208 C 894 217.3888416 869.1518064 225 838.5 225 C 807.8481936 225 783 217.3888416 783 208 Z" fill="#C0C0C0" opacity="0.2" stroke="none"/></g><g transform="translate(-62,-102) scale(1,1)"><path d="M 776 201 C 776 191.6111584 800.8481936 184 831.5 184 C 862.1518064 184 887 191.6111584 887 201 C 887 210.3888416 862.1518064 218 831.5 218 C 800.8481936 218 776 210.3888416 776 201 Z" fill="#ffffff" stroke="none"/></g><g transform="translate(-62,-102) scale(1,1)"><path d="M 776 201 C 776 191.6111584 800.8481936 184 831.5 184 C 862.1518064 184 887 191.6111584 887 201 C 887 210.3888416 862.1518064 218 831.5 218 C 800.8481936 218 776 210.3888416 776 201 Z" fill="none" stroke="#000000" stroke-miterlimit="10"/></g><g transform="translate(-62,-102) scale(1,1)"><g><path fill="none" stroke="none"/><text fill="#000000" font-family="Arial" font-size="13px" font-style="normal" font-weight="bold" stroke="none" text-decoration="none" x="797.194091796875" y="207">경유지 수정</text></g></g><g transform="translate(-62,-102) scale(1,1)"><path d="M 783 272 C 783 262.6111584 807.8481936 255 838.5 255 C 869.1518064 255 894 262.6111584 894 272 C 894 281.3888416 869.1518064 289 838.5 289 C 807.8481936 289 783 281.3888416 783 272 Z" fill="#C0C0C0" opacity="0.2" stroke="none"/></g><g transform="translate(-62,-102) scale(1,1)"><path d="M 776 265 C 776 255.6111584 800.8481936 248 831.5 248 C 862.1518064 248 887 255.6111584 887 265 C 887 274.3888416 862.1518064 282 831.5 282 C 800.8481936 282 776 274.3888416 776 265 Z" fill="#ffffff" stroke="none"/></g><g transform="translate(-62,-102) scale(1,1)"><path d="M 776 265 C 776 255.6111584 800.8481936 248 831.5 248 C 862.1518064 248 887 255.6111584 887 265 C 887 274.3888416 862.1518064 282 831.5 282 C 800.8481936 282 776 274.3888416 776 265 Z" fill="none" stroke="#000000" stroke-miterlimit="10"/></g><g transform="translate(-62,-102) scale(1,1)"><g><path fill="none" stroke="none"/><text fill="#000000" font-family="Arial" font-size="13px" font-style="normal" font-weight="bold" stroke="none" text-decoration="none" x="797.194091796875" y="271">경유지 삭제</text></g></g><g transform="translate(-62,-102) scale(1,1)"><path d="M 775 201 L 720 201" fill="none" stroke="#000000" stroke-miterlimit="10"/></g><g transform="translate(-62,-102) scale(1,1)"><path d="M 740.3253497152483 192.58096448796803 L 720 201 L 740.3253497152483 209.41903551203197" fill="#FFFFFF" stroke="none"/></g><g transform="translate(-62,-102) scale(1,1)"><path d="M 740.3253497152483 192.58096448796803 L 720 201 L 740.3253497152483 209.41903551203197 L 740.3253497152483 192.58096448796803" fill="none" stroke="#000000" stroke-miterlimit="10"/></g><g transform="translate(-62,-102) scale(1,1)"><path d="M 784 155 L 710 183" fill="none" stroke="#000000" stroke-miterlimit="10"/></g><g transform="translate(-62,-102) scale(1,1)"><path d="M 726.0305901310928 167.93281114311935 L 710 183 L 731.9894504022366 183.68122757399922" fill="#FFFFFF" stroke="none"/></g><g transform="translate(-62,-102) scale(1,1)"><path d="M 726.0305901310928 167.93281114311935 L 710 183 L 731.9894504022366 183.68122757399922 L 726.0305901310928 167.93281114311935" fill="none" stroke="#000000" stroke-miterlimit="10"/></g><g transform="translate(-62,-102) scale(1,1)"><path d="M 784 247 L 710 219" fill="none" stroke="#000000" stroke-miterlimit="10"/></g><g transform="translate(-62,-102) scale(1,1)"><path d="M 731.9894504022366 218.31877242600078 L 710 219 L 726.0305901310928 234.06718885688065" fill="#FFFFFF" stroke="none"/></g><g transform="translate(-62,-102) scale(1,1)"><path d="M 731.9894504022366 218.31877242600078 L 710 219 L 726.0305901310928 234.06718885688065 L 731.9894504022366 218.31877242600078" fill="none" stroke="#000000" stroke-miterlimit="10"/></g><g transform="translate(-62,-102) scale(1,1)"><path d="M 431 464 C 431 454.6111584 459.8776304 447 495.5 447 C 531.1223696 447 560 454.6111584 560 464 C 560 473.3888416 531.1223696 481 495.5 481 C 459.8776304 481 431 473.3888416 431 464 Z" fill="#C0C0C0" opacity="0.2" stroke="none"/></g><g transform="translate(-62,-102) scale(1,1)"><path d="M 424 457 C 424 447.6111584 452.8776304 440 488.5 440 C 524.1223696 440 553 447.6111584 553 457 C 553 466.3888416 524.1223696 474 488.5 474 C 452.8776304 474 424 466.3888416 424 457 Z" fill="#ffffff" stroke="none"/></g><g transform="translate(-62,-102) scale(1,1)"><path d="M 424 457 C 424 447.6111584 452.8776304 440 488.5 440 C 524.1223696 440 553 447.6111584 553 457 C 553 466.3888416 524.1223696 474 488.5 474 C 452.8776304 474 424 466.3888416 424 457 Z" fill="none" stroke="#000000" stroke-miterlimit="10"/></g><g transform="translate(-62,-102) scale(1,1)"><g><path fill="none" stroke="none"/><text fill="#000000" font-family="Arial" font-size="13px" font-style="normal" font-weight="bold" stroke="none" text-decoration="none" x="447.694091796875" y="463">주행경로 등록</text></g></g><g transform="translate(-62,-102) scale(1,1)"><path d="M 362 403 L 446 439" fill="none" stroke="#000000" stroke-dasharray="3" stroke-miterlimit="10"/></g><g transform="translate(-62,-102) scale(1,1)"><path d="M 435.00081763111893 438.86588357261144 L 446 439 L 438.31723819473166 431.1275689241817" fill="none" stroke="#000000" stroke-miterlimit="10"/></g><g transform="translate(-62,-102) scale(1,1)"><g><path fill="none" stroke="none"/><text fill="#000000" font-family="Arial" font-size="13px" font-style="normal" font-weight="normal" stroke="none" text-decoration="none" x="375.5" y="427">«extend»</text></g></g><g transform="translate(-62,-102) scale(1,1)"><path d="M 359 544 C 359 534.6111584 383.8481936 527 414.5 527 C 445.1518064 527 470 534.6111584 470 544 C 470 553.3888416 445.1518064 561 414.5 561 C 383.8481936 561 359 553.3888416 359 544 Z" fill="#C0C0C0" opacity="0.2" stroke="none"/></g><g transform="translate(-62,-102) scale(1,1)"><path d="M 352 537 C 352 527.6111584 376.8481936 520 407.5 520 C 438.1518064 520 463 527.6111584 463 537 C 463 546.3888416 438.1518064 554 407.5 554 C 376.8481936 554 352 546.3888416 352 537 Z" fill="#ffffff" stroke="none"/></g><g transform="translate(-62,-102) scale(1,1)"><path d="M 352 537 C 352 527.6111584 376.8481936 520 407.5 520 C 438.1518064 520 463 527.6111584 463 537 C 463 546.3888416 438.1518064 554 407.5 554 C 376.8481936 554 352 546.3888416 352 537 Z" fill="none" stroke="#000000" stroke-miterlimit="10"/></g><g transform="translate(-62,-102) scale(1,1)"><g><path fill="none" stroke="none"/><text fill="#000000" font-family="Arial" font-size="13px" font-style="normal" font-weight="bold" stroke="none" text-decoration="none" x="373.194091796875" y="543">경유지 추가</text></g></g><g transform="translate(-62,-102) scale(1,1)"><path d="M 470 475 L 425 519" fill="none" stroke="#000000" stroke-dasharray="3" stroke-miterlimit="10"/></g><g transform="translate(-62,-102) scale(1,1)"><path d="M 429.3234322130852 508.88526155064517 L 425 519 L 435.20932838334 514.9049280884058" fill="none" stroke="#000000" stroke-miterlimit="10"/></g><g transform="translate(-62,-102) scale(1,1)"><g><path fill="none" stroke="none"/><text fill="#000000" font-family="Arial" font-size="13px" font-style="normal" font-weight="normal" stroke="none" text-decoration="none" x="427.5" y="504">«extend»</text></g></g><g transform="translate(-62,-102) scale(1,1)"><path d="M 631 392 C 631 382.6111584 659.8776304 375 695.5 375 C 731.1223696 375 760 382.6111584 760 392 C 760 401.3888416 731.1223696 409 695.5 409 C 659.8776304 409 631 401.3888416 631 392 Z" fill="#C0C0C0" opacity="0.2" stroke="none"/></g><g transform="translate(-62,-102) scale(1,1)"><path d="M 624 385 C 624 375.6111584 652.8776304 368 688.5 368 C 724.1223696 368 753 375.6111584 753 385 C 753 394.3888416 724.1223696 402 688.5 402 C 652.8776304 402 624 394.3888416 624 385 Z" fill="#ffffff" stroke="none"/></g><g transform="translate(-62,-102) scale(1,1)"><path d="M 624 385 C 624 375.6111584 652.8776304 368 688.5 368 C 724.1223696 368 753 375.6111584 753 385 C 753 394.3888416 724.1223696 402 688.5 402 C 652.8776304 402 624 394.3888416 624 385 Z" fill="none" stroke="#000000" stroke-miterlimit="10"/></g><g transform="translate(-62,-102) scale(1,1)"><g><path fill="none" stroke="none"/><text fill="#000000" font-family="Arial" font-size="13px" font-style="normal" font-weight="bold" stroke="none" text-decoration="none" x="647.694091796875" y="391">자율주행 제어</text></g></g><g transform="translate(-62,-102) scale(1,1)"><path d="M 386 385 L 623 385" fill="none" stroke="#000000" stroke-dasharray="3" stroke-miterlimit="10"/></g><g transform="translate(-62,-102) scale(1,1)"><path d="M 612.8373251423759 389.209517756016 L 623 385 L 612.8373251423758 380.790482243984" fill="none" stroke="#000000" stroke-miterlimit="10"/></g><g transform="translate(-62,-102) scale(1,1)"><g><path fill="none" stroke="none"/><text fill="#000000" font-family="Arial" font-size="13px" font-style="normal" font-weight="normal" stroke="none" text-decoration="none" x="479.5" y="379">«extend»</text></g></g><g transform="translate(-62,-102) scale(1,1)"><path d="M 671 488 C 671 478.6111584 699.8776304 471 735.5 471 C 771.1223696 471 800 478.6111584 800 488 C 800 497.3888416 771.1223696 505 735.5 505 C 699.8776304 505 671 497.3888416 671 488 Z" fill="#C0C0C0" opacity="0.2" stroke="none"/></g><g transform="translate(-62,-102) scale(1,1)"><path d="M 664 481 C 664 471.6111584 692.8776304 464 728.5 464 C 764.1223696 464 793 471.6111584 793 481 C 793 490.3888416 764.1223696 498 728.5 498 C 692.8776304 498 664 490.3888416 664 481 Z" fill="#ffffff" stroke="none"/></g><g transform="translate(-62,-102) scale(1,1)"><path d="M 664 481 C 664 471.6111584 692.8776304 464 728.5 464 C 764.1223696 464 793 471.6111584 793 481 C 793 490.3888416 764.1223696 498 728.5 498 C 692.8776304 498 664 490.3888416 664 481 Z" fill="none" stroke="#000000" stroke-miterlimit="10"/></g><g transform="translate(-62,-102) scale(1,1)"><g><path fill="none" stroke="none"/><text fill="#000000" font-family="Arial" font-size="13px" font-style="normal" font-weight="bold" stroke="none" text-decoration="none" x="687.694091796875" y="487">자율주행 시작</text></g></g><g transform="translate(-62,-102) scale(1,1)"><path d="M 663 475 L 554 464" fill="none" stroke="#000000" stroke-dasharray="3" stroke-miterlimit="10"/></g><g transform="translate(-62,-102) scale(1,1)"><path d="M 564.5339836867862 460.83216356379916 L 554 464 L 563.6886499235625 469.2086526721076" fill="none" stroke="#000000" stroke-miterlimit="10"/></g><g transform="translate(-62,-102) scale(1,1)"><g><path fill="none" stroke="none"/><text fill="#000000" font-family="Arial" font-size="13px" font-style="normal" font-weight="normal" stroke="none" text-decoration="none" x="577.534912109375" y="503">«include»</text></g></g><g transform="translate(-62,-102) scale(1,1)"><path d="M 495 544 C 495 534.6111584 519.8481936 527 550.5 527 C 581.1518064 527 606 534.6111584 606 544 C 606 553.3888416 581.1518064 561 550.5 561 C 519.8481936 561 495 553.3888416 495 544 Z" fill="#C0C0C0" opacity="0.2" stroke="none"/></g><g transform="translate(-62,-102) scale(1,1)"><path d="M 488 537 C 488 527.6111584 512.8481936 520 543.5 520 C 574.1518064 520 599 527.6111584 599 537 C 599 546.3888416 574.1518064 554 543.5 554 C 512.8481936 554 488 546.3888416 488 537 Z" fill="#ffffff" stroke="none"/></g><g transform="translate(-62,-102) scale(1,1)"><path d="M 488 537 C 488 527.6111584 512.8481936 520 543.5 520 C 574.1518064 520 599 527.6111584 599 537 C 599 546.3888416 574.1518064 554 543.5 554 C 512.8481936 554 488 546.3888416 488 537 Z" fill="none" stroke="#000000" stroke-miterlimit="10"/></g><g transform="translate(-62,-102) scale(1,1)"><g><path fill="none" stroke="none"/><text fill="#000000" font-family="Arial" font-size="13px" font-style="normal" font-weight="bold" stroke="none" text-decoration="none" x="509.194091796875" y="543">경유지 제거</text></g></g><g transform="translate(-62,-102) scale(1,1)"><path d="M 500 475 L 531 519" fill="none" stroke="#000000" stroke-dasharray="3" stroke-miterlimit="10"/></g><g transform="translate(-62,-102) scale(1,1)"><path d="M 521.7055646992854 513.116678451688 L 531 519 L 528.5879783342774 508.2677052088528" fill="none" stroke="#000000" stroke-miterlimit="10"/></g><g transform="translate(-62,-102) scale(1,1)"><g><path fill="none" stroke="none"/><text fill="#000000" font-family="Arial" font-size="13px" font-style="normal" font-weight="normal" stroke="none" text-decoration="none" x="495.5" y="499">«extend»</text></g></g><g transform="translate(-62,-102) scale(1,1)"><path d="M 959 264 C 959 254.6111584 983.8481936 247 1014.5 247 C 1045.1518064 247 1070 254.6111584 1070 264 C 1070 273.3888416 1045.1518064 281 1014.5 281 C 983.8481936 281 959 273.3888416 959 264 Z" fill="#C0C0C0" opacity="0.2" stroke="none"/></g><g transform="translate(-62,-102) scale(1,1)"><path d="M 952 257 C 952 247.6111584 976.8481936 240 1007.5 240 C 1038.1518064 240 1063 247.6111584 1063 257 C 1063 266.3888416 1038.1518064 274 1007.5 274 C 976.8481936 274 952 266.3888416 952 257 Z" fill="#ffffff" stroke="none"/></g><g transform="translate(-62,-102) scale(1,1)"><path d="M 952 257 C 952 247.6111584 976.8481936 240 1007.5 240 C 1038.1518064 240 1063 247.6111584 1063 257 C 1063 266.3888416 1038.1518064 274 1007.5 274 C 976.8481936 274 952 266.3888416 952 257 Z" fill="none" stroke="#000000" stroke-miterlimit="10"/></g><g transform="translate(-62,-102) scale(1,1)"><g><path fill="none" stroke="none"/><text fill="#000000" font-family="Arial" font-size="13px" font-style="normal" font-weight="bold" stroke="none" text-decoration="none" x="973.194091796875" y="263">목적지 추가</text></g></g><g transform="translate(-62,-102) scale(1,1)"><path d="M 959 152 C 959 142.6111584 983.8481936 135 1014.5 135 C 1045.1518064 135 1070 142.6111584 1070 152 C 1070 161.3888416 1045.1518064 169 1014.5 169 C 983.8481936 169 959 161.3888416 959 152 Z" fill="#C0C0C0" opacity="0.2" stroke="none"/></g><g transform="translate(-62,-102) scale(1,1)"><path d="M 952 145 C 952 135.6111584 976.8481936 128 1007.5 128 C 1038.1518064 128 1063 135.6111584 1063 145 C 1063 154.3888416 1038.1518064 162 1007.5 162 C 976.8481936 162 952 154.3888416 952 145 Z" fill="#ffffff" stroke="none"/></g><g transform="translate(-62,-102) scale(1,1)"><path d="M 952 145 C 952 135.6111584 976.8481936 128 1007.5 128 C 1038.1518064 128 1063 135.6111584 1063 145 C 1063 154.3888416 1038.1518064 162 1007.5 162 C 976.8481936 162 952 154.3888416 952 145 Z" fill="none" stroke="#000000" stroke-miterlimit="10"/></g><g transform="translate(-62,-102) scale(1,1)"><g><path fill="none" stroke="none"/><text fill="#000000" font-family="Arial" font-size="13px" font-style="normal" font-weight="bold" stroke="none" text-decoration="none" x="973.194091796875" y="151">목적지 제거</text></g></g><g transform="translate(-62,-102) scale(1,1)"><path d="M 959 208 C 959 198.6111584 983.8481936 191 1014.5 191 C 1045.1518064 191 1070 198.6111584 1070 208 C 1070 217.3888416 1045.1518064 225 1014.5 225 C 983.8481936 225 959 217.3888416 959 208 Z" fill="#C0C0C0" opacity="0.2" stroke="none"/></g><g transform="translate(-62,-102) scale(1,1)"><path d="M 952 201 C 952 191.6111584 976.8481936 184 1007.5 184 C 1038.1518064 184 1063 191.6111584 1063 201 C 1063 210.3888416 1038.1518064 218 1007.5 218 C 976.8481936 218 952 210.3888416 952 201 Z" fill="#ffffff" stroke="none"/></g><g transform="translate(-62,-102) scale(1,1)"><path d="M 952 201 C 952 191.6111584 976.8481936 184 1007.5 184 C 1038.1518064 184 1063 191.6111584 1063 201 C 1063 210.3888416 1038.1518064 218 1007.5 218 C 976.8481936 218 952 210.3888416 952 201 Z" fill="none" stroke="#000000" stroke-miterlimit="10"/></g><g transform="translate(-62,-102) scale(1,1)"><g><path fill="none" stroke="none"/><text fill="#000000" font-family="Arial" font-size="13px" font-style="normal" font-weight="bold" stroke="none" text-decoration="none" x="973.194091796875" y="207">목적지 수정</text></g></g><g transform="translate(-62,-102) scale(1,1)"><path d="M 951 163 L 888 183" fill="none" stroke="#000000" stroke-miterlimit="10"/></g><g transform="translate(-62,-102) scale(1,1)"><path d="M 904.8251595907012 168.82558626441872 L 888 183 L 909.920008512904 184.87436036935742" fill="#FFFFFF" stroke="none"/></g><g transform="translate(-62,-102) scale(1,1)"><path d="M 904.8251595907012 168.82558626441872 L 888 183 L 909.920008512904 184.87436036935742 L 904.8251595907012 168.82558626441872" fill="none" stroke="#000000" stroke-miterlimit="10"/></g><g transform="translate(-62,-102) scale(1,1)"><path d="M 951 201 L 888 201" fill="none" stroke="#000000" stroke-miterlimit="10"/></g><g transform="translate(-62,-102) scale(1,1)"><path d="M 908.3253497152483 192.58096448796803 L 888 201 L 908.3253497152483 209.41903551203197" fill="#FFFFFF" stroke="none"/></g><g transform="translate(-62,-102) scale(1,1)"><path d="M 908.3253497152483 192.58096448796803 L 888 201 L 908.3253497152483 209.41903551203197 L 908.3253497152483 192.58096448796803" fill="none" stroke="#000000" stroke-miterlimit="10"/></g><g transform="translate(-62,-102) scale(1,1)"><path d="M 951 239 L 888 219" fill="none" stroke="#000000" stroke-miterlimit="10"/></g><g transform="translate(-62,-102) scale(1,1)"><path d="M 909.920008512904 217.12563963064258 L 888 219 L 904.8251595907012 233.17441373558128" fill="#FFFFFF" stroke="none"/></g><g transform="translate(-62,-102) scale(1,1)"><path d="M 909.920008512904 217.12563963064258 L 888 219 L 904.8251595907012 233.17441373558128 L 909.920008512904 217.12563963064258" fill="none" stroke="#000000" stroke-miterlimit="10"/></g><g transform="translate(-62,-102) scale(1,1)"><path d="M 696 403 L 721 463" fill="none" stroke="#000000" stroke-dasharray="3" stroke-miterlimit="10"/></g><g transform="translate(-62,-102) scale(1,1)"><path d="M 713.2055702030528 455.2381146529685 L 721 463 L 720.9769875987747 452.0000240714177" fill="none" stroke="#000000" stroke-miterlimit="10"/></g><g transform="translate(-62,-102) scale(1,1)"><g><path fill="none" stroke="none"/><text fill="#000000" font-family="Arial" font-size="13px" font-style="normal" font-weight="normal" stroke="none" text-decoration="none" x="679.5" y="426">«extend»</text></g></g><g transform="translate(-62,-102) scale(1,1)"><path d="M 823 488 C 823 478.6111584 851.8776304 471 887.5 471 C 923.1223696 471 952 478.6111584 952 488 C 952 497.3888416 923.1223696 505 887.5 505 C 851.8776304 505 823 497.3888416 823 488 Z" fill="#C0C0C0" opacity="0.2" stroke="none"/></g><g transform="translate(-62,-102) scale(1,1)"><path d="M 816 481 C 816 471.6111584 844.8776304 464 880.5 464 C 916.1223696 464 945 471.6111584 945 481 C 945 490.3888416 916.1223696 498 880.5 498 C 844.8776304 498 816 490.3888416 816 481 Z" fill="#ffffff" stroke="none"/></g><g transform="translate(-62,-102) scale(1,1)"><path d="M 816 481 C 816 471.6111584 844.8776304 464 880.5 464 C 916.1223696 464 945 471.6111584 945 481 C 945 490.3888416 916.1223696 498 880.5 498 C 844.8776304 498 816 490.3888416 816 481 Z" fill="none" stroke="#000000" stroke-miterlimit="10"/></g><g transform="translate(-62,-102) scale(1,1)"><g><path fill="none" stroke="none"/><text fill="#000000" font-family="Arial" font-size="13px" font-style="normal" font-weight="bold" stroke="none" text-decoration="none" x="839.694091796875" y="487">자율주행 정지</text></g></g><g transform="translate(-62,-102) scale(1,1)"><path d="M 724 403 L 844 463" fill="none" stroke="#000000" stroke-dasharray="3" stroke-miterlimit="10"/></g><g transform="translate(-62,-102) scale(1,1)"><path d="M 833.0276737030609 462.22022077900255 L 844 463 L 836.7927808450386 454.6900064950472" fill="none" stroke="#000000" stroke-miterlimit="10"/></g><g transform="translate(-62,-102) scale(1,1)"><g><path fill="none" stroke="none"/><text fill="#000000" font-family="Arial" font-size="13px" font-style="normal" font-weight="normal" stroke="none" text-decoration="none" x="751.5" y="434">«extend»</text></g></g><g transform="translate(-62,-102) scale(1,1)"><path d="M 279 664 C 279 654.6111584 301.6096176 647 329.5 647 C 357.3903824 647 380 654.6111584 380 664 C 380 673.3888416 357.3903824 681 329.5 681 C 301.6096176 681 279 673.3888416 279 664 Z" fill="#C0C0C0" opacity="0.2" stroke="none"/></g><g transform="translate(-62,-102) scale(1,1)"><path d="M 272 657 C 272 647.6111584 294.6096176 640 322.5 640 C 350.3903824 640 373 647.6111584 373 657 C 373 666.3888416 350.3903824 674 322.5 674 C 294.6096176 674 272 666.3888416 272 657 Z" fill="#ffffff" stroke="none"/></g><g transform="translate(-62,-102) scale(1,1)"><path d="M 272 657 C 272 647.6111584 294.6096176 640 322.5 640 C 350.3903824 640 373 647.6111584 373 657 C 373 666.3888416 350.3903824 674 322.5 674 C 294.6096176 674 272 666.3888416 272 657 Z" fill="none" stroke="#000000" stroke-miterlimit="10"/></g><g transform="translate(-62,-102) scale(1,1)"><g><path fill="none" stroke="none"/><text fill="#000000" font-family="Arial" font-size="13px" font-style="normal" font-weight="bold" stroke="none" text-decoration="none" x="294.694091796875" y="663">차량 연결</text></g></g><g transform="translate(-62,-102) scale(1,1)"><path d="M 123 429 L 306 639" fill="none" stroke="#000000" stroke-miterlimit="10"/></g><g transform="translate(-62,-102) scale(1,1)"><path d="M 519 664 C 519 654.6111584 553.0263552 647 595 647 C 636.9736448 647 671 654.6111584 671 664 C 671 673.3888416 636.9736448 681 595 681 C 553.0263552 681 519 673.3888416 519 664 Z" fill="#C0C0C0" opacity="0.2" stroke="none"/></g><g transform="translate(-62,-102) scale(1,1)"><path d="M 512 657 C 512 647.6111584 546.0263552 640 588 640 C 629.9736448 640 664 647.6111584 664 657 C 664 666.3888416 629.9736448 674 588 674 C 546.0263552 674 512 666.3888416 512 657 Z" fill="#ffffff" stroke="none"/></g><g transform="translate(-62,-102) scale(1,1)"><path d="M 512 657 C 512 647.6111584 546.0263552 640 588 640 C 629.9736448 640 664 647.6111584 664 657 C 664 666.3888416 629.9736448 674 588 674 C 546.0263552 674 512 666.3888416 512 657 Z" fill="none" stroke="#000000" stroke-miterlimit="10"/></g><g transform="translate(-62,-102) scale(1,1)"><g><path fill="none" stroke="none"/><text fill="#000000" font-family="Arial" font-size="13px" font-style="normal" font-weight="bold" stroke="none" text-decoration="none" x="539.976806640625" y="663">MQTT 서버 연결</text></g></g><g transform="translate(-62,-102) scale(1,1)"><path d="M 511 657 L 374 657" fill="none" stroke="#000000" stroke-miterlimit="10"/></g><g transform="translate(-62,-102) scale(1,1)"><path d="M 394.3253497152483 648.580964487968 L 374 657 L 394.3253497152483 665.419035512032" fill="#FFFFFF" stroke="none"/></g><g transform="translate(-62,-102) scale(1,1)"><path d="M 394.3253497152483 648.580964487968 L 374 657 L 394.3253497152483 665.419035512032 L 394.3253497152483 648.580964487968" fill="none" stroke="#000000" stroke-miterlimit="10"/></g><g transform="translate(-62,-102) scale(1,1)"><path d="M 519 784 C 519 774.6111584 553.0263552 767 595 767 C 636.9736448 767 671 774.6111584 671 784 C 671 793.3888416 636.9736448 801 595 801 C 553.0263552 801 519 793.3888416 519 784 Z" fill="#C0C0C0" opacity="0.2" stroke="none"/></g><g transform="translate(-62,-102) scale(1,1)"><path d="M 512 777 C 512 767.6111584 546.0263552 760 588 760 C 629.9736448 760 664 767.6111584 664 777 C 664 786.3888416 629.9736448 794 588 794 C 546.0263552 794 512 786.3888416 512 777 Z" fill="#ffffff" stroke="none"/></g><g transform="translate(-62,-102) scale(1,1)"><path d="M 512 777 C 512 767.6111584 546.0263552 760 588 760 C 629.9736448 760 664 767.6111584 664 777 C 664 786.3888416 629.9736448 794 588 794 C 546.0263552 794 512 786.3888416 512 777 Z" fill="none" stroke="#000000" stroke-miterlimit="10"/></g><g transform="translate(-62,-102) scale(1,1)"><g><path fill="none" stroke="none"/><text fill="#000000" font-family="Arial" font-size="13px" font-style="normal" font-weight="bold" stroke="none" text-decoration="none" x="539.976806640625" y="783">MQTT 서버 주소</text></g></g><g transform="translate(-62,-102) scale(1,1)"><path d="M 588 675 L 588 759" fill="none" stroke="#000000" stroke-dasharray="3" stroke-miterlimit="10"/></g><g transform="translate(-62,-102) scale(1,1)"><path d="M 583.790482243984 748.8373251423759 L 588 759 L 592.209517756016 748.8373251423759" fill="none" stroke="#000000" stroke-miterlimit="10"/></g><g transform="translate(-62,-102) scale(1,1)"><g><path fill="none" stroke="none"/><text fill="#000000" font-family="Arial" font-size="13px" font-style="normal" font-weight="normal" stroke="none" text-decoration="none" x="561.534912109375" y="721">«include»</text></g></g><g transform="translate(-62,-102) scale(1,1)"><path d="M 887 664 C 887 654.6111584 914.3106272 647 948 647 C 981.6893728 647 1009 654.6111584 1009 664 C 1009 673.3888416 981.6893728 681 948 681 C 914.3106272 681 887 673.3888416 887 664 Z" fill="#C0C0C0" opacity="0.2" stroke="none"/></g><g transform="translate(-62,-102) scale(1,1)"><path d="M 880 657 C 880 647.6111584 907.3106272 640 941 640 C 974.6893728 640 1002 647.6111584 1002 657 C 1002 666.3888416 974.6893728 674 941 674 C 907.3106272 674 880 666.3888416 880 657 Z" fill="#ffffff" stroke="none"/></g><g transform="translate(-62,-102) scale(1,1)"><path d="M 880 657 C 880 647.6111584 907.3106272 640 941 640 C 974.6893728 640 1002 647.6111584 1002 657 C 1002 666.3888416 974.6893728 674 941 674 C 907.3106272 674 880 666.3888416 880 657 Z" fill="none" stroke="#000000" stroke-miterlimit="10"/></g><g transform="translate(-62,-102) scale(1,1)"><g><path fill="none" stroke="none"/><text fill="#000000" font-family="Arial" font-size="13px" font-style="normal" font-weight="bold" stroke="none" text-decoration="none" x="902.726806640625" y="662.5">MQTT Client</text></g></g><g transform="translate(-62,-102) scale(1,1)"><path d="M 665 657 L 879 657" fill="none" stroke="#000000" stroke-dasharray="3" stroke-miterlimit="10"/></g><g transform="translate(-62,-102) scale(1,1)"><path d="M 868.8373251423759 661.209517756016 L 879 657 L 868.8373251423758 652.790482243984" fill="none" stroke="#000000" stroke-miterlimit="10"/></g><g transform="translate(-62,-102) scale(1,1)"><g><path fill="none" stroke="none"/><text fill="#000000" font-family="Arial" font-size="13px" font-style="normal" font-weight="normal" stroke="none" text-decoration="none" x="745.5" y="651">«extend»</text></g></g><g transform="translate(-62,-102) scale(1,1)"><path d="M 1312.4093503196023 385.68 C 1312.4093503196023 380.886167936 1316.2951926445478 377 1321.088623046875 377 C 1325.8820534492022 377 1329.7678957741477 380.886167936 1329.7678957741477 385.68 C 1329.7678957741477 390.473832064 1325.8820534492022 394.36 1321.088623046875 394.36 C 1316.2951926445478 394.36 1312.4093503196023 390.473832064 1312.4093503196023 385.68 Z" fill="#ffffff" stroke="none"/></g><g transform="translate(-62,-102) scale(1,1)"><path d="M 1312.4093503196023 385.68 C 1312.4093503196023 380.886167936 1316.2951926445478 377 1321.088623046875 377 C 1325.8820534492022 377 1329.7678957741477 380.886167936 1329.7678957741477 385.68 C 1329.7678957741477 390.473832064 1325.8820534492022 394.36 1321.088623046875 394.36 C 1316.2951926445478 394.36 1312.4093503196023 390.473832064 1312.4093503196023 385.68 Z" fill="none" stroke="#000000" stroke-miterlimit="10"/></g><g transform="translate(-62,-102) scale(1,1)"><path d="M 1321.088623046875 394.36 L 1321.088623046875 411.64" fill="none" stroke="#000000" stroke-miterlimit="10"/></g><g transform="translate(-62,-102) scale(1,1)"><path d="M 1311.8988048650567 400.84 L 1330.2784412286933 400.84" fill="none" stroke="#000000" stroke-miterlimit="10"/></g><g transform="translate(-62,-102) scale(1,1)"><path d="M 1321.088623046875 411.64 L 1308.3249866832386 429" fill="none" stroke="#000000" stroke-miterlimit="10"/></g><g transform="translate(-62,-102) scale(1,1)"><path d="M 1321.088623046875 411.64 L 1333.8522594105114 429" fill="none" stroke="#000000" stroke-miterlimit="10"/></g><g transform="translate(-62,-102) scale(1,1)"><g><path fill="none" stroke="none"/><text fill="#000000" font-family="Arial" font-size="13px" font-style="normal" font-weight="bold" stroke="none" text-decoration="none" x="1307.003173828125" y="448">UGV</text></g></g><g transform="translate(-62,-102) scale(1,1)"><path d="M 754 385 Q 1088 384 951 639" fill="none" stroke="#000000" stroke-dasharray="3" stroke-miterlimit="10"/></g><g transform="translate(-62,-102) scale(1,1)"><path d="M 952.1015210504033 628.0552911699069 L 951 639 L 959.517970836231 632.0398151724888" fill="none" stroke="#000000" stroke-miterlimit="10"/></g><g transform="translate(-62,-102) scale(1,1)"><g><path fill="none" stroke="none"/><text fill="#000000" font-family="Arial" font-size="13px" font-style="normal" font-weight="normal" stroke="none" text-decoration="none" x="959.534912109375" y="507">«include»</text></g></g><g transform="translate(-62,-102) scale(1,1)"><path d="M 1111 424 C 1111 414.6111584 1140.101488 407 1176 407 C 1211.898512 407 1241 414.6111584 1241 424 C 1241 433.3888416 1211.898512 441 1176 441 C 1140.101488 441 1111 433.3888416 1111 424 Z" fill="#C0C0C0" opacity="0.2" stroke="none"/></g><g transform="translate(-62,-102) scale(1,1)"><path d="M 1104 417 C 1104 407.6111584 1133.101488 400 1169 400 C 1204.898512 400 1234 407.6111584 1234 417 C 1234 426.3888416 1204.898512 434 1169 434 C 1133.101488 434 1104 426.3888416 1104 417 Z" fill="#ffffff" stroke="none"/></g><g transform="translate(-62,-102) scale(1,1)"><path d="M 1104 417 C 1104 407.6111584 1133.101488 400 1169 400 C 1204.898512 400 1234 407.6111584 1234 417 C 1234 426.3888416 1204.898512 434 1169 434 C 1133.101488 434 1104 426.3888416 1104 417 Z" fill="none" stroke="#000000" stroke-miterlimit="10"/></g><g transform="translate(-62,-102) scale(1,1)"><g><path fill="none" stroke="none"/><text fill="#000000" font-family="Arial" font-size="13px" font-style="normal" font-weight="bold" stroke="none" text-decoration="none" x="1127.8291015625" y="422.5">MQTT Broker</text></g></g><g transform="translate(-62,-102) scale(1,1)"><path d="M 958 639 L 1152 435" fill="none" stroke="#000000" stroke-miterlimit="10"/></g><g transform="translate(-62,-102) scale(1,1)"><path d="M 1235 416 L 1295 415" fill="none" stroke="#000000" stroke-miterlimit="10"/></g></g></svg>