<?xml version="1.0" encoding="UTF-8" standalone="no"?><svg xmlns="http://www.w3.org/2000/svg" xmlns:xlink="http://www.w3.org/1999/xlink" height="1022" version="1.1" width="1223"><defs/><g><g transform="translate(-230,-22) scale(1,1)"><path d="M 272.40935031960225 521.6800000000001 C 272.40935031960225 516.8861679360001 276.29519264454774 513 281.088623046875 513 C 285.88205344920226 513 289.76789577414775 516.8861679360001 289.76789577414775 521.6800000000001 C 289.76789577414775 526.473832064 285.88205344920226 530.36 281.088623046875 530.36 C 276.29519264454774 530.36 272.40935031960225 526.473832064 272.40935031960225 521.6800000000001 Z" fill="#ffffff" stroke="none"/></g><g transform="translate(-230,-22) scale(1,1)"><path d="M 272.40935031960225 521.6800000000001 C 272.40935031960225 516.8861679360001 276.29519264454774 513 281.088623046875 513 C 285.88205344920226 513 289.76789577414775 516.8861679360001 289.76789577414775 521.6800000000001 C 289.76789577414775 526.473832064 285.88205344920226 530.36 281.088623046875 530.36 C 276.29519264454774 530.36 272.40935031960225 526.473832064 272.40935031960225 521.6800000000001 Z" fill="none" stroke="#000000" stroke-miterlimit="10"/></g><g transform="translate(-230,-22) scale(1,1)"><path d="M 281.088623046875 530.36 L 281.088623046875 547.64" fill="none" stroke="#000000" stroke-miterlimit="10"/></g><g transform="translate(-230,-22) scale(1,1)"><path d="M 271.89880486505683 536.84 L 290.27844122869317 536.84" fill="none" stroke="#000000" stroke-miterlimit="10"/></g><g transform="translate(-230,-22) scale(1,1)"><path d="M 281.088623046875 547.64 L 268.32498668323865 565" fill="none" stroke="#000000" stroke-miterlimit="10"/></g><g transform="translate(-230,-22) scale(1,1)"><path d="M 281.088623046875 547.64 L 293.85225941051135 565" fill="none" stroke="#000000" stroke-miterlimit="10"/></g><g transform="translate(-230,-22) scale(1,1)"><g><path fill="none" stroke="none"/><text fill="#000000" font-family="Arial" font-size="13px" font-style="normal" font-weight="bold" stroke="none" text-decoration="none" x="261.588623046875" y="584.5">사용자</text></g></g><g transform="translate(-230,-22) scale(1,1)"><path d="M 391 440 C 391 430.6111584 413.6096176 423 441.5 423 C 469.3903824 423 492 430.6111584 492 440 C 492 449.3888416 469.3903824 457 441.5 457 C 413.6096176 457 391 449.3888416 391 440 Z" fill="#C0C0C0" opacity="0.2" stroke="none"/></g><g transform="translate(-230,-22) scale(1,1)"><path d="M 384 433 C 384 423.6111584 406.6096176 416 434.5 416 C 462.3903824 416 485 423.6111584 485 433 C 485 442.3888416 462.3903824 450 434.5 450 C 406.6096176 450 384 442.3888416 384 433 Z" fill="#ffffff" stroke="none"/></g><g transform="translate(-230,-22) scale(1,1)"><path d="M 384 433 C 384 423.6111584 406.6096176 416 434.5 416 C 462.3903824 416 485 423.6111584 485 433 C 485 442.3888416 462.3903824 450 434.5 450 C 406.6096176 450 384 442.3888416 384 433 Z" fill="none" stroke="#000000" stroke-miterlimit="10"/></g><g transform="translate(-230,-22) scale(1,1)"><g><path fill="none" stroke="none"/><text fill="#000000" font-family="Arial" font-size="13px" font-style="normal" font-weight="bold" stroke="none" text-decoration="none" x="421.5" y="439">메뉴</text></g></g><g transform="translate(-230,-22) scale(1,1)"><path d="M 303 336 C 303 326.6111584 325.6096176 319 353.5 319 C 381.3903824 319 404 326.6111584 404 336 C 404 345.3888416 381.3903824 353 353.5 353 C 325.6096176 353 303 345.3888416 303 336 Z" fill="#C0C0C0" opacity="0.2" stroke="none"/></g><g transform="translate(-230,-22) scale(1,1)"><path d="M 296 329 C 296 319.6111584 318.6096176 312 346.5 312 C 374.3903824 312 397 319.6111584 397 329 C 397 338.3888416 374.3903824 346 346.5 346 C 318.6096176 346 296 338.3888416 296 329 Z" fill="#ffffff" stroke="none"/></g><g transform="translate(-230,-22) scale(1,1)"><path d="M 296 329 C 296 319.6111584 318.6096176 312 346.5 312 C 374.3903824 312 397 319.6111584 397 329 C 397 338.3888416 374.3903824 346 346.5 346 C 318.6096176 346 296 338.3888416 296 329 Z" fill="none" stroke="#000000" stroke-miterlimit="10"/></g><g transform="translate(-230,-22) scale(1,1)"><g><path fill="none" stroke="none"/><text fill="#000000" font-family="Arial" font-size="13px" font-style="normal" font-weight="bold" stroke="none" text-decoration="none" x="318.694091796875" y="335">메뉴 선택</text></g></g><g transform="translate(-230,-22) scale(1,1)"><path d="M 419 415 L 361 347" fill="none" stroke="#000000" stroke-dasharray="3" stroke-miterlimit="10"/></g><g transform="translate(-230,-22) scale(1,1)"><path d="M 370.7977773877293 352.0003558133898 L 361 347 L 364.3922893274261 357.4638603354131" fill="none" stroke="#000000" stroke-miterlimit="10"/></g><g transform="translate(-230,-22) scale(1,1)"><g><path fill="none" stroke="none"/><text fill="#000000" font-family="Arial" font-size="13px" font-style="normal" font-weight="normal" stroke="none" text-decoration="none" x="319.534912109375" y="405">«include»</text></g></g><g transform="translate(-230,-22) scale(1,1)"><path d="M 648 320 C 648 310.6111584 670.6096176 303 698.5 303 C 726.3903824 303 749 310.6111584 749 320 C 749 329.3888416 726.3903824 337 698.5 337 C 670.6096176 337 648 329.3888416 648 320 Z" fill="#C0C0C0" opacity="0.2" stroke="none"/></g><g transform="translate(-230,-22) scale(1,1)"><path d="M 641 313 C 641 303.6111584 663.6096176 296 691.5 296 C 719.3903824 296 742 303.6111584 742 313 C 742 322.3888416 719.3903824 330 691.5 330 C 663.6096176 330 641 322.3888416 641 313 Z" fill="#ffffff" stroke="none"/></g><g transform="translate(-230,-22) scale(1,1)"><path d="M 641 313 C 641 303.6111584 663.6096176 296 691.5 296 C 719.3903824 296 742 303.6111584 742 313 C 742 322.3888416 719.3903824 330 691.5 330 C 663.6096176 330 641 322.3888416 641 313 Z" fill="none" stroke="#000000" stroke-miterlimit="10"/></g><g transform="translate(-230,-22) scale(1,1)"><g><path fill="none" stroke="none"/><text fill="#000000" font-family="Arial" font-size="13px" font-style="normal" font-weight="bold" stroke="none" text-decoration="none" x="665.5" y="319">대시보드</text></g></g><g transform="translate(-230,-22) scale(1,1)"><path d="M 648 400 C 648 390.6111584 670.6096176 383 698.5 383 C 726.3903824 383 749 390.6111584 749 400 C 749 409.3888416 726.3903824 417 698.5 417 C 670.6096176 417 648 409.3888416 648 400 Z" fill="#C0C0C0" opacity="0.2" stroke="none"/></g><g transform="translate(-230,-22) scale(1,1)"><path d="M 641 393 C 641 383.6111584 663.6096176 376 691.5 376 C 719.3903824 376 742 383.6111584 742 393 C 742 402.3888416 719.3903824 410 691.5 410 C 663.6096176 410 641 402.3888416 641 393 Z" fill="#ffffff" stroke="none"/></g><g transform="translate(-230,-22) scale(1,1)"><path d="M 641 393 C 641 383.6111584 663.6096176 376 691.5 376 C 719.3903824 376 742 383.6111584 742 393 C 742 402.3888416 719.3903824 410 691.5 410 C 663.6096176 410 641 402.3888416 641 393 Z" fill="none" stroke="#000000" stroke-miterlimit="10"/></g><g transform="translate(-230,-22) scale(1,1)"><g><path fill="none" stroke="none"/><text fill="#000000" font-family="Arial" font-size="13px" font-style="normal" font-weight="bold" stroke="none" text-decoration="none" x="665.5" y="399">수동제어</text></g></g><g transform="translate(-230,-22) scale(1,1)"><path d="M 634 480 C 634 470.6111584 662.8776304 463 698.5 463 C 734.1223696 463 763 470.6111584 763 480 C 763 489.3888416 734.1223696 497 698.5 497 C 662.8776304 497 634 489.3888416 634 480 Z" fill="#C0C0C0" opacity="0.2" stroke="none"/></g><g transform="translate(-230,-22) scale(1,1)"><path d="M 627 473 C 627 463.6111584 655.8776304 456 691.5 456 C 727.1223696 456 756 463.6111584 756 473 C 756 482.3888416 727.1223696 490 691.5 490 C 655.8776304 490 627 482.3888416 627 473 Z" fill="#ffffff" stroke="none"/></g><g transform="translate(-230,-22) scale(1,1)"><path d="M 627 473 C 627 463.6111584 655.8776304 456 691.5 456 C 727.1223696 456 756 463.6111584 756 473 C 756 482.3888416 727.1223696 490 691.5 490 C 655.8776304 490 627 482.3888416 627 473 Z" fill="none" stroke="#000000" stroke-miterlimit="10"/></g><g transform="translate(-230,-22) scale(1,1)"><g><path fill="none" stroke="none"/><text fill="#000000" font-family="Arial" font-size="13px" font-style="normal" font-weight="bold" stroke="none" text-decoration="none" x="650.694091796875" y="479">주행경로 설정</text></g></g><g transform="translate(-230,-22) scale(1,1)"><path d="M 648 544 C 648 534.6111584 670.6096176 527 698.5 527 C 726.3903824 527 749 534.6111584 749 544 C 749 553.3888416 726.3903824 561 698.5 561 C 670.6096176 561 648 553.3888416 648 544 Z" fill="#C0C0C0" opacity="0.2" stroke="none"/></g><g transform="translate(-230,-22) scale(1,1)"><path d="M 641 537 C 641 527.6111584 663.6096176 520 691.5 520 C 719.3903824 520 742 527.6111584 742 537 C 742 546.3888416 719.3903824 554 691.5 554 C 663.6096176 554 641 546.3888416 641 537 Z" fill="#ffffff" stroke="none"/></g><g transform="translate(-230,-22) scale(1,1)"><path d="M 641 537 C 641 527.6111584 663.6096176 520 691.5 520 C 719.3903824 520 742 527.6111584 742 537 C 742 546.3888416 719.3903824 554 691.5 554 C 663.6096176 554 641 546.3888416 641 537 Z" fill="none" stroke="#000000" stroke-miterlimit="10"/></g><g transform="translate(-230,-22) scale(1,1)"><g><path fill="none" stroke="none"/><text fill="#000000" font-family="Arial" font-size="13px" font-style="normal" font-weight="bold" stroke="none" text-decoration="none" x="665.5" y="543">환경설정</text></g></g><g transform="translate(-230,-22) scale(1,1)"><path d="M 473 415 L 652 331" fill="none" stroke="#000000" stroke-dasharray="3" stroke-miterlimit="10"/></g><g transform="translate(-230,-22) scale(1,1)"><path d="M 644.5882659501706 339.12811161184436 L 652 331 L 641.0116697540382 331.50655543199065" fill="none" stroke="#000000" stroke-miterlimit="10"/></g><g transform="translate(-230,-22) scale(1,1)"><g><path fill="none" stroke="none"/><text fill="#000000" font-family="Arial" font-size="13px" font-style="normal" font-weight="normal" stroke="none" text-decoration="none" x="535.5" y="378">«extend»</text></g></g><g transform="translate(-230,-22) scale(1,1)"><path d="M 486 425 L 640 401" fill="none" stroke="#000000" stroke-dasharray="3" stroke-miterlimit="10"/></g><g transform="translate(-230,-22) scale(1,1)"><path d="M 630.6067385130684 406.72421511109843 L 640 401 L 629.3103297831041 398.40559242716046" fill="none" stroke="#000000" stroke-miterlimit="10"/></g><g transform="translate(-230,-22) scale(1,1)"><g><path fill="none" stroke="none"/><text fill="#000000" font-family="Arial" font-size="13px" font-style="normal" font-weight="normal" stroke="none" text-decoration="none" x="535.5" y="419">«extend»</text></g></g><g transform="translate(-230,-22) scale(1,1)"><path d="M 486 441 L 626 463" fill="none" stroke="#000000" stroke-dasharray="3" stroke-miterlimit="10"/></g><g transform="translate(-230,-22) scale(1,1)"><path d="M 615.3070495566344 465.58085466768836 L 626 463 L 616.6140023938251 457.2638820673839" fill="none" stroke="#000000" stroke-miterlimit="10"/></g><g transform="translate(-230,-22) scale(1,1)"><g><path fill="none" stroke="none"/><text fill="#000000" font-family="Arial" font-size="13px" font-style="normal" font-weight="normal" stroke="none" text-decoration="none" x="533.5" y="451">«extend»</text></g></g><g transform="translate(-230,-22) scale(1,1)"><path d="M 478 451 L 647 519" fill="none" stroke="#000000" stroke-dasharray="3" stroke-miterlimit="10"/></g><g transform="translate(-230,-22) scale(1,1)"><path d="M 636.0005670623744 519.1116917663819 L 647 519 L 639.1432483751869 511.30120438600966" fill="none" stroke="#000000" stroke-miterlimit="10"/></g><g transform="translate(-230,-22) scale(1,1)"><g><path fill="none" stroke="none"/><text fill="#000000" font-family="Arial" font-size="13px" font-style="normal" font-weight="normal" stroke="none" text-decoration="none" x="527.5" y="491">«extend»</text></g></g><g transform="translate(-230,-22) scale(1,1)"><path d="M 307 531 L 411 451" fill="none" stroke="#000000" stroke-miterlimit="10"/></g><g transform="translate(-230,-22) scale(1,1)"><path d="M 911 208 C 911 198.6111584 940.7730607999999 191 977.5 191 C 1014.2269392000001 191 1044 198.6111584 1044 208 C 1044 217.3888416 1014.2269392000001 225 977.5 225 C 940.7730607999999 225 911 217.3888416 911 208 Z" fill="#C0C0C0" opacity="0.2" stroke="none"/></g><g transform="translate(-230,-22) scale(1,1)"><path d="M 904 201 C 904 191.6111584 933.7730607999999 184 970.5 184 C 1007.2269392000001 184 1037 191.6111584 1037 201 C 1037 210.3888416 1007.2269392000001 218 970.5 218 C 933.7730607999999 218 904 210.3888416 904 201 Z" fill="#ffffff" stroke="none"/></g><g transform="translate(-230,-22) scale(1,1)"><path d="M 904 201 C 904 191.6111584 933.7730607999999 184 970.5 184 C 1007.2269392000001 184 1037 191.6111584 1037 201 C 1037 210.3888416 1007.2269392000001 218 970.5 218 C 933.7730607999999 218 904 210.3888416 904 201 Z" fill="none" stroke="#000000" stroke-miterlimit="10"/></g><g transform="translate(-230,-22) scale(1,1)"><g><path fill="none" stroke="none"/><text fill="#000000" font-family="Arial" font-size="13px" font-style="normal" font-weight="bold" stroke="none" text-decoration="none" x="942.694091796875" y="207">지도 정보</text></g></g><g transform="translate(-230,-22) scale(1,1)"><path d="M 736 295 L 925 219" fill="none" stroke="#000000" stroke-dasharray="3" stroke-miterlimit="10"/></g><g transform="translate(-230,-22) scale(1,1)"><path d="M 917.1415888427713 226.69710166776713 L 925 219 L 914.0005913966112 218.885936966132" fill="none" stroke="#000000" stroke-miterlimit="10"/></g><g transform="translate(-230,-22) scale(1,1)"><g><path fill="none" stroke="none"/><text fill="#000000" font-family="Arial" font-size="13px" font-style="normal" font-weight="normal" stroke="none" text-decoration="none" x="782.5" y="266">«extend»</text></g></g><g transform="translate(-230,-22) scale(1,1)"><path d="M 717 375 L 944 219" fill="none" stroke="#000000" stroke-dasharray="3" stroke-miterlimit="10"/></g><g transform="translate(-230,-22) scale(1,1)"><path d="M 938.0086179184111 228.22514719407854 L 944 219 L 933.240288963052 221.2866172398059" fill="none" stroke="#000000" stroke-miterlimit="10"/></g><g transform="translate(-230,-22) scale(1,1)"><g><path fill="none" stroke="none"/><text fill="#000000" font-family="Arial" font-size="13px" font-style="normal" font-weight="normal" stroke="none" text-decoration="none" x="782.5" y="306">«extend»</text></g></g><g transform="translate(-230,-22) scale(1,1)"><path d="M 709 455 L 952 219" fill="none" stroke="#000000" stroke-dasharray="3" stroke-miterlimit="10"/></g><g transform="translate(-230,-22) scale(1,1)"><path d="M 947.6424324442887 229.1000794550049 L 952 219 L 941.7768997587211 223.06056910503494" fill="none" stroke="#000000" stroke-miterlimit="10"/></g><g transform="translate(-230,-22) scale(1,1)"><g><path fill="none" stroke="none"/><text fill="#000000" font-family="Arial" font-size="13px" font-style="normal" font-weight="normal" stroke="none" text-decoration="none" x="864.5" y="300">«extend»</text></g></g><g transform="translate(-230,-22) scale(1,1)"><path d="M 679 128 C 679 118.6111584 701.6096176 111 729.5 111 C 757.3903824 111 780 118.6111584 780 128 C 780 137.3888416 757.3903824 145 729.5 145 C 701.6096176 145 679 137.3888416 679 128 Z" fill="#C0C0C0" opacity="0.2" stroke="none"/></g><g transform="translate(-230,-22) scale(1,1)"><path d="M 672 121 C 672 111.6111584 694.6096176 104 722.5 104 C 750.3903824 104 773 111.6111584 773 121 C 773 130.3888416 750.3903824 138 722.5 138 C 694.6096176 138 672 130.3888416 672 121 Z" fill="#ffffff" stroke="none"/></g><g transform="translate(-230,-22) scale(1,1)"><path d="M 672 121 C 672 111.6111584 694.6096176 104 722.5 104 C 750.3903824 104 773 111.6111584 773 121 C 773 130.3888416 750.3903824 138 722.5 138 C 694.6096176 138 672 130.3888416 672 121 Z" fill="none" stroke="#000000" stroke-miterlimit="10"/></g><g transform="translate(-230,-22) scale(1,1)"><g><path fill="none" stroke="none"/><text fill="#000000" font-family="Arial" font-size="13px" font-style="normal" font-weight="bold" stroke="none" text-decoration="none" x="716" y="127">맵</text></g></g><g transform="translate(-230,-22) scale(1,1)"><path d="M 783 88 C 783 78.6111584 819.0410736 71 863.5 71 C 907.9589264 71 944 78.6111584 944 88 C 944 97.3888416 907.9589264 105 863.5 105 C 819.0410736 105 783 97.3888416 783 88 Z" fill="#C0C0C0" opacity="0.2" stroke="none"/></g><g transform="translate(-230,-22) scale(1,1)"><path d="M 776 81 C 776 71.6111584 812.0410736 64 856.5 64 C 900.9589264 64 937 71.6111584 937 81 C 937 90.3888416 900.9589264 98 856.5 98 C 812.0410736 98 776 90.3888416 776 81 Z" fill="#ffffff" stroke="none"/></g><g transform="translate(-230,-22) scale(1,1)"><path d="M 776 81 C 776 71.6111584 812.0410736 64 856.5 64 C 900.9589264 64 937 71.6111584 937 81 C 937 90.3888416 900.9589264 98 856.5 98 C 812.0410736 98 776 90.3888416 776 81 Z" fill="none" stroke="#000000" stroke-miterlimit="10"/></g><g transform="translate(-230,-22) scale(1,1)"><g><path fill="none" stroke="none"/><text fill="#000000" font-family="Arial" font-size="13px" font-style="normal" font-weight="bold" stroke="none" text-decoration="none" x="805.582275390625" y="87">차량 위치 및 방향</text></g></g><g transform="translate(-230,-22) scale(1,1)"><path d="M 951 56 C 951 46.6111584 975.8481936 39 1006.5 39 C 1037.1518064 39 1062 46.6111584 1062 56 C 1062 65.3888416 1037.1518064 73 1006.5 73 C 975.8481936 73 951 65.3888416 951 56 Z" fill="#C0C0C0" opacity="0.2" stroke="none"/></g><g transform="translate(-230,-22) scale(1,1)"><path d="M 944 49 C 944 39.6111584 968.8481936 32 999.5 32 C 1030.1518064 32 1055 39.6111584 1055 49 C 1055 58.3888416 1030.1518064 66 999.5 66 C 968.8481936 66 944 58.3888416 944 49 Z" fill="#ffffff" stroke="none"/></g><g transform="translate(-230,-22) scale(1,1)"><path d="M 944 49 C 944 39.6111584 968.8481936 32 999.5 32 C 1030.1518064 32 1055 39.6111584 1055 49 C 1055 58.3888416 1030.1518064 66 999.5 66 C 968.8481936 66 944 58.3888416 944 49 Z" fill="none" stroke="#000000" stroke-miterlimit="10"/></g><g transform="translate(-230,-22) scale(1,1)"><g><path fill="none" stroke="none"/><text fill="#000000" font-family="Arial" font-size="13px" font-style="normal" font-weight="bold" stroke="none" text-decoration="none" x="965.194091796875" y="55">스캔 데이터</text></g></g><g transform="translate(-230,-22) scale(1,1)"><path d="M 1063 96 C 1063 86.6111584 1091.8776304 79 1127.5 79 C 1163.1223696 79 1192 86.6111584 1192 96 C 1192 105.3888416 1163.1223696 113 1127.5 113 C 1091.8776304 113 1063 105.3888416 1063 96 Z" fill="#C0C0C0" opacity="0.2" stroke="none"/></g><g transform="translate(-230,-22) scale(1,1)"><path d="M 1056 89 C 1056 79.6111584 1084.8776304 72 1120.5 72 C 1156.1223696 72 1185 79.6111584 1185 89 C 1185 98.3888416 1156.1223696 106 1120.5 106 C 1084.8776304 106 1056 98.3888416 1056 89 Z" fill="#ffffff" stroke="none"/></g><g transform="translate(-230,-22) scale(1,1)"><path d="M 1056 89 C 1056 79.6111584 1084.8776304 72 1120.5 72 C 1156.1223696 72 1185 79.6111584 1185 89 C 1185 98.3888416 1156.1223696 106 1120.5 106 C 1084.8776304 106 1056 98.3888416 1056 89 Z" fill="none" stroke="#000000" stroke-miterlimit="10"/></g><g transform="translate(-230,-22) scale(1,1)"><g><path fill="none" stroke="none"/><text fill="#000000" font-family="Arial" font-size="13px" font-style="normal" font-weight="bold" stroke="none" text-decoration="none" x="1079.694091796875" y="95">자율주행 경로</text></g></g><g transform="translate(-230,-22) scale(1,1)"><path d="M 1167 144 C 1167 134.6111584 1200.1309248 127 1241 127 C 1281.8690752 127 1315 134.6111584 1315 144 C 1315 153.3888416 1281.8690752 161 1241 161 C 1200.1309248 161 1167 153.3888416 1167 144 Z" fill="#C0C0C0" opacity="0.2" stroke="none"/></g><g transform="translate(-230,-22) scale(1,1)"><path d="M 1160 137 C 1160 127.6111584 1193.1309248 120 1234 120 C 1274.8690752 120 1308 127.6111584 1308 137 C 1308 146.3888416 1274.8690752 154 1234 154 C 1193.1309248 154 1160 146.3888416 1160 137 Z" fill="#ffffff" stroke="none"/></g><g transform="translate(-230,-22) scale(1,1)"><path d="M 1160 137 C 1160 127.6111584 1193.1309248 120 1234 120 C 1274.8690752 120 1308 127.6111584 1308 137 C 1308 146.3888416 1274.8690752 154 1234 154 C 1193.1309248 154 1160 146.3888416 1160 137 Z" fill="none" stroke="#000000" stroke-miterlimit="10"/></g><g transform="translate(-230,-22) scale(1,1)"><g><path fill="none" stroke="none"/><text fill="#000000" font-family="Arial" font-size="13px" font-style="normal" font-weight="bold" stroke="none" text-decoration="none" x="1186.694091796875" y="143">자율주행 목적지</text></g></g><g transform="translate(-230,-22) scale(1,1)"><path d="M 914 183 L 774 138" fill="none" stroke="#000000" stroke-dasharray="3" stroke-miterlimit="10"/></g><g transform="translate(-230,-22) scale(1,1)"><path d="M 784.9633078019668 137.10229067102193 L 774 138 L 782.3870056450609 145.11745293695128" fill="none" stroke="#000000" stroke-miterlimit="10"/></g><g transform="translate(-230,-22) scale(1,1)"><g><path fill="none" stroke="none"/><text fill="#000000" font-family="Arial" font-size="13px" font-style="normal" font-weight="normal" stroke="none" text-decoration="none" x="821.5" y="169">«extend»</text></g></g><g transform="translate(-230,-22) scale(1,1)"><path d="M 953 183 L 873 99" fill="none" stroke="#000000" stroke-dasharray="3" stroke-miterlimit="10"/></g><g transform="translate(-230,-22) scale(1,1)"><path d="M 883.0570127596144 103.45606265137198 L 873 99 L 876.9604698026258 109.26229403898024" fill="none" stroke="#000000" stroke-miterlimit="10"/></g><g transform="translate(-230,-22) scale(1,1)"><g><path fill="none" stroke="none"/><text fill="#000000" font-family="Arial" font-size="13px" font-style="normal" font-weight="normal" stroke="none" text-decoration="none" x="896.5" y="146">«extend»</text></g></g><g transform="translate(-230,-22) scale(1,1)"><path d="M 973 183 L 996 67" fill="none" stroke="#000000" stroke-dasharray="3" stroke-miterlimit="10"/></g><g transform="translate(-230,-22) scale(1,1)"><path d="M 998.1525996080336 77.78732195345508 L 996 67 L 989.8943292758894 76.14990628415063" fill="none" stroke="#000000" stroke-miterlimit="10"/></g><g transform="translate(-230,-22) scale(1,1)"><g><path fill="none" stroke="none"/><text fill="#000000" font-family="Arial" font-size="13px" font-style="normal" font-weight="normal" stroke="none" text-decoration="none" x="959.5" y="121">«extend»</text></g></g><g transform="translate(-230,-22) scale(1,1)"><path d="M 994 183 L 1096 107" fill="none" stroke="#000000" stroke-dasharray="3" stroke-miterlimit="10"/></g><g transform="translate(-230,-22) scale(1,1)"><path d="M 1090.3658337851537 116.4475484155142 L 1096 107 L 1085.3356173129519 109.69646841334838" fill="none" stroke="#000000" stroke-miterlimit="10"/></g><g transform="translate(-230,-22) scale(1,1)"><g><path fill="none" stroke="none"/><text fill="#000000" font-family="Arial" font-size="13px" font-style="normal" font-weight="normal" stroke="none" text-decoration="none" x="1014.5" y="147">«extend»</text></g></g><g transform="translate(-230,-22) scale(1,1)"><path d="M 1038 185 L 1160 155" fill="none" stroke="#000000" stroke-dasharray="3" stroke-miterlimit="10"/></g><g transform="translate(-230,-22) scale(1,1)"><path d="M 1151.1364969558922 161.5144695706628 L 1160 155 L 1149.1261312831946 153.33898250169287" fill="none" stroke="#000000" stroke-miterlimit="10"/></g><g transform="translate(-230,-22) scale(1,1)"><g><path fill="none" stroke="none"/><text fill="#000000" font-family="Arial" font-size="13px" font-style="normal" font-weight="normal" stroke="none" text-decoration="none" x="1079.5" y="169">«extend»</text></g></g><g transform="translate(-230,-22) scale(1,1)"><path d="M 919 360 C 919 350.6111584 948.7730607999999 343 985.5 343 C 1022.2269392000001 343 1052 350.6111584 1052 360 C 1052 369.3888416 1022.2269392000001 377 985.5 377 C 948.7730607999999 377 919 369.3888416 919 360 Z" fill="#C0C0C0" opacity="0.2" stroke="none"/></g><g transform="translate(-230,-22) scale(1,1)"><path d="M 912 353 C 912 343.6111584 941.7730607999999 336 978.5 336 C 1015.2269392000001 336 1045 343.6111584 1045 353 C 1045 362.3888416 1015.2269392000001 370 978.5 370 C 941.7730607999999 370 912 362.3888416 912 353 Z" fill="#ffffff" stroke="none"/></g><g transform="translate(-230,-22) scale(1,1)"><path d="M 912 353 C 912 343.6111584 941.7730607999999 336 978.5 336 C 1015.2269392000001 336 1045 343.6111584 1045 353 C 1045 362.3888416 1015.2269392000001 370 978.5 370 C 941.7730607999999 370 912 362.3888416 912 353 Z" fill="none" stroke="#000000" stroke-miterlimit="10"/></g><g transform="translate(-230,-22) scale(1,1)"><g><path fill="none" stroke="none"/><text fill="#000000" font-family="Arial" font-size="13px" font-style="normal" font-weight="bold" stroke="none" text-decoration="none" x="950.694091796875" y="359">차량 정보</text></g></g><g transform="translate(-230,-22) scale(1,1)"><path d="M 1127 352 C 1127 342.6111584 1149.6096176 335 1177.5 335 C 1205.3903824 335 1228 342.6111584 1228 352 C 1228 361.3888416 1205.3903824 369 1177.5 369 C 1149.6096176 369 1127 361.3888416 1127 352 Z" fill="#C0C0C0" opacity="0.2" stroke="none"/></g><g transform="translate(-230,-22) scale(1,1)"><path d="M 1120 345 C 1120 335.6111584 1142.6096176 328 1170.5 328 C 1198.3903824 328 1221 335.6111584 1221 345 C 1221 354.3888416 1198.3903824 362 1170.5 362 C 1142.6096176 362 1120 354.3888416 1120 345 Z" fill="#ffffff" stroke="none"/></g><g transform="translate(-230,-22) scale(1,1)"><path d="M 1120 345 C 1120 335.6111584 1142.6096176 328 1170.5 328 C 1198.3903824 328 1221 335.6111584 1221 345 C 1221 354.3888416 1198.3903824 362 1170.5 362 C 1142.6096176 362 1120 354.3888416 1120 345 Z" fill="none" stroke="#000000" stroke-miterlimit="10"/></g><g transform="translate(-230,-22) scale(1,1)"><g><path fill="none" stroke="none"/><text fill="#000000" font-family="Arial" font-size="13px" font-style="normal" font-weight="bold" stroke="none" text-decoration="none" x="1151" y="351">배터리</text></g></g><g transform="translate(-230,-22) scale(1,1)"><path d="M 1127 288 C 1127 278.6111584 1149.6096176 271 1177.5 271 C 1205.3903824 271 1228 278.6111584 1228 288 C 1228 297.3888416 1205.3903824 305 1177.5 305 C 1149.6096176 305 1127 297.3888416 1127 288 Z" fill="#C0C0C0" opacity="0.2" stroke="none"/></g><g transform="translate(-230,-22) scale(1,1)"><path d="M 1120 281 C 1120 271.6111584 1142.6096176 264 1170.5 264 C 1198.3903824 264 1221 271.6111584 1221 281 C 1221 290.3888416 1198.3903824 298 1170.5 298 C 1142.6096176 298 1120 290.3888416 1120 281 Z" fill="#ffffff" stroke="none"/></g><g transform="translate(-230,-22) scale(1,1)"><path d="M 1120 281 C 1120 271.6111584 1142.6096176 264 1170.5 264 C 1198.3903824 264 1221 271.6111584 1221 281 C 1221 290.3888416 1198.3903824 298 1170.5 298 C 1142.6096176 298 1120 290.3888416 1120 281 Z" fill="none" stroke="#000000" stroke-miterlimit="10"/></g><g transform="translate(-230,-22) scale(1,1)"><g><path fill="none" stroke="none"/><text fill="#000000" font-family="Arial" font-size="13px" font-style="normal" font-weight="bold" stroke="none" text-decoration="none" x="1142.694091796875" y="287">주행 속도</text></g></g><g transform="translate(-230,-22) scale(1,1)"><path d="M 1127 416 C 1127 406.6111584 1149.6096176 399 1177.5 399 C 1205.3903824 399 1228 406.6111584 1228 416 C 1228 425.3888416 1205.3903824 433 1177.5 433 C 1149.6096176 433 1127 425.3888416 1127 416 Z" fill="#C0C0C0" opacity="0.2" stroke="none"/></g><g transform="translate(-230,-22) scale(1,1)"><path d="M 1120 409 C 1120 399.6111584 1142.6096176 392 1170.5 392 C 1198.3903824 392 1221 399.6111584 1221 409 C 1221 418.3888416 1198.3903824 426 1170.5 426 C 1142.6096176 426 1120 418.3888416 1120 409 Z" fill="#ffffff" stroke="none"/></g><g transform="translate(-230,-22) scale(1,1)"><path d="M 1120 409 C 1120 399.6111584 1142.6096176 392 1170.5 392 C 1198.3903824 392 1221 399.6111584 1221 409 C 1221 418.3888416 1198.3903824 426 1170.5 426 C 1142.6096176 426 1120 418.3888416 1120 409 Z" fill="none" stroke="#000000" stroke-miterlimit="10"/></g><g transform="translate(-230,-22) scale(1,1)"><g><path fill="none" stroke="none"/><text fill="#000000" font-family="Arial" font-size="13px" font-style="normal" font-weight="bold" stroke="none" text-decoration="none" x="1142.694091796875" y="415">운행 시간</text></g></g><g transform="translate(-230,-22) scale(1,1)"><path d="M 1026 335 L 1122 299" fill="none" stroke="#000000" stroke-dasharray="3" stroke-miterlimit="10"/></g><g transform="translate(-230,-22) scale(1,1)"><path d="M 1113.962451370579 306.50984767020555 L 1122 299 L 1111.0063306467393 298.62685907330007" fill="none" stroke="#000000" stroke-miterlimit="10"/></g><g transform="translate(-230,-22) scale(1,1)"><g><path fill="none" stroke="none"/><text fill="#000000" font-family="Arial" font-size="13px" font-style="normal" font-weight="normal" stroke="none" text-decoration="none" x="1031.5" y="318">«extend»</text></g></g><g transform="translate(-230,-22) scale(1,1)"><path d="M 1046 350 L 1119 347" fill="none" stroke="#000000" stroke-dasharray="3" stroke-miterlimit="10"/></g><g transform="translate(-230,-22) scale(1,1)"><path d="M 1109.018744000016 351.6232595279508 L 1119 347 L 1108.6730480342533 343.2113243610519" fill="none" stroke="#000000" stroke-miterlimit="10"/></g><g transform="translate(-230,-22) scale(1,1)"><g><path fill="none" stroke="none"/><text fill="#000000" font-family="Arial" font-size="13px" font-style="normal" font-weight="normal" stroke="none" text-decoration="none" x="1054.5" y="350">«extend»</text></g></g><g transform="translate(-230,-22) scale(1,1)"><path d="M 1040 371 L 1119 394" fill="none" stroke="#000000" stroke-dasharray="3" stroke-miterlimit="10"/></g><g transform="translate(-230,-22) scale(1,1)"><path d="M 1108.0657496860952 395.20090385663156 L 1119 394 L 1110.4191501952696 387.11748471642403" fill="none" stroke="#000000" stroke-miterlimit="10"/></g><g transform="translate(-230,-22) scale(1,1)"><g><path fill="none" stroke="none"/><text fill="#000000" font-family="Arial" font-size="13px" font-style="normal" font-weight="normal" stroke="none" text-decoration="none" x="1043.5" y="384">«extend»</text></g></g><g transform="translate(-230,-22) scale(1,1)"><path d="M 743 320 L 911 344" fill="none" stroke="#000000" stroke-dasharray="3" stroke-miterlimit="10"/></g><g transform="translate(-230,-22) scale(1,1)"><path d="M 900.3441494602911 346.7299907097617 L 911 344 L 901.5347808806127 338.39557076751026" fill="none" stroke="#000000" stroke-miterlimit="10"/></g><g transform="translate(-230,-22) scale(1,1)"><g><path fill="none" stroke="none"/><text fill="#000000" font-family="Arial" font-size="13px" font-style="normal" font-weight="normal" stroke="none" text-decoration="none" x="835.5" y="341">«extend»</text></g></g><g transform="translate(-230,-22) scale(1,1)"><path d="M 919 544 C 919 534.6111584 941.6096176 527 969.5 527 C 997.3903824 527 1020 534.6111584 1020 544 C 1020 553.3888416 997.3903824 561 969.5 561 C 941.6096176 561 919 553.3888416 919 544 Z" fill="#C0C0C0" opacity="0.2" stroke="none"/></g><g transform="translate(-230,-22) scale(1,1)"><path d="M 912 537 C 912 527.6111584 934.6096176 520 962.5 520 C 990.3903824 520 1013 527.6111584 1013 537 C 1013 546.3888416 990.3903824 554 962.5 554 C 934.6096176 554 912 546.3888416 912 537 Z" fill="#ffffff" stroke="none"/></g><g transform="translate(-230,-22) scale(1,1)"><path d="M 912 537 C 912 527.6111584 934.6096176 520 962.5 520 C 990.3903824 520 1013 527.6111584 1013 537 C 1013 546.3888416 990.3903824 554 962.5 554 C 934.6096176 554 912 546.3888416 912 537 Z" fill="none" stroke="#000000" stroke-miterlimit="10"/></g><g transform="translate(-230,-22) scale(1,1)"><g><path fill="none" stroke="none"/><text fill="#000000" font-family="Arial" font-size="13px" font-style="normal" font-weight="bold" stroke="none" text-decoration="none" x="934.694091796875" y="543">차량 제어</text></g></g><g transform="translate(-230,-22) scale(1,1)"><path d="M 1087 520 C 1087 510.6111584 1113.6390544 503 1146.5 503 C 1179.3609456 503 1206 510.6111584 1206 520 C 1206 529.3888416 1179.3609456 537 1146.5 537 C 1113.6390544 537 1087 529.3888416 1087 520 Z" fill="#C0C0C0" opacity="0.2" stroke="none"/></g><g transform="translate(-230,-22) scale(1,1)"><path d="M 1080 513 C 1080 503.6111584 1106.6390544 496 1139.5 496 C 1172.3609456 496 1199 503.6111584 1199 513 C 1199 522.3888416 1172.3609456 530 1139.5 530 C 1106.6390544 530 1080 522.3888416 1080 513 Z" fill="#ffffff" stroke="none"/></g><g transform="translate(-230,-22) scale(1,1)"><path d="M 1080 513 C 1080 503.6111584 1106.6390544 496 1139.5 496 C 1172.3609456 496 1199 503.6111584 1199 513 C 1199 522.3888416 1172.3609456 530 1139.5 530 C 1106.6390544 530 1080 522.3888416 1080 513 Z" fill="none" stroke="#000000" stroke-miterlimit="10"/></g><g transform="translate(-230,-22) scale(1,1)"><g><path fill="none" stroke="none"/><text fill="#000000" font-family="Arial" font-size="13px" font-style="normal" font-weight="bold" stroke="none" text-decoration="none" x="1103.38818359375" y="519">전/후진 제어</text></g></g><g transform="translate(-230,-22) scale(1,1)"><path d="M 1207 456 C 1207 446.6111584 1253.1146656 439 1310 439 C 1366.8853344 439 1413 446.6111584 1413 456 C 1413 465.3888416 1366.8853344 473 1310 473 C 1253.1146656 473 1207 465.3888416 1207 456 Z" fill="#C0C0C0" opacity="0.2" stroke="none"/></g><g transform="translate(-230,-22) scale(1,1)"><path d="M 1200 449 C 1200 439.6111584 1246.1146656 432 1303 432 C 1359.8853344 432 1406 439.6111584 1406 449 C 1406 458.3888416 1359.8853344 466 1303 466 C 1246.1146656 466 1200 458.3888416 1200 449 Z" fill="#ffffff" stroke="none"/></g><g transform="translate(-230,-22) scale(1,1)"><path d="M 1200 449 C 1200 439.6111584 1246.1146656 432 1303 432 C 1359.8853344 432 1406 439.6111584 1406 449 C 1406 458.3888416 1359.8853344 466 1303 466 C 1246.1146656 466 1200 458.3888416 1200 449 Z" fill="none" stroke="#000000" stroke-miterlimit="10"/></g><g transform="translate(-230,-22) scale(1,1)"><g><path fill="none" stroke="none"/><text fill="#000000" font-family="Arial" font-size="13px" font-style="normal" font-weight="bold" stroke="none" text-decoration="none" x="1237.2763671875" y="455">전/후진 최대 속도 설정</text></g></g><g transform="translate(-230,-22) scale(1,1)"><path d="M 1167 568 C 1167 558.6111584 1189.6096176 551 1217.5 551 C 1245.3903824 551 1268 558.6111584 1268 568 C 1268 577.3888416 1245.3903824 585 1217.5 585 C 1189.6096176 585 1167 577.3888416 1167 568 Z" fill="#C0C0C0" opacity="0.2" stroke="none"/></g><g transform="translate(-230,-22) scale(1,1)"><path d="M 1160 561 C 1160 551.6111584 1182.6096176 544 1210.5 544 C 1238.3903824 544 1261 551.6111584 1261 561 C 1261 570.3888416 1238.3903824 578 1210.5 578 C 1182.6096176 578 1160 570.3888416 1160 561 Z" fill="#ffffff" stroke="none"/></g><g transform="translate(-230,-22) scale(1,1)"><path d="M 1160 561 C 1160 551.6111584 1182.6096176 544 1210.5 544 C 1238.3903824 544 1261 551.6111584 1261 561 C 1261 570.3888416 1238.3903824 578 1210.5 578 C 1182.6096176 578 1160 570.3888416 1160 561 Z" fill="none" stroke="#000000" stroke-miterlimit="10"/></g><g transform="translate(-230,-22) scale(1,1)"><g><path fill="none" stroke="none"/><text fill="#000000" font-family="Arial" font-size="13px" font-style="normal" font-weight="bold" stroke="none" text-decoration="none" x="1182.694091796875" y="567">회전 제어</text></g></g><g transform="translate(-230,-22) scale(1,1)"><path d="M 1271 504 C 1271 494.6111584 1311.0705104 487 1360.5 487 C 1409.9294896 487 1450 494.6111584 1450 504 C 1450 513.3888416 1409.9294896 521 1360.5 521 C 1311.0705104 521 1271 513.3888416 1271 504 Z" fill="#C0C0C0" opacity="0.2" stroke="none"/></g><g transform="translate(-230,-22) scale(1,1)"><path d="M 1264 497 C 1264 487.6111584 1304.0705104 480 1353.5 480 C 1402.9294896 480 1443 487.6111584 1443 497 C 1443 506.3888416 1402.9294896 514 1353.5 514 C 1304.0705104 514 1264 506.3888416 1264 497 Z" fill="#ffffff" stroke="none"/></g><g transform="translate(-230,-22) scale(1,1)"><path d="M 1264 497 C 1264 487.6111584 1304.0705104 480 1353.5 480 C 1402.9294896 480 1443 487.6111584 1443 497 C 1443 506.3888416 1402.9294896 514 1353.5 514 C 1304.0705104 514 1264 506.3888416 1264 497 Z" fill="none" stroke="#000000" stroke-miterlimit="10"/></g><g transform="translate(-230,-22) scale(1,1)"><g><path fill="none" stroke="none"/><text fill="#000000" font-family="Arial" font-size="13px" font-style="normal" font-weight="bold" stroke="none" text-decoration="none" x="1296.082275390625" y="503">회전 최대 속도 설정</text></g></g><g transform="translate(-230,-22) scale(1,1)"><path d="M 1014 530 L 1079 521" fill="none" stroke="#000000" stroke-dasharray="3" stroke-miterlimit="10"/></g><g transform="translate(-230,-22) scale(1,1)"><path d="M 1069.5107120087343 526.5635791913859 L 1079 521 L 1068.3560155388466 518.2241046866413" fill="none" stroke="#000000" stroke-miterlimit="10"/></g><g transform="translate(-230,-22) scale(1,1)"><g><path fill="none" stroke="none"/><text fill="#000000" font-family="Arial" font-size="13px" font-style="normal" font-weight="normal" stroke="none" text-decoration="none" x="1015.5" y="522">«extend»</text></g></g><g transform="translate(-230,-22) scale(1,1)"><path d="M 1014 542 L 1159 556" fill="none" stroke="#000000" stroke-dasharray="3" stroke-miterlimit="10"/></g><g transform="translate(-230,-22) scale(1,1)"><path d="M 1148.479811033107 559.2133509146781 L 1159 556 L 1149.2889208200452 550.8332852642469" fill="none" stroke="#000000" stroke-miterlimit="10"/></g><g transform="translate(-230,-22) scale(1,1)"><g><path fill="none" stroke="none"/><text fill="#000000" font-family="Arial" font-size="13px" font-style="normal" font-weight="normal" stroke="none" text-decoration="none" x="1061.5" y="554">«extend»</text></g></g><g transform="translate(-230,-22) scale(1,1)"><path d="M 725 411 L 928 519" fill="none" stroke="#000000" stroke-dasharray="3" stroke-miterlimit="10"/></g><g transform="translate(-230,-22) scale(1,1)"><path d="M 917.0508971282362 517.9430485803342 L 928 519 L 921.0051926276972 510.5104375952363" fill="none" stroke="#000000" stroke-miterlimit="10"/></g><g transform="translate(-230,-22) scale(1,1)"><g><path fill="none" stroke="none"/><text fill="#000000" font-family="Arial" font-size="13px" font-style="normal" font-weight="normal" stroke="none" text-decoration="none" x="855.5" y="490">«extend»</text></g></g><g transform="translate(-230,-22) scale(1,1)"><path d="M 903 776 C 903 766.6111584 932.7730607999999 759 969.5 759 C 1006.2269392000001 759 1036 766.6111584 1036 776 C 1036 785.3888416 1006.2269392000001 793 969.5 793 C 932.7730607999999 793 903 785.3888416 903 776 Z" fill="#C0C0C0" opacity="0.2" stroke="none"/></g><g transform="translate(-230,-22) scale(1,1)"><path d="M 896 769 C 896 759.6111584 925.7730607999999 752 962.5 752 C 999.2269392000001 752 1029 759.6111584 1029 769 C 1029 778.3888416 999.2269392000001 786 962.5 786 C 925.7730607999999 786 896 778.3888416 896 769 Z" fill="#ffffff" stroke="none"/></g><g transform="translate(-230,-22) scale(1,1)"><path d="M 896 769 C 896 759.6111584 925.7730607999999 752 962.5 752 C 999.2269392000001 752 1029 759.6111584 1029 769 C 1029 778.3888416 999.2269392000001 786 962.5 786 C 925.7730607999999 786 896 778.3888416 896 769 Z" fill="none" stroke="#000000" stroke-miterlimit="10"/></g><g transform="translate(-230,-22) scale(1,1)"><g><path fill="none" stroke="none"/><text fill="#000000" font-family="Arial" font-size="13px" font-style="normal" font-weight="bold" stroke="none" text-decoration="none" x="921.694091796875" y="775">주행경로 관리</text></g></g><g transform="translate(-230,-22) scale(1,1)"><path d="M 911 840 C 911 830.6111584 940.7730607999999 823 977.5 823 C 1014.2269392000001 823 1044 830.6111584 1044 840 C 1044 849.3888416 1014.2269392000001 857 977.5 857 C 940.7730607999999 857 911 849.3888416 911 840 Z" fill="#C0C0C0" opacity="0.2" stroke="none"/></g><g transform="translate(-230,-22) scale(1,1)"><path d="M 904 833 C 904 823.6111584 933.7730607999999 816 970.5 816 C 1007.2269392000001 816 1037 823.6111584 1037 833 C 1037 842.3888416 1007.2269392000001 850 970.5 850 C 933.7730607999999 850 904 842.3888416 904 833 Z" fill="#ffffff" stroke="none"/></g><g transform="translate(-230,-22) scale(1,1)"><path d="M 904 833 C 904 823.6111584 933.7730607999999 816 970.5 816 C 1007.2269392000001 816 1037 823.6111584 1037 833 C 1037 842.3888416 1007.2269392000001 850 970.5 850 C 933.7730607999999 850 904 842.3888416 904 833 Z" fill="none" stroke="#000000" stroke-miterlimit="10"/></g><g transform="translate(-230,-22) scale(1,1)"><g><path fill="none" stroke="none"/><text fill="#000000" font-family="Arial" font-size="13px" font-style="normal" font-weight="bold" stroke="none" text-decoration="none" x="929.694091796875" y="839">주행경로 저장</text></g></g><g transform="translate(-230,-22) scale(1,1)"><path d="M 783 872 C 783 862.6111584 811.8776304 855 847.5 855 C 883.1223696 855 912 862.6111584 912 872 C 912 881.3888416 883.1223696 889 847.5 889 C 811.8776304 889 783 881.3888416 783 872 Z" fill="#C0C0C0" opacity="0.2" stroke="none"/></g><g transform="translate(-230,-22) scale(1,1)"><path d="M 776 865 C 776 855.6111584 804.8776304 848 840.5 848 C 876.1223696 848 905 855.6111584 905 865 C 905 874.3888416 876.1223696 882 840.5 882 C 804.8776304 882 776 874.3888416 776 865 Z" fill="#ffffff" stroke="none"/></g><g transform="translate(-230,-22) scale(1,1)"><path d="M 776 865 C 776 855.6111584 804.8776304 848 840.5 848 C 876.1223696 848 905 855.6111584 905 865 C 905 874.3888416 876.1223696 882 840.5 882 C 804.8776304 882 776 874.3888416 776 865 Z" fill="none" stroke="#000000" stroke-miterlimit="10"/></g><g transform="translate(-230,-22) scale(1,1)"><g><path fill="none" stroke="none"/><text fill="#000000" font-family="Arial" font-size="13px" font-style="normal" font-weight="bold" stroke="none" text-decoration="none" x="799.694091796875" y="871">주행경로 수정</text></g></g><g transform="translate(-230,-22) scale(1,1)"><path d="M 631 840 C 631 830.6111584 659.8776304 823 695.5 823 C 731.1223696 823 760 830.6111584 760 840 C 760 849.3888416 731.1223696 857 695.5 857 C 659.8776304 857 631 849.3888416 631 840 Z" fill="#C0C0C0" opacity="0.2" stroke="none"/></g><g transform="translate(-230,-22) scale(1,1)"><path d="M 624 833 C 624 823.6111584 652.8776304 816 688.5 816 C 724.1223696 816 753 823.6111584 753 833 C 753 842.3888416 724.1223696 850 688.5 850 C 652.8776304 850 624 842.3888416 624 833 Z" fill="#ffffff" stroke="none"/></g><g transform="translate(-230,-22) scale(1,1)"><path d="M 624 833 C 624 823.6111584 652.8776304 816 688.5 816 C 724.1223696 816 753 823.6111584 753 833 C 753 842.3888416 724.1223696 850 688.5 850 C 652.8776304 850 624 842.3888416 624 833 Z" fill="none" stroke="#000000" stroke-miterlimit="10"/></g><g transform="translate(-230,-22) scale(1,1)"><g><path fill="none" stroke="none"/><text fill="#000000" font-family="Arial" font-size="13px" font-style="normal" font-weight="bold" stroke="none" text-decoration="none" x="647.694091796875" y="839">주행경로 삭제</text></g></g><g transform="translate(-230,-22) scale(1,1)"><path d="M 943 896 C 943 886.6111584 967.8481936 879 998.5 879 C 1029.1518064 879 1054 886.6111584 1054 896 C 1054 905.3888416 1029.1518064 913 998.5 913 C 967.8481936 913 943 905.3888416 943 896 Z" fill="#C0C0C0" opacity="0.2" stroke="none"/></g><g transform="translate(-230,-22) scale(1,1)"><path d="M 936 889 C 936 879.6111584 960.8481936 872 991.5 872 C 1022.1518064 872 1047 879.6111584 1047 889 C 1047 898.3888416 1022.1518064 906 991.5 906 C 960.8481936 906 936 898.3888416 936 889 Z" fill="#ffffff" stroke="none"/></g><g transform="translate(-230,-22) scale(1,1)"><path d="M 936 889 C 936 879.6111584 960.8481936 872 991.5 872 C 1022.1518064 872 1047 879.6111584 1047 889 C 1047 898.3888416 1022.1518064 906 991.5 906 C 960.8481936 906 936 898.3888416 936 889 Z" fill="none" stroke="#000000" stroke-miterlimit="10"/></g><g transform="translate(-230,-22) scale(1,1)"><g><path fill="none" stroke="none"/><text fill="#000000" font-family="Arial" font-size="13px" font-style="normal" font-weight="bold" stroke="none" text-decoration="none" x="957.194091796875" y="895">경유지 관리</text></g></g><g transform="translate(-230,-22) scale(1,1)"><path d="M 847 968 C 847 958.6111584 871.8481936 951 902.5 951 C 933.1518064 951 958 958.6111584 958 968 C 958 977.3888416 933.1518064 985 902.5 985 C 871.8481936 985 847 977.3888416 847 968 Z" fill="#C0C0C0" opacity="0.2" stroke="none"/></g><g transform="translate(-230,-22) scale(1,1)"><path d="M 840 961 C 840 951.6111584 864.8481936 944 895.5 944 C 926.1518064 944 951 951.6111584 951 961 C 951 970.3888416 926.1518064 978 895.5 978 C 864.8481936 978 840 970.3888416 840 961 Z" fill="#ffffff" stroke="none"/></g><g transform="translate(-230,-22) scale(1,1)"><path d="M 840 961 C 840 951.6111584 864.8481936 944 895.5 944 C 926.1518064 944 951 951.6111584 951 961 C 951 970.3888416 926.1518064 978 895.5 978 C 864.8481936 978 840 970.3888416 840 961 Z" fill="none" stroke="#000000" stroke-miterlimit="10"/></g><g transform="translate(-230,-22) scale(1,1)"><g><path fill="none" stroke="none"/><text fill="#000000" font-family="Arial" font-size="13px" font-style="normal" font-weight="bold" stroke="none" text-decoration="none" x="861.194091796875" y="967">경유지 저장</text></g></g><g transform="translate(-230,-22) scale(1,1)"><path d="M 975 968 C 975 958.6111584 999.8481936 951 1030.5 951 C 1061.1518064 951 1086 958.6111584 1086 968 C 1086 977.3888416 1061.1518064 985 1030.5 985 C 999.8481936 985 975 977.3888416 975 968 Z" fill="#C0C0C0" opacity="0.2" stroke="none"/></g><g transform="translate(-230,-22) scale(1,1)"><path d="M 968 961 C 968 951.6111584 992.8481936 944 1023.5 944 C 1054.1518064 944 1079 951.6111584 1079 961 C 1079 970.3888416 1054.1518064 978 1023.5 978 C 992.8481936 978 968 970.3888416 968 961 Z" fill="#ffffff" stroke="none"/></g><g transform="translate(-230,-22) scale(1,1)"><path d="M 968 961 C 968 951.6111584 992.8481936 944 1023.5 944 C 1054.1518064 944 1079 951.6111584 1079 961 C 1079 970.3888416 1054.1518064 978 1023.5 978 C 992.8481936 978 968 970.3888416 968 961 Z" fill="none" stroke="#000000" stroke-miterlimit="10"/></g><g transform="translate(-230,-22) scale(1,1)"><g><path fill="none" stroke="none"/><text fill="#000000" font-family="Arial" font-size="13px" font-style="normal" font-weight="bold" stroke="none" text-decoration="none" x="989.194091796875" y="967">경유지 수정</text></g></g><g transform="translate(-230,-22) scale(1,1)"><path d="M 1095 968 C 1095 958.6111584 1119.8481936 951 1150.5 951 C 1181.1518064 951 1206 958.6111584 1206 968 C 1206 977.3888416 1181.1518064 985 1150.5 985 C 1119.8481936 985 1095 977.3888416 1095 968 Z" fill="#C0C0C0" opacity="0.2" stroke="none"/></g><g transform="translate(-230,-22) scale(1,1)"><path d="M 1088 961 C 1088 951.6111584 1112.8481936 944 1143.5 944 C 1174.1518064 944 1199 951.6111584 1199 961 C 1199 970.3888416 1174.1518064 978 1143.5 978 C 1112.8481936 978 1088 970.3888416 1088 961 Z" fill="#ffffff" stroke="none"/></g><g transform="translate(-230,-22) scale(1,1)"><path d="M 1088 961 C 1088 951.6111584 1112.8481936 944 1143.5 944 C 1174.1518064 944 1199 951.6111584 1199 961 C 1199 970.3888416 1174.1518064 978 1143.5 978 C 1112.8481936 978 1088 970.3888416 1088 961 Z" fill="none" stroke="#000000" stroke-miterlimit="10"/></g><g transform="translate(-230,-22) scale(1,1)"><g><path fill="none" stroke="none"/><text fill="#000000" font-family="Arial" font-size="13px" font-style="normal" font-weight="bold" stroke="none" text-decoration="none" x="1109.194091796875" y="967">경유지 삭제</text></g></g><g transform="translate(-230,-22) scale(1,1)"><path d="M 919 943 L 967 907" fill="none" stroke="#000000" stroke-miterlimit="10"/></g><g transform="translate(-230,-22) scale(1,1)"><path d="M 955.7911415350205 925.9304382387745 L 967 907 L 945.6882989205822 912.4599814195234" fill="#FFFFFF" stroke="none"/></g><g transform="translate(-230,-22) scale(1,1)"><path d="M 955.7911415350205 925.9304382387745 L 967 907 L 945.6882989205822 912.4599814195234 L 955.7911415350205 925.9304382387745" fill="none" stroke="#000000" stroke-miterlimit="10"/></g><g transform="translate(-230,-22) scale(1,1)"><path d="M 1015 943 L 999 907" fill="none" stroke="#000000" stroke-miterlimit="10"/></g><g transform="translate(-230,-22) scale(1,1)"><path d="M 1014.9483182344898 922.1542451310332 L 999 907 L 999.5614944762119 928.9928334680455" fill="#FFFFFF" stroke="none"/></g><g transform="translate(-230,-22) scale(1,1)"><path d="M 1014.9483182344898 922.1542451310332 L 999 907 L 999.5614944762119 928.9928334680455 L 1014.9483182344898 922.1542451310332" fill="none" stroke="#000000" stroke-miterlimit="10"/></g><g transform="translate(-230,-22) scale(1,1)"><path d="M 1105 943 L 1029 907" fill="none" stroke="#000000" stroke-miterlimit="10"/></g><g transform="translate(-230,-22) scale(1,1)"><path d="M 1050.9728617649878 908.0924037059317 L 1029 907 L 1043.76471348784 923.3096056243552" fill="#FFFFFF" stroke="none"/></g><g transform="translate(-230,-22) scale(1,1)"><path d="M 1050.9728617649878 908.0924037059317 L 1029 907 L 1043.76471348784 923.3096056243552 L 1050.9728617649878 908.0924037059317" fill="none" stroke="#000000" stroke-miterlimit="10"/></g><g transform="translate(-230,-22) scale(1,1)"><path d="M 935 880 L 906 875" fill="none" stroke="#000000" stroke-miterlimit="10"/></g><g transform="translate(-230,-22) scale(1,1)"><path d="M 927.4602738467506 870.1567937869146 L 906 875 L 924.5993691191152 886.7500412072002" fill="#FFFFFF" stroke="none"/></g><g transform="translate(-230,-22) scale(1,1)"><path d="M 927.4602738467506 870.1567937869146 L 906 875 L 924.5993691191152 886.7500412072002 L 927.4602738467506 870.1567937869146" fill="none" stroke="#000000" stroke-miterlimit="10"/></g><g transform="translate(-230,-22) scale(1,1)"><path d="M 754 818 L 895 785" fill="none" stroke="#000000" stroke-miterlimit="10"/></g><g transform="translate(-230,-22) scale(1,1)"><path d="M 877.1280146758544 797.8293468490615 L 895 785 L 873.2908798288645 781.4343161391959" fill="#FFFFFF" stroke="none"/></g><g transform="translate(-230,-22) scale(1,1)"><path d="M 877.1280146758544 797.8293468490615 L 895 785 L 873.2908798288645 781.4343161391959 L 877.1280146758544 797.8293468490615" fill="none" stroke="#000000" stroke-miterlimit="10"/></g><g transform="translate(-230,-22) scale(1,1)"><path d="M 863 847 L 939 787" fill="none" stroke="#000000" stroke-miterlimit="10"/></g><g transform="translate(-230,-22) scale(1,1)"><path d="M 928.2637905754365 806.2024427402326 L 939 787 L 917.8301760346873 792.9865309886171" fill="#FFFFFF" stroke="none"/></g><g transform="translate(-230,-22) scale(1,1)"><path d="M 928.2637905754365 806.2024427402326 L 939 787 L 917.8301760346873 792.9865309886171 L 928.2637905754365 806.2024427402326" fill="none" stroke="#000000" stroke-miterlimit="10"/></g><g transform="translate(-230,-22) scale(1,1)"><path d="M 968 815 L 964 787" fill="none" stroke="#000000" stroke-miterlimit="10"/></g><g transform="translate(-230,-22) scale(1,1)"><path d="M 975.2088584649795 805.9304382387745 L 964 787 L 958.5400185804766 808.3117010794178" fill="#FFFFFF" stroke="none"/></g><g transform="translate(-230,-22) scale(1,1)"><path d="M 975.2088584649795 805.9304382387745 L 964 787 L 958.5400185804766 808.3117010794178 L 975.2088584649795 805.9304382387745" fill="none" stroke="#000000" stroke-miterlimit="10"/></g><g transform="translate(-230,-22) scale(1,1)"><path d="M 707 491 L 946 751" fill="none" stroke="#000000" stroke-dasharray="3" stroke-miterlimit="10"/></g><g transform="translate(-230,-22) scale(1,1)"><path d="M 936.0233100321323 746.3668955024683 L 946 751 L 942.2215144780755 740.6693152617744" fill="none" stroke="#000000" stroke-miterlimit="10"/></g><g transform="translate(-230,-22) scale(1,1)"><g><path fill="none" stroke="none"/><text fill="#000000" font-family="Arial" font-size="13px" font-style="normal" font-weight="normal" stroke="none" text-decoration="none" x="799.5" y="626">«extend»</text></g></g><g transform="translate(-230,-22) scale(1,1)"><path d="M 1175 768 C 1175 758.6111584 1203.8776304 751 1239.5 751 C 1275.1223696 751 1304 758.6111584 1304 768 C 1304 777.3888416 1275.1223696 785 1239.5 785 C 1203.8776304 785 1175 777.3888416 1175 768 Z" fill="#C0C0C0" opacity="0.2" stroke="none"/></g><g transform="translate(-230,-22) scale(1,1)"><path d="M 1168 761 C 1168 751.6111584 1196.8776304 744 1232.5 744 C 1268.1223696 744 1297 751.6111584 1297 761 C 1297 770.3888416 1268.1223696 778 1232.5 778 C 1196.8776304 778 1168 770.3888416 1168 761 Z" fill="#ffffff" stroke="none"/></g><g transform="translate(-230,-22) scale(1,1)"><path d="M 1168 761 C 1168 751.6111584 1196.8776304 744 1232.5 744 C 1268.1223696 744 1297 751.6111584 1297 761 C 1297 770.3888416 1268.1223696 778 1232.5 778 C 1196.8776304 778 1168 770.3888416 1168 761 Z" fill="none" stroke="#000000" stroke-miterlimit="10"/></g><g transform="translate(-230,-22) scale(1,1)"><g><path fill="none" stroke="none"/><text fill="#000000" font-family="Arial" font-size="13px" font-style="normal" font-weight="bold" stroke="none" text-decoration="none" x="1191.694091796875" y="767">자율주행 제어</text></g></g><g transform="translate(-230,-22) scale(1,1)"><path d="M 1175 848 C 1175 838.6111584 1197.6096176 831 1225.5 831 C 1253.3903824 831 1276 838.6111584 1276 848 C 1276 857.3888416 1253.3903824 865 1225.5 865 C 1197.6096176 865 1175 857.3888416 1175 848 Z" fill="#C0C0C0" opacity="0.2" stroke="none"/></g><g transform="translate(-230,-22) scale(1,1)"><path d="M 1168 841 C 1168 831.6111584 1190.6096176 824 1218.5 824 C 1246.3903824 824 1269 831.6111584 1269 841 C 1269 850.3888416 1246.3903824 858 1218.5 858 C 1190.6096176 858 1168 850.3888416 1168 841 Z" fill="#ffffff" stroke="none"/></g><g transform="translate(-230,-22) scale(1,1)"><path d="M 1168 841 C 1168 831.6111584 1190.6096176 824 1218.5 824 C 1246.3903824 824 1269 831.6111584 1269 841 C 1269 850.3888416 1246.3903824 858 1218.5 858 C 1190.6096176 858 1168 850.3888416 1168 841 Z" fill="none" stroke="#000000" stroke-miterlimit="10"/></g><g transform="translate(-230,-22) scale(1,1)"><g><path fill="none" stroke="none"/><text fill="#000000" font-family="Arial" font-size="13px" font-style="normal" font-weight="bold" stroke="none" text-decoration="none" x="1190.694091796875" y="847">주행 시작</text></g></g><g transform="translate(-230,-22) scale(1,1)"><path d="M 1311 848 C 1311 838.6111584 1333.6096176 831 1361.5 831 C 1389.3903824 831 1412 838.6111584 1412 848 C 1412 857.3888416 1389.3903824 865 1361.5 865 C 1333.6096176 865 1311 857.3888416 1311 848 Z" fill="#C0C0C0" opacity="0.2" stroke="none"/></g><g transform="translate(-230,-22) scale(1,1)"><path d="M 1304 841 C 1304 831.6111584 1326.6096176 824 1354.5 824 C 1382.3903824 824 1405 831.6111584 1405 841 C 1405 850.3888416 1382.3903824 858 1354.5 858 C 1326.6096176 858 1304 850.3888416 1304 841 Z" fill="#ffffff" stroke="none"/></g><g transform="translate(-230,-22) scale(1,1)"><path d="M 1304 841 C 1304 831.6111584 1326.6096176 824 1354.5 824 C 1382.3903824 824 1405 831.6111584 1405 841 C 1405 850.3888416 1382.3903824 858 1354.5 858 C 1326.6096176 858 1304 850.3888416 1304 841 Z" fill="none" stroke="#000000" stroke-miterlimit="10"/></g><g transform="translate(-230,-22) scale(1,1)"><g><path fill="none" stroke="none"/><text fill="#000000" font-family="Arial" font-size="13px" font-style="normal" font-weight="bold" stroke="none" text-decoration="none" x="1326.694091796875" y="847">주행 정지</text></g></g><g transform="translate(-230,-22) scale(1,1)"><path d="M 1221 823 L 1229 779" fill="none" stroke="#000000" stroke-miterlimit="10"/></g><g transform="translate(-230,-22) scale(1,1)"><path d="M 1233.6473266219707 800.5035428538816 L 1229 779 L 1217.080855197269 797.4914571402994" fill="#FFFFFF" stroke="none"/></g><g transform="translate(-230,-22) scale(1,1)"><path d="M 1233.6473266219707 800.5035428538816 L 1229 779 L 1217.080855197269 797.4914571402994 L 1233.6473266219707 800.5035428538816" fill="none" stroke="#000000" stroke-miterlimit="10"/></g><g transform="translate(-230,-22) scale(1,1)"><path d="M 1327 823 L 1259 779" fill="none" stroke="#000000" stroke-miterlimit="10"/></g><g transform="translate(-230,-22) scale(1,1)"><path d="M 1280.6382088573664 782.973401243896 L 1259 779 L 1271.4909052518406 797.1101431797084" fill="#FFFFFF" stroke="none"/></g><g transform="translate(-230,-22) scale(1,1)"><path d="M 1280.6382088573664 782.973401243896 L 1259 779 L 1271.4909052518406 797.1101431797084 L 1280.6382088573664 782.973401243896" fill="none" stroke="#000000" stroke-miterlimit="10"/></g><g transform="translate(-230,-22) scale(1,1)"><path d="M 716 491 L 976 680 L 1175 743" fill="none" stroke="#000000" stroke-dasharray="3" stroke-miterlimit="10"/></g><g transform="translate(-230,-22) scale(1,1)"><path d="M 1164.0407464167722 743.9459180189152 L 1175 743 L 1166.5817724289352 735.9195025201781" fill="none" stroke="#000000" stroke-miterlimit="10"/></g><g transform="translate(-230,-22) scale(1,1)"><g><path fill="none" stroke="none"/><text fill="#000000" font-family="Arial" font-size="13px" font-style="normal" font-weight="normal" stroke="none" text-decoration="none" x="967.5" y="690">«extend»</text></g></g><g transform="translate(-230,-22) scale(1,1)"><path d="M 391 672 C 391 662.6111584 413.6096176 655 441.5 655 C 469.3903824 655 492 662.6111584 492 672 C 492 681.3888416 469.3903824 689 441.5 689 C 413.6096176 689 391 681.3888416 391 672 Z" fill="#C0C0C0" opacity="0.2" stroke="none"/></g><g transform="translate(-230,-22) scale(1,1)"><path d="M 384 665 C 384 655.6111584 406.6096176 648 434.5 648 C 462.3903824 648 485 655.6111584 485 665 C 485 674.3888416 462.3903824 682 434.5 682 C 406.6096176 682 384 674.3888416 384 665 Z" fill="#ffffff" stroke="none"/></g><g transform="translate(-230,-22) scale(1,1)"><path d="M 384 665 C 384 655.6111584 406.6096176 648 434.5 648 C 462.3903824 648 485 655.6111584 485 665 C 485 674.3888416 462.3903824 682 434.5 682 C 406.6096176 682 384 674.3888416 384 665 Z" fill="none" stroke="#000000" stroke-miterlimit="10"/></g><g transform="translate(-230,-22) scale(1,1)"><g><path fill="none" stroke="none"/><text fill="#000000" font-family="Arial" font-size="13px" font-style="normal" font-weight="bold" stroke="none" text-decoration="none" x="406.694091796875" y="671">차량 연결</text></g></g><g transform="translate(-230,-22) scale(1,1)"><path d="M 307 571 L 410 647" fill="none" stroke="#000000" stroke-miterlimit="10"/></g><g transform="translate(-230,-22) scale(1,1)"><path d="M 279 744 C 279 734.6111584 313.0263552 727 355 727 C 396.9736448 727 431 734.6111584 431 744 C 431 753.3888416 396.9736448 761 355 761 C 313.0263552 761 279 753.3888416 279 744 Z" fill="#C0C0C0" opacity="0.2" stroke="none"/></g><g transform="translate(-230,-22) scale(1,1)"><path d="M 272 737 C 272 727.6111584 306.0263552 720 348 720 C 389.9736448 720 424 727.6111584 424 737 C 424 746.3888416 389.9736448 754 348 754 C 306.0263552 754 272 746.3888416 272 737 Z" fill="#ffffff" stroke="none"/></g><g transform="translate(-230,-22) scale(1,1)"><path d="M 272 737 C 272 727.6111584 306.0263552 720 348 720 C 389.9736448 720 424 727.6111584 424 737 C 424 746.3888416 389.9736448 754 348 754 C 306.0263552 754 272 746.3888416 272 737 Z" fill="none" stroke="#000000" stroke-miterlimit="10"/></g><g transform="translate(-230,-22) scale(1,1)"><g><path fill="none" stroke="none"/><text fill="#000000" font-family="Arial" font-size="13px" font-style="normal" font-weight="bold" stroke="none" text-decoration="none" x="299.976806640625" y="743">MQTT 서버 연결</text></g></g><g transform="translate(-230,-22) scale(1,1)"><path d="M 370 719 L 413 683" fill="none" stroke="#000000" stroke-miterlimit="10"/></g><g transform="translate(-230,-22) scale(1,1)"><path d="M 402.81986965677146 702.5029471156253 L 413 683 L 392.0108946423589 689.5922269595214" fill="#FFFFFF" stroke="none"/></g><g transform="translate(-230,-22) scale(1,1)"><path d="M 402.81986965677146 702.5029471156253 L 413 683 L 392.0108946423589 689.5922269595214 L 402.81986965677146 702.5029471156253" fill="none" stroke="#000000" stroke-miterlimit="10"/></g><g transform="translate(-230,-22) scale(1,1)"><path d="M 247 872 C 247 862.6111584 281.0263552 855 323 855 C 364.9736448 855 399 862.6111584 399 872 C 399 881.3888416 364.9736448 889 323 889 C 281.0263552 889 247 881.3888416 247 872 Z" fill="#C0C0C0" opacity="0.2" stroke="none"/></g><g transform="translate(-230,-22) scale(1,1)"><path d="M 240 865 C 240 855.6111584 274.0263552 848 316 848 C 357.9736448 848 392 855.6111584 392 865 C 392 874.3888416 357.9736448 882 316 882 C 274.0263552 882 240 874.3888416 240 865 Z" fill="#ffffff" stroke="none"/></g><g transform="translate(-230,-22) scale(1,1)"><path d="M 240 865 C 240 855.6111584 274.0263552 848 316 848 C 357.9736448 848 392 855.6111584 392 865 C 392 874.3888416 357.9736448 882 316 882 C 274.0263552 882 240 874.3888416 240 865 Z" fill="none" stroke="#000000" stroke-miterlimit="10"/></g><g transform="translate(-230,-22) scale(1,1)"><g><path fill="none" stroke="none"/><text fill="#000000" font-family="Arial" font-size="13px" font-style="normal" font-weight="bold" stroke="none" text-decoration="none" x="267.976806640625" y="871">MQTT 서버 주소</text></g></g><g transform="translate(-230,-22) scale(1,1)"><path d="M 344 755 L 321 847" fill="none" stroke="#000000" stroke-dasharray="3" stroke-miterlimit="10"/></g><g transform="translate(-230,-22) scale(1,1)"><path d="M 319.38097861840737 836.1197991854035 L 321 847 L 327.5486427788624 838.1617152255172" fill="none" stroke="#000000" stroke-miterlimit="10"/></g><g transform="translate(-230,-22) scale(1,1)"><g><path fill="none" stroke="none"/><text fill="#000000" font-family="Arial" font-size="13px" font-style="normal" font-weight="normal" stroke="none" text-decoration="none" x="316.534912109375" y="794">«include»</text></g></g><g transform="translate(-230,-22) scale(1,1)"><path d="M 543 688 C 543 678.6111584 577.4740704 671 620 671 C 662.5259296 671 697 678.6111584 697 688 C 697 697.3888416 662.5259296 705 620 705 C 577.4740704 705 543 697.3888416 543 688 Z" fill="#C0C0C0" opacity="0.2" stroke="none"/></g><g transform="translate(-230,-22) scale(1,1)"><path d="M 536 681 C 536 671.6111584 570.4740704 664 613 664 C 655.5259296 664 690 671.6111584 690 681 C 690 690.3888416 655.5259296 698 613 698 C 570.4740704 698 536 690.3888416 536 681 Z" fill="#ffffff" stroke="none"/></g><g transform="translate(-230,-22) scale(1,1)"><path d="M 536 681 C 536 671.6111584 570.4740704 664 613 664 C 655.5259296 664 690 671.6111584 690 681 C 690 690.3888416 655.5259296 698 613 698 C 570.4740704 698 536 690.3888416 536 681 Z" fill="none" stroke="#000000" stroke-miterlimit="10"/></g><g transform="translate(-230,-22) scale(1,1)"><g><path fill="none" stroke="none"/><text fill="#000000" font-family="Arial" font-size="13px" font-style="normal" font-weight="bold" stroke="none" text-decoration="none" x="563.88818359375" y="687">수신 메시지 설정</text></g></g><g transform="translate(-230,-22) scale(1,1)"><path d="M 681 555 L 623 663" fill="none" stroke="#000000" stroke-dasharray="3" stroke-miterlimit="10"/></g><g transform="translate(-230,-22) scale(1,1)"><path d="M 624.099670494951 652.0551050803339 L 623 663 L 631.5167938811209 656.0383750469806" fill="none" stroke="#000000" stroke-miterlimit="10"/></g><g transform="translate(-230,-22) scale(1,1)"><g><path fill="none" stroke="none"/><text fill="#000000" font-family="Arial" font-size="13px" font-style="normal" font-weight="normal" stroke="none" text-decoration="none" x="624.5" y="628">«extend»</text></g></g><g transform="translate(-230,-22) scale(1,1)"><path d="M 743 386 L 911 362" fill="none" stroke="#000000" stroke-dasharray="3" stroke-miterlimit="10"/></g><g transform="translate(-230,-22) scale(1,1)"><path d="M 901.5347808806127 367.60442923248974 L 911 362 L 900.3441494602911 359.2700092902383" fill="none" stroke="#000000" stroke-miterlimit="10"/></g><g transform="translate(-230,-22) scale(1,1)"><g><path fill="none" stroke="none"/><text fill="#000000" font-family="Arial" font-size="13px" font-style="normal" font-weight="normal" stroke="none" text-decoration="none" x="799.5" y="370">«extend»</text></g></g><g transform="translate(-230,-22) scale(1,1)"><path d="M 1185 495 L 1257 467" fill="none" stroke="#000000" stroke-dasharray="3" stroke-miterlimit="10"/></g><g transform="translate(-230,-22) scale(1,1)"><path d="M 1249.0540635292723 474.6067137190222 L 1257 467 L 1246.0026155854057 466.76013329193637" fill="none" stroke="#000000" stroke-miterlimit="10"/></g><g transform="translate(-230,-22) scale(1,1)"><g><path fill="none" stroke="none"/><text fill="#000000" font-family="Arial" font-size="13px" font-style="normal" font-weight="normal" stroke="none" text-decoration="none" x="1175.534912109375" y="482">«include»</text></g></g><g transform="translate(-230,-22) scale(1,1)"><path d="M 1250 543 L 1313 515" fill="none" stroke="#000000" stroke-dasharray="3" stroke-miterlimit="10"/></g><g transform="translate(-230,-22) scale(1,1)"><path d="M 1305.4228774344833 522.9741591172449 L 1313 515 L 1302.0035832659773 515.280747238106" fill="none" stroke="#000000" stroke-miterlimit="10"/></g><g transform="translate(-230,-22) scale(1,1)"><g><path fill="none" stroke="none"/><text fill="#000000" font-family="Arial" font-size="13px" font-style="normal" font-weight="normal" stroke="none" text-decoration="none" x="1240.534912109375" y="530">«include»</text></g></g><g transform="translate(-230,-22) scale(1,1)"><path d="M 575 1024 C 575 1014.6111584 602.3106272 1007 636 1007 C 669.6893728 1007 697 1014.6111584 697 1024 C 697 1033.3888416 669.6893728 1041 636 1041 C 602.3106272 1041 575 1033.3888416 575 1024 Z" fill="#C0C0C0" opacity="0.2" stroke="none"/></g><g transform="translate(-230,-22) scale(1,1)"><path d="M 568 1017 C 568 1007.6111584 595.3106272 1000 629 1000 C 662.6893728 1000 690 1007.6111584 690 1017 C 690 1026.3888416 662.6893728 1034 629 1034 C 595.3106272 1034 568 1026.3888416 568 1017 Z" fill="#ffffff" stroke="none"/></g><g transform="translate(-230,-22) scale(1,1)"><path d="M 568 1017 C 568 1007.6111584 595.3106272 1000 629 1000 C 662.6893728 1000 690 1007.6111584 690 1017 C 690 1026.3888416 662.6893728 1034 629 1034 C 595.3106272 1034 568 1026.3888416 568 1017 Z" fill="none" stroke="#000000" stroke-miterlimit="10"/></g><g transform="translate(-230,-22) scale(1,1)"><g><path fill="none" stroke="none"/><text fill="#000000" font-family="Arial" font-size="13px" font-style="normal" font-weight="bold" stroke="none" text-decoration="none" x="590.726806640625" y="1022.5">MQTT Client</text></g></g><g transform="translate(-230,-22) scale(1,1)"><path d="M 366 755 L 611 999" fill="none" stroke="#000000" stroke-dasharray="3" stroke-miterlimit="10"/></g><g transform="translate(-230,-22) scale(1,1)"><path d="M 600.8287379896079 994.8112735687376 L 611 999 L 606.7697085233076 988.8459547951458" fill="none" stroke="#000000" stroke-miterlimit="10"/></g><g transform="translate(-230,-22) scale(1,1)"><g><path fill="none" stroke="none"/><text fill="#000000" font-family="Arial" font-size="13px" font-style="normal" font-weight="normal" stroke="none" text-decoration="none" x="476.5" y="882">«extend»</text></g></g><g transform="translate(-230,-22) scale(1,1)"><path d="M 1159 632 C 1159 622.6111584 1189.4446336 615 1227 615 C 1264.5553664 615 1295 622.6111584 1295 632 C 1295 641.3888416 1264.5553664 649 1227 649 C 1189.4446336 649 1159 641.3888416 1159 632 Z" fill="#C0C0C0" opacity="0.2" stroke="none"/></g><g transform="translate(-230,-22) scale(1,1)"><path d="M 1152 625 C 1152 615.6111584 1182.4446336 608 1220 608 C 1257.5553664 608 1288 615.6111584 1288 625 C 1288 634.3888416 1257.5553664 642 1220 642 C 1182.4446336 642 1152 634.3888416 1152 625 Z" fill="#ffffff" stroke="none"/></g><g transform="translate(-230,-22) scale(1,1)"><path d="M 1152 625 C 1152 615.6111584 1182.4446336 608 1220 608 C 1257.5553664 608 1288 615.6111584 1288 625 C 1288 634.3888416 1257.5553664 642 1220 642 C 1182.4446336 642 1152 634.3888416 1152 625 Z" fill="none" stroke="#000000" stroke-miterlimit="10"/></g><g transform="translate(-230,-22) scale(1,1)"><g><path fill="none" stroke="none"/><text fill="#000000" font-family="Arial" font-size="13px" font-style="normal" font-weight="bold" stroke="none" text-decoration="none" x="1177.38818359375" y="631">기타 장비 제어</text></g></g><g transform="translate(-230,-22) scale(1,1)"><path d="M 1014 555 L 1167 607" fill="none" stroke="#000000" stroke-dasharray="3" stroke-miterlimit="10"/></g><g transform="translate(-230,-22) scale(1,1)"><path d="M 1156.0232849072402 607.7153501047604 L 1167 607 L 1158.7324614127583 599.7441192327555" fill="none" stroke="#000000" stroke-miterlimit="10"/></g><g transform="translate(-230,-22) scale(1,1)"><g><path fill="none" stroke="none"/><text fill="#000000" font-family="Arial" font-size="13px" font-style="normal" font-weight="normal" stroke="none" text-decoration="none" x="1070.5" y="578">«extend»</text></g></g></g></svg>