<?xml version="1.0" encoding="UTF-8" standalone="no"?><svg xmlns="http://www.w3.org/2000/svg" xmlns:xlink="http://www.w3.org/1999/xlink" height="630" version="1.1" width="1126"><defs/><g><g transform="translate(-86,-246) scale(1,1)"><path d="M 112.40935031960228 513.6800000000001 C 112.40935031960228 508.88616793600005 116.29519264454774 505 121.088623046875 505 C 125.88205344920226 505 129.76789577414772 508.88616793600005 129.76789577414772 513.6800000000001 C 129.76789577414772 518.473832064 125.88205344920226 522.36 121.088623046875 522.36 C 116.29519264454774 522.36 112.40935031960228 518.473832064 112.40935031960228 513.6800000000001 Z" fill="#ffffff" stroke="none"/></g><g transform="translate(-86,-246) scale(1,1)"><path d="M 112.40935031960228 513.6800000000001 C 112.40935031960228 508.88616793600005 116.29519264454774 505 121.088623046875 505 C 125.88205344920226 505 129.76789577414772 508.88616793600005 129.76789577414772 513.6800000000001 C 129.76789577414772 518.473832064 125.88205344920226 522.36 121.088623046875 522.36 C 116.29519264454774 522.36 112.40935031960228 518.473832064 112.40935031960228 513.6800000000001 Z" fill="none" stroke="#000000" stroke-miterlimit="10"/></g><g transform="translate(-86,-246) scale(1,1)"><path d="M 121.088623046875 522.36 L 121.088623046875 539.64" fill="none" stroke="#000000" stroke-miterlimit="10"/></g><g transform="translate(-86,-246) scale(1,1)"><path d="M 111.89880486505683 528.84 L 130.27844122869317 528.84" fill="none" stroke="#000000" stroke-miterlimit="10"/></g><g transform="translate(-86,-246) scale(1,1)"><path d="M 121.088623046875 539.64 L 108.32498668323865 557" fill="none" stroke="#000000" stroke-miterlimit="10"/></g><g transform="translate(-86,-246) scale(1,1)"><path d="M 121.088623046875 539.64 L 133.85225941051135 557" fill="none" stroke="#000000" stroke-miterlimit="10"/></g><g transform="translate(-86,-246) scale(1,1)"><g><path fill="none" stroke="none"/><text fill="#000000" font-family="Arial" font-size="13px" font-style="normal" font-weight="bold" stroke="none" text-decoration="none" x="101.588623046875" y="576.5">사용자</text></g></g><g transform="translate(-86,-246) scale(1,1)"><path d="M 1128.4093503196023 649.6800000000001 C 1128.4093503196023 644.8861679360001 1132.2951926445478 641 1137.088623046875 641 C 1141.8820534492022 641 1145.7678957741477 644.8861679360001 1145.7678957741477 649.6800000000001 C 1145.7678957741477 654.473832064 1141.8820534492022 658.36 1137.088623046875 658.36 C 1132.2951926445478 658.36 1128.4093503196023 654.473832064 1128.4093503196023 649.6800000000001 Z" fill="#ffffff" stroke="none"/></g><g transform="translate(-86,-246) scale(1,1)"><path d="M 1128.4093503196023 649.6800000000001 C 1128.4093503196023 644.8861679360001 1132.2951926445478 641 1137.088623046875 641 C 1141.8820534492022 641 1145.7678957741477 644.8861679360001 1145.7678957741477 649.6800000000001 C 1145.7678957741477 654.473832064 1141.8820534492022 658.36 1137.088623046875 658.36 C 1132.2951926445478 658.36 1128.4093503196023 654.473832064 1128.4093503196023 649.6800000000001 Z" fill="none" stroke="#000000" stroke-miterlimit="10"/></g><g transform="translate(-86,-246) scale(1,1)"><path d="M 1137.088623046875 658.36 L 1137.088623046875 675.64" fill="none" stroke="#000000" stroke-miterlimit="10"/></g><g transform="translate(-86,-246) scale(1,1)"><path d="M 1127.8988048650567 664.84 L 1146.2784412286933 664.84" fill="none" stroke="#000000" stroke-miterlimit="10"/></g><g transform="translate(-86,-246) scale(1,1)"><path d="M 1137.088623046875 675.64 L 1124.3249866832386 693" fill="none" stroke="#000000" stroke-miterlimit="10"/></g><g transform="translate(-86,-246) scale(1,1)"><path d="M 1137.088623046875 675.64 L 1149.8522594105114 693" fill="none" stroke="#000000" stroke-miterlimit="10"/></g><g transform="translate(-86,-246) scale(1,1)"><g><path fill="none" stroke="none"/><text fill="#000000" font-family="Arial" font-size="13px" font-style="normal" font-weight="bold" stroke="none" text-decoration="none" x="1123.003173828125" y="712">UGV</text></g></g><g transform="translate(-86,-246) scale(1,1)"><path d="M 311 552 C 311 542.6111584 333.6096176 535 361.5 535 C 389.3903824 535 412 542.6111584 412 552 C 412 561.3888416 389.3903824 569 361.5 569 C 333.6096176 569 311 561.3888416 311 552 Z" fill="#C0C0C0" opacity="0.2" stroke="none"/></g><g transform="translate(-86,-246) scale(1,1)"><path d="M 304 545 C 304 535.6111584 326.6096176 528 354.5 528 C 382.3903824 528 405 535.6111584 405 545 C 405 554.3888416 382.3903824 562 354.5 562 C 326.6096176 562 304 554.3888416 304 545 Z" fill="#ffffff" stroke="none"/></g><g transform="translate(-86,-246) scale(1,1)"><path d="M 304 545 C 304 535.6111584 326.6096176 528 354.5 528 C 382.3903824 528 405 535.6111584 405 545 C 405 554.3888416 382.3903824 562 354.5 562 C 326.6096176 562 304 554.3888416 304 545 Z" fill="none" stroke="#000000" stroke-miterlimit="10"/></g><g transform="translate(-86,-246) scale(1,1)"><g><path fill="none" stroke="none"/><text fill="#000000" font-family="Arial" font-size="13px" font-style="normal" font-weight="bold" stroke="none" text-decoration="none" x="328.5" y="551">수동제어</text></g></g><g transform="translate(-86,-246) scale(1,1)"><path d="M 147 543 L 303 545" fill="none" stroke="#000000" stroke-miterlimit="10"/></g><g transform="translate(-86,-246) scale(1,1)"><path d="M 495 608 C 495 598.6111584 517.6096176 591 545.5 591 C 573.3903824 591 596 598.6111584 596 608 C 596 617.3888416 573.3903824 625 545.5 625 C 517.6096176 625 495 617.3888416 495 608 Z" fill="#C0C0C0" opacity="0.2" stroke="none"/></g><g transform="translate(-86,-246) scale(1,1)"><path d="M 488 601 C 488 591.6111584 510.6096176 584 538.5 584 C 566.3903824 584 589 591.6111584 589 601 C 589 610.3888416 566.3903824 618 538.5 618 C 510.6096176 618 488 610.3888416 488 601 Z" fill="#ffffff" stroke="none"/></g><g transform="translate(-86,-246) scale(1,1)"><path d="M 488 601 C 488 591.6111584 510.6096176 584 538.5 584 C 566.3903824 584 589 591.6111584 589 601 C 589 610.3888416 566.3903824 618 538.5 618 C 510.6096176 618 488 610.3888416 488 601 Z" fill="none" stroke="#000000" stroke-miterlimit="10"/></g><g transform="translate(-86,-246) scale(1,1)"><g><path fill="none" stroke="none"/><text fill="#000000" font-family="Arial" font-size="13px" font-style="normal" font-weight="bold" stroke="none" text-decoration="none" x="510.694091796875" y="607">차량 정보</text></g></g><g transform="translate(-86,-246) scale(1,1)"><path d="M 727 648 C 727 638.6111584 749.6096176 631 777.5 631 C 805.3903824 631 828 638.6111584 828 648 C 828 657.3888416 805.3903824 665 777.5 665 C 749.6096176 665 727 657.3888416 727 648 Z" fill="#C0C0C0" opacity="0.2" stroke="none"/></g><g transform="translate(-86,-246) scale(1,1)"><path d="M 720 641 C 720 631.6111584 742.6096176 624 770.5 624 C 798.3903824 624 821 631.6111584 821 641 C 821 650.3888416 798.3903824 658 770.5 658 C 742.6096176 658 720 650.3888416 720 641 Z" fill="#ffffff" stroke="none"/></g><g transform="translate(-86,-246) scale(1,1)"><path d="M 720 641 C 720 631.6111584 742.6096176 624 770.5 624 C 798.3903824 624 821 631.6111584 821 641 C 821 650.3888416 798.3903824 658 770.5 658 C 742.6096176 658 720 650.3888416 720 641 Z" fill="none" stroke="#000000" stroke-miterlimit="10"/></g><g transform="translate(-86,-246) scale(1,1)"><g><path fill="none" stroke="none"/><text fill="#000000" font-family="Arial" font-size="13px" font-style="normal" font-weight="bold" stroke="none" text-decoration="none" x="742.694091796875" y="647">주행 속도</text></g></g><g transform="translate(-86,-246) scale(1,1)"><path d="M 406 561 L 487 585" fill="none" stroke="#000000" stroke-dasharray="3" stroke-miterlimit="10"/></g><g transform="translate(-86,-246) scale(1,1)"><path d="M 476.0601716583282 586.1489803543816 L 487 585 L 478.4519213945537 578.0768249946204" fill="none" stroke="#000000" stroke-miterlimit="10"/></g><g transform="translate(-86,-246) scale(1,1)"><g><path fill="none" stroke="none"/><text fill="#000000" font-family="Arial" font-size="13px" font-style="normal" font-weight="normal" stroke="none" text-decoration="none" x="420.5" y="570">«extend»</text></g></g><g transform="translate(-86,-246) scale(1,1)"><path d="M 590 610 L 719 632" fill="none" stroke="#000000" stroke-dasharray="3" stroke-miterlimit="10"/></g><g transform="translate(-86,-246) scale(1,1)"><path d="M 708.2742825672846 634.4411033475752 L 719 632 L 709.6896517395885 626.1418932008837" fill="none" stroke="#000000" stroke-miterlimit="10"/></g><g transform="translate(-86,-246) scale(1,1)"><g><path fill="none" stroke="none"/><text fill="#000000" font-family="Arial" font-size="13px" font-style="normal" font-weight="normal" stroke="none" text-decoration="none" x="632.5" y="596">«extend»</text></g></g><g transform="translate(-86,-246) scale(1,1)"><path d="M 503 448 C 503 438.6111584 525.6096176 431 553.5 431 C 581.3903824 431 604 438.6111584 604 448 C 604 457.3888416 581.3903824 465 553.5 465 C 525.6096176 465 503 457.3888416 503 448 Z" fill="#C0C0C0" opacity="0.2" stroke="none"/></g><g transform="translate(-86,-246) scale(1,1)"><path d="M 496 441 C 496 431.6111584 518.6096176 424 546.5 424 C 574.3903824 424 597 431.6111584 597 441 C 597 450.3888416 574.3903824 458 546.5 458 C 518.6096176 458 496 450.3888416 496 441 Z" fill="#ffffff" stroke="none"/></g><g transform="translate(-86,-246) scale(1,1)"><path d="M 496 441 C 496 431.6111584 518.6096176 424 546.5 424 C 574.3903824 424 597 431.6111584 597 441 C 597 450.3888416 574.3903824 458 546.5 458 C 518.6096176 458 496 450.3888416 496 441 Z" fill="none" stroke="#000000" stroke-miterlimit="10"/></g><g transform="translate(-86,-246) scale(1,1)"><g><path fill="none" stroke="none"/><text fill="#000000" font-family="Arial" font-size="13px" font-style="normal" font-weight="bold" stroke="none" text-decoration="none" x="518.694091796875" y="447">차량 제어</text></g></g><g transform="translate(-86,-246) scale(1,1)"><path d="M 439 376 C 439 366.6111584 465.6390544 359 498.5 359 C 531.3609456 359 558 366.6111584 558 376 C 558 385.3888416 531.3609456 393 498.5 393 C 465.6390544 393 439 385.3888416 439 376 Z" fill="#C0C0C0" opacity="0.2" stroke="none"/></g><g transform="translate(-86,-246) scale(1,1)"><path d="M 432 369 C 432 359.6111584 458.6390544 352 491.5 352 C 524.3609456 352 551 359.6111584 551 369 C 551 378.3888416 524.3609456 386 491.5 386 C 458.6390544 386 432 378.3888416 432 369 Z" fill="#ffffff" stroke="none"/></g><g transform="translate(-86,-246) scale(1,1)"><path d="M 432 369 C 432 359.6111584 458.6390544 352 491.5 352 C 524.3609456 352 551 359.6111584 551 369 C 551 378.3888416 524.3609456 386 491.5 386 C 458.6390544 386 432 378.3888416 432 369 Z" fill="none" stroke="#000000" stroke-miterlimit="10"/></g><g transform="translate(-86,-246) scale(1,1)"><g><path fill="none" stroke="none"/><text fill="#000000" font-family="Arial" font-size="13px" font-style="normal" font-weight="bold" stroke="none" text-decoration="none" x="455.38818359375" y="375">전/후진 제어</text></g></g><g transform="translate(-86,-246) scale(1,1)"><path d="M 367 280 C 367 270.6111584 413.11466559999997 263 470 263 C 526.8853344 263 573 270.6111584 573 280 C 573 289.3888416 526.8853344 297 470 297 C 413.11466559999997 297 367 289.3888416 367 280 Z" fill="#C0C0C0" opacity="0.2" stroke="none"/></g><g transform="translate(-86,-246) scale(1,1)"><path d="M 360 273 C 360 263.6111584 406.11466559999997 256 463 256 C 519.8853344 256 566 263.6111584 566 273 C 566 282.3888416 519.8853344 290 463 290 C 406.11466559999997 290 360 282.3888416 360 273 Z" fill="#ffffff" stroke="none"/></g><g transform="translate(-86,-246) scale(1,1)"><path d="M 360 273 C 360 263.6111584 406.11466559999997 256 463 256 C 519.8853344 256 566 263.6111584 566 273 C 566 282.3888416 519.8853344 290 463 290 C 406.11466559999997 290 360 282.3888416 360 273 Z" fill="none" stroke="#000000" stroke-miterlimit="10"/></g><g transform="translate(-86,-246) scale(1,1)"><g><path fill="none" stroke="none"/><text fill="#000000" font-family="Arial" font-size="13px" font-style="normal" font-weight="bold" stroke="none" text-decoration="none" x="397.2763671875" y="279">전/후진 최대 속도 설정</text></g></g><g transform="translate(-86,-246) scale(1,1)"><path d="M 583 376 C 583 366.6111584 605.6096176 359 633.5 359 C 661.3903824 359 684 366.6111584 684 376 C 684 385.3888416 661.3903824 393 633.5 393 C 605.6096176 393 583 385.3888416 583 376 Z" fill="#C0C0C0" opacity="0.2" stroke="none"/></g><g transform="translate(-86,-246) scale(1,1)"><path d="M 576 369 C 576 359.6111584 598.6096176 352 626.5 352 C 654.3903824 352 677 359.6111584 677 369 C 677 378.3888416 654.3903824 386 626.5 386 C 598.6096176 386 576 378.3888416 576 369 Z" fill="#ffffff" stroke="none"/></g><g transform="translate(-86,-246) scale(1,1)"><path d="M 576 369 C 576 359.6111584 598.6096176 352 626.5 352 C 654.3903824 352 677 359.6111584 677 369 C 677 378.3888416 654.3903824 386 626.5 386 C 598.6096176 386 576 378.3888416 576 369 Z" fill="none" stroke="#000000" stroke-miterlimit="10"/></g><g transform="translate(-86,-246) scale(1,1)"><g><path fill="none" stroke="none"/><text fill="#000000" font-family="Arial" font-size="13px" font-style="normal" font-weight="bold" stroke="none" text-decoration="none" x="598.694091796875" y="375">회전 제어</text></g></g><g transform="translate(-86,-246) scale(1,1)"><path d="M 591 280 C 591 270.6111584 631.0705104 263 680.5 263 C 729.9294896 263 770 270.6111584 770 280 C 770 289.3888416 729.9294896 297 680.5 297 C 631.0705104 297 591 289.3888416 591 280 Z" fill="#C0C0C0" opacity="0.2" stroke="none"/></g><g transform="translate(-86,-246) scale(1,1)"><path d="M 584 273 C 584 263.6111584 624.0705104 256 673.5 256 C 722.9294896 256 763 263.6111584 763 273 C 763 282.3888416 722.9294896 290 673.5 290 C 624.0705104 290 584 282.3888416 584 273 Z" fill="#ffffff" stroke="none"/></g><g transform="translate(-86,-246) scale(1,1)"><path d="M 584 273 C 584 263.6111584 624.0705104 256 673.5 256 C 722.9294896 256 763 263.6111584 763 273 C 763 282.3888416 722.9294896 290 673.5 290 C 624.0705104 290 584 282.3888416 584 273 Z" fill="none" stroke="#000000" stroke-miterlimit="10"/></g><g transform="translate(-86,-246) scale(1,1)"><g><path fill="none" stroke="none"/><text fill="#000000" font-family="Arial" font-size="13px" font-style="normal" font-weight="bold" stroke="none" text-decoration="none" x="616.082275390625" y="279">회전 최대 속도 설정</text></g></g><g transform="translate(-86,-246) scale(1,1)"><path d="M 387 527 L 513 459" fill="none" stroke="#000000" stroke-dasharray="3" stroke-miterlimit="10"/></g><g transform="translate(-86,-246) scale(1,1)"><path d="M 506.05585800899763 467.53105456604266 L 513 459 L 502.05738357431875 460.1221166429612" fill="none" stroke="#000000" stroke-miterlimit="10"/></g><g transform="translate(-86,-246) scale(1,1)"><g><path fill="none" stroke="none"/><text fill="#000000" font-family="Arial" font-size="13px" font-style="normal" font-weight="normal" stroke="none" text-decoration="none" x="423.5" y="491">«extend»</text></g></g><g transform="translate(-86,-246) scale(1,1)"><path d="M 532 423 L 505 387" fill="none" stroke="#000000" stroke-dasharray="3" stroke-miterlimit="10"/></g><g transform="translate(-86,-246) scale(1,1)"><path d="M 514.4652191193873 392.60442923248974 L 505 387 L 507.7299907097617 397.6558505397089" fill="none" stroke="#000000" stroke-miterlimit="10"/></g><g transform="translate(-86,-246) scale(1,1)"><g><path fill="none" stroke="none"/><text fill="#000000" font-family="Arial" font-size="13px" font-style="normal" font-weight="normal" stroke="none" text-decoration="none" x="471.5" y="410">«extend»</text></g></g><g transform="translate(-86,-246) scale(1,1)"><path d="M 566 423 L 606 387" fill="none" stroke="#000000" stroke-dasharray="3" stroke-miterlimit="10"/></g><g transform="translate(-86,-246) scale(1,1)"><path d="M 601.2621621840278 396.92738096526693 L 606 387 L 595.6301243522015 390.66956115212656" fill="none" stroke="#000000" stroke-miterlimit="10"/></g><g transform="translate(-86,-246) scale(1,1)"><g><path fill="none" stroke="none"/><text fill="#000000" font-family="Arial" font-size="13px" font-style="normal" font-weight="normal" stroke="none" text-decoration="none" x="551.5" y="411">«extend»</text></g></g><g transform="translate(-86,-246) scale(1,1)"><path d="M 486 351 L 468 291" fill="none" stroke="#000000" stroke-dasharray="3" stroke-miterlimit="10"/></g><g transform="translate(-86,-246) scale(1,1)"><path d="M 474.95220988685384 299.5244810803434 L 468 291 L 466.8882363772193 301.94367313323374" fill="none" stroke="#000000" stroke-miterlimit="10"/></g><g transform="translate(-86,-246) scale(1,1)"><g><path fill="none" stroke="none"/><text fill="#000000" font-family="Arial" font-size="13px" font-style="normal" font-weight="normal" stroke="none" text-decoration="none" x="442.534912109375" y="331">«include»</text></g></g><g transform="translate(-86,-246) scale(1,1)"><path d="M 635 351 L 664 291" fill="none" stroke="#000000" stroke-dasharray="3" stroke-miterlimit="10"/></g><g transform="translate(-86,-246) scale(1,1)"><path d="M 663.3675572983 301.981803869541 L 664 291 L 655.7874874911029 298.3181034627291" fill="none" stroke="#000000" stroke-miterlimit="10"/></g><g transform="translate(-86,-246) scale(1,1)"><g><path fill="none" stroke="none"/><text fill="#000000" font-family="Arial" font-size="13px" font-style="normal" font-weight="normal" stroke="none" text-decoration="none" x="616.534912109375" y="331">«include»</text></g></g><g transform="translate(-86,-246) scale(1,1)"><path d="M 703 416 C 703 406.6111584 733.4446336 399 771 399 C 808.5553664 399 839 406.6111584 839 416 C 839 425.3888416 808.5553664 433 771 433 C 733.4446336 433 703 425.3888416 703 416 Z" fill="#C0C0C0" opacity="0.2" stroke="none"/></g><g transform="translate(-86,-246) scale(1,1)"><path d="M 696 409 C 696 399.6111584 726.4446336 392 764 392 C 801.5553664 392 832 399.6111584 832 409 C 832 418.3888416 801.5553664 426 764 426 C 726.4446336 426 696 418.3888416 696 409 Z" fill="#ffffff" stroke="none"/></g><g transform="translate(-86,-246) scale(1,1)"><path d="M 696 409 C 696 399.6111584 726.4446336 392 764 392 C 801.5553664 392 832 399.6111584 832 409 C 832 418.3888416 801.5553664 426 764 426 C 726.4446336 426 696 418.3888416 696 409 Z" fill="none" stroke="#000000" stroke-miterlimit="10"/></g><g transform="translate(-86,-246) scale(1,1)"><g><path fill="none" stroke="none"/><text fill="#000000" font-family="Arial" font-size="13px" font-style="normal" font-weight="bold" stroke="none" text-decoration="none" x="721.38818359375" y="415">기타 장비 제어</text></g></g><g transform="translate(-86,-246) scale(1,1)"><path d="M 598 433 L 695 419" fill="none" stroke="#000000" stroke-dasharray="3" stroke-miterlimit="10"/></g><g transform="translate(-86,-246) scale(1,1)"><path d="M 685.5428779261384 424.61808170820615 L 695 419 L 684.3402211779309 416.2853885241962" fill="none" stroke="#000000" stroke-miterlimit="10"/></g><g transform="translate(-86,-246) scale(1,1)"><g><path fill="none" stroke="none"/><text fill="#000000" font-family="Arial" font-size="13px" font-style="normal" font-weight="normal" stroke="none" text-decoration="none" x="615.5" y="426">«extend»</text></g></g><g transform="translate(-86,-246) scale(1,1)"><path d="M 775 336 C 775 326.6111584 805.4446336 319 843 319 C 880.5553664 319 911 326.6111584 911 336 C 911 345.3888416 880.5553664 353 843 353 C 805.4446336 353 775 345.3888416 775 336 Z" fill="#C0C0C0" opacity="0.2" stroke="none"/></g><g transform="translate(-86,-246) scale(1,1)"><path d="M 768 329 C 768 319.6111584 798.4446336 312 836 312 C 873.5553664 312 904 319.6111584 904 329 C 904 338.3888416 873.5553664 346 836 346 C 798.4446336 346 768 338.3888416 768 329 Z" fill="#ffffff" stroke="none"/></g><g transform="translate(-86,-246) scale(1,1)"><path d="M 768 329 C 768 319.6111584 798.4446336 312 836 312 C 873.5553664 312 904 319.6111584 904 329 C 904 338.3888416 873.5553664 346 836 346 C 798.4446336 346 768 338.3888416 768 329 Z" fill="none" stroke="#000000" stroke-miterlimit="10"/></g><g transform="translate(-86,-246) scale(1,1)"><g><path fill="none" stroke="none"/><text fill="#000000" font-family="Arial" font-size="13px" font-style="normal" font-weight="bold" stroke="none" text-decoration="none" x="793.38818359375" y="335">경적 사용 설정</text></g></g><g transform="translate(-86,-246) scale(1,1)"><path d="M 879 376 C 879 366.6111584 913.4740704 359 956 359 C 998.5259296 359 1033 366.6111584 1033 376 C 1033 385.3888416 998.5259296 393 956 393 C 913.4740704 393 879 385.3888416 879 376 Z" fill="#C0C0C0" opacity="0.2" stroke="none"/></g><g transform="translate(-86,-246) scale(1,1)"><path d="M 872 369 C 872 359.6111584 906.4740704 352 949 352 C 991.5259296 352 1026 359.6111584 1026 369 C 1026 378.3888416 991.5259296 386 949 386 C 906.4740704 386 872 378.3888416 872 369 Z" fill="#ffffff" stroke="none"/></g><g transform="translate(-86,-246) scale(1,1)"><path d="M 872 369 C 872 359.6111584 906.4740704 352 949 352 C 991.5259296 352 1026 359.6111584 1026 369 C 1026 378.3888416 991.5259296 386 949 386 C 906.4740704 386 872 378.3888416 872 369 Z" fill="none" stroke="#000000" stroke-miterlimit="10"/></g><g transform="translate(-86,-246) scale(1,1)"><g><path fill="none" stroke="none"/><text fill="#000000" font-family="Arial" font-size="13px" font-style="normal" font-weight="bold" stroke="none" text-decoration="none" x="899.88818359375" y="375">전조등 사용 설정</text></g></g><g transform="translate(-86,-246) scale(1,1)"><path d="M 871 440 C 871 430.6111584 909.7273648 423 957.5 423 C 1005.2726352 423 1044 430.6111584 1044 440 C 1044 449.3888416 1005.2726352 457 957.5 457 C 909.7273648 457 871 449.3888416 871 440 Z" fill="#C0C0C0" opacity="0.2" stroke="none"/></g><g transform="translate(-86,-246) scale(1,1)"><path d="M 864 433 C 864 423.6111584 902.7273648 416 950.5 416 C 998.2726352 416 1037 423.6111584 1037 433 C 1037 442.3888416 998.2726352 450 950.5 450 C 902.7273648 450 864 442.3888416 864 433 Z" fill="#ffffff" stroke="none"/></g><g transform="translate(-86,-246) scale(1,1)"><path d="M 864 433 C 864 423.6111584 902.7273648 416 950.5 416 C 998.2726352 416 1037 423.6111584 1037 433 C 1037 442.3888416 998.2726352 450 950.5 450 C 902.7273648 450 864 442.3888416 864 433 Z" fill="none" stroke="#000000" stroke-miterlimit="10"/></g><g transform="translate(-86,-246) scale(1,1)"><g><path fill="none" stroke="none"/><text fill="#000000" font-family="Arial" font-size="13px" font-style="normal" font-weight="bold" stroke="none" text-decoration="none" x="894.88818359375" y="439">좌회전등 사용 설정</text></g></g><g transform="translate(-86,-246) scale(1,1)"><path d="M 783 496 C 783 486.6111584 821.7273648 479 869.5 479 C 917.2726352 479 956 486.6111584 956 496 C 956 505.3888416 917.2726352 513 869.5 513 C 821.7273648 513 783 505.3888416 783 496 Z" fill="#C0C0C0" opacity="0.2" stroke="none"/></g><g transform="translate(-86,-246) scale(1,1)"><path d="M 776 489 C 776 479.6111584 814.7273648 472 862.5 472 C 910.2726352 472 949 479.6111584 949 489 C 949 498.3888416 910.2726352 506 862.5 506 C 814.7273648 506 776 498.3888416 776 489 Z" fill="#ffffff" stroke="none"/></g><g transform="translate(-86,-246) scale(1,1)"><path d="M 776 489 C 776 479.6111584 814.7273648 472 862.5 472 C 910.2726352 472 949 479.6111584 949 489 C 949 498.3888416 910.2726352 506 862.5 506 C 814.7273648 506 776 498.3888416 776 489 Z" fill="none" stroke="#000000" stroke-miterlimit="10"/></g><g transform="translate(-86,-246) scale(1,1)"><g><path fill="none" stroke="none"/><text fill="#000000" font-family="Arial" font-size="13px" font-style="normal" font-weight="bold" stroke="none" text-decoration="none" x="806.88818359375" y="495">우회전등 사용 설정</text></g></g><g transform="translate(-86,-246) scale(1,1)"><path d="M 780 391 L 820 347" fill="none" stroke="#000000" stroke-dasharray="3" stroke-miterlimit="10"/></g><g transform="translate(-86,-246) scale(1,1)"><path d="M 816.2786359863939 357.3513984503659 L 820 347 L 810.0490542316979 351.68814230973317" fill="none" stroke="#000000" stroke-miterlimit="10"/></g><g transform="translate(-86,-246) scale(1,1)"><g><path fill="none" stroke="none"/><text fill="#000000" font-family="Arial" font-size="13px" font-style="normal" font-weight="normal" stroke="none" text-decoration="none" x="752.534912109375" y="371">«include»</text></g></g><g transform="translate(-86,-246) scale(1,1)"><path d="M 833 394 L 871 386" fill="none" stroke="#000000" stroke-dasharray="3" stroke-miterlimit="10"/></g><g transform="translate(-86,-246) scale(1,1)"><path d="M 861.9225214810864 392.2128402312196 L 871 386 L 860.188111925277 383.97439484112493" fill="none" stroke="#000000" stroke-miterlimit="10"/></g><g transform="translate(-86,-246) scale(1,1)"><g><path fill="none" stroke="none"/><text fill="#000000" font-family="Arial" font-size="13px" font-style="normal" font-weight="normal" stroke="none" text-decoration="none" x="817.534912109375" y="387">«include»</text></g></g><g transform="translate(-86,-246) scale(1,1)"><path d="M 833 418 L 863 422" fill="none" stroke="#000000" stroke-dasharray="3" stroke-miterlimit="10"/></g><g transform="translate(-86,-246) scale(1,1)"><path d="M 852.3701276091327 424.8294545329229 L 863 422 L 853.4828186619812 416.48427163655896" fill="none" stroke="#000000" stroke-miterlimit="10"/></g><g transform="translate(-86,-246) scale(1,1)"><g><path fill="none" stroke="none"/><text fill="#000000" font-family="Arial" font-size="13px" font-style="normal" font-weight="normal" stroke="none" text-decoration="none" x="833.534912109375" y="419">«include»</text></g></g><g transform="translate(-86,-246) scale(1,1)"><path d="M 786 427 L 840 471" fill="none" stroke="#000000" stroke-dasharray="3" stroke-miterlimit="10"/></g><g transform="translate(-86,-246) scale(1,1)"><path d="M 829.4625004000204 467.8438786176021 L 840 471 L 834.7805774078453 461.3171477443625" fill="none" stroke="#000000" stroke-miterlimit="10"/></g><g transform="translate(-86,-246) scale(1,1)"><g><path fill="none" stroke="none"/><text fill="#000000" font-family="Arial" font-size="13px" font-style="normal" font-weight="normal" stroke="none" text-decoration="none" x="785.534912109375" y="451">«include»</text></g></g><g transform="translate(-86,-246) scale(1,1)"><path d="M 911 624 C 911 614.6111584 938.3106272 607 972 607 C 1005.6893728 607 1033 614.6111584 1033 624 C 1033 633.3888416 1005.6893728 641 972 641 C 938.3106272 641 911 633.3888416 911 624 Z" fill="#C0C0C0" opacity="0.2" stroke="none"/></g><g transform="translate(-86,-246) scale(1,1)"><path d="M 904 617 C 904 607.6111584 931.3106272 600 965 600 C 998.6893728 600 1026 607.6111584 1026 617 C 1026 626.3888416 998.6893728 634 965 634 C 931.3106272 634 904 626.3888416 904 617 Z" fill="#ffffff" stroke="none"/></g><g transform="translate(-86,-246) scale(1,1)"><path d="M 904 617 C 904 607.6111584 931.3106272 600 965 600 C 998.6893728 600 1026 607.6111584 1026 617 C 1026 626.3888416 998.6893728 634 965 634 C 931.3106272 634 904 626.3888416 904 617 Z" fill="none" stroke="#000000" stroke-miterlimit="10"/></g><g transform="translate(-86,-246) scale(1,1)"><g><path fill="none" stroke="none"/><text fill="#000000" font-family="Arial" font-size="13px" font-style="normal" font-weight="bold" stroke="none" text-decoration="none" x="926.726806640625" y="622.5">MQTT Client</text></g></g><g transform="translate(-86,-246) scale(1,1)"><path d="M 589 459 L 922 599" fill="none" stroke="#000000" stroke-dasharray="3" stroke-miterlimit="10"/></g><g transform="translate(-86,-246) scale(1,1)"><path d="M 911.0001536931832 598.9418516861047 L 922 599 L 914.26305115151 591.18081701737" fill="none" stroke="#000000" stroke-miterlimit="10"/></g><g transform="translate(-86,-246) scale(1,1)"><g><path fill="none" stroke="none"/><text fill="#000000" font-family="Arial" font-size="13px" font-style="normal" font-weight="normal" stroke="none" text-decoration="none" x="715.534912109375" y="523">«include»</text></g></g><g transform="translate(-86,-246) scale(1,1)"><path d="M 1079 536 C 1079 526.6111584 1108.101488 519 1144 519 C 1179.898512 519 1209 526.6111584 1209 536 C 1209 545.3888416 1179.898512 553 1144 553 C 1108.101488 553 1079 545.3888416 1079 536 Z" fill="#C0C0C0" opacity="0.2" stroke="none"/></g><g transform="translate(-86,-246) scale(1,1)"><path d="M 1072 529 C 1072 519.6111584 1101.101488 512 1137 512 C 1172.898512 512 1202 519.6111584 1202 529 C 1202 538.3888416 1172.898512 546 1137 546 C 1101.101488 546 1072 538.3888416 1072 529 Z" fill="#ffffff" stroke="none"/></g><g transform="translate(-86,-246) scale(1,1)"><path d="M 1072 529 C 1072 519.6111584 1101.101488 512 1137 512 C 1172.898512 512 1202 519.6111584 1202 529 C 1202 538.3888416 1172.898512 546 1137 546 C 1101.101488 546 1072 538.3888416 1072 529 Z" fill="none" stroke="#000000" stroke-miterlimit="10"/></g><g transform="translate(-86,-246) scale(1,1)"><g><path fill="none" stroke="none"/><text fill="#000000" font-family="Arial" font-size="13px" font-style="normal" font-weight="bold" stroke="none" text-decoration="none" x="1095.8291015625" y="534.5">MQTT Broker</text></g></g><g transform="translate(-86,-246) scale(1,1)"><path d="M 1000 599 L 1102 547" fill="none" stroke="#000000" stroke-miterlimit="10"/></g><g transform="translate(-86,-246) scale(1,1)"><path d="M 1137 547 L 1137 639" fill="none" stroke="#000000" stroke-miterlimit="10"/></g><g transform="translate(-86,-246) scale(1,1)"><path d="M 303 696 C 303 686.6111584 325.6096176 679 353.5 679 C 381.3903824 679 404 686.6111584 404 696 C 404 705.3888416 381.3903824 713 353.5 713 C 325.6096176 713 303 705.3888416 303 696 Z" fill="#C0C0C0" opacity="0.2" stroke="none"/></g><g transform="translate(-86,-246) scale(1,1)"><path d="M 296 689 C 296 679.6111584 318.6096176 672 346.5 672 C 374.3903824 672 397 679.6111584 397 689 C 397 698.3888416 374.3903824 706 346.5 706 C 318.6096176 706 296 698.3888416 296 689 Z" fill="#ffffff" stroke="none"/></g><g transform="translate(-86,-246) scale(1,1)"><path d="M 296 689 C 296 679.6111584 318.6096176 672 346.5 672 C 374.3903824 672 397 679.6111584 397 689 C 397 698.3888416 374.3903824 706 346.5 706 C 318.6096176 706 296 698.3888416 296 689 Z" fill="none" stroke="#000000" stroke-miterlimit="10"/></g><g transform="translate(-86,-246) scale(1,1)"><g><path fill="none" stroke="none"/><text fill="#000000" font-family="Arial" font-size="13px" font-style="normal" font-weight="bold" stroke="none" text-decoration="none" x="318.694091796875" y="695">차량 연결</text></g></g><g transform="translate(-86,-246) scale(1,1)"><path d="M 147 560 L 318 671" fill="none" stroke="#000000" stroke-miterlimit="10"/></g><g transform="translate(-86,-246) scale(1,1)"><path d="M 471 760 C 471 750.6111584 505.0263552 743 547 743 C 588.9736448 743 623 750.6111584 623 760 C 623 769.3888416 588.9736448 777 547 777 C 505.0263552 777 471 769.3888416 471 760 Z" fill="#C0C0C0" opacity="0.2" stroke="none"/></g><g transform="translate(-86,-246) scale(1,1)"><path d="M 464 753 C 464 743.6111584 498.0263552 736 540 736 C 581.9736448 736 616 743.6111584 616 753 C 616 762.3888416 581.9736448 770 540 770 C 498.0263552 770 464 762.3888416 464 753 Z" fill="#ffffff" stroke="none"/></g><g transform="translate(-86,-246) scale(1,1)"><path d="M 464 753 C 464 743.6111584 498.0263552 736 540 736 C 581.9736448 736 616 743.6111584 616 753 C 616 762.3888416 581.9736448 770 540 770 C 498.0263552 770 464 762.3888416 464 753 Z" fill="none" stroke="#000000" stroke-miterlimit="10"/></g><g transform="translate(-86,-246) scale(1,1)"><g><path fill="none" stroke="none"/><text fill="#000000" font-family="Arial" font-size="13px" font-style="normal" font-weight="bold" stroke="none" text-decoration="none" x="491.976806640625" y="759">MQTT 서버 연결</text></g></g><g transform="translate(-86,-246) scale(1,1)"><path d="M 485 735 L 398 706" fill="none" stroke="#000000" stroke-miterlimit="10"/></g><g transform="translate(-86,-246) scale(1,1)"><path d="M 419.9446525938781 704.4404415580051 L 398 706 L 414.61998700990557 720.4144383099228" fill="#FFFFFF" stroke="none"/></g><g transform="translate(-86,-246) scale(1,1)"><path d="M 419.9446525938781 704.4404415580051 L 398 706 L 414.61998700990557 720.4144383099228 L 419.9446525938781 704.4404415580051" fill="none" stroke="#000000" stroke-miterlimit="10"/></g><g transform="translate(-86,-246) scale(1,1)"><path d="M 655 856 C 655 846.6111584 689.0263552 839 731 839 C 772.9736448 839 807 846.6111584 807 856 C 807 865.3888416 772.9736448 873 731 873 C 689.0263552 873 655 865.3888416 655 856 Z" fill="#C0C0C0" opacity="0.2" stroke="none"/></g><g transform="translate(-86,-246) scale(1,1)"><path d="M 648 849 C 648 839.6111584 682.0263552 832 724 832 C 765.9736448 832 800 839.6111584 800 849 C 800 858.3888416 765.9736448 866 724 866 C 682.0263552 866 648 858.3888416 648 849 Z" fill="#ffffff" stroke="none"/></g><g transform="translate(-86,-246) scale(1,1)"><path d="M 648 849 C 648 839.6111584 682.0263552 832 724 832 C 765.9736448 832 800 839.6111584 800 849 C 800 858.3888416 765.9736448 866 724 866 C 682.0263552 866 648 858.3888416 648 849 Z" fill="none" stroke="#000000" stroke-miterlimit="10"/></g><g transform="translate(-86,-246) scale(1,1)"><g><path fill="none" stroke="none"/><text fill="#000000" font-family="Arial" font-size="13px" font-style="normal" font-weight="bold" stroke="none" text-decoration="none" x="675.976806640625" y="855">MQTT 서버 주소</text></g></g><g transform="translate(-86,-246) scale(1,1)"><path d="M 575 771 L 690 831" fill="none" stroke="#000000" stroke-dasharray="3" stroke-miterlimit="10"/></g><g transform="translate(-86,-246) scale(1,1)"><path d="M 679.0427466562116 830.0311867259171 L 690 831 L 682.9371062932358 822.5669974216207" fill="none" stroke="#000000" stroke-miterlimit="10"/></g><g transform="translate(-86,-246) scale(1,1)"><g><path fill="none" stroke="none"/><text fill="#000000" font-family="Arial" font-size="13px" font-style="normal" font-weight="normal" stroke="none" text-decoration="none" x="617.534912109375" y="795">«include»</text></g></g><g transform="translate(-86,-246) scale(1,1)"><path d="M 596 735 L 909 635" fill="none" stroke="#000000" stroke-dasharray="3" stroke-miterlimit="10"/></g><g transform="translate(-86,-246) scale(1,1)"><path d="M 900.6004869969981 642.1026883158704 L 909 635 L 898.0382883241064 634.0830064697192" fill="none" stroke="#000000" stroke-miterlimit="10"/></g><g transform="translate(-86,-246) scale(1,1)"><g><path fill="none" stroke="none"/><text fill="#000000" font-family="Arial" font-size="13px" font-style="normal" font-weight="normal" stroke="none" text-decoration="none" x="715.5" y="682">«extend»</text></g></g></g></svg>