<?xml version="1.0" encoding="UTF-8" standalone="no"?><svg xmlns="http://www.w3.org/2000/svg" xmlns:xlink="http://www.w3.org/1999/xlink" height="837" version="1.1" width="1405"><defs/><g><g transform="translate(-182,-150) scale(1,1)"><path d="M 232.40935031960228 505.68 C 232.40935031960228 500.886167936 236.29519264454774 497 241.088623046875 497 C 245.88205344920226 497 249.76789577414772 500.886167936 249.76789577414772 505.68 C 249.76789577414772 510.473832064 245.88205344920226 514.36 241.088623046875 514.36 C 236.29519264454774 514.36 232.40935031960228 510.473832064 232.40935031960228 505.68 Z" fill="#ffffff" stroke="none"/></g><g transform="translate(-182,-150) scale(1,1)"><path d="M 232.40935031960228 505.68 C 232.40935031960228 500.886167936 236.29519264454774 497 241.088623046875 497 C 245.88205344920226 497 249.76789577414772 500.886167936 249.76789577414772 505.68 C 249.76789577414772 510.473832064 245.88205344920226 514.36 241.088623046875 514.36 C 236.29519264454774 514.36 232.40935031960228 510.473832064 232.40935031960228 505.68 Z" fill="none" stroke="#000000" stroke-miterlimit="10"/></g><g transform="translate(-182,-150) scale(1,1)"><path d="M 241.088623046875 514.36 L 241.088623046875 531.64" fill="none" stroke="#000000" stroke-miterlimit="10"/></g><g transform="translate(-182,-150) scale(1,1)"><path d="M 231.89880486505683 520.84 L 250.27844122869317 520.84" fill="none" stroke="#000000" stroke-miterlimit="10"/></g><g transform="translate(-182,-150) scale(1,1)"><path d="M 241.088623046875 531.64 L 228.32498668323865 549" fill="none" stroke="#000000" stroke-miterlimit="10"/></g><g transform="translate(-182,-150) scale(1,1)"><path d="M 241.088623046875 531.64 L 253.85225941051135 549" fill="none" stroke="#000000" stroke-miterlimit="10"/></g><g transform="translate(-182,-150) scale(1,1)"><g><path fill="none" stroke="none"/><text fill="#000000" font-family="Arial" font-size="13px" font-style="normal" font-weight="bold" stroke="none" text-decoration="none" x="221.588623046875" y="568.5">사용자</text></g></g><g transform="translate(-182,-150) scale(1,1)"><path d="M 399 544 C 399 534.6111584 421.6096176 527 449.5 527 C 477.3903824 527 500 534.6111584 500 544 C 500 553.3888416 477.3903824 561 449.5 561 C 421.6096176 561 399 553.3888416 399 544 Z" fill="#C0C0C0" opacity="0.2" stroke="none"/></g><g transform="translate(-182,-150) scale(1,1)"><path d="M 392 537 C 392 527.6111584 414.6096176 520 442.5 520 C 470.3903824 520 493 527.6111584 493 537 C 493 546.3888416 470.3903824 554 442.5 554 C 414.6096176 554 392 546.3888416 392 537 Z" fill="#ffffff" stroke="none"/></g><g transform="translate(-182,-150) scale(1,1)"><path d="M 392 537 C 392 527.6111584 414.6096176 520 442.5 520 C 470.3903824 520 493 527.6111584 493 537 C 493 546.3888416 470.3903824 554 442.5 554 C 414.6096176 554 392 546.3888416 392 537 Z" fill="none" stroke="#000000" stroke-miterlimit="10"/></g><g transform="translate(-182,-150) scale(1,1)"><g><path fill="none" stroke="none"/><text fill="#000000" font-family="Arial" font-size="13px" font-style="normal" font-weight="bold" stroke="none" text-decoration="none" x="416.5" y="543">대시보드</text></g></g><g transform="translate(-182,-150) scale(1,1)"><path d="M 267 535 L 391 536" fill="none" stroke="#000000" stroke-miterlimit="10"/></g><g transform="translate(-182,-150) scale(1,1)"><path d="M 519 400 C 519 390.6111584 541.6096176 383 569.5 383 C 597.3903824 383 620 390.6111584 620 400 C 620 409.3888416 597.3903824 417 569.5 417 C 541.6096176 417 519 409.3888416 519 400 Z" fill="#C0C0C0" opacity="0.2" stroke="none"/></g><g transform="translate(-182,-150) scale(1,1)"><path d="M 512 393 C 512 383.6111584 534.6096176 376 562.5 376 C 590.3903824 376 613 383.6111584 613 393 C 613 402.3888416 590.3903824 410 562.5 410 C 534.6096176 410 512 402.3888416 512 393 Z" fill="#ffffff" stroke="none"/></g><g transform="translate(-182,-150) scale(1,1)"><path d="M 512 393 C 512 383.6111584 534.6096176 376 562.5 376 C 590.3903824 376 613 383.6111584 613 393 C 613 402.3888416 590.3903824 410 562.5 410 C 534.6096176 410 512 402.3888416 512 393 Z" fill="none" stroke="#000000" stroke-miterlimit="10"/></g><g transform="translate(-182,-150) scale(1,1)"><g><path fill="none" stroke="none"/><text fill="#000000" font-family="Arial" font-size="13px" font-style="normal" font-weight="bold" stroke="none" text-decoration="none" x="534.694091796875" y="399">지도 정보</text></g></g><g transform="translate(-182,-150) scale(1,1)"><path d="M 671 488 C 671 478.6111584 693.6096176 471 721.5 471 C 749.3903824 471 772 478.6111584 772 488 C 772 497.3888416 749.3903824 505 721.5 505 C 693.6096176 505 671 497.3888416 671 488 Z" fill="#C0C0C0" opacity="0.2" stroke="none"/></g><g transform="translate(-182,-150) scale(1,1)"><path d="M 664 481 C 664 471.6111584 686.6096176 464 714.5 464 C 742.3903824 464 765 471.6111584 765 481 C 765 490.3888416 742.3903824 498 714.5 498 C 686.6096176 498 664 490.3888416 664 481 Z" fill="#ffffff" stroke="none"/></g><g transform="translate(-182,-150) scale(1,1)"><path d="M 664 481 C 664 471.6111584 686.6096176 464 714.5 464 C 742.3903824 464 765 471.6111584 765 481 C 765 490.3888416 742.3903824 498 714.5 498 C 686.6096176 498 664 490.3888416 664 481 Z" fill="none" stroke="#000000" stroke-miterlimit="10"/></g><g transform="translate(-182,-150) scale(1,1)"><g><path fill="none" stroke="none"/><text fill="#000000" font-family="Arial" font-size="13px" font-style="normal" font-weight="bold" stroke="none" text-decoration="none" x="686.694091796875" y="487">차량 정보</text></g></g><g transform="translate(-182,-150) scale(1,1)"><path d="M 671 568 C 671 558.6111584 709.7273648 551 757.5 551 C 805.2726352 551 844 558.6111584 844 568 C 844 577.3888416 805.2726352 585 757.5 585 C 709.7273648 585 671 577.3888416 671 568 Z" fill="#C0C0C0" opacity="0.2" stroke="none"/></g><g transform="translate(-182,-150) scale(1,1)"><path d="M 664 561 C 664 551.6111584 702.7273648 544 750.5 544 C 798.2726352 544 837 551.6111584 837 561 C 837 570.3888416 798.2726352 578 750.5 578 C 702.7273648 578 664 570.3888416 664 561 Z" fill="#ffffff" stroke="none"/></g><g transform="translate(-182,-150) scale(1,1)"><path d="M 664 561 C 664 551.6111584 702.7273648 544 750.5 544 C 798.2726352 544 837 551.6111584 837 561 C 837 570.3888416 798.2726352 578 750.5 578 C 702.7273648 578 664 570.3888416 664 561 Z" fill="none" stroke="#000000" stroke-miterlimit="10"/></g><g transform="translate(-182,-150) scale(1,1)"><g><path fill="none" stroke="none"/><text fill="#000000" font-family="Arial" font-size="13px" font-style="normal" font-weight="bold" stroke="none" text-decoration="none" x="694.88818359375" y="567">자율주행 진행 정보</text></g></g><g transform="translate(-182,-150) scale(1,1)"><path d="M 535 648 C 535 638.6111584 557.6096176 631 585.5 631 C 613.3903824 631 636 638.6111584 636 648 C 636 657.3888416 613.3903824 665 585.5 665 C 557.6096176 665 535 657.3888416 535 648 Z" fill="#C0C0C0" opacity="0.2" stroke="none"/></g><g transform="translate(-182,-150) scale(1,1)"><path d="M 528 641 C 528 631.6111584 550.6096176 624 578.5 624 C 606.3903824 624 629 631.6111584 629 641 C 629 650.3888416 606.3903824 658 578.5 658 C 550.6096176 658 528 650.3888416 528 641 Z" fill="#ffffff" stroke="none"/></g><g transform="translate(-182,-150) scale(1,1)"><path d="M 528 641 C 528 631.6111584 550.6096176 624 578.5 624 C 606.3903824 624 629 631.6111584 629 641 C 629 650.3888416 606.3903824 658 578.5 658 C 550.6096176 658 528 650.3888416 528 641 Z" fill="none" stroke="#000000" stroke-miterlimit="10"/></g><g transform="translate(-182,-150) scale(1,1)"><g><path fill="none" stroke="none"/><text fill="#000000" font-family="Arial" font-size="13px" font-style="normal" font-weight="bold" stroke="none" text-decoration="none" x="550.694091796875" y="647">비상 제어</text></g></g><g transform="translate(-182,-150) scale(1,1)"><path d="M 457 519 L 547 411" fill="none" stroke="#000000" stroke-dasharray="3" stroke-miterlimit="10"/></g><g transform="translate(-182,-150) scale(1,1)"><path d="M 543.727855214301 421.50205068076815 L 547 411 L 537.2601729802722 416.11231548574403" fill="none" stroke="#000000" stroke-miterlimit="10"/></g><g transform="translate(-182,-150) scale(1,1)"><g><path fill="none" stroke="none"/><text fill="#000000" font-family="Arial" font-size="13px" font-style="normal" font-weight="normal" stroke="none" text-decoration="none" x="461.5" y="461">«extend»</text></g></g><g transform="translate(-182,-150) scale(1,1)"><path d="M 494 526 L 663 492" fill="none" stroke="#000000" stroke-dasharray="3" stroke-miterlimit="10"/></g><g transform="translate(-182,-150) scale(1,1)"><path d="M 653.8672010932439 498.1312302296321 L 663 492 L 652.2067014894309 489.8775704342085" fill="none" stroke="#000000" stroke-miterlimit="10"/></g><g transform="translate(-182,-150) scale(1,1)"><g><path fill="none" stroke="none"/><text fill="#000000" font-family="Arial" font-size="13px" font-style="normal" font-weight="normal" stroke="none" text-decoration="none" x="535.5" y="506">«extend»</text></g></g><g transform="translate(-182,-150) scale(1,1)"><path d="M 494 541 L 663 554" fill="none" stroke="#000000" stroke-dasharray="3" stroke-miterlimit="10"/></g><g transform="translate(-182,-150) scale(1,1)"><path d="M 652.5444041746322 557.4176769795506 L 663 554 L 653.1901147223913 549.023439858682" fill="none" stroke="#000000" stroke-miterlimit="10"/></g><g transform="translate(-182,-150) scale(1,1)"><g><path fill="none" stroke="none"/><text fill="#000000" font-family="Arial" font-size="13px" font-style="normal" font-weight="normal" stroke="none" text-decoration="none" x="543.5" y="546">«extend»</text></g></g><g transform="translate(-182,-150) scale(1,1)"><path d="M 466 555 L 554 623" fill="none" stroke="#000000" stroke-dasharray="3" stroke-miterlimit="10"/></g><g transform="translate(-182,-150) scale(1,1)"><path d="M 543.3845286984867 620.1169861174897 L 554 623 L 548.5323269237867 613.4551295906307" fill="none" stroke="#000000" stroke-miterlimit="10"/></g><g transform="translate(-182,-150) scale(1,1)"><g><path fill="none" stroke="none"/><text fill="#000000" font-family="Arial" font-size="13px" font-style="normal" font-weight="normal" stroke="none" text-decoration="none" x="487.5" y="594">«extend»</text></g></g><g transform="translate(-182,-150) scale(1,1)"><path d="M 719 320 C 719 310.6111584 741.6096176 303 769.5 303 C 797.3903824 303 820 310.6111584 820 320 C 820 329.3888416 797.3903824 337 769.5 337 C 741.6096176 337 719 329.3888416 719 320 Z" fill="#C0C0C0" opacity="0.2" stroke="none"/></g><g transform="translate(-182,-150) scale(1,1)"><path d="M 712 313 C 712 303.6111584 734.6096176 296 762.5 296 C 790.3903824 296 813 303.6111584 813 313 C 813 322.3888416 790.3903824 330 762.5 330 C 734.6096176 330 712 322.3888416 712 313 Z" fill="#ffffff" stroke="none"/></g><g transform="translate(-182,-150) scale(1,1)"><path d="M 712 313 C 712 303.6111584 734.6096176 296 762.5 296 C 790.3903824 296 813 303.6111584 813 313 C 813 322.3888416 790.3903824 330 762.5 330 C 734.6096176 330 712 322.3888416 712 313 Z" fill="none" stroke="#000000" stroke-miterlimit="10"/></g><g transform="translate(-182,-150) scale(1,1)"><g><path fill="none" stroke="none"/><text fill="#000000" font-family="Arial" font-size="13px" font-style="normal" font-weight="bold" stroke="none" text-decoration="none" x="756" y="319">맵</text></g></g><g transform="translate(-182,-150) scale(1,1)"><path d="M 359 280 C 359 270.6111584 395.0410736 263 439.5 263 C 483.9589264 263 520 270.6111584 520 280 C 520 289.3888416 483.9589264 297 439.5 297 C 395.0410736 297 359 289.3888416 359 280 Z" fill="#C0C0C0" opacity="0.2" stroke="none"/></g><g transform="translate(-182,-150) scale(1,1)"><path d="M 352 273 C 352 263.6111584 388.0410736 256 432.5 256 C 476.9589264 256 513 263.6111584 513 273 C 513 282.3888416 476.9589264 290 432.5 290 C 388.0410736 290 352 282.3888416 352 273 Z" fill="#ffffff" stroke="none"/></g><g transform="translate(-182,-150) scale(1,1)"><path d="M 352 273 C 352 263.6111584 388.0410736 256 432.5 256 C 476.9589264 256 513 263.6111584 513 273 C 513 282.3888416 476.9589264 290 432.5 290 C 388.0410736 290 352 282.3888416 352 273 Z" fill="none" stroke="#000000" stroke-miterlimit="10"/></g><g transform="translate(-182,-150) scale(1,1)"><g><path fill="none" stroke="none"/><text fill="#000000" font-family="Arial" font-size="13px" font-style="normal" font-weight="bold" stroke="none" text-decoration="none" x="381.582275390625" y="279">차량 위치 및 방향</text></g></g><g transform="translate(-182,-150) scale(1,1)"><path d="M 503 240 C 503 230.6111584 527.8481936 223 558.5 223 C 589.1518064 223 614 230.6111584 614 240 C 614 249.3888416 589.1518064 257 558.5 257 C 527.8481936 257 503 249.3888416 503 240 Z" fill="#C0C0C0" opacity="0.2" stroke="none"/></g><g transform="translate(-182,-150) scale(1,1)"><path d="M 496 233 C 496 223.6111584 520.8481936 216 551.5 216 C 582.1518064 216 607 223.6111584 607 233 C 607 242.3888416 582.1518064 250 551.5 250 C 520.8481936 250 496 242.3888416 496 233 Z" fill="#ffffff" stroke="none"/></g><g transform="translate(-182,-150) scale(1,1)"><path d="M 496 233 C 496 223.6111584 520.8481936 216 551.5 216 C 582.1518064 216 607 223.6111584 607 233 C 607 242.3888416 582.1518064 250 551.5 250 C 520.8481936 250 496 242.3888416 496 233 Z" fill="none" stroke="#000000" stroke-miterlimit="10"/></g><g transform="translate(-182,-150) scale(1,1)"><g><path fill="none" stroke="none"/><text fill="#000000" font-family="Arial" font-size="13px" font-style="normal" font-weight="bold" stroke="none" text-decoration="none" x="517.194091796875" y="239">스캔 데이터</text></g></g><g transform="translate(-182,-150) scale(1,1)"><path d="M 615 272 C 615 262.6111584 643.8776304 255 679.5 255 C 715.1223696 255 744 262.6111584 744 272 C 744 281.3888416 715.1223696 289 679.5 289 C 643.8776304 289 615 281.3888416 615 272 Z" fill="#C0C0C0" opacity="0.2" stroke="none"/></g><g transform="translate(-182,-150) scale(1,1)"><path d="M 608 265 C 608 255.6111584 636.8776304 248 672.5 248 C 708.1223696 248 737 255.6111584 737 265 C 737 274.3888416 708.1223696 282 672.5 282 C 636.8776304 282 608 274.3888416 608 265 Z" fill="#ffffff" stroke="none"/></g><g transform="translate(-182,-150) scale(1,1)"><path d="M 608 265 C 608 255.6111584 636.8776304 248 672.5 248 C 708.1223696 248 737 255.6111584 737 265 C 737 274.3888416 708.1223696 282 672.5 282 C 636.8776304 282 608 274.3888416 608 265 Z" fill="none" stroke="#000000" stroke-miterlimit="10"/></g><g transform="translate(-182,-150) scale(1,1)"><g><path fill="none" stroke="none"/><text fill="#000000" font-family="Arial" font-size="13px" font-style="normal" font-weight="bold" stroke="none" text-decoration="none" x="631.694091796875" y="271">자율주행 경로</text></g></g><g transform="translate(-182,-150) scale(1,1)"><path d="M 263 320 C 263 310.6111584 296.1309248 303 337 303 C 377.8690752 303 411 310.6111584 411 320 C 411 329.3888416 377.8690752 337 337 337 C 296.1309248 337 263 329.3888416 263 320 Z" fill="#C0C0C0" opacity="0.2" stroke="none"/></g><g transform="translate(-182,-150) scale(1,1)"><path d="M 256 313 C 256 303.6111584 289.1309248 296 330 296 C 370.8690752 296 404 303.6111584 404 313 C 404 322.3888416 370.8690752 330 330 330 C 289.1309248 330 256 322.3888416 256 313 Z" fill="#ffffff" stroke="none"/></g><g transform="translate(-182,-150) scale(1,1)"><path d="M 256 313 C 256 303.6111584 289.1309248 296 330 296 C 370.8690752 296 404 303.6111584 404 313 C 404 322.3888416 370.8690752 330 330 330 C 289.1309248 330 256 322.3888416 256 313 Z" fill="none" stroke="#000000" stroke-miterlimit="10"/></g><g transform="translate(-182,-150) scale(1,1)"><g><path fill="none" stroke="none"/><text fill="#000000" font-family="Arial" font-size="13px" font-style="normal" font-weight="bold" stroke="none" text-decoration="none" x="282.694091796875" y="319">자율주행 목적지</text></g></g><g transform="translate(-182,-150) scale(1,1)"><path d="M 607 375 L 717 331" fill="none" stroke="#000000" stroke-dasharray="3" stroke-miterlimit="10"/></g><g transform="translate(-182,-150) scale(1,1)"><path d="M 709.1275689241817 338.68276180526834 L 717 331 L 706.0008176311189 330.86588357261144" fill="none" stroke="#000000" stroke-miterlimit="10"/></g><g transform="translate(-182,-150) scale(1,1)"><g><path fill="none" stroke="none"/><text fill="#000000" font-family="Arial" font-size="13px" font-style="normal" font-weight="normal" stroke="none" text-decoration="none" x="623.5" y="356">«extend»</text></g></g><g transform="translate(-182,-150) scale(1,1)"><path d="M 543 375 L 452 291" fill="none" stroke="#000000" stroke-dasharray="3" stroke-miterlimit="10"/></g><g transform="translate(-182,-150) scale(1,1)"><path d="M 462.32280062801857 294.79997199913095 L 452 291 L 456.6123363560042 300.9863082938132" fill="none" stroke="#000000" stroke-miterlimit="10"/></g><g transform="translate(-182,-150) scale(1,1)"><g><path fill="none" stroke="none"/><text fill="#000000" font-family="Arial" font-size="13px" font-style="normal" font-weight="normal" stroke="none" text-decoration="none" x="476.5" y="342">«extend»</text></g></g><g transform="translate(-182,-150) scale(1,1)"><path d="M 561 375 L 552 251" fill="none" stroke="#000000" stroke-dasharray="3" stroke-miterlimit="10"/></g><g transform="translate(-182,-150) scale(1,1)"><path d="M 556.9341518920926 260.8312840008698 L 552 251 L 548.5372046775173 261.440739847089" fill="none" stroke="#000000" stroke-miterlimit="10"/></g><g transform="translate(-182,-150) scale(1,1)"><g><path fill="none" stroke="none"/><text fill="#000000" font-family="Arial" font-size="13px" font-style="normal" font-weight="normal" stroke="none" text-decoration="none" x="526.5" y="311">«extend»</text></g></g><g transform="translate(-182,-150) scale(1,1)"><path d="M 577 375 L 657 283" fill="none" stroke="#000000" stroke-dasharray="3" stroke-miterlimit="10"/></g><g transform="translate(-182,-150) scale(1,1)"><path d="M 653.5079944160607 293.43100651911107 L 657 283 L 647.1549437273908 287.90661461591975" fill="none" stroke="#000000" stroke-miterlimit="10"/></g><g transform="translate(-182,-150) scale(1,1)"><g><path fill="none" stroke="none"/><text fill="#000000" font-family="Arial" font-size="13px" font-style="normal" font-weight="normal" stroke="none" text-decoration="none" x="596.5" y="331">«extend»</text></g></g><g transform="translate(-182,-150) scale(1,1)"><path d="M 511 375 L 382 331" fill="none" stroke="#000000" stroke-dasharray="3" stroke-miterlimit="10"/></g><g transform="translate(-182,-150) scale(1,1)"><path d="M 392.97748807166437 330.2966113190657 L 382 331 L 390.2596271619668 338.26488534976977" fill="none" stroke="#000000" stroke-miterlimit="10"/></g><g transform="translate(-182,-150) scale(1,1)"><g><path fill="none" stroke="none"/><text fill="#000000" font-family="Arial" font-size="13px" font-style="normal" font-weight="normal" stroke="none" text-decoration="none" x="415.5" y="353">«extend»</text></g></g><g transform="translate(-182,-150) scale(1,1)"><path d="M 815 240 C 815 230.6111584 839.8481936 223 870.5 223 C 901.1518064 223 926 230.6111584 926 240 C 926 249.3888416 901.1518064 257 870.5 257 C 839.8481936 257 815 249.3888416 815 240 Z" fill="#C0C0C0" opacity="0.2" stroke="none"/></g><g transform="translate(-182,-150) scale(1,1)"><path d="M 808 233 C 808 223.6111584 832.8481936 216 863.5 216 C 894.1518064 216 919 223.6111584 919 233 C 919 242.3888416 894.1518064 250 863.5 250 C 832.8481936 250 808 242.3888416 808 233 Z" fill="#ffffff" stroke="none"/></g><g transform="translate(-182,-150) scale(1,1)"><path d="M 808 233 C 808 223.6111584 832.8481936 216 863.5 216 C 894.1518064 216 919 223.6111584 919 233 C 919 242.3888416 894.1518064 250 863.5 250 C 832.8481936 250 808 242.3888416 808 233 Z" fill="none" stroke="#000000" stroke-miterlimit="10"/></g><g transform="translate(-182,-150) scale(1,1)"><g><path fill="none" stroke="none"/><text fill="#000000" font-family="Arial" font-size="13px" font-style="normal" font-weight="bold" stroke="none" text-decoration="none" x="829.194091796875" y="239">스케일 설정</text></g></g><g transform="translate(-182,-150) scale(1,1)"><path d="M 785 295 L 840 251" fill="none" stroke="#000000" stroke-dasharray="3" stroke-miterlimit="10"/></g><g transform="translate(-182,-150) scale(1,1)"><path d="M 834.6939490779461 260.63565377193316 L 840 251 L 829.4346192883949 254.0614915349942" fill="none" stroke="#000000" stroke-miterlimit="10"/></g><g transform="translate(-182,-150) scale(1,1)"><g><path fill="none" stroke="none"/><text fill="#000000" font-family="Arial" font-size="13px" font-style="normal" font-weight="normal" stroke="none" text-decoration="none" x="766.5" y="254">«extend»</text></g></g><g transform="translate(-182,-150) scale(1,1)"><path d="M 871 288 C 871 278.6111584 895.8481936 271 926.5 271 C 957.1518064 271 982 278.6111584 982 288 C 982 297.3888416 957.1518064 305 926.5 305 C 895.8481936 305 871 297.3888416 871 288 Z" fill="#C0C0C0" opacity="0.2" stroke="none"/></g><g transform="translate(-182,-150) scale(1,1)"><path d="M 864 281 C 864 271.6111584 888.8481936 264 919.5 264 C 950.1518064 264 975 271.6111584 975 281 C 975 290.3888416 950.1518064 298 919.5 298 C 888.8481936 298 864 290.3888416 864 281 Z" fill="#ffffff" stroke="none"/></g><g transform="translate(-182,-150) scale(1,1)"><path d="M 864 281 C 864 271.6111584 888.8481936 264 919.5 264 C 950.1518064 264 975 271.6111584 975 281 C 975 290.3888416 950.1518064 298 919.5 298 C 888.8481936 298 864 290.3888416 864 281 Z" fill="none" stroke="#000000" stroke-miterlimit="10"/></g><g transform="translate(-182,-150) scale(1,1)"><g><path fill="none" stroke="none"/><text fill="#000000" font-family="Arial" font-size="13px" font-style="normal" font-weight="bold" stroke="none" text-decoration="none" x="885.194091796875" y="287">스크롤 설정</text></g></g><g transform="translate(-182,-150) scale(1,1)"><path d="M 814 302 L 863 292" fill="none" stroke="#000000" stroke-dasharray="3" stroke-miterlimit="10"/></g><g transform="translate(-182,-150) scale(1,1)"><path d="M 853.8843051474246 298.15663116929466 L 863 292 L 852.2008347054439 289.9076260035893" fill="none" stroke="#000000" stroke-miterlimit="10"/></g><g transform="translate(-182,-150) scale(1,1)"><g><path fill="none" stroke="none"/><text fill="#000000" font-family="Arial" font-size="13px" font-style="normal" font-weight="normal" stroke="none" text-decoration="none" x="805.5" y="290">«extend»</text></g></g><g transform="translate(-182,-150) scale(1,1)"><path d="M 335 184 C 335 174.6111584 359.8481936 167 390.5 167 C 421.1518064 167 446 174.6111584 446 184 C 446 193.3888416 421.1518064 201 390.5 201 C 359.8481936 201 335 193.3888416 335 184 Z" fill="#C0C0C0" opacity="0.2" stroke="none"/></g><g transform="translate(-182,-150) scale(1,1)"><path d="M 328 177 C 328 167.6111584 352.8481936 160 383.5 160 C 414.1518064 160 439 167.6111584 439 177 C 439 186.3888416 414.1518064 194 383.5 194 C 352.8481936 194 328 186.3888416 328 177 Z" fill="#ffffff" stroke="none"/></g><g transform="translate(-182,-150) scale(1,1)"><path d="M 328 177 C 328 167.6111584 352.8481936 160 383.5 160 C 414.1518064 160 439 167.6111584 439 177 C 439 186.3888416 414.1518064 194 383.5 194 C 352.8481936 194 328 186.3888416 328 177 Z" fill="none" stroke="#000000" stroke-miterlimit="10"/></g><g transform="translate(-182,-150) scale(1,1)"><g><path fill="none" stroke="none"/><text fill="#000000" font-family="Arial" font-size="13px" font-style="normal" font-weight="bold" stroke="none" text-decoration="none" x="349.194091796875" y="183">목적지 제거</text></g></g><g transform="translate(-182,-150) scale(1,1)"><path d="M 337 295 L 376 195" fill="none" stroke="#000000" stroke-dasharray="3" stroke-miterlimit="10"/></g><g transform="translate(-182,-150) scale(1,1)"><path d="M 376.22925648615706 205.9976107161308 L 376 195 L 368.3856237017667 202.93859393021856" fill="none" stroke="#000000" stroke-miterlimit="10"/></g><g transform="translate(-182,-150) scale(1,1)"><g><path fill="none" stroke="none"/><text fill="#000000" font-family="Arial" font-size="13px" font-style="normal" font-weight="normal" stroke="none" text-decoration="none" x="335.5" y="243">«extend»</text></g></g><g transform="translate(-182,-150) scale(1,1)"><path d="M 199 200 C 199 190.6111584 223.8481936 183 254.5 183 C 285.1518064 183 310 190.6111584 310 200 C 310 209.3888416 285.1518064 217 254.5 217 C 223.8481936 217 199 209.3888416 199 200 Z" fill="#C0C0C0" opacity="0.2" stroke="none"/></g><g transform="translate(-182,-150) scale(1,1)"><path d="M 192 193 C 192 183.6111584 216.8481936 176 247.5 176 C 278.1518064 176 303 183.6111584 303 193 C 303 202.3888416 278.1518064 210 247.5 210 C 216.8481936 210 192 202.3888416 192 193 Z" fill="#ffffff" stroke="none"/></g><g transform="translate(-182,-150) scale(1,1)"><path d="M 192 193 C 192 183.6111584 216.8481936 176 247.5 176 C 278.1518064 176 303 183.6111584 303 193 C 303 202.3888416 278.1518064 210 247.5 210 C 216.8481936 210 192 202.3888416 192 193 Z" fill="none" stroke="#000000" stroke-miterlimit="10"/></g><g transform="translate(-182,-150) scale(1,1)"><g><path fill="none" stroke="none"/><text fill="#000000" font-family="Arial" font-size="13px" font-style="normal" font-weight="bold" stroke="none" text-decoration="none" x="213.194091796875" y="199">목적지 등록</text></g></g><g transform="translate(-182,-150) scale(1,1)"><path d="M 318 295 L 259 211" fill="none" stroke="#000000" stroke-dasharray="3" stroke-miterlimit="10"/></g><g transform="translate(-182,-150) scale(1,1)"><path d="M 268.2859067296764 216.8967733725954 L 259 211 L 261.39647917913754 221.73577605690247" fill="none" stroke="#000000" stroke-miterlimit="10"/></g><g transform="translate(-182,-150) scale(1,1)"><g><path fill="none" stroke="none"/><text fill="#000000" font-family="Arial" font-size="13px" font-style="normal" font-weight="normal" stroke="none" text-decoration="none" x="255.5" y="250">«extend»</text></g></g><g transform="translate(-182,-150) scale(1,1)"><path d="M 703 400 C 703 390.6111584 725.6096176 383 753.5 383 C 781.3903824 383 804 390.6111584 804 400 C 804 409.3888416 781.3903824 417 753.5 417 C 725.6096176 417 703 409.3888416 703 400 Z" fill="#C0C0C0" opacity="0.2" stroke="none"/></g><g transform="translate(-182,-150) scale(1,1)"><path d="M 696 393 C 696 383.6111584 718.6096176 376 746.5 376 C 774.3903824 376 797 383.6111584 797 393 C 797 402.3888416 774.3903824 410 746.5 410 C 718.6096176 410 696 402.3888416 696 393 Z" fill="#ffffff" stroke="none"/></g><g transform="translate(-182,-150) scale(1,1)"><path d="M 696 393 C 696 383.6111584 718.6096176 376 746.5 376 C 774.3903824 376 797 383.6111584 797 393 C 797 402.3888416 774.3903824 410 746.5 410 C 718.6096176 410 696 402.3888416 696 393 Z" fill="none" stroke="#000000" stroke-miterlimit="10"/></g><g transform="translate(-182,-150) scale(1,1)"><g><path fill="none" stroke="none"/><text fill="#000000" font-family="Arial" font-size="13px" font-style="normal" font-weight="bold" stroke="none" text-decoration="none" x="718.694091796875" y="399">주행 속도</text></g></g><g transform="translate(-182,-150) scale(1,1)"><path d="M 879 472 C 879 462.6111584 901.6096176 455 929.5 455 C 957.3903824 455 980 462.6111584 980 472 C 980 481.3888416 957.3903824 489 929.5 489 C 901.6096176 489 879 481.3888416 879 472 Z" fill="#C0C0C0" opacity="0.2" stroke="none"/></g><g transform="translate(-182,-150) scale(1,1)"><path d="M 872 465 C 872 455.6111584 894.6096176 448 922.5 448 C 950.3903824 448 973 455.6111584 973 465 C 973 474.3888416 950.3903824 482 922.5 482 C 894.6096176 482 872 474.3888416 872 465 Z" fill="#ffffff" stroke="none"/></g><g transform="translate(-182,-150) scale(1,1)"><path d="M 872 465 C 872 455.6111584 894.6096176 448 922.5 448 C 950.3903824 448 973 455.6111584 973 465 C 973 474.3888416 950.3903824 482 922.5 482 C 894.6096176 482 872 474.3888416 872 465 Z" fill="none" stroke="#000000" stroke-miterlimit="10"/></g><g transform="translate(-182,-150) scale(1,1)"><g><path fill="none" stroke="none"/><text fill="#000000" font-family="Arial" font-size="13px" font-style="normal" font-weight="bold" stroke="none" text-decoration="none" x="894.694091796875" y="471">운행 시간</text></g></g><g transform="translate(-182,-150) scale(1,1)"><path d="M 823 424 C 823 414.6111584 845.6096176 407 873.5 407 C 901.3903824 407 924 414.6111584 924 424 C 924 433.3888416 901.3903824 441 873.5 441 C 845.6096176 441 823 433.3888416 823 424 Z" fill="#C0C0C0" opacity="0.2" stroke="none"/></g><g transform="translate(-182,-150) scale(1,1)"><path d="M 816 417 C 816 407.6111584 838.6096176 400 866.5 400 C 894.3903824 400 917 407.6111584 917 417 C 917 426.3888416 894.3903824 434 866.5 434 C 838.6096176 434 816 426.3888416 816 417 Z" fill="#ffffff" stroke="none"/></g><g transform="translate(-182,-150) scale(1,1)"><path d="M 816 417 C 816 407.6111584 838.6096176 400 866.5 400 C 894.3903824 400 917 407.6111584 917 417 C 917 426.3888416 894.3903824 434 866.5 434 C 838.6096176 434 816 426.3888416 816 417 Z" fill="none" stroke="#000000" stroke-miterlimit="10"/></g><g transform="translate(-182,-150) scale(1,1)"><g><path fill="none" stroke="none"/><text fill="#000000" font-family="Arial" font-size="13px" font-style="normal" font-weight="bold" stroke="none" text-decoration="none" x="847" y="423">배터리</text></g></g><g transform="translate(-182,-150) scale(1,1)"><path d="M 721 463 L 739 411" fill="none" stroke="#000000" stroke-dasharray="3" stroke-miterlimit="10"/></g><g transform="translate(-182,-150) scale(1,1)"><path d="M 739.6536173520959 421.9805639362029 L 739 411 L 731.6977460414267 419.2266084825097" fill="none" stroke="#000000" stroke-miterlimit="10"/></g><g transform="translate(-182,-150) scale(1,1)"><g><path fill="none" stroke="none"/><text fill="#000000" font-family="Arial" font-size="13px" font-style="normal" font-weight="normal" stroke="none" text-decoration="none" x="695.5" y="443">«extend»</text></g></g><g transform="translate(-182,-150) scale(1,1)"><path d="M 757 463 L 823 435" fill="none" stroke="#000000" stroke-dasharray="3" stroke-miterlimit="10"/></g><g transform="translate(-182,-150) scale(1,1)"><path d="M 815.2884531858998 442.84423646596287 L 823 435 L 812.0004001559992 435.09382575262543" fill="none" stroke="#000000" stroke-miterlimit="10"/></g><g transform="translate(-182,-150) scale(1,1)"><g><path fill="none" stroke="none"/><text fill="#000000" font-family="Arial" font-size="13px" font-style="normal" font-weight="normal" stroke="none" text-decoration="none" x="751.5" y="450">«extend»</text></g></g><g transform="translate(-182,-150) scale(1,1)"><path d="M 766 477 L 871 469" fill="none" stroke="#000000" stroke-dasharray="3" stroke-miterlimit="10"/></g><g transform="translate(-182,-150) scale(1,1)"><path d="M 861.1864927366698 473.9694139687257 L 871 469 L 860.5468961510667 465.57470878268487" fill="none" stroke="#000000" stroke-miterlimit="10"/></g><g transform="translate(-182,-150) scale(1,1)"><g><path fill="none" stroke="none"/><text fill="#000000" font-family="Arial" font-size="13px" font-style="normal" font-weight="normal" stroke="none" text-decoration="none" x="791.5" y="475">«extend»</text></g></g><g transform="translate(-182,-150) scale(1,1)"><path d="M 895 352 C 895 342.6111584 933.7273648 335 981.5 335 C 1029.2726352 335 1068 342.6111584 1068 352 C 1068 361.3888416 1029.2726352 369 981.5 369 C 933.7273648 369 895 361.3888416 895 352 Z" fill="#C0C0C0" opacity="0.2" stroke="none"/></g><g transform="translate(-182,-150) scale(1,1)"><path d="M 888 345 C 888 335.6111584 926.7273648 328 974.5 328 C 1022.2726352 328 1061 335.6111584 1061 345 C 1061 354.3888416 1022.2726352 362 974.5 362 C 926.7273648 362 888 354.3888416 888 345 Z" fill="#ffffff" stroke="none"/></g><g transform="translate(-182,-150) scale(1,1)"><path d="M 888 345 C 888 335.6111584 926.7273648 328 974.5 328 C 1022.2726352 328 1061 335.6111584 1061 345 C 1061 354.3888416 1022.2726352 362 974.5 362 C 926.7273648 362 888 354.3888416 888 345 Z" fill="none" stroke="#000000" stroke-miterlimit="10"/></g><g transform="translate(-182,-150) scale(1,1)"><g><path fill="none" stroke="none"/><text fill="#000000" font-family="Arial" font-size="13px" font-style="normal" font-weight="bold" stroke="none" text-decoration="none" x="918.88818359375" y="351">잔여 배터리 퍼센트</text></g></g><g transform="translate(-182,-150) scale(1,1)"><path d="M 1023 408 C 1023 398.6111584 1053.4446336 391 1091 391 C 1128.5553664 391 1159 398.6111584 1159 408 C 1159 417.3888416 1128.5553664 425 1091 425 C 1053.4446336 425 1023 417.3888416 1023 408 Z" fill="#C0C0C0" opacity="0.2" stroke="none"/></g><g transform="translate(-182,-150) scale(1,1)"><path d="M 1016 401 C 1016 391.6111584 1046.4446336 384 1084 384 C 1121.5553664 384 1152 391.6111584 1152 401 C 1152 410.3888416 1121.5553664 418 1084 418 C 1046.4446336 418 1016 410.3888416 1016 401 Z" fill="#ffffff" stroke="none"/></g><g transform="translate(-182,-150) scale(1,1)"><path d="M 1016 401 C 1016 391.6111584 1046.4446336 384 1084 384 C 1121.5553664 384 1152 391.6111584 1152 401 C 1152 410.3888416 1121.5553664 418 1084 418 C 1046.4446336 418 1016 410.3888416 1016 401 Z" fill="none" stroke="#000000" stroke-miterlimit="10"/></g><g transform="translate(-182,-150) scale(1,1)"><g><path fill="none" stroke="none"/><text fill="#000000" font-family="Arial" font-size="13px" font-style="normal" font-weight="bold" stroke="none" text-decoration="none" x="1041.38818359375" y="407">잔여 사용 시간</text></g></g><g transform="translate(-182,-150) scale(1,1)"><path d="M 893 399 L 947 363" fill="none" stroke="#000000" stroke-dasharray="3" stroke-miterlimit="10"/></g><g transform="translate(-182,-150) scale(1,1)"><path d="M 940.8791637187297 372.1397682256108 L 947 363 L 936.2091230681783 365.13470724978384" fill="none" stroke="#000000" stroke-miterlimit="10"/></g><g transform="translate(-182,-150) scale(1,1)"><g><path fill="none" stroke="none"/><text fill="#000000" font-family="Arial" font-size="13px" font-style="normal" font-weight="normal" stroke="none" text-decoration="none" x="888.5" y="387">«extend»</text></g></g><g transform="translate(-182,-150) scale(1,1)"><path d="M 918 413 L 1015 406" fill="none" stroke="#000000" stroke-dasharray="3" stroke-miterlimit="10"/></g><g transform="translate(-182,-150) scale(1,1)"><path d="M 1005.1666764165061 410.93008593254757 L 1015 406 L 1004.5606930177731 402.5328874072467" fill="none" stroke="#000000" stroke-miterlimit="10"/></g><g transform="translate(-182,-150) scale(1,1)"><g><path fill="none" stroke="none"/><text fill="#000000" font-family="Arial" font-size="13px" font-style="normal" font-weight="normal" stroke="none" text-decoration="none" x="939.5" y="411">«extend»</text></g></g><g transform="translate(-182,-150) scale(1,1)"><path d="M 919 544 C 919 534.6111584 943.8481936 527 974.5 527 C 1005.1518064 527 1030 534.6111584 1030 544 C 1030 553.3888416 1005.1518064 561 974.5 561 C 943.8481936 561 919 553.3888416 919 544 Z" fill="#C0C0C0" opacity="0.2" stroke="none"/></g><g transform="translate(-182,-150) scale(1,1)"><path d="M 912 537 C 912 527.6111584 936.8481936 520 967.5 520 C 998.1518064 520 1023 527.6111584 1023 537 C 1023 546.3888416 998.1518064 554 967.5 554 C 936.8481936 554 912 546.3888416 912 537 Z" fill="#ffffff" stroke="none"/></g><g transform="translate(-182,-150) scale(1,1)"><path d="M 912 537 C 912 527.6111584 936.8481936 520 967.5 520 C 998.1518064 520 1023 527.6111584 1023 537 C 1023 546.3888416 998.1518064 554 967.5 554 C 936.8481936 554 912 546.3888416 912 537 Z" fill="none" stroke="#000000" stroke-miterlimit="10"/></g><g transform="translate(-182,-150) scale(1,1)"><g><path fill="none" stroke="none"/><text fill="#000000" font-family="Arial" font-size="13px" font-style="normal" font-weight="bold" stroke="none" text-decoration="none" x="933.194091796875" y="543">경유지 목록</text></g></g><g transform="translate(-182,-150) scale(1,1)"><path d="M 983 584 C 983 574.6111584 1016.1309248 567 1057 567 C 1097.8690752 567 1131 574.6111584 1131 584 C 1131 593.3888416 1097.8690752 601 1057 601 C 1016.1309248 601 983 593.3888416 983 584 Z" fill="#C0C0C0" opacity="0.2" stroke="none"/></g><g transform="translate(-182,-150) scale(1,1)"><path d="M 976 577 C 976 567.6111584 1009.1309248 560 1050 560 C 1090.8690752 560 1124 567.6111584 1124 577 C 1124 586.3888416 1090.8690752 594 1050 594 C 1009.1309248 594 976 586.3888416 976 577 Z" fill="#ffffff" stroke="none"/></g><g transform="translate(-182,-150) scale(1,1)"><path d="M 976 577 C 976 567.6111584 1009.1309248 560 1050 560 C 1090.8690752 560 1124 567.6111584 1124 577 C 1124 586.3888416 1090.8690752 594 1050 594 C 1009.1309248 594 976 586.3888416 976 577 Z" fill="none" stroke="#000000" stroke-miterlimit="10"/></g><g transform="translate(-182,-150) scale(1,1)"><g><path fill="none" stroke="none"/><text fill="#000000" font-family="Arial" font-size="13px" font-style="normal" font-weight="bold" stroke="none" text-decoration="none" x="1002.694091796875" y="583">자율주행 진행률</text></g></g><g transform="translate(-182,-150) scale(1,1)"><path d="M 983 632 C 983 622.6111584 1013.4446336 615 1051 615 C 1088.5553664 615 1119 622.6111584 1119 632 C 1119 641.3888416 1088.5553664 649 1051 649 C 1013.4446336 649 983 641.3888416 983 632 Z" fill="#C0C0C0" opacity="0.2" stroke="none"/></g><g transform="translate(-182,-150) scale(1,1)"><path d="M 976 625 C 976 615.6111584 1006.4446336 608 1044 608 C 1081.5553664 608 1112 615.6111584 1112 625 C 1112 634.3888416 1081.5553664 642 1044 642 C 1006.4446336 642 976 634.3888416 976 625 Z" fill="#ffffff" stroke="none"/></g><g transform="translate(-182,-150) scale(1,1)"><path d="M 976 625 C 976 615.6111584 1006.4446336 608 1044 608 C 1081.5553664 608 1112 615.6111584 1112 625 C 1112 634.3888416 1081.5553664 642 1044 642 C 1006.4446336 642 976 634.3888416 976 625 Z" fill="none" stroke="#000000" stroke-miterlimit="10"/></g><g transform="translate(-182,-150) scale(1,1)"><g><path fill="none" stroke="none"/><text fill="#000000" font-family="Arial" font-size="13px" font-style="normal" font-weight="bold" stroke="none" text-decoration="none" x="1001.38818359375" y="631">잔여 주행 거리</text></g></g><g transform="translate(-182,-150) scale(1,1)"><path d="M 895 680 C 895 670.6111584 931.0410736 663 975.5 663 C 1019.9589264 663 1056 670.6111584 1056 680 C 1056 689.3888416 1019.9589264 697 975.5 697 C 931.0410736 697 895 689.3888416 895 680 Z" fill="#C0C0C0" opacity="0.2" stroke="none"/></g><g transform="translate(-182,-150) scale(1,1)"><path d="M 888 673 C 888 663.6111584 924.0410736 656 968.5 656 C 1012.9589264 656 1049 663.6111584 1049 673 C 1049 682.3888416 1012.9589264 690 968.5 690 C 924.0410736 690 888 682.3888416 888 673 Z" fill="#ffffff" stroke="none"/></g><g transform="translate(-182,-150) scale(1,1)"><path d="M 888 673 C 888 663.6111584 924.0410736 656 968.5 656 C 1012.9589264 656 1049 663.6111584 1049 673 C 1049 682.3888416 1012.9589264 690 968.5 690 C 924.0410736 690 888 682.3888416 888 673 Z" fill="none" stroke="#000000" stroke-miterlimit="10"/></g><g transform="translate(-182,-150) scale(1,1)"><g><path fill="none" stroke="none"/><text fill="#000000" font-family="Arial" font-size="13px" font-style="normal" font-weight="bold" stroke="none" text-decoration="none" x="917.582275390625" y="679">총 예상 주행 거리</text></g></g><g transform="translate(-182,-150) scale(1,1)"><path d="M 838 551 L 911 543" fill="none" stroke="#000000" stroke-dasharray="3" stroke-miterlimit="10"/></g><g transform="translate(-182,-150) scale(1,1)"><path d="M 901.3563781076418 548.2915552342605 L 911 543 L 900.4392349755457 539.9226241538832" fill="none" stroke="#000000" stroke-miterlimit="10"/></g><g transform="translate(-182,-150) scale(1,1)"><g><path fill="none" stroke="none"/><text fill="#000000" font-family="Arial" font-size="13px" font-style="normal" font-weight="normal" stroke="none" text-decoration="none" x="839.5" y="547">«extend»</text></g></g><g transform="translate(-182,-150) scale(1,1)"><path d="M 838 566 L 975 573" fill="none" stroke="#000000" stroke-dasharray="3" stroke-miterlimit="10"/></g><g transform="translate(-182,-150) scale(1,1)"><path d="M 964.6357603722682 576.6854493537363 L 975 573 L 965.065369647642 568.277382107135" fill="none" stroke="#000000" stroke-miterlimit="10"/></g><g transform="translate(-182,-150) scale(1,1)"><g><path fill="none" stroke="none"/><text fill="#000000" font-family="Arial" font-size="13px" font-style="normal" font-weight="normal" stroke="none" text-decoration="none" x="880.5" y="571">«extend»</text></g></g><g transform="translate(-182,-150) scale(1,1)"><path d="M 833 579 L 975 610" fill="none" stroke="#000000" stroke-dasharray="3" stroke-miterlimit="10"/></g><g transform="translate(-182,-150) scale(1,1)"><path d="M 964.1733380885673 611.945094305049 L 975 610 L 965.9690045716644 603.7197833179594" fill="none" stroke="#000000" stroke-miterlimit="10"/></g><g transform="translate(-182,-150) scale(1,1)"><g><path fill="none" stroke="none"/><text fill="#000000" font-family="Arial" font-size="13px" font-style="normal" font-weight="normal" stroke="none" text-decoration="none" x="880.5" y="595">«extend»</text></g></g><g transform="translate(-182,-150) scale(1,1)"><path d="M 785 579 L 933 655" fill="none" stroke="#000000" stroke-dasharray="3" stroke-miterlimit="10"/></g><g transform="translate(-182,-150) scale(1,1)"><path d="M 922.0366921980332 654.1022906710219 L 933 655 L 925.8825470630487 646.6129943549391" fill="none" stroke="#000000" stroke-miterlimit="10"/></g><g transform="translate(-182,-150) scale(1,1)"><g><path fill="none" stroke="none"/><text fill="#000000" font-family="Arial" font-size="13px" font-style="normal" font-weight="normal" stroke="none" text-decoration="none" x="833.5" y="619">«extend»</text></g></g><g transform="translate(-182,-150) scale(1,1)"><path d="M 647 712 C 647 702.6111584 669.6096176 695 697.5 695 C 725.3903824 695 748 702.6111584 748 712 C 748 721.3888416 725.3903824 729 697.5 729 C 669.6096176 729 647 721.3888416 647 712 Z" fill="#C0C0C0" opacity="0.2" stroke="none"/></g><g transform="translate(-182,-150) scale(1,1)"><path d="M 640 705 C 640 695.6111584 662.6096176 688 690.5 688 C 718.3903824 688 741 695.6111584 741 705 C 741 714.3888416 718.3903824 722 690.5 722 C 662.6096176 722 640 714.3888416 640 705 Z" fill="#ffffff" stroke="none"/></g><g transform="translate(-182,-150) scale(1,1)"><path d="M 640 705 C 640 695.6111584 662.6096176 688 690.5 688 C 718.3903824 688 741 695.6111584 741 705 C 741 714.3888416 718.3903824 722 690.5 722 C 662.6096176 722 640 714.3888416 640 705 Z" fill="none" stroke="#000000" stroke-miterlimit="10"/></g><g transform="translate(-182,-150) scale(1,1)"><g><path fill="none" stroke="none"/><text fill="#000000" font-family="Arial" font-size="13px" font-style="normal" font-weight="bold" stroke="none" text-decoration="none" x="662.694091796875" y="711">비상 정지</text></g></g><g transform="translate(-182,-150) scale(1,1)"><path d="M 610 659 L 659 687" fill="none" stroke="#000000" stroke-dasharray="3" stroke-miterlimit="10"/></g><g transform="translate(-182,-150) scale(1,1)"><path d="M 648.0878215787632 685.6127862085847 L 659 687 L 652.2648329196912 678.3030163619607" fill="none" stroke="#000000" stroke-miterlimit="10"/></g><g transform="translate(-182,-150) scale(1,1)"><g><path fill="none" stroke="none"/><text fill="#000000" font-family="Arial" font-size="13px" font-style="normal" font-weight="normal" stroke="none" text-decoration="none" x="615.5" y="675">«extend»</text></g></g><g transform="translate(-182,-150) scale(1,1)"><path d="M 503 720 C 503 710.6111584 525.6096176 703 553.5 703 C 581.3903824 703 604 710.6111584 604 720 C 604 729.3888416 581.3903824 737 553.5 737 C 525.6096176 737 503 729.3888416 503 720 Z" fill="#C0C0C0" opacity="0.2" stroke="none"/></g><g transform="translate(-182,-150) scale(1,1)"><path d="M 496 713 C 496 703.6111584 518.6096176 696 546.5 696 C 574.3903824 696 597 703.6111584 597 713 C 597 722.3888416 574.3903824 730 546.5 730 C 518.6096176 730 496 722.3888416 496 713 Z" fill="#ffffff" stroke="none"/></g><g transform="translate(-182,-150) scale(1,1)"><path d="M 496 713 C 496 703.6111584 518.6096176 696 546.5 696 C 574.3903824 696 597 703.6111584 597 713 C 597 722.3888416 574.3903824 730 546.5 730 C 518.6096176 730 496 722.3888416 496 713 Z" fill="none" stroke="#000000" stroke-miterlimit="10"/></g><g transform="translate(-182,-150) scale(1,1)"><g><path fill="none" stroke="none"/><text fill="#000000" font-family="Arial" font-size="13px" font-style="normal" font-weight="bold" stroke="none" text-decoration="none" x="533.5" y="719">재개</text></g></g><g transform="translate(-182,-150) scale(1,1)"><path d="M 570 659 L 554 695" fill="none" stroke="#000000" stroke-dasharray="3" stroke-miterlimit="10"/></g><g transform="translate(-182,-150) scale(1,1)"><path d="M 554.280747238106 684.0035832659772 L 554 695 L 561.9741591172449 687.4228774344834" fill="none" stroke="#000000" stroke-miterlimit="10"/></g><g transform="translate(-182,-150) scale(1,1)"><g><path fill="none" stroke="none"/><text fill="#000000" font-family="Arial" font-size="13px" font-style="normal" font-weight="normal" stroke="none" text-decoration="none" x="550.5" y="683">«extend»</text></g></g><g transform="translate(-182,-150) scale(1,1)"><path d="M 343 784 C 343 774.6111584 365.6096176 767 393.5 767 C 421.3903824 767 444 774.6111584 444 784 C 444 793.3888416 421.3903824 801 393.5 801 C 365.6096176 801 343 793.3888416 343 784 Z" fill="#C0C0C0" opacity="0.2" stroke="none"/></g><g transform="translate(-182,-150) scale(1,1)"><path d="M 336 777 C 336 767.6111584 358.6096176 760 386.5 760 C 414.3903824 760 437 767.6111584 437 777 C 437 786.3888416 414.3903824 794 386.5 794 C 358.6096176 794 336 786.3888416 336 777 Z" fill="#ffffff" stroke="none"/></g><g transform="translate(-182,-150) scale(1,1)"><path d="M 336 777 C 336 767.6111584 358.6096176 760 386.5 760 C 414.3903824 760 437 767.6111584 437 777 C 437 786.3888416 414.3903824 794 386.5 794 C 358.6096176 794 336 786.3888416 336 777 Z" fill="none" stroke="#000000" stroke-miterlimit="10"/></g><g transform="translate(-182,-150) scale(1,1)"><g><path fill="none" stroke="none"/><text fill="#000000" font-family="Arial" font-size="13px" font-style="normal" font-weight="bold" stroke="none" text-decoration="none" x="358.694091796875" y="783">차량 연결</text></g></g><g transform="translate(-182,-150) scale(1,1)"><path d="M 266 576 L 375 759" fill="none" stroke="#000000" stroke-miterlimit="10"/></g><g transform="translate(-182,-150) scale(1,1)"><path d="M 823 880 C 823 870.6111584 857.0263552 863 899 863 C 940.9736448 863 975 870.6111584 975 880 C 975 889.3888416 940.9736448 897 899 897 C 857.0263552 897 823 889.3888416 823 880 Z" fill="#C0C0C0" opacity="0.2" stroke="none"/></g><g transform="translate(-182,-150) scale(1,1)"><path d="M 816 873 C 816 863.6111584 850.0263552 856 892 856 C 933.9736448 856 968 863.6111584 968 873 C 968 882.3888416 933.9736448 890 892 890 C 850.0263552 890 816 882.3888416 816 873 Z" fill="#ffffff" stroke="none"/></g><g transform="translate(-182,-150) scale(1,1)"><path d="M 816 873 C 816 863.6111584 850.0263552 856 892 856 C 933.9736448 856 968 863.6111584 968 873 C 968 882.3888416 933.9736448 890 892 890 C 850.0263552 890 816 882.3888416 816 873 Z" fill="none" stroke="#000000" stroke-miterlimit="10"/></g><g transform="translate(-182,-150) scale(1,1)"><g><path fill="none" stroke="none"/><text fill="#000000" font-family="Arial" font-size="13px" font-style="normal" font-weight="bold" stroke="none" text-decoration="none" x="843.976806640625" y="879">MQTT 서버 연결</text></g></g><g transform="translate(-182,-150) scale(1,1)"><path d="M 815 858 L 438 787" fill="none" stroke="#000000" stroke-miterlimit="10"/></g><g transform="translate(-182,-150) scale(1,1)"><path d="M 459.53237193097004 782.4881313154777 L 438 787 L 456.4160591500687 799.0353132647709" fill="#FFFFFF" stroke="none"/></g><g transform="translate(-182,-150) scale(1,1)"><path d="M 459.53237193097004 782.4881313154777 L 438 787 L 456.4160591500687 799.0353132647709 L 459.53237193097004 782.4881313154777" fill="none" stroke="#000000" stroke-miterlimit="10"/></g><g transform="translate(-182,-150) scale(1,1)"><path d="M 575 912 C 575 902.6111584 609.0263552 895 651 895 C 692.9736448 895 727 902.6111584 727 912 C 727 921.3888416 692.9736448 929 651 929 C 609.0263552 929 575 921.3888416 575 912 Z" fill="#C0C0C0" opacity="0.2" stroke="none"/></g><g transform="translate(-182,-150) scale(1,1)"><path d="M 568 905 C 568 895.6111584 602.0263552 888 644 888 C 685.9736448 888 720 895.6111584 720 905 C 720 914.3888416 685.9736448 922 644 922 C 602.0263552 922 568 914.3888416 568 905 Z" fill="#ffffff" stroke="none"/></g><g transform="translate(-182,-150) scale(1,1)"><path d="M 568 905 C 568 895.6111584 602.0263552 888 644 888 C 685.9736448 888 720 895.6111584 720 905 C 720 914.3888416 685.9736448 922 644 922 C 602.0263552 922 568 914.3888416 568 905 Z" fill="none" stroke="#000000" stroke-miterlimit="10"/></g><g transform="translate(-182,-150) scale(1,1)"><g><path fill="none" stroke="none"/><text fill="#000000" font-family="Arial" font-size="13px" font-style="normal" font-weight="bold" stroke="none" text-decoration="none" x="595.976806640625" y="911">MQTT 서버 주소</text></g></g><g transform="translate(-182,-150) scale(1,1)"><path d="M 815 883 L 721 895" fill="none" stroke="#000000" stroke-dasharray="3" stroke-miterlimit="10"/></g><g transform="translate(-182,-150) scale(1,1)"><path d="M 730.5478039094205 889.5374510979531 L 721 895 L 731.6139222609912 897.8887115185902" fill="none" stroke="#000000" stroke-miterlimit="10"/></g><g transform="translate(-182,-150) scale(1,1)"><g><path fill="none" stroke="none"/><text fill="#000000" font-family="Arial" font-size="13px" font-style="normal" font-weight="normal" stroke="none" text-decoration="none" x="751.534912109375" y="891">«include»</text></g></g><g transform="translate(-182,-150) scale(1,1)"><path d="M 1191 528 C 1191 518.6111584 1218.3106272 511 1252 511 C 1285.6893728 511 1313 518.6111584 1313 528 C 1313 537.3888416 1285.6893728 545 1252 545 C 1218.3106272 545 1191 537.3888416 1191 528 Z" fill="#C0C0C0" opacity="0.2" stroke="none"/></g><g transform="translate(-182,-150) scale(1,1)"><path d="M 1184 521 C 1184 511.6111584 1211.3106272 504 1245 504 C 1278.6893728 504 1306 511.6111584 1306 521 C 1306 530.3888416 1278.6893728 538 1245 538 C 1211.3106272 538 1184 530.3888416 1184 521 Z" fill="#ffffff" stroke="none"/></g><g transform="translate(-182,-150) scale(1,1)"><path d="M 1184 521 C 1184 511.6111584 1211.3106272 504 1245 504 C 1278.6893728 504 1306 511.6111584 1306 521 C 1306 530.3888416 1278.6893728 538 1245 538 C 1211.3106272 538 1184 530.3888416 1184 521 Z" fill="none" stroke="#000000" stroke-miterlimit="10"/></g><g transform="translate(-182,-150) scale(1,1)"><g><path fill="none" stroke="none"/><text fill="#000000" font-family="Arial" font-size="13px" font-style="normal" font-weight="bold" stroke="none" text-decoration="none" x="1206.726806640625" y="526.5">MQTT Client</text></g></g><g transform="translate(-182,-150) scale(1,1)"><path d="M 614 378 Q 1184 216 1241 503" fill="none" stroke="#000000" stroke-dasharray="3" stroke-miterlimit="10"/></g><g transform="translate(-182,-150) scale(1,1)"><path d="M 1234.8914209069947 493.8520351189733 L 1241 503 L 1243.149170301352 492.21199429849116" fill="none" stroke="#000000" stroke-miterlimit="10"/></g><g transform="translate(-182,-150) scale(1,1)"><g><path fill="none" stroke="none"/><text fill="#000000" font-family="Arial" font-size="13px" font-style="normal" font-weight="normal" stroke="none" text-decoration="none" x="1095.534912109375" y="347">«include»</text></g></g><g transform="translate(-182,-150) scale(1,1)"><path d="M 766 485 L 1183 516" fill="none" stroke="#000000" stroke-dasharray="3" stroke-miterlimit="10"/></g><g transform="translate(-182,-150) scale(1,1)"><path d="M 1172.5532147503739 519.4445141817379 L 1183 516 L 1173.1773679725898 511.04864664418983" fill="none" stroke="#000000" stroke-miterlimit="10"/></g><g transform="translate(-182,-150) scale(1,1)"><g><path fill="none" stroke="none"/><text fill="#000000" font-family="Arial" font-size="13px" font-style="normal" font-weight="normal" stroke="none" text-decoration="none" x="1007.534912109375" y="506">«include»</text></g></g><g transform="translate(-182,-150) scale(1,1)"><path d="M 763 579 Q 1048 960 1237 539" fill="none" stroke="#000000" stroke-dasharray="3" stroke-miterlimit="10"/></g><g transform="translate(-182,-150) scale(1,1)"><path d="M 1236.6781243018143 549.9952897203719 L 1237 539 L 1228.997555588728 546.5472434334995" fill="none" stroke="#000000" stroke-miterlimit="10"/></g><g transform="translate(-182,-150) scale(1,1)"><g><path fill="none" stroke="none"/><text fill="#000000" font-family="Arial" font-size="13px" font-style="normal" font-weight="normal" stroke="none" text-decoration="none" x="991.534912109375" y="754">«include»</text></g></g><g transform="translate(-182,-150) scale(1,1)"><path d="M 611 659 Q 1184 976 1243 539" fill="none" stroke="#000000" stroke-dasharray="3" stroke-miterlimit="10"/></g><g transform="translate(-182,-150) scale(1,1)"><path d="M 1245.8119280695166 549.6345221111183 L 1243 539 L 1237.468590706714 548.508076105614" fill="none" stroke="#000000" stroke-miterlimit="10"/></g><g transform="translate(-182,-150) scale(1,1)"><g><path fill="none" stroke="none"/><text fill="#000000" font-family="Arial" font-size="13px" font-style="normal" font-weight="normal" stroke="none" text-decoration="none" x="1031.534912109375" y="786">«include»</text></g></g><g transform="translate(-182,-150) scale(1,1)"><path d="M 969 868 Q 1296 848 1248 539" fill="none" stroke="#000000" stroke-dasharray="3" stroke-miterlimit="10"/></g><g transform="translate(-182,-150) scale(1,1)"><path d="M 1253.7195889041639 548.3960791167042 L 1248 539 L 1245.4003288397469 549.6883913597205" fill="none" stroke="#000000" stroke-miterlimit="10"/></g><g transform="translate(-182,-150) scale(1,1)"><g><path fill="none" stroke="none"/><text fill="#000000" font-family="Arial" font-size="13px" font-style="normal" font-weight="normal" stroke="none" text-decoration="none" x="1151.5" y="810">«extend»</text></g></g><g transform="translate(-182,-150) scale(1,1)"><path d="M 1455 528 C 1455 518.6111584 1484.101488 511 1520 511 C 1555.898512 511 1585 518.6111584 1585 528 C 1585 537.3888416 1555.898512 545 1520 545 C 1484.101488 545 1455 537.3888416 1455 528 Z" fill="#C0C0C0" opacity="0.2" stroke="none"/></g><g transform="translate(-182,-150) scale(1,1)"><path d="M 1448 521 C 1448 511.6111584 1477.101488 504 1513 504 C 1548.898512 504 1578 511.6111584 1578 521 C 1578 530.3888416 1548.898512 538 1513 538 C 1477.101488 538 1448 530.3888416 1448 521 Z" fill="#ffffff" stroke="none"/></g><g transform="translate(-182,-150) scale(1,1)"><path d="M 1448 521 C 1448 511.6111584 1477.101488 504 1513 504 C 1548.898512 504 1578 511.6111584 1578 521 C 1578 530.3888416 1548.898512 538 1513 538 C 1477.101488 538 1448 530.3888416 1448 521 Z" fill="none" stroke="#000000" stroke-miterlimit="10"/></g><g transform="translate(-182,-150) scale(1,1)"><g><path fill="none" stroke="none"/><text fill="#000000" font-family="Arial" font-size="13px" font-style="normal" font-weight="bold" stroke="none" text-decoration="none" x="1471.8291015625" y="526.5">MQTT Broker</text></g></g><g transform="translate(-182,-150) scale(1,1)"><path d="M 1307 521 L 1447 521" fill="none" stroke="#000000" stroke-miterlimit="10"/></g><g transform="translate(-182,-150) scale(1,1)"><path d="M 1504.4093503196023 657.6800000000001 C 1504.4093503196023 652.8861679360001 1508.2951926445478 649 1513.088623046875 649 C 1517.8820534492022 649 1521.7678957741477 652.8861679360001 1521.7678957741477 657.6800000000001 C 1521.7678957741477 662.473832064 1517.8820534492022 666.36 1513.088623046875 666.36 C 1508.2951926445478 666.36 1504.4093503196023 662.473832064 1504.4093503196023 657.6800000000001 Z" fill="#ffffff" stroke="none"/></g><g transform="translate(-182,-150) scale(1,1)"><path d="M 1504.4093503196023 657.6800000000001 C 1504.4093503196023 652.8861679360001 1508.2951926445478 649 1513.088623046875 649 C 1517.8820534492022 649 1521.7678957741477 652.8861679360001 1521.7678957741477 657.6800000000001 C 1521.7678957741477 662.473832064 1517.8820534492022 666.36 1513.088623046875 666.36 C 1508.2951926445478 666.36 1504.4093503196023 662.473832064 1504.4093503196023 657.6800000000001 Z" fill="none" stroke="#000000" stroke-miterlimit="10"/></g><g transform="translate(-182,-150) scale(1,1)"><path d="M 1513.088623046875 666.36 L 1513.088623046875 683.64" fill="none" stroke="#000000" stroke-miterlimit="10"/></g><g transform="translate(-182,-150) scale(1,1)"><path d="M 1503.8988048650567 672.84 L 1522.2784412286933 672.84" fill="none" stroke="#000000" stroke-miterlimit="10"/></g><g transform="translate(-182,-150) scale(1,1)"><path d="M 1513.088623046875 683.64 L 1500.3249866832386 701" fill="none" stroke="#000000" stroke-miterlimit="10"/></g><g transform="translate(-182,-150) scale(1,1)"><path d="M 1513.088623046875 683.64 L 1525.8522594105114 701" fill="none" stroke="#000000" stroke-miterlimit="10"/></g><g transform="translate(-182,-150) scale(1,1)"><g><path fill="none" stroke="none"/><text fill="#000000" font-family="Arial" font-size="13px" font-style="normal" font-weight="bold" stroke="none" text-decoration="none" x="1499.003173828125" y="720">UGV</text></g></g><g transform="translate(-182,-150) scale(1,1)"><path d="M 1513 647 L 1513 539" fill="none" stroke="#000000" stroke-miterlimit="10"/></g></g></svg>