<?xml version="1.0" encoding="UTF-8" standalone="no"?><svg xmlns="http://www.w3.org/2000/svg" xmlns:xlink="http://www.w3.org/1999/xlink" height="916" version="1.1" width="1604"><defs/><g><g transform="translate(10,10) scale(1,1)"><path d="M 0 0 L 1584 0 L 1584 896 L 0 896 L 0 0" fill="none" stroke="#000000" stroke-miterlimit="10"/></g><g transform="translate(10,10) scale(1,1)"><path d="M 0 0 L 0 22 L 212.548828125 22 L 223.548828125 11 L 223.548828125 0 L 0 0" fill="#ffffff" stroke="none"/></g><g transform="translate(10,10) scale(1,1)"><path d="M 0 0 L 0 22 L 212.548828125 22 L 223.548828125 11 L 223.548828125 0 L 0 0 L 0 0" fill="none" stroke="#000000" stroke-miterlimit="10"/></g><g transform="translate(10,10) scale(1,1)"><g><path fill="none" stroke="none"/><text fill="#000000" font-family="Arial" font-size="13px" font-style="normal" font-weight="normal" stroke="none" text-decoration="none" x="24.72998046875" y="16">SequenceDiagramRouteDriving</text></g></g><g transform="translate(10,10) scale(1,1)"><g><path fill="none" stroke="none"/><text fill="#000000" font-family="Arial" font-size="13px" font-style="normal" font-weight="bold" stroke="none" text-decoration="none" x="4.279541015625" y="16">sd</text></g></g><g transform="translate(10,10) scale(1,1)"><path d="M 72.9981551846591 47.3 C 72.9981551846591 43.82060576 75.87655690684092 41 79.42724609375 41 C 82.97793528065908 41 85.8563370028409 43.82060576 85.8563370028409 47.3 C 85.8563370028409 50.779394239999995 82.97793528065908 53.6 79.42724609375 53.6 C 75.87655690684092 53.6 72.9981551846591 50.779394239999995 72.9981551846591 47.3 Z" fill="#ffffff" stroke="none"/></g><g transform="translate(10,10) scale(1,1)"><path d="M 72.9981551846591 47.3 C 72.9981551846591 43.82060576 75.87655690684092 41 79.42724609375 41 C 82.97793528065908 41 85.8563370028409 43.82060576 85.8563370028409 47.3 C 85.8563370028409 50.779394239999995 82.97793528065908 53.6 79.42724609375 53.6 C 75.87655690684092 53.6 72.9981551846591 50.779394239999995 72.9981551846591 47.3 Z" fill="none" stroke="#000000" stroke-miterlimit="10"/></g><g transform="translate(10,10) scale(1,1)"><path d="M 79.42724609375 53.6 L 79.42724609375 66.4" fill="none" stroke="#000000" stroke-miterlimit="10"/></g><g transform="translate(10,10) scale(1,1)"><path d="M 72.61997336647727 58.4 L 86.23451882102273 58.4" fill="none" stroke="#000000" stroke-miterlimit="10"/></g><g transform="translate(10,10) scale(1,1)"><path d="M 79.42724609375 66.4 L 69.97270063920455 79" fill="none" stroke="#000000" stroke-miterlimit="10"/></g><g transform="translate(10,10) scale(1,1)"><path d="M 79.42724609375 66.4 L 88.88179154829545 79" fill="none" stroke="#000000" stroke-miterlimit="10"/></g><g transform="translate(10,10) scale(1,1)"><g><path fill="none" stroke="none"/><text fill="#000000" font-family="Arial" font-size="13px" font-style="normal" font-weight="bold" stroke="none" text-decoration="none" x="59.92724609375" y="98.5">사용자</text></g></g><g transform="translate(10,10) scale(1,1)"><path d="M 80.5 105 L 80.5 896" fill="none" stroke="#000000" stroke-dasharray="3" stroke-miterlimit="10"/></g><g transform="translate(10,10) scale(1,1)"><rect fill="#C0C0C0" height="39" opacity="0.2" stroke="none" width="146.83544921875" x="292" y="47"/></g><g transform="translate(10,10) scale(1,1)"><rect fill="#ffffff" height="39" stroke="none" width="146.83544921875" x="285" y="40"/></g><g transform="translate(10,10) scale(1,1)"><path d="M 285 40 L 431.83544921875 40 L 431.83544921875 79 L 285 79 L 285 40 Z Z" fill="none" stroke="#000000" stroke-miterlimit="10"/></g><g transform="translate(10,10) scale(1,1)"><g><path fill="none" stroke="none"/><text fill="#000000" font-family="Arial" font-size="13px" font-style="normal" font-weight="bold" stroke="none" text-decoration="none" x="310.38818359375" y="58">RouteFragment</text></g></g><g transform="translate(10,10) scale(1,1)"><path d="M 359.5 80 L 359.5 896" fill="none" stroke="#000000" stroke-dasharray="3" stroke-miterlimit="10"/></g><g transform="translate(10,10) scale(1,1)"><rect fill="#C0C0C0" height="39" opacity="0.2" stroke="none" width="105.9248046875" x="589" y="47"/></g><g transform="translate(10,10) scale(1,1)"><rect fill="#ffffff" height="39" stroke="none" width="105.9248046875" x="582" y="40"/></g><g transform="translate(10,10) scale(1,1)"><path d="M 582 40 L 687.9248046875 40 L 687.9248046875 79 L 582 79 L 582 40 Z Z" fill="none" stroke="#000000" stroke-miterlimit="10"/></g><g transform="translate(10,10) scale(1,1)"><g><path fill="none" stroke="none"/><text fill="#000000" font-family="Arial" font-size="13px" font-style="normal" font-weight="bold" stroke="none" text-decoration="none" x="592.347412109375" y="58">MapFragment</text></g></g><g transform="translate(10,10) scale(1,1)"><path d="M 635.5 80 L 635.5 896" fill="none" stroke="#000000" stroke-dasharray="3" stroke-miterlimit="10"/></g><g transform="translate(10,10) scale(1,1)"><rect fill="#C0C0C0" height="39" opacity="0.2" stroke="none" width="96.212890625" x="843" y="47"/></g><g transform="translate(10,10) scale(1,1)"><rect fill="#ffffff" height="39" stroke="none" width="96.212890625" x="836" y="40"/></g><g transform="translate(10,10) scale(1,1)"><path d="M 836 40 L 932.212890625 40 L 932.212890625 79 L 836 79 L 836 40 Z Z" fill="none" stroke="#000000" stroke-miterlimit="10"/></g><g transform="translate(10,10) scale(1,1)"><g><path fill="none" stroke="none"/><text fill="#000000" font-family="Arial" font-size="13px" font-style="normal" font-weight="bold" stroke="none" text-decoration="none" x="846.912353515625" y="58">MqttActivity</text></g></g><g transform="translate(10,10) scale(1,1)"><path d="M 885.5 80 L 885.5 896" fill="none" stroke="#000000" stroke-dasharray="3" stroke-miterlimit="10"/></g><g transform="translate(10,10) scale(1,1)"><rect fill="#C0C0C0" height="39" opacity="0.2" stroke="none" width="71.736328125" x="1382" y="47"/></g><g transform="translate(10,10) scale(1,1)"><rect fill="#ffffff" height="39" stroke="none" width="71.736328125" x="1375" y="40"/></g><g transform="translate(10,10) scale(1,1)"><path d="M 1375 40 L 1446.736328125 40 L 1446.736328125 79 L 1375 79 L 1375 40 Z Z" fill="none" stroke="#000000" stroke-miterlimit="10"/></g><g transform="translate(10,10) scale(1,1)"><g><path fill="none" stroke="none"/><text fill="#000000" font-family="Arial" font-size="13px" font-style="normal" font-weight="bold" stroke="none" text-decoration="none" x="1396.78271484375" y="58">UGV</text></g></g><g transform="translate(10,10) scale(1,1)"><path d="M 1411.5 80 L 1411.5 894" fill="none" stroke="#000000" stroke-dasharray="3" stroke-miterlimit="10"/></g><g transform="translate(10,10) scale(1,1)"><rect fill="#C0C0C0" height="39" opacity="0.2" stroke="none" width="146.130859375" x="1086" y="47"/></g><g transform="translate(10,10) scale(1,1)"><rect fill="#ffffff" height="39" stroke="none" width="146.130859375" x="1079" y="40"/></g><g transform="translate(10,10) scale(1,1)"><path d="M 1079 40 L 1225.130859375 40 L 1225.130859375 79 L 1079 79 L 1079 40 Z Z" fill="none" stroke="#000000" stroke-miterlimit="10"/></g><g transform="translate(10,10) scale(1,1)"><g><path fill="none" stroke="none"/><text fill="#000000" font-family="Arial" font-size="13px" font-style="normal" font-weight="bold" stroke="none" text-decoration="none" x="1088.5" y="58">DashboardFragment</text></g></g><g transform="translate(10,10) scale(1,1)"><path d="M 1153.5 80 L 1153.5 894" fill="none" stroke="#000000" stroke-dasharray="3" stroke-miterlimit="10"/></g><g transform="translate(10,10) scale(1,1)"><path d="M 80 140 L 352 140" fill="none" stroke="#000000" stroke-miterlimit="10"/></g><g transform="translate(10,10) scale(1,1)"><path d="M 341.83732514237585 144.209517756016 L 352 140 L 341.83732514237585 135.790482243984" fill="none" stroke="#000000" stroke-miterlimit="10"/></g><g transform="translate(10,10) scale(1,1)"><g><path fill="none" stroke="none"/><text fill="#000000" font-family="Arial" font-size="13px" font-style="normal" font-weight="normal" stroke="none" text-decoration="none" x="163.998046875" y="135.5">1 : 주행 경로 설정</text></g></g><g transform="translate(10,10) scale(1,1)"><rect fill="#ffffff" height="100" stroke="none" width="13" x="352" y="140"/></g><g transform="translate(10,10) scale(1,1)"><path d="M 352 140 L 365 140 L 365 240 L 352 240 L 352 140 Z Z" fill="none" stroke="#000000" stroke-miterlimit="10"/></g><g transform="translate(10,10) scale(1,1)"><path d="M 365 160 L 395 160 L 395 180 L 372 180" fill="none" stroke="#000000" stroke-miterlimit="10"/></g><g transform="translate(10,10) scale(1,1)"><path d="M 382.16267485762415 175.790482243984 L 372 180 L 382.16267485762415 184.209517756016" fill="#000000" stroke="none"/></g><g transform="translate(10,10) scale(1,1)"><path d="M 382.16267485762415 175.790482243984 L 372 180 L 382.16267485762415 184.209517756016 L 382.16267485762415 175.790482243984" fill="none" stroke="#000000" stroke-miterlimit="10"/></g><g transform="translate(10,10) scale(1,1)"><g><path fill="none" stroke="none"/><text fill="#000000" font-family="Arial" font-size="13px" font-style="normal" font-weight="normal" stroke="none" text-decoration="none" x="400.109130859375" y="174.5">2 : 주행 경로 표출(경유지 리스트)</text></g></g><g transform="translate(10,10) scale(1,1)"><rect fill="#ffffff" height="28" stroke="none" width="13" x="359" y="180"/></g><g transform="translate(10,10) scale(1,1)"><path d="M 359 180 L 372 180 L 372 208 L 359 208 L 359 180 Z Z" fill="none" stroke="#000000" stroke-miterlimit="10"/></g><g transform="translate(10,10) scale(1,1)"><path d="M 365 224 L 628 224" fill="none" stroke="#000000" stroke-miterlimit="10"/></g><g transform="translate(10,10) scale(1,1)"><path d="M 617.8373251423759 228.209517756016 L 628 224 L 617.8373251423758 219.790482243984" fill="#000000" stroke="none"/></g><g transform="translate(10,10) scale(1,1)"><path d="M 617.8373251423759 228.209517756016 L 628 224 L 617.8373251423758 219.790482243984 L 617.8373251423759 228.209517756016" fill="none" stroke="#000000" stroke-miterlimit="10"/></g><g transform="translate(10,10) scale(1,1)"><g><path fill="none" stroke="none"/><text fill="#000000" font-family="Arial" font-size="13px" font-style="normal" font-weight="normal" stroke="none" text-decoration="none" x="429.477294921875" y="219.5">3 : 주행 경로 마커 생성</text></g></g><g transform="translate(10,10) scale(1,1)"><rect fill="#ffffff" height="28" stroke="none" width="13" x="628" y="224"/></g><g transform="translate(10,10) scale(1,1)"><path d="M 628 224 L 641 224 L 641 252 L 628 252 L 628 224 Z Z" fill="none" stroke="#000000" stroke-miterlimit="10"/></g><g transform="translate(10,10) scale(1,1)"><path d="M 80 321 L 352 321" fill="none" stroke="#000000" stroke-miterlimit="10"/></g><g transform="translate(10,10) scale(1,1)"><path d="M 341.83732514237585 325.209517756016 L 352 321 L 341.83732514237585 316.790482243984" fill="none" stroke="#000000" stroke-miterlimit="10"/></g><g transform="translate(10,10) scale(1,1)"><g><path fill="none" stroke="none"/><text fill="#000000" font-family="Arial" font-size="13px" font-style="normal" font-weight="normal" stroke="none" text-decoration="none" x="149.477294921875" y="316.5">4 : 주행 시작 버튼 클릭</text></g></g><g transform="translate(10,10) scale(1,1)"><rect fill="#ffffff" height="28" stroke="none" width="13" x="352" y="321"/></g><g transform="translate(10,10) scale(1,1)"><path d="M 352 321 L 365 321 L 365 349 L 352 349 L 352 321 Z Z" fill="none" stroke="#000000" stroke-miterlimit="10"/></g><g transform="translate(10,10) scale(1,1)"><path d="M 359 350 L 878 350" fill="none" stroke="#000000" stroke-miterlimit="10"/></g><g transform="translate(10,10) scale(1,1)"><path d="M 867.8373251423759 354.209517756016 L 878 350 L 867.8373251423758 345.790482243984" fill="#000000" stroke="none"/></g><g transform="translate(10,10) scale(1,1)"><path d="M 867.8373251423759 354.209517756016 L 878 350 L 867.8373251423758 345.790482243984 L 867.8373251423759 354.209517756016" fill="none" stroke="#000000" stroke-miterlimit="10"/></g><g transform="translate(10,10) scale(1,1)"><g><path fill="none" stroke="none"/><text fill="#000000" font-family="Arial" font-size="13px" font-style="normal" font-weight="normal" stroke="none" text-decoration="none" x="524.114990234375" y="345.5">5 : 주행 경로 첫번째 데이터 송신</text></g></g><g transform="translate(10,10) scale(1,1)"><rect fill="#ffffff" height="530" stroke="none" width="13" x="878" y="350"/></g><g transform="translate(10,10) scale(1,1)"><path d="M 878 350 L 891 350 L 891 880 L 878 880 L 878 350 Z Z" fill="none" stroke="#000000" stroke-miterlimit="10"/></g><g transform="translate(10,10) scale(1,1)"><path d="M 891 368 L 1404 368" fill="none" stroke="#000000" stroke-miterlimit="10"/></g><g transform="translate(10,10) scale(1,1)"><path d="M 1393.837325142376 372.209517756016 L 1404 368 L 1393.837325142376 363.790482243984" fill="#000000" stroke="none"/></g><g transform="translate(10,10) scale(1,1)"><path d="M 1393.837325142376 372.209517756016 L 1404 368 L 1393.837325142376 363.790482243984 L 1393.837325142376 372.209517756016" fill="none" stroke="#000000" stroke-miterlimit="10"/></g><g transform="translate(10,10) scale(1,1)"><g><path fill="none" stroke="none"/><text fill="#000000" font-family="Arial" font-size="13px" font-style="normal" font-weight="normal" stroke="none" text-decoration="none" x="1097.518798828125" y="363.5">6 : 자율주행 시작</text></g></g><g transform="translate(10,10) scale(1,1)"><rect fill="#ffffff" height="512" stroke="none" width="13" x="1404" y="368"/></g><g transform="translate(10,10) scale(1,1)"><path d="M 1404 368 L 1417 368 L 1417 880 L 1404 880 L 1404 368 Z Z" fill="none" stroke="#000000" stroke-miterlimit="10"/></g><g transform="translate(10,10) scale(1,1)"><path d="M 891 451 L 1146 451" fill="none" stroke="#000000" stroke-miterlimit="10"/></g><g transform="translate(10,10) scale(1,1)"><path d="M 1135.837325142376 455.209517756016 L 1146 451 L 1135.837325142376 446.790482243984" fill="#000000" stroke="none"/></g><g transform="translate(10,10) scale(1,1)"><path d="M 1135.837325142376 455.209517756016 L 1146 451 L 1135.837325142376 446.790482243984 L 1135.837325142376 455.209517756016" fill="none" stroke="#000000" stroke-miterlimit="10"/></g><g transform="translate(10,10) scale(1,1)"><g><path fill="none" stroke="none"/><text fill="#000000" font-family="Arial" font-size="13px" font-style="normal" font-weight="normal" stroke="none" text-decoration="none" x="919.299560546875" y="446.5">7 : 자율주행 진행상태 UI 업데이트</text></g></g><g transform="translate(10,10) scale(1,1)"><rect fill="#ffffff" height="429" stroke="none" width="13" x="1146" y="451"/></g><g transform="translate(10,10) scale(1,1)"><path d="M 1146 451 L 1159 451 L 1159 880 L 1146 880 L 1146 451 Z Z" fill="none" stroke="#000000" stroke-miterlimit="10"/></g><g transform="translate(10,10) scale(1,1)"><path d="M 1404 486 L 891 486" fill="none" stroke="#000000" stroke-miterlimit="10"/></g><g transform="translate(10,10) scale(1,1)"><path d="M 901.1626748576241 481.790482243984 L 891 486 L 901.1626748576241 490.209517756016" fill="none" stroke="#000000" stroke-miterlimit="10"/></g><g transform="translate(10,10) scale(1,1)"><g><path fill="none" stroke="none"/><text fill="#000000" font-family="Arial" font-size="13px" font-style="normal" font-weight="normal" stroke="none" text-decoration="none" x="1053.57568359375" y="501.5">8 : 자율주행 진행 상황 feedback</text></g></g><g transform="translate(10,10) scale(1,1)"><path d="M 891 538 L 1146 538" fill="none" stroke="#000000" stroke-dasharray="3" stroke-miterlimit="10"/></g><g transform="translate(10,10) scale(1,1)"><path d="M 1135.837325142376 542.209517756016 L 1146 538 L 1135.837325142376 533.790482243984" fill="none" stroke="#000000" stroke-miterlimit="10"/></g><g transform="translate(10,10) scale(1,1)"><g><path fill="none" stroke="none"/><text fill="#000000" font-family="Arial" font-size="13px" font-style="normal" font-weight="normal" stroke="none" text-decoration="none" x="919.114990234375" y="533.5">9 : 자율주행 진행상태 UI 업데이트</text></g></g><g transform="translate(10,10) scale(1,1)"><path d="M 1404 576 L 891 576" fill="none" stroke="#000000" stroke-miterlimit="10"/></g><g transform="translate(10,10) scale(1,1)"><path d="M 901.1626748576241 571.790482243984 L 891 576 L 901.1626748576241 580.209517756016" fill="none" stroke="#000000" stroke-miterlimit="10"/></g><g transform="translate(10,10) scale(1,1)"><g><path fill="none" stroke="none"/><text fill="#000000" font-family="Arial" font-size="13px" font-style="normal" font-weight="normal" stroke="none" text-decoration="none" x="1049.052001953125" y="591.5">10 : 자율주행 완료 결과 response</text></g></g><g transform="translate(10,10) scale(1,1)"><path d="M 891 623 L 1146 623" fill="none" stroke="#000000" stroke-dasharray="3" stroke-miterlimit="10"/></g><g transform="translate(10,10) scale(1,1)"><path d="M 1135.837325142376 627.209517756016 L 1146 623 L 1135.837325142376 618.790482243984" fill="none" stroke="#000000" stroke-miterlimit="10"/></g><g transform="translate(10,10) scale(1,1)"><g><path fill="none" stroke="none"/><text fill="#000000" font-family="Arial" font-size="13px" font-style="normal" font-weight="normal" stroke="none" text-decoration="none" x="915.7470703125" y="618.5">11 : 자율주행 진행상태 UI 업데이트</text></g></g><g transform="translate(10,10) scale(1,1)"><path d="M 891 706 L 1404 706" fill="none" stroke="#000000" stroke-dasharray="3" stroke-miterlimit="10"/></g><g transform="translate(10,10) scale(1,1)"><path d="M 1393.837325142376 710.209517756016 L 1404 706 L 1393.837325142376 701.790482243984" fill="none" stroke="#000000" stroke-miterlimit="10"/></g><g transform="translate(10,10) scale(1,1)"><g><path fill="none" stroke="none"/><text fill="#000000" font-family="Arial" font-size="13px" font-style="normal" font-weight="normal" stroke="none" text-decoration="none" x="1057.4423828125" y="701.5">12 : 다음 목적지 자율주행 시작</text></g></g><g transform="translate(10,10) scale(1,1)"><path d="M 1404 731 L 891 731" fill="none" stroke="#000000" stroke-miterlimit="10"/></g><g transform="translate(10,10) scale(1,1)"><path d="M 901.1626748576241 726.790482243984 L 891 731 L 901.1626748576241 735.209517756016" fill="none" stroke="#000000" stroke-miterlimit="10"/></g><g transform="translate(10,10) scale(1,1)"><g><path fill="none" stroke="none"/><text fill="#000000" font-family="Arial" font-size="13px" font-style="normal" font-weight="normal" stroke="none" text-decoration="none" x="1049.540771484375" y="746.5">13 : 자율주행 진행 상황 feedback</text></g></g><g transform="translate(10,10) scale(1,1)"><path d="M 891 770 L 1146 770" fill="none" stroke="#000000" stroke-dasharray="3" stroke-miterlimit="10"/></g><g transform="translate(10,10) scale(1,1)"><path d="M 1135.837325142376 774.209517756016 L 1146 770 L 1135.837325142376 765.790482243984" fill="none" stroke="#000000" stroke-miterlimit="10"/></g><g transform="translate(10,10) scale(1,1)"><g><path fill="none" stroke="none"/><text fill="#000000" font-family="Arial" font-size="13px" font-style="normal" font-weight="normal" stroke="none" text-decoration="none" x="915.2646484375" y="765.5">14 : 자율주행 진행상태 UI 업데이트</text></g></g><g transform="translate(10,10) scale(1,1)"><path d="M 1404 813 L 891 813" fill="none" stroke="#000000" stroke-miterlimit="10"/></g><g transform="translate(10,10) scale(1,1)"><path d="M 901.1626748576241 808.790482243984 L 891 813 L 901.1626748576241 817.209517756016" fill="none" stroke="#000000" stroke-miterlimit="10"/></g><g transform="translate(10,10) scale(1,1)"><g><path fill="none" stroke="none"/><text fill="#000000" font-family="Arial" font-size="13px" font-style="normal" font-weight="normal" stroke="none" text-decoration="none" x="1049.052001953125" y="828.5">15 : 자율주행 진행 결과 response</text></g></g><g transform="translate(10,10) scale(1,1)"><path d="M 891 864 L 1146 864" fill="none" stroke="#000000" stroke-dasharray="3" stroke-miterlimit="10"/></g><g transform="translate(10,10) scale(1,1)"><path d="M 1135.837325142376 868.209517756016 L 1146 864 L 1135.837325142376 859.790482243984" fill="none" stroke="#000000" stroke-miterlimit="10"/></g><g transform="translate(10,10) scale(1,1)"><g><path fill="none" stroke="none"/><text fill="#000000" font-family="Arial" font-size="13px" font-style="normal" font-weight="normal" stroke="none" text-decoration="none" x="915.2646484375" y="859.5">16 : 자율주행 진행상태 UI 업데이트</text></g></g><g transform="translate(10,10) scale(1,1)"><path d="M 808 664 L 1512 664 L 1512 888 L 808 888 L 808 664" fill="none" stroke="#000000" stroke-miterlimit="10"/></g><g transform="translate(10,10) scale(1,1)"><path d="M 808 664 L 808 686 L 956.18994140625 686 L 967.18994140625 675 L 967.18994140625 664 L 808 664" fill="#ffffff" stroke="none"/></g><g transform="translate(10,10) scale(1,1)"><path d="M 808 664 L 808 686 L 956.18994140625 686 L 967.18994140625 675 L 967.18994140625 664 L 808 664 L 808 664" fill="none" stroke="#000000" stroke-miterlimit="10"/></g><g transform="translate(10,10) scale(1,1)"><g><path fill="none" stroke="none"/><text fill="#000000" font-family="Arial" font-size="13px" font-style="normal" font-weight="normal" stroke="none" text-decoration="none" x="843.578125" y="680.5">마지막 목적지까지</text></g></g><g transform="translate(10,10) scale(1,1)"><g><path fill="none" stroke="none"/><text fill="#000000" font-family="Arial" font-size="13px" font-style="normal" font-weight="bold" stroke="none" text-decoration="none" x="811.57177734375" y="680">loop</text></g></g></g></svg>