<?xml version="1.0" encoding="UTF-8" standalone="no"?><svg xmlns="http://www.w3.org/2000/svg" xmlns:xlink="http://www.w3.org/1999/xlink" height="1115" version="1.1" width="1654.64599609375"><defs/><g><g transform="translate(-14,-294) scale(1,1)"><rect fill="#C0C0C0" height="490" opacity="0.2" stroke="none" width="571.681640625" x="559" y="383"/></g><g transform="translate(-14,-294) scale(1,1)"><rect fill="#ffffff" height="490" stroke="none" width="571.681640625" x="552" y="376"/></g><g transform="translate(-14,-294) scale(1,1)"><path d="M 552 376 L 1123.681640625 376 L 1123.681640625 866 L 552 866 L 552 376 Z Z" fill="none" stroke="#000000" stroke-miterlimit="10"/></g><g transform="translate(-14,-294) scale(1,1)"><path d="M 552 416 L 1123.681640625 416" fill="none" stroke="#000000" stroke-miterlimit="10"/></g><g transform="translate(-14,-294) scale(1,1)"><path d="M 552 739 L 1123.681640625 739" fill="none" stroke="#000000" stroke-miterlimit="10"/></g><g transform="translate(-14,-294) scale(1,1)"><g><path fill="none" stroke="none"/><text fill="#000000" font-family="Arial" font-size="13px" font-style="normal" font-weight="bold" stroke="none" text-decoration="none" x="762.72900390625" y="394">ManualControlFragment</text></g></g><g transform="translate(-14,-294) scale(1,1)"><g><path fill="none" stroke="none"/><text fill="#000000" font-family="Arial" font-size="13px" font-style="normal" font-weight="normal" stroke="none" text-decoration="none" x="777.877685546875" y="409">(from manualcontrol)</text></g></g><g transform="translate(-14,-294) scale(1,1)"><g><path fill="none" stroke="none"/><text fill="#000000" font-family="Arial" font-size="13px" font-style="normal" font-weight="normal" stroke="none" text-decoration="none" x="557" y="432">-angularMaxVel: MutableLiveData&lt;Float&gt;</text></g></g><g transform="translate(-14,-294) scale(1,1)"><g><path fill="none" stroke="none"/><text fill="#000000" font-family="Arial" font-size="13px" font-style="normal" font-weight="normal" stroke="none" text-decoration="none" x="557" y="447">-binding: FragmentManualControlBinding</text></g></g><g transform="translate(-14,-294) scale(1,1)"><g><path fill="none" stroke="none"/><text fill="#000000" font-family="Arial" font-size="13px" font-style="normal" font-weight="normal" stroke="none" text-decoration="none" x="557" y="462">-connectionViewModel: ConnectionViewModel</text></g></g><g transform="translate(-14,-294) scale(1,1)"><g><path fill="none" stroke="none"/><text fill="#000000" font-family="Arial" font-size="13px" font-style="normal" font-weight="normal" stroke="none" text-decoration="none" x="557" y="477">-controlHardware: ControlHardware</text></g></g><g transform="translate(-14,-294) scale(1,1)"><g><path fill="none" stroke="none"/><text fill="#000000" font-family="Arial" font-size="13px" font-style="normal" font-weight="normal" stroke="none" text-decoration="none" x="557" y="492">-currentRouteObserver: Observer&lt;Route&gt;</text></g></g><g transform="translate(-14,-294) scale(1,1)"><g><path fill="none" stroke="none"/><text fill="#000000" font-family="Arial" font-size="13px" font-style="normal" font-weight="normal" stroke="none" text-decoration="none" x="557" y="507">-frontUrlObserver: Observer&lt;String&gt;</text></g></g><g transform="translate(-14,-294) scale(1,1)"><g><path fill="none" stroke="none"/><text fill="#000000" font-family="Arial" font-size="13px" font-style="normal" font-weight="normal" stroke="none" text-decoration="none" x="557" y="522">-linearMaxVel: MutableLiveData&lt;Float&gt;</text></g></g><g transform="translate(-14,-294) scale(1,1)"><g><path fill="none" stroke="none"/><text fill="#000000" font-family="Arial" font-size="13px" font-style="normal" font-weight="normal" stroke="none" text-decoration="none" x="557" y="537">-mapFrameLayout: MapFrameLayout</text></g></g><g transform="translate(-14,-294) scale(1,1)"><g><path fill="none" stroke="none"/><text fill="#000000" font-family="Arial" font-size="13px" font-style="normal" font-weight="normal" stroke="none" text-decoration="none" x="557" y="552">-mapObserver: RosObserver&lt;GetMap_Response&gt;</text></g></g><g transform="translate(-14,-294) scale(1,1)"><g><path fill="none" stroke="none"/><text fill="#000000" font-family="Arial" font-size="13px" font-style="normal" font-weight="normal" stroke="none" text-decoration="none" x="557" y="567">-mqttPubViewModel: MqttPubViewModel</text></g></g><g transform="translate(-14,-294) scale(1,1)"><g><path fill="none" stroke="none"/><text fill="#000000" font-family="Arial" font-size="13px" font-style="normal" font-weight="normal" stroke="none" text-decoration="none" x="557" y="582">-mqttSubViewModel: MqttSubViewModel</text></g></g><g transform="translate(-14,-294) scale(1,1)"><g><path fill="none" stroke="none"/><text fill="#000000" font-family="Arial" font-size="13px" font-style="normal" font-weight="normal" stroke="none" text-decoration="none" x="557" y="597">-newWaypointObserver: Observer&lt;Waypoint&gt;</text></g></g><g transform="translate(-14,-294) scale(1,1)"><g><path fill="none" stroke="none"/><text fill="#000000" font-family="Arial" font-size="13px" font-style="normal" font-weight="normal" stroke="none" text-decoration="none" x="557" y="612">-odomObserver: RosObserver&lt;Odometry&gt;</text></g></g><g transform="translate(-14,-294) scale(1,1)"><g><path fill="none" stroke="none"/><text fill="#000000" font-family="Arial" font-size="13px" font-style="normal" font-weight="normal" stroke="none" text-decoration="none" x="557" y="627">-rearUrlObserver: Observer&lt;String&gt;</text></g></g><g transform="translate(-14,-294) scale(1,1)"><g><path fill="none" stroke="none"/><text fill="#000000" font-family="Arial" font-size="13px" font-style="normal" font-weight="normal" stroke="none" text-decoration="none" x="557" y="642">-robotPoseObserver: RosObserver&lt;Pose&gt;</text></g></g><g transform="translate(-14,-294) scale(1,1)"><g><path fill="none" stroke="none"/><text fill="#000000" font-family="Arial" font-size="13px" font-style="normal" font-weight="normal" stroke="none" text-decoration="none" x="557" y="657">-routeViewModel: RouteViewModel</text></g></g><g transform="translate(-14,-294) scale(1,1)"><g><path fill="none" stroke="none"/><text fill="#000000" font-family="Arial" font-size="13px" font-style="normal" font-weight="normal" stroke="none" text-decoration="none" x="557" y="672">-scanObserver: RosObserver&lt;LaserScan&gt;</text></g></g><g transform="translate(-14,-294) scale(1,1)"><g><path fill="none" stroke="none"/><text fill="#000000" font-family="Arial" font-size="13px" font-style="normal" font-weight="normal" stroke="none" text-decoration="none" x="557" y="687">-tfObserver: RosObserver&lt;TFMessage&gt;</text></g></g><g transform="translate(-14,-294) scale(1,1)"><g><path fill="none" stroke="none"/><text fill="#000000" font-family="Arial" font-size="13px" font-style="normal" font-weight="normal" stroke="none" text-decoration="none" x="557" y="702">-twist: Twist</text></g></g><g transform="translate(-14,-294) scale(1,1)"><g><path fill="none" stroke="none"/><text fill="#000000" font-family="Arial" font-size="13px" font-style="normal" font-weight="normal" stroke="none" text-decoration="none" x="557" y="717">-waypointViewModel: WaypointViewModel</text></g></g><g transform="translate(-14,-294) scale(1,1)"><g><path fill="none" stroke="none"/><text fill="#000000" font-family="Arial" font-size="13px" font-style="normal" font-weight="normal" stroke="none" text-decoration="none" x="557" y="732">-controlHardware: ControlHardware</text></g></g><g transform="translate(-14,-294) scale(1,1)"><g><path fill="none" stroke="none"/><text fill="#000000" font-family="Arial" font-size="13px" font-style="normal" font-weight="normal" stroke="none" text-decoration="none" x="557" y="755">+newInstance(num: int): ManualControlFragment</text></g></g><g transform="translate(-14,-294) scale(1,1)"><g><path fill="none" stroke="none"/><text fill="#000000" font-family="Arial" font-size="13px" font-style="normal" font-weight="normal" stroke="none" text-decoration="none" x="557" y="770">+onCreate(savedInstanceState: Bundle)</text></g></g><g transform="translate(-14,-294) scale(1,1)"><g><path fill="none" stroke="none"/><text fill="#000000" font-family="Arial" font-size="13px" font-style="normal" font-weight="normal" stroke="none" text-decoration="none" x="557" y="785">+onCreateView(inflater: LayoutInflater, container: ViewGroup, savedInstanceState: Bundle): View</text></g></g><g transform="translate(-14,-294) scale(1,1)"><g><path fill="none" stroke="none"/><text fill="#000000" font-family="Arial" font-size="13px" font-style="normal" font-weight="normal" stroke="none" text-decoration="none" x="557" y="800">+onDestroyView()</text></g></g><g transform="translate(-14,-294) scale(1,1)"><g><path fill="none" stroke="none"/><text fill="#000000" font-family="Arial" font-size="13px" font-style="normal" font-weight="normal" stroke="none" text-decoration="none" x="557" y="815">+onPause()</text></g></g><g transform="translate(-14,-294) scale(1,1)"><g><path fill="none" stroke="none"/><text fill="#000000" font-family="Arial" font-size="13px" font-style="normal" font-weight="normal" stroke="none" text-decoration="none" x="557" y="830">+onResume()</text></g></g><g transform="translate(-14,-294) scale(1,1)"><g><path fill="none" stroke="none"/><text fill="#000000" font-family="Arial" font-size="13px" font-style="normal" font-weight="normal" stroke="none" text-decoration="none" x="557" y="845">-restorePreference()</text></g></g><g transform="translate(-14,-294) scale(1,1)"><g><path fill="none" stroke="none"/><text fill="#000000" font-family="Arial" font-size="13px" font-style="normal" font-weight="normal" stroke="none" text-decoration="none" x="557" y="860">-saveMaxVelPreference(tag: String, maxVel: float)</text></g></g><g transform="translate(-14,-294) scale(1,1)"><rect fill="#C0C0C0" height="145" opacity="0.2" stroke="none" width="372.71435546875" x="1287" y="535"/></g><g transform="translate(-14,-294) scale(1,1)"><rect fill="#ffffff" height="145" stroke="none" width="372.71435546875" x="1280" y="528"/></g><g transform="translate(-14,-294) scale(1,1)"><path d="M 1280 528 L 1652.71435546875 528 L 1652.71435546875 673 L 1280 673 L 1280 528 Z Z" fill="none" stroke="#000000" stroke-miterlimit="10"/></g><g transform="translate(-14,-294) scale(1,1)"><path d="M 1280 568 L 1652.71435546875 568" fill="none" stroke="#000000" stroke-miterlimit="10"/></g><g transform="translate(-14,-294) scale(1,1)"><path d="M 1280 621 L 1652.71435546875 621" fill="none" stroke="#000000" stroke-miterlimit="10"/></g><g transform="translate(-14,-294) scale(1,1)"><g><path fill="none" stroke="none"/><text fill="#000000" font-family="Arial" font-size="13px" font-style="normal" font-weight="bold" stroke="none" text-decoration="none" x="1406.8955078125" y="546">MqttPubViewModel</text></g></g><g transform="translate(-14,-294) scale(1,1)"><g><path fill="none" stroke="none"/><text fill="#000000" font-family="Arial" font-size="13px" font-style="normal" font-weight="normal" stroke="none" text-decoration="none" x="1416.515380859375" y="561">(from viewmodel)</text></g></g><g transform="translate(-14,-294) scale(1,1)"><g><path fill="none" stroke="none"/><text fill="#000000" font-family="Arial" font-size="13px" font-style="normal" font-weight="normal" stroke="none" text-decoration="none" x="1285" y="584">-pubTopicNameMap: HashMap</text></g></g><g transform="translate(-14,-294) scale(1,1)"><g><path fill="none" stroke="none"/><text fill="#000000" font-family="Arial" font-size="13px" font-style="normal" font-weight="normal" stroke="none" text-decoration="none" x="1285" y="599">-publisher: MutableLiveData</text></g></g><g transform="translate(-14,-294) scale(1,1)"><g><path fill="none" stroke="none"/><text fill="#000000" font-family="Arial" font-size="13px" font-style="normal" font-weight="normal" stroke="none" text-decoration="none" x="1285" y="614">-topicViewModel: TopicViewModel</text></g></g><g transform="translate(-14,-294) scale(1,1)"><g><path fill="none" stroke="none"/><text fill="#000000" font-family="Arial" font-size="13px" font-style="normal" font-weight="normal" stroke="none" text-decoration="none" x="1285" y="637">+publishCall(widgetName: String, rosMessage: RosMessage)</text></g></g><g transform="translate(-14,-294) scale(1,1)"><g><path fill="none" stroke="none"/><text fill="#000000" font-family="Arial" font-size="13px" font-style="normal" font-weight="normal" stroke="none" text-decoration="none" x="1285" y="652">+publishGoal(widgetName: String, rosMessage: RosMessage)</text></g></g><g transform="translate(-14,-294) scale(1,1)"><g><path fill="none" stroke="none"/><text fill="#000000" font-family="Arial" font-size="13px" font-style="normal" font-weight="normal" stroke="none" text-decoration="none" x="1285" y="667">+publishTopic(widgetName: String, rosMessage: RosMessage)</text></g></g><g transform="translate(-14,-294) scale(1,1)"><path d="M 1125 611 L 1279 606" fill="none" stroke="#000000" stroke-dasharray="3" stroke-miterlimit="10"/></g><g transform="translate(-14,-294) scale(1,1)"><path d="M 1258.9585560617777 615.0741679988358 L 1279 606 L 1258.4121533609102 598.2449648121159" fill="#FFFFFF" stroke="none"/></g><g transform="translate(-14,-294) scale(1,1)"><path d="M 1258.9585560617777 615.0741679988358 L 1279 606 L 1258.4121533609102 598.2449648121159 L 1258.9585560617777 615.0741679988358" fill="none" stroke="#000000" stroke-miterlimit="10"/></g><g transform="translate(-14,-294) scale(1,1)"><g><path fill="none" stroke="none"/><text fill="#000000" font-family="Arial" font-size="13px" font-style="normal" font-weight="normal" stroke="none" text-decoration="none" x="1136.5849609375" y="598">-mqttPubViewModel</text></g></g><g transform="translate(-14,-294) scale(1,1)"><rect fill="#C0C0C0" height="280" opacity="0.2" stroke="none" width="415.3896484375" x="39" y="615"/></g><g transform="translate(-14,-294) scale(1,1)"><rect fill="#ffffff" height="280" stroke="none" width="415.3896484375" x="32" y="608"/></g><g transform="translate(-14,-294) scale(1,1)"><path d="M 32 608 L 447.3896484375 608 L 447.3896484375 888 L 32 888 L 32 608 Z Z" fill="none" stroke="#000000" stroke-miterlimit="10"/></g><g transform="translate(-14,-294) scale(1,1)"><path d="M 32 648 L 447.3896484375 648" fill="none" stroke="#000000" stroke-miterlimit="10"/></g><g transform="translate(-14,-294) scale(1,1)"><path d="M 32 776 L 447.3896484375 776" fill="none" stroke="#000000" stroke-miterlimit="10"/></g><g transform="translate(-14,-294) scale(1,1)"><g><path fill="none" stroke="none"/><text fill="#000000" font-family="Arial" font-size="13px" font-style="normal" font-weight="bold" stroke="none" text-decoration="none" x="179.477783203125" y="626">LinearJoystickView</text></g></g><g transform="translate(-14,-294) scale(1,1)"><g><path fill="none" stroke="none"/><text fill="#000000" font-family="Arial" font-size="13px" font-style="normal" font-weight="normal" stroke="none" text-decoration="none" x="204.665283203125" y="641">(from move)</text></g></g><g transform="translate(-14,-294) scale(1,1)"><g><path fill="none" stroke="none"/><text fill="#000000" font-family="Arial" font-size="13px" font-style="normal" font-weight="normal" stroke="none" text-decoration="none" x="37" y="664">-arcRect: RectF</text></g></g><g transform="translate(-14,-294) scale(1,1)"><g><path fill="none" stroke="none"/><text fill="#000000" font-family="Arial" font-size="13px" font-style="normal" font-weight="normal" stroke="none" text-decoration="none" x="37" y="679">-arrowPaint: Paint</text></g></g><g transform="translate(-14,-294) scale(1,1)"><g><path fill="none" stroke="none"/><text fill="#000000" font-family="Arial" font-size="13px" font-style="normal" font-weight="normal" stroke="none" text-decoration="none" x="37" y="694">-joystickPaint: Paint</text></g></g><g transform="translate(-14,-294) scale(1,1)"><g><path fill="none" stroke="none"/><text fill="#000000" font-family="Arial" font-size="13px" font-style="normal" font-weight="normal" stroke="none" text-decoration="none" x="37" y="709">-joystickRadius: float[1]</text></g></g><g transform="translate(-14,-294) scale(1,1)"><g><path fill="none" stroke="none"/><text fill="#000000" font-family="Arial" font-size="13px" font-style="normal" font-weight="normal" stroke="none" text-decoration="none" x="37" y="724">-linearJoystickMoveListener: OnLinearJoystickMoveListener</text></g></g><g transform="translate(-14,-294) scale(1,1)"><g><path fill="none" stroke="none"/><text fill="#000000" font-family="Arial" font-size="13px" font-style="normal" font-weight="normal" stroke="none" text-decoration="none" x="37" y="739">-maxVel: float[1]</text></g></g><g transform="translate(-14,-294) scale(1,1)"><g><path fill="none" stroke="none"/><text fill="#000000" font-family="Arial" font-size="13px" font-style="normal" font-weight="normal" stroke="none" text-decoration="none" x="37" y="754">-outerPaint: Paint</text></g></g><g transform="translate(-14,-294) scale(1,1)"><g><path fill="none" stroke="none"/><text fill="#000000" font-family="Arial" font-size="13px" font-style="normal" font-weight="normal" stroke="none" text-decoration="none" x="37" y="769">-posY: float[1]</text></g></g><g transform="translate(-14,-294) scale(1,1)"><g><path fill="none" stroke="none"/><text fill="#000000" font-family="Arial" font-size="13px" font-style="normal" font-weight="normal" stroke="none" text-decoration="none" x="37" y="792">-convertPolarToPx(y: float): float</text></g></g><g transform="translate(-14,-294) scale(1,1)"><g><path fill="none" stroke="none"/><text fill="#000000" font-family="Arial" font-size="13px" font-style="normal" font-weight="normal" stroke="none" text-decoration="none" x="37" y="807">-convertPxToPolar(y: float): float</text></g></g><g transform="translate(-14,-294) scale(1,1)"><g><path fill="none" stroke="none"/><text fill="#000000" font-family="Arial" font-size="13px" font-style="normal" font-weight="normal" stroke="none" text-decoration="none" x="37" y="822">-init()</text></g></g><g transform="translate(-14,-294) scale(1,1)"><g><path fill="none" stroke="none"/><text fill="#000000" font-family="Arial" font-size="13px" font-style="normal" font-weight="normal" stroke="none" text-decoration="none" x="37" y="837">-moveTo(y: float)</text></g></g><g transform="translate(-14,-294) scale(1,1)"><g><path fill="none" stroke="none"/><text fill="#000000" font-family="Arial" font-size="13px" font-style="normal" font-weight="normal" stroke="none" text-decoration="none" x="37" y="852">#onDraw(canvas: Canvas)</text></g></g><g transform="translate(-14,-294) scale(1,1)"><g><path fill="none" stroke="none"/><text fill="#000000" font-family="Arial" font-size="13px" font-style="normal" font-weight="normal" stroke="none" text-decoration="none" x="37" y="867">#onLayout(changed: boolean, left: int, top: int, right: int, bottom: int)</text></g></g><g transform="translate(-14,-294) scale(1,1)"><g><path fill="none" stroke="none"/><text fill="#000000" font-family="Arial" font-size="13px" font-style="normal" font-weight="normal" stroke="none" text-decoration="none" x="37" y="882">+onTouchEvent(event: MotionEvent): boolean</text></g></g><g transform="translate(-14,-294) scale(1,1)"><rect fill="#C0C0C0" height="265" opacity="0.2" stroke="none" width="415.3896484375" x="31" y="311"/></g><g transform="translate(-14,-294) scale(1,1)"><rect fill="#ffffff" height="265" stroke="none" width="415.3896484375" x="24" y="304"/></g><g transform="translate(-14,-294) scale(1,1)"><path d="M 24 304 L 439.3896484375 304 L 439.3896484375 569 L 24 569 L 24 304 Z Z" fill="none" stroke="#000000" stroke-miterlimit="10"/></g><g transform="translate(-14,-294) scale(1,1)"><path d="M 24 344 L 439.3896484375 344" fill="none" stroke="#000000" stroke-miterlimit="10"/></g><g transform="translate(-14,-294) scale(1,1)"><path d="M 24 457 L 439.3896484375 457" fill="none" stroke="#000000" stroke-miterlimit="10"/></g><g transform="translate(-14,-294) scale(1,1)"><g><path fill="none" stroke="none"/><text fill="#000000" font-family="Arial" font-size="13px" font-style="normal" font-weight="bold" stroke="none" text-decoration="none" x="166.42822265625" y="322">AngularJoystickView</text></g></g><g transform="translate(-14,-294) scale(1,1)"><g><path fill="none" stroke="none"/><text fill="#000000" font-family="Arial" font-size="13px" font-style="normal" font-weight="normal" stroke="none" text-decoration="none" x="196.665283203125" y="337">(from move)</text></g></g><g transform="translate(-14,-294) scale(1,1)"><g><path fill="none" stroke="none"/><text fill="#000000" font-family="Arial" font-size="13px" font-style="normal" font-weight="normal" stroke="none" text-decoration="none" x="29" y="360">-angularJoystickMoveListener: OnAngularJoystickMoveListener</text></g></g><g transform="translate(-14,-294) scale(1,1)"><g><path fill="none" stroke="none"/><text fill="#000000" font-family="Arial" font-size="13px" font-style="normal" font-weight="normal" stroke="none" text-decoration="none" x="29" y="375">-arcRect: RectF</text></g></g><g transform="translate(-14,-294) scale(1,1)"><g><path fill="none" stroke="none"/><text fill="#000000" font-family="Arial" font-size="13px" font-style="normal" font-weight="normal" stroke="none" text-decoration="none" x="29" y="390">-joystickPaint: Paint</text></g></g><g transform="translate(-14,-294) scale(1,1)"><g><path fill="none" stroke="none"/><text fill="#000000" font-family="Arial" font-size="13px" font-style="normal" font-weight="normal" stroke="none" text-decoration="none" x="29" y="405">-joystickRadius: float[1]</text></g></g><g transform="translate(-14,-294) scale(1,1)"><g><path fill="none" stroke="none"/><text fill="#000000" font-family="Arial" font-size="13px" font-style="normal" font-weight="normal" stroke="none" text-decoration="none" x="29" y="420">-maxVel: float[1]</text></g></g><g transform="translate(-14,-294) scale(1,1)"><g><path fill="none" stroke="none"/><text fill="#000000" font-family="Arial" font-size="13px" font-style="normal" font-weight="normal" stroke="none" text-decoration="none" x="29" y="435">-outerPaint: Paint</text></g></g><g transform="translate(-14,-294) scale(1,1)"><g><path fill="none" stroke="none"/><text fill="#000000" font-family="Arial" font-size="13px" font-style="normal" font-weight="normal" stroke="none" text-decoration="none" x="29" y="450">-posX: float[1]</text></g></g><g transform="translate(-14,-294) scale(1,1)"><g><path fill="none" stroke="none"/><text fill="#000000" font-family="Arial" font-size="13px" font-style="normal" font-weight="normal" stroke="none" text-decoration="none" x="29" y="473">-convertPolarToPx(x: float): float</text></g></g><g transform="translate(-14,-294) scale(1,1)"><g><path fill="none" stroke="none"/><text fill="#000000" font-family="Arial" font-size="13px" font-style="normal" font-weight="normal" stroke="none" text-decoration="none" x="29" y="488">-convertPxToPolar(x: float): float</text></g></g><g transform="translate(-14,-294) scale(1,1)"><g><path fill="none" stroke="none"/><text fill="#000000" font-family="Arial" font-size="13px" font-style="normal" font-weight="normal" stroke="none" text-decoration="none" x="29" y="503">-init()</text></g></g><g transform="translate(-14,-294) scale(1,1)"><g><path fill="none" stroke="none"/><text fill="#000000" font-family="Arial" font-size="13px" font-style="normal" font-weight="normal" stroke="none" text-decoration="none" x="29" y="518">-moveTo(x: float)</text></g></g><g transform="translate(-14,-294) scale(1,1)"><g><path fill="none" stroke="none"/><text fill="#000000" font-family="Arial" font-size="13px" font-style="normal" font-weight="normal" stroke="none" text-decoration="none" x="29" y="533">#onDraw(canvas: Canvas)</text></g></g><g transform="translate(-14,-294) scale(1,1)"><g><path fill="none" stroke="none"/><text fill="#000000" font-family="Arial" font-size="13px" font-style="normal" font-weight="normal" stroke="none" text-decoration="none" x="29" y="548">#onLayout(changed: boolean, left: int, top: int, right: int, bottom: int)</text></g></g><g transform="translate(-14,-294) scale(1,1)"><g><path fill="none" stroke="none"/><text fill="#000000" font-family="Arial" font-size="13px" font-style="normal" font-weight="normal" stroke="none" text-decoration="none" x="29" y="563">+onTouchEvent(event: MotionEvent): boolean</text></g></g><g transform="translate(-14,-294) scale(1,1)"><path d="M 551 534 L 440 500" fill="none" stroke="#000000" stroke-dasharray="3" stroke-miterlimit="10"/></g><g transform="translate(-14,-294) scale(1,1)"><path d="M 461.89982316412875 497.90291979650505 L 440 500 L 456.968373098725 514.0026538335583" fill="#FFFFFF" stroke="none"/></g><g transform="translate(-14,-294) scale(1,1)"><path d="M 461.89982316412875 497.90291979650505 L 440 500 L 456.968373098725 514.0026538335583 L 461.89982316412875 497.90291979650505" fill="none" stroke="#000000" stroke-miterlimit="10"/></g><g transform="translate(-14,-294) scale(1,1)"><g><path fill="none" stroke="none"/><text fill="#000000" font-family="Arial" font-size="13px" font-style="normal" font-weight="normal" stroke="none" text-decoration="none" x="434.757080078125" y="559">-angularJoystickView</text></g></g><g transform="translate(-14,-294) scale(1,1)"><path d="M 551 682 L 448 704" fill="none" stroke="#000000" stroke-dasharray="3" stroke-miterlimit="10"/></g><g transform="translate(-14,-294) scale(1,1)"><path d="M 466.11842228966736 691.5211068706682 L 448 704 L 469.635569218878 707.9877493119726" fill="#FFFFFF" stroke="none"/></g><g transform="translate(-14,-294) scale(1,1)"><path d="M 466.11842228966736 691.5211068706682 L 448 704 L 469.635569218878 707.9877493119726 L 466.11842228966736 691.5211068706682" fill="none" stroke="#000000" stroke-miterlimit="10"/></g><g transform="translate(-14,-294) scale(1,1)"><g><path fill="none" stroke="none"/><text fill="#000000" font-family="Arial" font-size="13px" font-style="normal" font-weight="normal" stroke="none" text-decoration="none" x="443.13134765625" y="669">-linearJoystickView</text></g></g><g transform="translate(-14,-294) scale(1,1)"><rect fill="#C0C0C0" height="145" opacity="0.2" stroke="none" width="171.37939453125" x="1095" y="951"/></g><g transform="translate(-14,-294) scale(1,1)"><rect fill="#ffffff" height="145" stroke="none" width="171.37939453125" x="1088" y="944"/></g><g transform="translate(-14,-294) scale(1,1)"><path d="M 1088 944 L 1259.37939453125 944 L 1259.37939453125 1089 L 1088 1089 L 1088 944 Z Z" fill="none" stroke="#000000" stroke-miterlimit="10"/></g><g transform="translate(-14,-294) scale(1,1)"><path d="M 1088 984 L 1259.37939453125 984" fill="none" stroke="#000000" stroke-miterlimit="10"/></g><g transform="translate(-14,-294) scale(1,1)"><path d="M 1088 1022 L 1259.37939453125 1022" fill="none" stroke="#000000" stroke-miterlimit="10"/></g><g transform="translate(-14,-294) scale(1,1)"><g><path fill="none" stroke="none"/><text fill="#000000" font-family="Arial" font-size="13px" font-style="normal" font-weight="bold" stroke="none" text-decoration="none" x="1157.560302734375" y="962">Twist</text></g></g><g transform="translate(-14,-294) scale(1,1)"><g><path fill="none" stroke="none"/><text fill="#000000" font-family="Arial" font-size="13px" font-style="normal" font-weight="normal" stroke="none" text-decoration="none" x="1139.025146484375" y="977">(from msgs)</text></g></g><g transform="translate(-14,-294) scale(1,1)"><g><path fill="none" stroke="none"/><text fill="#000000" font-family="Arial" font-size="13px" font-style="normal" font-weight="normal" stroke="none" text-decoration="none" x="1093" y="1000">-linear: Vector3</text></g></g><g transform="translate(-14,-294) scale(1,1)"><g><path fill="none" stroke="none"/><text fill="#000000" font-family="Arial" font-size="13px" font-style="normal" font-weight="normal" stroke="none" text-decoration="none" x="1093" y="1015">-angular: Vector3</text></g></g><g transform="translate(-14,-294) scale(1,1)"><g><path fill="none" stroke="none"/><text fill="#000000" font-family="Arial" font-size="13px" font-style="normal" font-weight="normal" stroke="none" text-decoration="none" x="1093" y="1038">+getLinear(): Vector3</text></g></g><g transform="translate(-14,-294) scale(1,1)"><g><path fill="none" stroke="none"/><text fill="#000000" font-family="Arial" font-size="13px" font-style="normal" font-weight="normal" stroke="none" text-decoration="none" x="1093" y="1053">+setLinear(value: Vector3)</text></g></g><g transform="translate(-14,-294) scale(1,1)"><g><path fill="none" stroke="none"/><text fill="#000000" font-family="Arial" font-size="13px" font-style="normal" font-weight="normal" stroke="none" text-decoration="none" x="1093" y="1068">+getAngular(): Vector3</text></g></g><g transform="translate(-14,-294) scale(1,1)"><g><path fill="none" stroke="none"/><text fill="#000000" font-family="Arial" font-size="13px" font-style="normal" font-weight="normal" stroke="none" text-decoration="none" x="1093" y="1083">+setAngular(value: Vector3)</text></g></g><g transform="translate(-14,-294) scale(1,1)"><path d="M 1046 867 L 1111 943" fill="none" stroke="#000000" stroke-dasharray="3" stroke-miterlimit="10"/></g><g transform="translate(-14,-294) scale(1,1)"><path d="M 1091.3910361196283 933.0256060064644 L 1111 943 L 1104.1873302992026 922.0814070370917" fill="#FFFFFF" stroke="none"/></g><g transform="translate(-14,-294) scale(1,1)"><path d="M 1091.3910361196283 933.0256060064644 L 1111 943 L 1104.1873302992026 922.0814070370917 L 1091.3910361196283 933.0256060064644" fill="none" stroke="#000000" stroke-miterlimit="10"/></g><g transform="translate(-14,-294) scale(1,1)"><g><path fill="none" stroke="none"/><text fill="#000000" font-family="Arial" font-size="13px" font-style="normal" font-weight="normal" stroke="none" text-decoration="none" x="1084.13134765625" y="892">-twist</text></g></g><g transform="translate(-14,-294) scale(1,1)"><rect fill="#C0C0C0" height="87" opacity="0.2" stroke="none" width="343.05810546875" x="671" y="1319"/></g><g transform="translate(-14,-294) scale(1,1)"><rect fill="#ffffff" height="87" stroke="none" width="343.05810546875" x="664" y="1312"/></g><g transform="translate(-14,-294) scale(1,1)"><path d="M 664 1312 L 1007.05810546875 1312 L 1007.05810546875 1399 L 664 1399 L 664 1312 Z Z" fill="none" stroke="#000000" stroke-miterlimit="10"/></g><g transform="translate(-14,-294) scale(1,1)"><path d="M 664 1352 L 1007.05810546875 1352" fill="none" stroke="#000000" stroke-miterlimit="10"/></g><g transform="translate(-14,-294) scale(1,1)"><path d="M 664 1362 L 1007.05810546875 1362" fill="none" stroke="#000000" stroke-miterlimit="10"/></g><g transform="translate(-14,-294) scale(1,1)"><g><path fill="none" stroke="none"/><text fill="#000000" font-family="Arial" font-size="13px" font-style="normal" font-weight="bold" stroke="none" text-decoration="none" x="795.78955078125" y="1330">RosMessage</text></g></g><g transform="translate(-14,-294) scale(1,1)"><g><path fill="none" stroke="none"/><text fill="#000000" font-family="Arial" font-size="13px" font-style="normal" font-weight="normal" stroke="none" text-decoration="none" x="800.864501953125" y="1345">(from msgs)</text></g></g><g transform="translate(-14,-294) scale(1,1)"><g><path fill="none" stroke="none"/><text fill="#000000" font-family="Arial" font-size="13px" font-style="normal" font-weight="normal" stroke="none" text-decoration="none" x="669" y="1378">+fromJson(json: String, widgetType: String): RosMessage</text></g></g><g transform="translate(-14,-294) scale(1,1)"><g><path fill="none" stroke="none"/><text fill="#000000" font-family="Arial" font-size="13px" font-style="normal" font-weight="normal" stroke="none" text-decoration="none" x="669" y="1393">+toJson(message: RosMessage): String</text></g></g><g transform="translate(-14,-294) scale(1,1)"><path d="M 1099 1090 L 879 1311" fill="none" stroke="#000000" stroke-miterlimit="10"/></g><g transform="translate(-14,-294) scale(1,1)"><path d="M 887.3729247573494 1290.6556118055182 L 879 1311 L 899.306206725696 1302.534897022877" fill="#FFFFFF" stroke="none"/></g><g transform="translate(-14,-294) scale(1,1)"><path d="M 887.3729247573494 1290.6556118055182 L 879 1311 L 899.306206725696 1302.534897022877 L 887.3729247573494 1290.6556118055182" fill="none" stroke="#000000" stroke-miterlimit="10"/></g><g transform="translate(-14,-294) scale(1,1)"><rect fill="#C0C0C0" height="235" opacity="0.2" stroke="none" width="189.31787109375" x="751" y="943"/></g><g transform="translate(-14,-294) scale(1,1)"><rect fill="#ffffff" height="235" stroke="none" width="189.31787109375" x="744" y="936"/></g><g transform="translate(-14,-294) scale(1,1)"><path d="M 744 936 L 933.31787109375 936 L 933.31787109375 1171 L 744 1171 L 744 936 Z Z" fill="none" stroke="#000000" stroke-miterlimit="10"/></g><g transform="translate(-14,-294) scale(1,1)"><path d="M 744 976 L 933.31787109375 976" fill="none" stroke="#000000" stroke-miterlimit="10"/></g><g transform="translate(-14,-294) scale(1,1)"><path d="M 744 1044 L 933.31787109375 1044" fill="none" stroke="#000000" stroke-miterlimit="10"/></g><g transform="translate(-14,-294) scale(1,1)"><g><path fill="none" stroke="none"/><text fill="#000000" font-family="Arial" font-size="13px" font-style="normal" font-weight="bold" stroke="none" text-decoration="none" x="785.928955078125" y="954">ControlHardware</text></g></g><g transform="translate(-14,-294) scale(1,1)"><g><path fill="none" stroke="none"/><text fill="#000000" font-family="Arial" font-size="13px" font-style="normal" font-weight="normal" stroke="none" text-decoration="none" x="803.994384765625" y="969">(from msgs)</text></g></g><g transform="translate(-14,-294) scale(1,1)"><g><path fill="none" stroke="none"/><text fill="#000000" font-family="Arial" font-size="13px" font-style="normal" font-weight="normal" stroke="none" text-decoration="none" x="749" y="992">-head_light: boolean</text></g></g><g transform="translate(-14,-294) scale(1,1)"><g><path fill="none" stroke="none"/><text fill="#000000" font-family="Arial" font-size="13px" font-style="normal" font-weight="normal" stroke="none" text-decoration="none" x="749" y="1007">-horn: boolean</text></g></g><g transform="translate(-14,-294) scale(1,1)"><g><path fill="none" stroke="none"/><text fill="#000000" font-family="Arial" font-size="13px" font-style="normal" font-weight="normal" stroke="none" text-decoration="none" x="749" y="1022">-left_light: boolean</text></g></g><g transform="translate(-14,-294) scale(1,1)"><g><path fill="none" stroke="none"/><text fill="#000000" font-family="Arial" font-size="13px" font-style="normal" font-weight="normal" stroke="none" text-decoration="none" x="749" y="1037">-right_light: boolean</text></g></g><g transform="translate(-14,-294) scale(1,1)"><g><path fill="none" stroke="none"/><text fill="#000000" font-family="Arial" font-size="13px" font-style="normal" font-weight="normal" stroke="none" text-decoration="none" x="749" y="1060">+getHead_light(): boolean</text></g></g><g transform="translate(-14,-294) scale(1,1)"><g><path fill="none" stroke="none"/><text fill="#000000" font-family="Arial" font-size="13px" font-style="normal" font-weight="normal" stroke="none" text-decoration="none" x="749" y="1075">+setHead_light(value: boolean)</text></g></g><g transform="translate(-14,-294) scale(1,1)"><g><path fill="none" stroke="none"/><text fill="#000000" font-family="Arial" font-size="13px" font-style="normal" font-weight="normal" stroke="none" text-decoration="none" x="749" y="1090">+getHorn(): boolean</text></g></g><g transform="translate(-14,-294) scale(1,1)"><g><path fill="none" stroke="none"/><text fill="#000000" font-family="Arial" font-size="13px" font-style="normal" font-weight="normal" stroke="none" text-decoration="none" x="749" y="1105">+setHorn(value: boolean)</text></g></g><g transform="translate(-14,-294) scale(1,1)"><g><path fill="none" stroke="none"/><text fill="#000000" font-family="Arial" font-size="13px" font-style="normal" font-weight="normal" stroke="none" text-decoration="none" x="749" y="1120">+getLeft_light(): boolean</text></g></g><g transform="translate(-14,-294) scale(1,1)"><g><path fill="none" stroke="none"/><text fill="#000000" font-family="Arial" font-size="13px" font-style="normal" font-weight="normal" stroke="none" text-decoration="none" x="749" y="1135">+setLeft_light(value: boolean)</text></g></g><g transform="translate(-14,-294) scale(1,1)"><g><path fill="none" stroke="none"/><text fill="#000000" font-family="Arial" font-size="13px" font-style="normal" font-weight="normal" stroke="none" text-decoration="none" x="749" y="1150">+getRight_light(): boolean</text></g></g><g transform="translate(-14,-294) scale(1,1)"><g><path fill="none" stroke="none"/><text fill="#000000" font-family="Arial" font-size="13px" font-style="normal" font-weight="normal" stroke="none" text-decoration="none" x="749" y="1165">+setRight_light(value: boolean)</text></g></g><g transform="translate(-14,-294) scale(1,1)"><path d="M 838 867 L 838 935" fill="none" stroke="#000000" stroke-dasharray="3" stroke-miterlimit="10"/></g><g transform="translate(-14,-294) scale(1,1)"><path d="M 829.580964487968 914.6746502847517 L 838 935 L 846.419035512032 914.6746502847517" fill="#FFFFFF" stroke="none"/></g><g transform="translate(-14,-294) scale(1,1)"><path d="M 829.580964487968 914.6746502847517 L 838 935 L 846.419035512032 914.6746502847517 L 829.580964487968 914.6746502847517" fill="none" stroke="#000000" stroke-miterlimit="10"/></g><g transform="translate(-14,-294) scale(1,1)"><g><path fill="none" stroke="none"/><text fill="#000000" font-family="Arial" font-size="13px" font-style="normal" font-weight="normal" stroke="none" text-decoration="none" x="839.13134765625" y="880">-controlHardWare</text></g></g><g transform="translate(-14,-294) scale(1,1)"><path d="M 837 1172 L 835 1311" fill="none" stroke="#000000" stroke-miterlimit="10"/></g><g transform="translate(-14,-294) scale(1,1)"><path d="M 826.8742566502006 1290.5556292585663 L 835 1311 L 843.710584963535 1290.7978785868156" fill="#FFFFFF" stroke="none"/></g><g transform="translate(-14,-294) scale(1,1)"><path d="M 826.8742566502006 1290.5556292585663 L 835 1311 L 843.710584963535 1290.7978785868156 L 826.8742566502006 1290.5556292585663" fill="none" stroke="#000000" stroke-miterlimit="10"/></g><g transform="translate(-14,-294) scale(1,1)"><rect fill="#C0C0C0" height="235" opacity="0.2" stroke="none" width="231.91064453125" x="351" y="943"/></g><g transform="translate(-14,-294) scale(1,1)"><rect fill="#ffffff" height="235" stroke="none" width="231.91064453125" x="344" y="936"/></g><g transform="translate(-14,-294) scale(1,1)"><path d="M 344 936 L 575.91064453125 936 L 575.91064453125 1171 L 344 1171 L 344 936 Z Z" fill="none" stroke="#000000" stroke-miterlimit="10"/></g><g transform="translate(-14,-294) scale(1,1)"><path d="M 344 976 L 575.91064453125 976" fill="none" stroke="#000000" stroke-miterlimit="10"/></g><g transform="translate(-14,-294) scale(1,1)"><path d="M 344 1044 L 575.91064453125 1044" fill="none" stroke="#000000" stroke-miterlimit="10"/></g><g transform="translate(-14,-294) scale(1,1)"><g><path fill="none" stroke="none"/><text fill="#000000" font-family="Arial" font-size="13px" font-style="normal" font-weight="bold" stroke="none" text-decoration="none" x="429.2548828125" y="954">Odometry</text></g></g><g transform="translate(-14,-294) scale(1,1)"><g><path fill="none" stroke="none"/><text fill="#000000" font-family="Arial" font-size="13px" font-style="normal" font-weight="normal" stroke="none" text-decoration="none" x="425.290771484375" y="969">(from msgs)</text></g></g><g transform="translate(-14,-294) scale(1,1)"><g><path fill="none" stroke="none"/><text fill="#000000" font-family="Arial" font-size="13px" font-style="normal" font-weight="normal" stroke="none" text-decoration="none" x="349" y="992">-header: Header</text></g></g><g transform="translate(-14,-294) scale(1,1)"><g><path fill="none" stroke="none"/><text fill="#000000" font-family="Arial" font-size="13px" font-style="normal" font-weight="normal" stroke="none" text-decoration="none" x="349" y="1007">-child_frame_id: String</text></g></g><g transform="translate(-14,-294) scale(1,1)"><g><path fill="none" stroke="none"/><text fill="#000000" font-family="Arial" font-size="13px" font-style="normal" font-weight="normal" stroke="none" text-decoration="none" x="349" y="1022">-pose: PoseWithCoveriance</text></g></g><g transform="translate(-14,-294) scale(1,1)"><g><path fill="none" stroke="none"/><text fill="#000000" font-family="Arial" font-size="13px" font-style="normal" font-weight="normal" stroke="none" text-decoration="none" x="349" y="1037">-twist: TwistWithCoveriance</text></g></g><g transform="translate(-14,-294) scale(1,1)"><g><path fill="none" stroke="none"/><text fill="#000000" font-family="Arial" font-size="13px" font-style="normal" font-weight="normal" stroke="none" text-decoration="none" x="349" y="1060">+getHeader(): Header</text></g></g><g transform="translate(-14,-294) scale(1,1)"><g><path fill="none" stroke="none"/><text fill="#000000" font-family="Arial" font-size="13px" font-style="normal" font-weight="normal" stroke="none" text-decoration="none" x="349" y="1075">+setHeader(value: Header)</text></g></g><g transform="translate(-14,-294) scale(1,1)"><g><path fill="none" stroke="none"/><text fill="#000000" font-family="Arial" font-size="13px" font-style="normal" font-weight="normal" stroke="none" text-decoration="none" x="349" y="1090">+getChild_frame_id(): String</text></g></g><g transform="translate(-14,-294) scale(1,1)"><g><path fill="none" stroke="none"/><text fill="#000000" font-family="Arial" font-size="13px" font-style="normal" font-weight="normal" stroke="none" text-decoration="none" x="349" y="1105">+setChild_frame_id(value: String)</text></g></g><g transform="translate(-14,-294) scale(1,1)"><g><path fill="none" stroke="none"/><text fill="#000000" font-family="Arial" font-size="13px" font-style="normal" font-weight="normal" stroke="none" text-decoration="none" x="349" y="1120">+getPose(): PoseWithCoveriance</text></g></g><g transform="translate(-14,-294) scale(1,1)"><g><path fill="none" stroke="none"/><text fill="#000000" font-family="Arial" font-size="13px" font-style="normal" font-weight="normal" stroke="none" text-decoration="none" x="349" y="1135">+setPose(value: PoseWithCoveriance)</text></g></g><g transform="translate(-14,-294) scale(1,1)"><g><path fill="none" stroke="none"/><text fill="#000000" font-family="Arial" font-size="13px" font-style="normal" font-weight="normal" stroke="none" text-decoration="none" x="349" y="1150">+getTwist(): TwistWithCoveriance</text></g></g><g transform="translate(-14,-294) scale(1,1)"><g><path fill="none" stroke="none"/><text fill="#000000" font-family="Arial" font-size="13px" font-style="normal" font-weight="normal" stroke="none" text-decoration="none" x="349" y="1165">+setTwist(value: TwistWithCoveriance)</text></g></g><g transform="translate(-14,-294) scale(1,1)"><path d="M 622 867 L 562 935" fill="none" stroke="#000000" stroke-dasharray="3" stroke-miterlimit="10"/></g><g transform="translate(-14,-294) scale(1,1)"><path d="M 569.1347796203806 914.1890673018098 L 562 935 L 581.7606026855499 925.3294994181356" fill="#FFFFFF" stroke="none"/></g><g transform="translate(-14,-294) scale(1,1)"><path d="M 569.1347796203806 914.1890673018098 L 562 935 L 581.7606026855499 925.3294994181356 L 569.1347796203806 914.1890673018098" fill="none" stroke="#000000" stroke-miterlimit="10"/></g><g transform="translate(-14,-294) scale(1,1)"><path d="M 577 1148 L 780 1311" fill="none" stroke="#000000" stroke-miterlimit="10"/></g><g transform="translate(-14,-294) scale(1,1)"><path d="M 758.8802919427003 1304.838999141825 L 780 1311 L 769.4225967017148 1291.7096257302917" fill="#FFFFFF" stroke="none"/></g><g transform="translate(-14,-294) scale(1,1)"><path d="M 758.8802919427003 1304.838999141825 L 780 1311 L 769.4225967017148 1291.7096257302917 L 758.8802919427003 1304.838999141825" fill="none" stroke="#000000" stroke-miterlimit="10"/></g><g transform="translate(-14,-294) scale(1,1)"><rect fill="#C0C0C0" height="100" opacity="0.2" stroke="none" width="314.64599609375" x="1351" y="951"/></g><g transform="translate(-14,-294) scale(1,1)"><rect fill="#ffffff" height="100" stroke="none" width="314.64599609375" x="1344" y="944"/></g><g transform="translate(-14,-294) scale(1,1)"><path d="M 1344 944 L 1658.64599609375 944 L 1658.64599609375 1044 L 1344 1044 L 1344 944 Z Z" fill="none" stroke="#000000" stroke-miterlimit="10"/></g><g transform="translate(-14,-294) scale(1,1)"><path d="M 1344 984 L 1658.64599609375 984" fill="none" stroke="#000000" stroke-miterlimit="10"/></g><g transform="translate(-14,-294) scale(1,1)"><path d="M 1344 1007 L 1658.64599609375 1007" fill="none" stroke="#000000" stroke-miterlimit="10"/></g><g transform="translate(-14,-294) scale(1,1)"><g><path fill="none" stroke="none"/><text fill="#000000" font-family="Arial" font-size="13px" font-style="normal" font-weight="bold" stroke="none" text-decoration="none" x="1460.498046875" y="962">RosObserver</text></g></g><g transform="translate(-14,-294) scale(1,1)"><g><path fill="none" stroke="none"/><text fill="#000000" font-family="Arial" font-size="13px" font-style="normal" font-weight="normal" stroke="none" text-decoration="none" x="1469.546630859375" y="977">(from mqtt)</text></g></g><g transform="translate(-14,-294) scale(1,1)"><g><path fill="none" stroke="none"/><text fill="#000000" font-family="Arial" font-size="13px" font-style="normal" font-weight="normal" stroke="none" text-decoration="none" x="1349" y="1000">-messageType: Class&lt;T extends RosMessage&gt;[0..1]</text></g></g><g transform="translate(-14,-294) scale(1,1)"><g><path fill="none" stroke="none"/><text fill="#000000" font-family="Arial" font-size="13px" font-style="normal" font-weight="normal" stroke="none" text-decoration="none" x="1349" y="1023">+onChange(message: T)</text></g></g><g transform="translate(-14,-294) scale(1,1)"><g><path fill="none" stroke="none"/><text fill="#000000" font-family="Arial" font-size="13px" font-style="normal" font-weight="normal" stroke="none" text-decoration="none" x="1349" y="1038">+onChange(rosMessage: RosMessage)</text></g></g><g transform="translate(-14,-294) scale(1,1)"><path d="M 1407 1045 L 916 1311" fill="none" stroke="#000000" stroke-dasharray="3" stroke-miterlimit="10"/></g><g transform="translate(-14,-294) scale(1,1)"><path d="M 929.8609511387949 1293.9156787220581 L 916 1311 L 937.8816119715397 1308.720733116335" fill="#FFFFFF" stroke="none"/></g><g transform="translate(-14,-294) scale(1,1)"><path d="M 929.8609511387949 1293.9156787220581 L 916 1311 L 937.8816119715397 1308.720733116335 L 929.8609511387949 1293.9156787220581" fill="none" stroke="#000000" stroke-miterlimit="10"/></g><g transform="translate(-14,-294) scale(1,1)"><path d="M 1125 783 L 1410 943" fill="none" stroke="#000000" stroke-dasharray="3" stroke-miterlimit="10"/></g><g transform="translate(-14,-294) scale(1,1)"><path d="M 1388.1552141149186 940.3912973272247 L 1410 943 L 1396.3980351171097 925.7087724170718" fill="#FFFFFF" stroke="none"/></g><g transform="translate(-14,-294) scale(1,1)"><path d="M 1388.1552141149186 940.3912973272247 L 1410 943 L 1396.3980351171097 925.7087724170718 L 1388.1552141149186 940.3912973272247" fill="none" stroke="#000000" stroke-miterlimit="10"/></g></g></svg>