<?xml version="1.0" encoding="UTF-8" standalone="no"?><svg xmlns="http://www.w3.org/2000/svg" xmlns:xlink="http://www.w3.org/1999/xlink" height="702" version="1.1" width="1294.17724609375"><defs/><g><g transform="translate(-62,-102) scale(1,1)"><path d="M 88.40935031960227 369.68 C 88.40935031960227 364.886167936 92.29519264454773 361 97.088623046875 361 C 101.88205344920227 361 105.76789577414773 364.886167936 105.76789577414773 369.68 C 105.76789577414773 374.473832064 101.88205344920227 378.36 97.088623046875 378.36 C 92.29519264454773 378.36 88.40935031960227 374.473832064 88.40935031960227 369.68 Z" fill="#ffffff" stroke="none"/></g><g transform="translate(-62,-102) scale(1,1)"><path d="M 88.40935031960227 369.68 C 88.40935031960227 364.886167936 92.29519264454773 361 97.088623046875 361 C 101.88205344920227 361 105.76789577414773 364.886167936 105.76789577414773 369.68 C 105.76789577414773 374.473832064 101.88205344920227 378.36 97.088623046875 378.36 C 92.29519264454773 378.36 88.40935031960227 374.473832064 88.40935031960227 369.68 Z" fill="none" stroke="#000000" stroke-miterlimit="10"/></g><g transform="translate(-62,-102) scale(1,1)"><path d="M 97.088623046875 378.36 L 97.088623046875 395.64" fill="none" stroke="#000000" stroke-miterlimit="10"/></g><g transform="translate(-62,-102) scale(1,1)"><path d="M 87.89880486505682 384.84 L 106.27844122869318 384.84" fill="none" stroke="#000000" stroke-miterlimit="10"/></g><g transform="translate(-62,-102) scale(1,1)"><path d="M 97.088623046875 395.64 L 84.32498668323863 413" fill="none" stroke="#000000" stroke-miterlimit="10"/></g><g transform="translate(-62,-102) scale(1,1)"><path d="M 97.088623046875 395.64 L 109.85225941051137 413" fill="none" stroke="#000000" stroke-miterlimit="10"/></g><g transform="translate(-62,-102) scale(1,1)"><g><path fill="none" stroke="none"/><text fill="#000000" font-family="Arial" font-size="13px" font-style="normal" font-weight="bold" stroke="none" text-decoration="none" x="77.588623046875" y="432.5">사용자</text></g></g><g transform="translate(-62,-102) scale(1,1)"><path d="M 263 392 C 263 382.6111584 291.6537728 375 327 375 C 362.3462272 375 391 382.6111584 391 392 C 391 401.3888416 362.3462272 409 327 409 C 291.6537728 409 263 401.3888416 263 392 Z" fill="#C0C0C0" opacity="0.2" stroke="none"/></g><g transform="translate(-62,-102) scale(1,1)"><path d="M 256 385 C 256 375.6111584 284.6537728 368 320 368 C 355.3462272 368 384 375.6111584 384 385 C 384 394.3888416 355.3462272 402 320 402 C 284.6537728 402 256 394.3888416 256 385 Z" fill="#ffffff" stroke="none"/></g><g transform="translate(-62,-102) scale(1,1)"><path d="M 256 385 C 256 375.6111584 284.6537728 368 320 368 C 355.3462272 368 384 375.6111584 384 385 C 384 394.3888416 355.3462272 402 320 402 C 284.6537728 402 256 394.3888416 256 385 Z" fill="none" stroke="#000000" stroke-miterlimit="10"/></g><g transform="translate(-62,-102) scale(1,1)"><g><path fill="none" stroke="none"/><text fill="#000000" font-family="Arial" font-size="13px" font-style="normal" font-weight="bold" stroke="none" text-decoration="none" x="279.194091796875" y="391">주행경로 설정</text></g></g><g transform="translate(-62,-102) scale(1,1)"><path d="M 123 397 L 255 389" fill="none" stroke="#000000" stroke-miterlimit="10"/></g><g transform="translate(-62,-102) scale(1,1)"><path d="M 263 208 C 263 198.6111584 291.6537728 191 327 191 C 362.3462272 191 391 198.6111584 391 208 C 391 217.3888416 362.3462272 225 327 225 C 291.6537728 225 263 217.3888416 263 208 Z" fill="#C0C0C0" opacity="0.2" stroke="none"/></g><g transform="translate(-62,-102) scale(1,1)"><path d="M 256 201 C 256 191.6111584 284.6537728 184 320 184 C 355.3462272 184 384 191.6111584 384 201 C 384 210.3888416 355.3462272 218 320 218 C 284.6537728 218 256 210.3888416 256 201 Z" fill="#ffffff" stroke="none"/></g><g transform="translate(-62,-102) scale(1,1)"><path d="M 256 201 C 256 191.6111584 284.6537728 184 320 184 C 355.3462272 184 384 191.6111584 384 201 C 384 210.3888416 355.3462272 218 320 218 C 284.6537728 218 256 210.3888416 256 201 Z" fill="none" stroke="#000000" stroke-miterlimit="10"/></g><g transform="translate(-62,-102) scale(1,1)"><g><path fill="none" stroke="none"/><text fill="#000000" font-family="Arial" font-size="13px" font-style="normal" font-weight="bold" stroke="none" text-decoration="none" x="279.194091796875" y="207">주행경로 관리</text></g></g><g transform="translate(-62,-102) scale(1,1)"><path d="M 320 367 L 320 219" fill="none" stroke="#000000" stroke-dasharray="3" stroke-miterlimit="10"/></g><g transform="translate(-62,-102) scale(1,1)"><path d="M 324.209517756016 229.16267485762415 L 320 219 L 315.790482243984 229.16267485762415" fill="none" stroke="#000000" stroke-miterlimit="10"/></g><g transform="translate(-62,-102) scale(1,1)"><g><path fill="none" stroke="none"/><text fill="#000000" font-family="Arial" font-size="13px" font-style="normal" font-weight="normal" stroke="none" text-decoration="none" x="290.5" y="307">«extend»</text></g></g><g transform="translate(-62,-102) scale(1,1)"><path d="M 423 136 C 423 126.6111584 451.6537728 119 487 119 C 522.3462272 119 551 126.6111584 551 136 C 551 145.3888416 522.3462272 153 487 153 C 451.6537728 153 423 145.3888416 423 136 Z" fill="#C0C0C0" opacity="0.2" stroke="none"/></g><g transform="translate(-62,-102) scale(1,1)"><path d="M 416 129 C 416 119.6111584 444.6537728 112 480 112 C 515.3462272 112 544 119.6111584 544 129 C 544 138.3888416 515.3462272 146 480 146 C 444.6537728 146 416 138.3888416 416 129 Z" fill="#ffffff" stroke="none"/></g><g transform="translate(-62,-102) scale(1,1)"><path d="M 416 129 C 416 119.6111584 444.6537728 112 480 112 C 515.3462272 112 544 119.6111584 544 129 C 544 138.3888416 515.3462272 146 480 146 C 444.6537728 146 416 138.3888416 416 129 Z" fill="none" stroke="#000000" stroke-miterlimit="10"/></g><g transform="translate(-62,-102) scale(1,1)"><g><path fill="none" stroke="none"/><text fill="#000000" font-family="Arial" font-size="13px" font-style="normal" font-weight="bold" stroke="none" text-decoration="none" x="439.194091796875" y="135">주행경로 저장</text></g></g><g transform="translate(-62,-102) scale(1,1)"><path d="M 423 208 C 423 198.6111584 451.6537728 191 487 191 C 522.3462272 191 551 198.6111584 551 208 C 551 217.3888416 522.3462272 225 487 225 C 451.6537728 225 423 217.3888416 423 208 Z" fill="#C0C0C0" opacity="0.2" stroke="none"/></g><g transform="translate(-62,-102) scale(1,1)"><path d="M 416 201 C 416 191.6111584 444.6537728 184 480 184 C 515.3462272 184 544 191.6111584 544 201 C 544 210.3888416 515.3462272 218 480 218 C 444.6537728 218 416 210.3888416 416 201 Z" fill="#ffffff" stroke="none"/></g><g transform="translate(-62,-102) scale(1,1)"><path d="M 416 201 C 416 191.6111584 444.6537728 184 480 184 C 515.3462272 184 544 191.6111584 544 201 C 544 210.3888416 515.3462272 218 480 218 C 444.6537728 218 416 210.3888416 416 201 Z" fill="none" stroke="#000000" stroke-miterlimit="10"/></g><g transform="translate(-62,-102) scale(1,1)"><g><path fill="none" stroke="none"/><text fill="#000000" font-family="Arial" font-size="13px" font-style="normal" font-weight="bold" stroke="none" text-decoration="none" x="439.194091796875" y="207">주행경로 수정</text></g></g><g transform="translate(-62,-102) scale(1,1)"><path d="M 423 280 C 423 270.6111584 451.6537728 263 487 263 C 522.3462272 263 551 270.6111584 551 280 C 551 289.3888416 522.3462272 297 487 297 C 451.6537728 297 423 289.3888416 423 280 Z" fill="#C0C0C0" opacity="0.2" stroke="none"/></g><g transform="translate(-62,-102) scale(1,1)"><path d="M 416 273 C 416 263.6111584 444.6537728 256 480 256 C 515.3462272 256 544 263.6111584 544 273 C 544 282.3888416 515.3462272 290 480 290 C 444.6537728 290 416 282.3888416 416 273 Z" fill="#ffffff" stroke="none"/></g><g transform="translate(-62,-102) scale(1,1)"><path d="M 416 273 C 416 263.6111584 444.6537728 256 480 256 C 515.3462272 256 544 263.6111584 544 273 C 544 282.3888416 515.3462272 290 480 290 C 444.6537728 290 416 282.3888416 416 273 Z" fill="none" stroke="#000000" stroke-miterlimit="10"/></g><g transform="translate(-62,-102) scale(1,1)"><g><path fill="none" stroke="none"/><text fill="#000000" font-family="Arial" font-size="13px" font-style="normal" font-weight="bold" stroke="none" text-decoration="none" x="439.194091796875" y="279">주행경로 삭제</text></g></g><g transform="translate(-62,-102) scale(1,1)"><path d="M 440 147 L 360 183" fill="none" stroke="#000000" stroke-miterlimit="10"/></g><g transform="translate(-62,-102) scale(1,1)"><path d="M 375.080248714225 166.98169488625228 L 360 183 L 381.98999829685437 182.33669395876203" fill="#FFFFFF" stroke="none"/></g><g transform="translate(-62,-102) scale(1,1)"><path d="M 375.080248714225 166.98169488625228 L 360 183 L 381.98999829685437 182.33669395876203 L 375.080248714225 166.98169488625228" fill="none" stroke="#000000" stroke-miterlimit="10"/></g><g transform="translate(-62,-102) scale(1,1)"><path d="M 415 201 L 385 201" fill="none" stroke="#000000" stroke-miterlimit="10"/></g><g transform="translate(-62,-102) scale(1,1)"><path d="M 405.3253497152483 192.58096448796803 L 385 201 L 405.3253497152483 209.41903551203197" fill="#FFFFFF" stroke="none"/></g><g transform="translate(-62,-102) scale(1,1)"><path d="M 405.3253497152483 192.58096448796803 L 385 201 L 405.3253497152483 209.41903551203197 L 405.3253497152483 192.58096448796803" fill="none" stroke="#000000" stroke-miterlimit="10"/></g><g transform="translate(-62,-102) scale(1,1)"><path d="M 440 255 L 360 219" fill="none" stroke="#000000" stroke-miterlimit="10"/></g><g transform="translate(-62,-102) scale(1,1)"><path d="M 381.98999829685437 219.66330604123797 L 360 219 L 375.080248714225 235.01830511374772" fill="#FFFFFF" stroke="none"/></g><g transform="translate(-62,-102) scale(1,1)"><path d="M 381.98999829685437 219.66330604123797 L 360 219 L 375.080248714225 235.01830511374772 L 381.98999829685437 219.66330604123797" fill="none" stroke="#000000" stroke-miterlimit="10"/></g><g transform="translate(-62,-102) scale(1,1)"><path d="M 615 208 C 615 198.6111584 639.624336 191 670 191 C 700.375664 191 725 198.6111584 725 208 C 725 217.3888416 700.375664 225 670 225 C 639.624336 225 615 217.3888416 615 208 Z" fill="#C0C0C0" opacity="0.2" stroke="none"/></g><g transform="translate(-62,-102) scale(1,1)"><path d="M 608 201 C 608 191.6111584 632.624336 184 663 184 C 693.375664 184 718 191.6111584 718 201 C 718 210.3888416 693.375664 218 663 218 C 632.624336 218 608 210.3888416 608 201 Z" fill="#ffffff" stroke="none"/></g><g transform="translate(-62,-102) scale(1,1)"><path d="M 608 201 C 608 191.6111584 632.624336 184 663 184 C 693.375664 184 718 191.6111584 718 201 C 718 210.3888416 693.375664 218 663 218 C 632.624336 218 608 210.3888416 608 201 Z" fill="none" stroke="#000000" stroke-miterlimit="10"/></g><g transform="translate(-62,-102) scale(1,1)"><g><path fill="none" stroke="none"/><text fill="#000000" font-family="Arial" font-size="13px" font-style="normal" font-weight="bold" stroke="none" text-decoration="none" x="628.694091796875" y="207">경유지 관리</text></g></g><g transform="translate(-62,-102) scale(1,1)"><path d="M 607 201 L 545 201" fill="none" stroke="#000000" stroke-miterlimit="10"/></g><g transform="translate(-62,-102) scale(1,1)"><path d="M 565.3253497152483 192.58096448796803 L 545 201 L 565.3253497152483 209.41903551203197" fill="#FFFFFF" stroke="none"/></g><g transform="translate(-62,-102) scale(1,1)"><path d="M 565.3253497152483 192.58096448796803 L 545 201 L 565.3253497152483 209.41903551203197 L 565.3253497152483 192.58096448796803" fill="none" stroke="#000000" stroke-miterlimit="10"/></g><g transform="translate(-62,-102) scale(1,1)"><path d="M 783 144 C 783 134.6111584 807.624336 127 838 127 C 868.375664 127 893 134.6111584 893 144 C 893 153.3888416 868.375664 161 838 161 C 807.624336 161 783 153.3888416 783 144 Z" fill="#C0C0C0" opacity="0.2" stroke="none"/></g><g transform="translate(-62,-102) scale(1,1)"><path d="M 776 137 C 776 127.6111584 800.624336 120 831 120 C 861.375664 120 886 127.6111584 886 137 C 886 146.3888416 861.375664 154 831 154 C 800.624336 154 776 146.3888416 776 137 Z" fill="#ffffff" stroke="none"/></g><g transform="translate(-62,-102) scale(1,1)"><path d="M 776 137 C 776 127.6111584 800.624336 120 831 120 C 861.375664 120 886 127.6111584 886 137 C 886 146.3888416 861.375664 154 831 154 C 800.624336 154 776 146.3888416 776 137 Z" fill="none" stroke="#000000" stroke-miterlimit="10"/></g><g transform="translate(-62,-102) scale(1,1)"><g><path fill="none" stroke="none"/><text fill="#000000" font-family="Arial" font-size="13px" font-style="normal" font-weight="bold" stroke="none" text-decoration="none" x="796.694091796875" y="143">경유지 저장</text></g></g><g transform="translate(-62,-102) scale(1,1)"><path d="M 783 208 C 783 198.6111584 807.624336 191 838 191 C 868.375664 191 893 198.6111584 893 208 C 893 217.3888416 868.375664 225 838 225 C 807.624336 225 783 217.3888416 783 208 Z" fill="#C0C0C0" opacity="0.2" stroke="none"/></g><g transform="translate(-62,-102) scale(1,1)"><path d="M 776 201 C 776 191.6111584 800.624336 184 831 184 C 861.375664 184 886 191.6111584 886 201 C 886 210.3888416 861.375664 218 831 218 C 800.624336 218 776 210.3888416 776 201 Z" fill="#ffffff" stroke="none"/></g><g transform="translate(-62,-102) scale(1,1)"><path d="M 776 201 C 776 191.6111584 800.624336 184 831 184 C 861.375664 184 886 191.6111584 886 201 C 886 210.3888416 861.375664 218 831 218 C 800.624336 218 776 210.3888416 776 201 Z" fill="none" stroke="#000000" stroke-miterlimit="10"/></g><g transform="translate(-62,-102) scale(1,1)"><g><path fill="none" stroke="none"/><text fill="#000000" font-family="Arial" font-size="13px" font-style="normal" font-weight="bold" stroke="none" text-decoration="none" x="796.694091796875" y="207">경유지 수정</text></g></g><g transform="translate(-62,-102) scale(1,1)"><path d="M 783 272 C 783 262.6111584 807.624336 255 838 255 C 868.375664 255 893 262.6111584 893 272 C 893 281.3888416 868.375664 289 838 289 C 807.624336 289 783 281.3888416 783 272 Z" fill="#C0C0C0" opacity="0.2" stroke="none"/></g><g transform="translate(-62,-102) scale(1,1)"><path d="M 776 265 C 776 255.6111584 800.624336 248 831 248 C 861.375664 248 886 255.6111584 886 265 C 886 274.3888416 861.375664 282 831 282 C 800.624336 282 776 274.3888416 776 265 Z" fill="#ffffff" stroke="none"/></g><g transform="translate(-62,-102) scale(1,1)"><path d="M 776 265 C 776 255.6111584 800.624336 248 831 248 C 861.375664 248 886 255.6111584 886 265 C 886 274.3888416 861.375664 282 831 282 C 800.624336 282 776 274.3888416 776 265 Z" fill="none" stroke="#000000" stroke-miterlimit="10"/></g><g transform="translate(-62,-102) scale(1,1)"><g><path fill="none" stroke="none"/><text fill="#000000" font-family="Arial" font-size="13px" font-style="normal" font-weight="bold" stroke="none" text-decoration="none" x="796.694091796875" y="271">경유지 삭제</text></g></g><g transform="translate(-62,-102) scale(1,1)"><path d="M 775 201 L 719 201" fill="none" stroke="#000000" stroke-miterlimit="10"/></g><g transform="translate(-62,-102) scale(1,1)"><path d="M 739.3253497152483 192.58096448796803 L 719 201 L 739.3253497152483 209.41903551203197" fill="#FFFFFF" stroke="none"/></g><g transform="translate(-62,-102) scale(1,1)"><path d="M 739.3253497152483 192.58096448796803 L 719 201 L 739.3253497152483 209.41903551203197 L 739.3253497152483 192.58096448796803" fill="none" stroke="#000000" stroke-miterlimit="10"/></g><g transform="translate(-62,-102) scale(1,1)"><path d="M 784 155 L 710 183" fill="none" stroke="#000000" stroke-miterlimit="10"/></g><g transform="translate(-62,-102) scale(1,1)"><path d="M 726.0305901310928 167.93281114311935 L 710 183 L 731.9894504022366 183.68122757399922" fill="#FFFFFF" stroke="none"/></g><g transform="translate(-62,-102) scale(1,1)"><path d="M 726.0305901310928 167.93281114311935 L 710 183 L 731.9894504022366 183.68122757399922 L 726.0305901310928 167.93281114311935" fill="none" stroke="#000000" stroke-miterlimit="10"/></g><g transform="translate(-62,-102) scale(1,1)"><path d="M 784 247 L 710 219" fill="none" stroke="#000000" stroke-miterlimit="10"/></g><g transform="translate(-62,-102) scale(1,1)"><path d="M 731.9894504022366 218.31877242600078 L 710 219 L 726.0305901310928 234.06718885688065" fill="#FFFFFF" stroke="none"/></g><g transform="translate(-62,-102) scale(1,1)"><path d="M 731.9894504022366 218.31877242600078 L 710 219 L 726.0305901310928 234.06718885688065 L 731.9894504022366 218.31877242600078" fill="none" stroke="#000000" stroke-miterlimit="10"/></g><g transform="translate(-62,-102) scale(1,1)"><path d="M 431 464 C 431 454.6111584 459.6537728 447 495 447 C 530.3462272 447 559 454.6111584 559 464 C 559 473.3888416 530.3462272 481 495 481 C 459.6537728 481 431 473.3888416 431 464 Z" fill="#C0C0C0" opacity="0.2" stroke="none"/></g><g transform="translate(-62,-102) scale(1,1)"><path d="M 424 457 C 424 447.6111584 452.6537728 440 488 440 C 523.3462272 440 552 447.6111584 552 457 C 552 466.3888416 523.3462272 474 488 474 C 452.6537728 474 424 466.3888416 424 457 Z" fill="#ffffff" stroke="none"/></g><g transform="translate(-62,-102) scale(1,1)"><path d="M 424 457 C 424 447.6111584 452.6537728 440 488 440 C 523.3462272 440 552 447.6111584 552 457 C 552 466.3888416 523.3462272 474 488 474 C 452.6537728 474 424 466.3888416 424 457 Z" fill="none" stroke="#000000" stroke-miterlimit="10"/></g><g transform="translate(-62,-102) scale(1,1)"><g><path fill="none" stroke="none"/><text fill="#000000" font-family="Arial" font-size="13px" font-style="normal" font-weight="bold" stroke="none" text-decoration="none" x="447.194091796875" y="463">주행경로 등록</text></g></g><g transform="translate(-62,-102) scale(1,1)"><path d="M 362 403 L 446 439" fill="none" stroke="#000000" stroke-dasharray="3" stroke-miterlimit="10"/></g><g transform="translate(-62,-102) scale(1,1)"><path d="M 435.00081763111893 438.86588357261144 L 446 439 L 438.31723819473166 431.1275689241817" fill="none" stroke="#000000" stroke-miterlimit="10"/></g><g transform="translate(-62,-102) scale(1,1)"><g><path fill="none" stroke="none"/><text fill="#000000" font-family="Arial" font-size="13px" font-style="normal" font-weight="normal" stroke="none" text-decoration="none" x="375.5" y="427">«extend»</text></g></g><g transform="translate(-62,-102) scale(1,1)"><path d="M 359 544 C 359 534.6111584 383.62433599999997 527 414 527 C 444.37566400000003 527 469 534.6111584 469 544 C 469 553.3888416 444.37566400000003 561 414 561 C 383.62433599999997 561 359 553.3888416 359 544 Z" fill="#C0C0C0" opacity="0.2" stroke="none"/></g><g transform="translate(-62,-102) scale(1,1)"><path d="M 352 537 C 352 527.6111584 376.62433599999997 520 407 520 C 437.37566400000003 520 462 527.6111584 462 537 C 462 546.3888416 437.37566400000003 554 407 554 C 376.62433599999997 554 352 546.3888416 352 537 Z" fill="#ffffff" stroke="none"/></g><g transform="translate(-62,-102) scale(1,1)"><path d="M 352 537 C 352 527.6111584 376.62433599999997 520 407 520 C 437.37566400000003 520 462 527.6111584 462 537 C 462 546.3888416 437.37566400000003 554 407 554 C 376.62433599999997 554 352 546.3888416 352 537 Z" fill="none" stroke="#000000" stroke-miterlimit="10"/></g><g transform="translate(-62,-102) scale(1,1)"><g><path fill="none" stroke="none"/><text fill="#000000" font-family="Arial" font-size="13px" font-style="normal" font-weight="bold" stroke="none" text-decoration="none" x="372.694091796875" y="543">경유지 추가</text></g></g><g transform="translate(-62,-102) scale(1,1)"><path d="M 470 475 L 425 519" fill="none" stroke="#000000" stroke-dasharray="3" stroke-miterlimit="10"/></g><g transform="translate(-62,-102) scale(1,1)"><path d="M 429.3234322130852 508.88526155064517 L 425 519 L 435.20932838334 514.9049280884058" fill="none" stroke="#000000" stroke-miterlimit="10"/></g><g transform="translate(-62,-102) scale(1,1)"><g><path fill="none" stroke="none"/><text fill="#000000" font-family="Arial" font-size="13px" font-style="normal" font-weight="normal" stroke="none" text-decoration="none" x="427.5" y="504">«extend»</text></g></g><g transform="translate(-62,-102) scale(1,1)"><path d="M 631 392 C 631 382.6111584 659.6537728 375 695 375 C 730.3462272 375 759 382.6111584 759 392 C 759 401.3888416 730.3462272 409 695 409 C 659.6537728 409 631 401.3888416 631 392 Z" fill="#C0C0C0" opacity="0.2" stroke="none"/></g><g transform="translate(-62,-102) scale(1,1)"><path d="M 624 385 C 624 375.6111584 652.6537728 368 688 368 C 723.3462272 368 752 375.6111584 752 385 C 752 394.3888416 723.3462272 402 688 402 C 652.6537728 402 624 394.3888416 624 385 Z" fill="#ffffff" stroke="none"/></g><g transform="translate(-62,-102) scale(1,1)"><path d="M 624 385 C 624 375.6111584 652.6537728 368 688 368 C 723.3462272 368 752 375.6111584 752 385 C 752 394.3888416 723.3462272 402 688 402 C 652.6537728 402 624 394.3888416 624 385 Z" fill="none" stroke="#000000" stroke-miterlimit="10"/></g><g transform="translate(-62,-102) scale(1,1)"><g><path fill="none" stroke="none"/><text fill="#000000" font-family="Arial" font-size="13px" font-style="normal" font-weight="bold" stroke="none" text-decoration="none" x="647.194091796875" y="391">자율주행 제어</text></g></g><g transform="translate(-62,-102) scale(1,1)"><path d="M 385 385 L 623 385" fill="none" stroke="#000000" stroke-dasharray="3" stroke-miterlimit="10"/></g><g transform="translate(-62,-102) scale(1,1)"><path d="M 612.8373251423759 389.209517756016 L 623 385 L 612.8373251423758 380.790482243984" fill="none" stroke="#000000" stroke-miterlimit="10"/></g><g transform="translate(-62,-102) scale(1,1)"><g><path fill="none" stroke="none"/><text fill="#000000" font-family="Arial" font-size="13px" font-style="normal" font-weight="normal" stroke="none" text-decoration="none" x="479.5" y="379">«extend»</text></g></g><g transform="translate(-62,-102) scale(1,1)"><path d="M 671 488 C 671 478.6111584 699.6537728 471 735 471 C 770.3462272 471 799 478.6111584 799 488 C 799 497.3888416 770.3462272 505 735 505 C 699.6537728 505 671 497.3888416 671 488 Z" fill="#C0C0C0" opacity="0.2" stroke="none"/></g><g transform="translate(-62,-102) scale(1,1)"><path d="M 664 481 C 664 471.6111584 692.6537728 464 728 464 C 763.3462272 464 792 471.6111584 792 481 C 792 490.3888416 763.3462272 498 728 498 C 692.6537728 498 664 490.3888416 664 481 Z" fill="#ffffff" stroke="none"/></g><g transform="translate(-62,-102) scale(1,1)"><path d="M 664 481 C 664 471.6111584 692.6537728 464 728 464 C 763.3462272 464 792 471.6111584 792 481 C 792 490.3888416 763.3462272 498 728 498 C 692.6537728 498 664 490.3888416 664 481 Z" fill="none" stroke="#000000" stroke-miterlimit="10"/></g><g transform="translate(-62,-102) scale(1,1)"><g><path fill="none" stroke="none"/><text fill="#000000" font-family="Arial" font-size="13px" font-style="normal" font-weight="bold" stroke="none" text-decoration="none" x="687.194091796875" y="487">자율주행 시작</text></g></g><g transform="translate(-62,-102) scale(1,1)"><path d="M 663 475 L 553 464" fill="none" stroke="#000000" stroke-dasharray="3" stroke-miterlimit="10"/></g><g transform="translate(-62,-102) scale(1,1)"><path d="M 563.5311021073566 460.8225972234496 L 553 464 L 562.6933767633395 469.19985066362" fill="none" stroke="#000000" stroke-miterlimit="10"/></g><g transform="translate(-62,-102) scale(1,1)"><g><path fill="none" stroke="none"/><text fill="#000000" font-family="Arial" font-size="13px" font-style="normal" font-weight="normal" stroke="none" text-decoration="none" x="577.5" y="503">«include»</text></g></g><g transform="translate(-62,-102) scale(1,1)"><path d="M 495 544 C 495 534.6111584 519.624336 527 550 527 C 580.375664 527 605 534.6111584 605 544 C 605 553.3888416 580.375664 561 550 561 C 519.624336 561 495 553.3888416 495 544 Z" fill="#C0C0C0" opacity="0.2" stroke="none"/></g><g transform="translate(-62,-102) scale(1,1)"><path d="M 488 537 C 488 527.6111584 512.624336 520 543 520 C 573.375664 520 598 527.6111584 598 537 C 598 546.3888416 573.375664 554 543 554 C 512.624336 554 488 546.3888416 488 537 Z" fill="#ffffff" stroke="none"/></g><g transform="translate(-62,-102) scale(1,1)"><path d="M 488 537 C 488 527.6111584 512.624336 520 543 520 C 573.375664 520 598 527.6111584 598 537 C 598 546.3888416 573.375664 554 543 554 C 512.624336 554 488 546.3888416 488 537 Z" fill="none" stroke="#000000" stroke-miterlimit="10"/></g><g transform="translate(-62,-102) scale(1,1)"><g><path fill="none" stroke="none"/><text fill="#000000" font-family="Arial" font-size="13px" font-style="normal" font-weight="bold" stroke="none" text-decoration="none" x="508.694091796875" y="543">경유지 제거</text></g></g><g transform="translate(-62,-102) scale(1,1)"><path d="M 500 475 L 531 519" fill="none" stroke="#000000" stroke-dasharray="3" stroke-miterlimit="10"/></g><g transform="translate(-62,-102) scale(1,1)"><path d="M 521.7055646992854 513.116678451688 L 531 519 L 528.5879783342774 508.2677052088528" fill="none" stroke="#000000" stroke-miterlimit="10"/></g><g transform="translate(-62,-102) scale(1,1)"><g><path fill="none" stroke="none"/><text fill="#000000" font-family="Arial" font-size="13px" font-style="normal" font-weight="normal" stroke="none" text-decoration="none" x="495.5" y="499">«extend»</text></g></g><g transform="translate(-62,-102) scale(1,1)"><path d="M 959 264 C 959 254.6111584 983.624336 247 1014 247 C 1044.375664 247 1069 254.6111584 1069 264 C 1069 273.3888416 1044.375664 281 1014 281 C 983.624336 281 959 273.3888416 959 264 Z" fill="#C0C0C0" opacity="0.2" stroke="none"/></g><g transform="translate(-62,-102) scale(1,1)"><path d="M 952 257 C 952 247.6111584 976.624336 240 1007 240 C 1037.375664 240 1062 247.6111584 1062 257 C 1062 266.3888416 1037.375664 274 1007 274 C 976.624336 274 952 266.3888416 952 257 Z" fill="#ffffff" stroke="none"/></g><g transform="translate(-62,-102) scale(1,1)"><path d="M 952 257 C 952 247.6111584 976.624336 240 1007 240 C 1037.375664 240 1062 247.6111584 1062 257 C 1062 266.3888416 1037.375664 274 1007 274 C 976.624336 274 952 266.3888416 952 257 Z" fill="none" stroke="#000000" stroke-miterlimit="10"/></g><g transform="translate(-62,-102) scale(1,1)"><g><path fill="none" stroke="none"/><text fill="#000000" font-family="Arial" font-size="13px" font-style="normal" font-weight="bold" stroke="none" text-decoration="none" x="972.694091796875" y="263">목적지 추가</text></g></g><g transform="translate(-62,-102) scale(1,1)"><path d="M 959 152 C 959 142.6111584 983.624336 135 1014 135 C 1044.375664 135 1069 142.6111584 1069 152 C 1069 161.3888416 1044.375664 169 1014 169 C 983.624336 169 959 161.3888416 959 152 Z" fill="#C0C0C0" opacity="0.2" stroke="none"/></g><g transform="translate(-62,-102) scale(1,1)"><path d="M 952 145 C 952 135.6111584 976.624336 128 1007 128 C 1037.375664 128 1062 135.6111584 1062 145 C 1062 154.3888416 1037.375664 162 1007 162 C 976.624336 162 952 154.3888416 952 145 Z" fill="#ffffff" stroke="none"/></g><g transform="translate(-62,-102) scale(1,1)"><path d="M 952 145 C 952 135.6111584 976.624336 128 1007 128 C 1037.375664 128 1062 135.6111584 1062 145 C 1062 154.3888416 1037.375664 162 1007 162 C 976.624336 162 952 154.3888416 952 145 Z" fill="none" stroke="#000000" stroke-miterlimit="10"/></g><g transform="translate(-62,-102) scale(1,1)"><g><path fill="none" stroke="none"/><text fill="#000000" font-family="Arial" font-size="13px" font-style="normal" font-weight="bold" stroke="none" text-decoration="none" x="972.694091796875" y="151">목적지 제거</text></g></g><g transform="translate(-62,-102) scale(1,1)"><path d="M 959 208 C 959 198.6111584 983.624336 191 1014 191 C 1044.375664 191 1069 198.6111584 1069 208 C 1069 217.3888416 1044.375664 225 1014 225 C 983.624336 225 959 217.3888416 959 208 Z" fill="#C0C0C0" opacity="0.2" stroke="none"/></g><g transform="translate(-62,-102) scale(1,1)"><path d="M 952 201 C 952 191.6111584 976.624336 184 1007 184 C 1037.375664 184 1062 191.6111584 1062 201 C 1062 210.3888416 1037.375664 218 1007 218 C 976.624336 218 952 210.3888416 952 201 Z" fill="#ffffff" stroke="none"/></g><g transform="translate(-62,-102) scale(1,1)"><path d="M 952 201 C 952 191.6111584 976.624336 184 1007 184 C 1037.375664 184 1062 191.6111584 1062 201 C 1062 210.3888416 1037.375664 218 1007 218 C 976.624336 218 952 210.3888416 952 201 Z" fill="none" stroke="#000000" stroke-miterlimit="10"/></g><g transform="translate(-62,-102) scale(1,1)"><g><path fill="none" stroke="none"/><text fill="#000000" font-family="Arial" font-size="13px" font-style="normal" font-weight="bold" stroke="none" text-decoration="none" x="972.694091796875" y="207">목적지 수정</text></g></g><g transform="translate(-62,-102) scale(1,1)"><path d="M 951 163 L 887 183" fill="none" stroke="#000000" stroke-miterlimit="10"/></g><g transform="translate(-62,-102) scale(1,1)"><path d="M 903.8889515902018 168.90165562259818 L 887 183 L 908.9113271093271 184.973257283799" fill="#FFFFFF" stroke="none"/></g><g transform="translate(-62,-102) scale(1,1)"><path d="M 903.8889515902018 168.90165562259818 L 887 183 L 908.9113271093271 184.973257283799 L 903.8889515902018 168.90165562259818" fill="none" stroke="#000000" stroke-miterlimit="10"/></g><g transform="translate(-62,-102) scale(1,1)"><path d="M 951 201 L 887 201" fill="none" stroke="#000000" stroke-miterlimit="10"/></g><g transform="translate(-62,-102) scale(1,1)"><path d="M 907.3253497152483 192.58096448796803 L 887 201 L 907.3253497152483 209.41903551203197" fill="#FFFFFF" stroke="none"/></g><g transform="translate(-62,-102) scale(1,1)"><path d="M 907.3253497152483 192.58096448796803 L 887 201 L 907.3253497152483 209.41903551203197 L 907.3253497152483 192.58096448796803" fill="none" stroke="#000000" stroke-miterlimit="10"/></g><g transform="translate(-62,-102) scale(1,1)"><path d="M 951 239 L 887 219" fill="none" stroke="#000000" stroke-miterlimit="10"/></g><g transform="translate(-62,-102) scale(1,1)"><path d="M 908.9113271093271 217.026742716201 L 887 219 L 903.8889515902018 233.09834437740182" fill="#FFFFFF" stroke="none"/></g><g transform="translate(-62,-102) scale(1,1)"><path d="M 908.9113271093271 217.026742716201 L 887 219 L 903.8889515902018 233.09834437740182 L 908.9113271093271 217.026742716201" fill="none" stroke="#000000" stroke-miterlimit="10"/></g><g transform="translate(-62,-102) scale(1,1)"><path d="M 696 403 L 721 463" fill="none" stroke="#000000" stroke-dasharray="3" stroke-miterlimit="10"/></g><g transform="translate(-62,-102) scale(1,1)"><path d="M 713.2055702030528 455.2381146529685 L 721 463 L 720.9769875987747 452.0000240714177" fill="none" stroke="#000000" stroke-miterlimit="10"/></g><g transform="translate(-62,-102) scale(1,1)"><g><path fill="none" stroke="none"/><text fill="#000000" font-family="Arial" font-size="13px" font-style="normal" font-weight="normal" stroke="none" text-decoration="none" x="679.5" y="426">«extend»</text></g></g><g transform="translate(-62,-102) scale(1,1)"><path d="M 823 488 C 823 478.6111584 851.6537728 471 887 471 C 922.3462272 471 951 478.6111584 951 488 C 951 497.3888416 922.3462272 505 887 505 C 851.6537728 505 823 497.3888416 823 488 Z" fill="#C0C0C0" opacity="0.2" stroke="none"/></g><g transform="translate(-62,-102) scale(1,1)"><path d="M 816 481 C 816 471.6111584 844.6537728 464 880 464 C 915.3462272 464 944 471.6111584 944 481 C 944 490.3888416 915.3462272 498 880 498 C 844.6537728 498 816 490.3888416 816 481 Z" fill="#ffffff" stroke="none"/></g><g transform="translate(-62,-102) scale(1,1)"><path d="M 816 481 C 816 471.6111584 844.6537728 464 880 464 C 915.3462272 464 944 471.6111584 944 481 C 944 490.3888416 915.3462272 498 880 498 C 844.6537728 498 816 490.3888416 816 481 Z" fill="none" stroke="#000000" stroke-miterlimit="10"/></g><g transform="translate(-62,-102) scale(1,1)"><g><path fill="none" stroke="none"/><text fill="#000000" font-family="Arial" font-size="13px" font-style="normal" font-weight="bold" stroke="none" text-decoration="none" x="839.194091796875" y="487">자율주행 정지</text></g></g><g transform="translate(-62,-102) scale(1,1)"><path d="M 724 403 L 844 463" fill="none" stroke="#000000" stroke-dasharray="3" stroke-miterlimit="10"/></g><g transform="translate(-62,-102) scale(1,1)"><path d="M 833.0276737030609 462.22022077900255 L 844 463 L 836.7927808450386 454.6900064950472" fill="none" stroke="#000000" stroke-miterlimit="10"/></g><g transform="translate(-62,-102) scale(1,1)"><g><path fill="none" stroke="none"/><text fill="#000000" font-family="Arial" font-size="13px" font-style="normal" font-weight="normal" stroke="none" text-decoration="none" x="751.5" y="434">«extend»</text></g></g><g transform="translate(-62,-102) scale(1,1)"><path d="M 279 664 C 279 654.6111584 301.6096176 647 329.5 647 C 357.3903824 647 380 654.6111584 380 664 C 380 673.3888416 357.3903824 681 329.5 681 C 301.6096176 681 279 673.3888416 279 664 Z" fill="#C0C0C0" opacity="0.2" stroke="none"/></g><g transform="translate(-62,-102) scale(1,1)"><path d="M 272 657 C 272 647.6111584 294.6096176 640 322.5 640 C 350.3903824 640 373 647.6111584 373 657 C 373 666.3888416 350.3903824 674 322.5 674 C 294.6096176 674 272 666.3888416 272 657 Z" fill="#ffffff" stroke="none"/></g><g transform="translate(-62,-102) scale(1,1)"><path d="M 272 657 C 272 647.6111584 294.6096176 640 322.5 640 C 350.3903824 640 373 647.6111584 373 657 C 373 666.3888416 350.3903824 674 322.5 674 C 294.6096176 674 272 666.3888416 272 657 Z" fill="none" stroke="#000000" stroke-miterlimit="10"/></g><g transform="translate(-62,-102) scale(1,1)"><g><path fill="none" stroke="none"/><text fill="#000000" font-family="Arial" font-size="13px" font-style="normal" font-weight="bold" stroke="none" text-decoration="none" x="294.694091796875" y="663">차량 연결</text></g></g><g transform="translate(-62,-102) scale(1,1)"><path d="M 123 429 L 306 639" fill="none" stroke="#000000" stroke-miterlimit="10"/></g><g transform="translate(-62,-102) scale(1,1)"><path d="M 519 664 C 519 654.6111584 552.1309248 647 593 647 C 633.8690752 647 667 654.6111584 667 664 C 667 673.3888416 633.8690752 681 593 681 C 552.1309248 681 519 673.3888416 519 664 Z" fill="#C0C0C0" opacity="0.2" stroke="none"/></g><g transform="translate(-62,-102) scale(1,1)"><path d="M 512 657 C 512 647.6111584 545.1309248 640 586 640 C 626.8690752 640 660 647.6111584 660 657 C 660 666.3888416 626.8690752 674 586 674 C 545.1309248 674 512 666.3888416 512 657 Z" fill="#ffffff" stroke="none"/></g><g transform="translate(-62,-102) scale(1,1)"><path d="M 512 657 C 512 647.6111584 545.1309248 640 586 640 C 626.8690752 640 660 647.6111584 660 657 C 660 666.3888416 626.8690752 674 586 674 C 545.1309248 674 512 666.3888416 512 657 Z" fill="none" stroke="#000000" stroke-miterlimit="10"/></g><g transform="translate(-62,-102) scale(1,1)"><g><path fill="none" stroke="none"/><text fill="#000000" font-family="Arial" font-size="13px" font-style="normal" font-weight="bold" stroke="none" text-decoration="none" x="537.976806640625" y="663">MQTT 서버 연결</text></g></g><g transform="translate(-62,-102) scale(1,1)"><path d="M 511 657 L 374 657" fill="none" stroke="#000000" stroke-miterlimit="10"/></g><g transform="translate(-62,-102) scale(1,1)"><path d="M 394.3253497152483 648.580964487968 L 374 657 L 394.3253497152483 665.419035512032" fill="#FFFFFF" stroke="none"/></g><g transform="translate(-62,-102) scale(1,1)"><path d="M 394.3253497152483 648.580964487968 L 374 657 L 394.3253497152483 665.419035512032 L 394.3253497152483 648.580964487968" fill="none" stroke="#000000" stroke-miterlimit="10"/></g><g transform="translate(-62,-102) scale(1,1)"><path d="M 519 784 C 519 774.6111584 552.1309248 767 593 767 C 633.8690752 767 667 774.6111584 667 784 C 667 793.3888416 633.8690752 801 593 801 C 552.1309248 801 519 793.3888416 519 784 Z" fill="#C0C0C0" opacity="0.2" stroke="none"/></g><g transform="translate(-62,-102) scale(1,1)"><path d="M 512 777 C 512 767.6111584 545.1309248 760 586 760 C 626.8690752 760 660 767.6111584 660 777 C 660 786.3888416 626.8690752 794 586 794 C 545.1309248 794 512 786.3888416 512 777 Z" fill="#ffffff" stroke="none"/></g><g transform="translate(-62,-102) scale(1,1)"><path d="M 512 777 C 512 767.6111584 545.1309248 760 586 760 C 626.8690752 760 660 767.6111584 660 777 C 660 786.3888416 626.8690752 794 586 794 C 545.1309248 794 512 786.3888416 512 777 Z" fill="none" stroke="#000000" stroke-miterlimit="10"/></g><g transform="translate(-62,-102) scale(1,1)"><g><path fill="none" stroke="none"/><text fill="#000000" font-family="Arial" font-size="13px" font-style="normal" font-weight="bold" stroke="none" text-decoration="none" x="537.976806640625" y="783">MQTT 서버 주소</text></g></g><g transform="translate(-62,-102) scale(1,1)"><path d="M 586 675 L 586 759" fill="none" stroke="#000000" stroke-dasharray="3" stroke-miterlimit="10"/></g><g transform="translate(-62,-102) scale(1,1)"><path d="M 581.790482243984 748.8373251423759 L 586 759 L 590.209517756016 748.8373251423759" fill="none" stroke="#000000" stroke-miterlimit="10"/></g><g transform="translate(-62,-102) scale(1,1)"><g><path fill="none" stroke="none"/><text fill="#000000" font-family="Arial" font-size="13px" font-style="normal" font-weight="normal" stroke="none" text-decoration="none" x="559.5" y="721">«include»</text></g></g><g transform="translate(-62,-102) scale(1,1)"><path d="M 887 664 C 887 654.6111584 914.0867696 647 947.5 647 C 980.9132304 647 1008 654.6111584 1008 664 C 1008 673.3888416 980.9132304 681 947.5 681 C 914.0867696 681 887 673.3888416 887 664 Z" fill="#C0C0C0" opacity="0.2" stroke="none"/></g><g transform="translate(-62,-102) scale(1,1)"><path d="M 880 657 C 880 647.6111584 907.0867696 640 940.5 640 C 973.9132304 640 1001 647.6111584 1001 657 C 1001 666.3888416 973.9132304 674 940.5 674 C 907.0867696 674 880 666.3888416 880 657 Z" fill="#ffffff" stroke="none"/></g><g transform="translate(-62,-102) scale(1,1)"><path d="M 880 657 C 880 647.6111584 907.0867696 640 940.5 640 C 973.9132304 640 1001 647.6111584 1001 657 C 1001 666.3888416 973.9132304 674 940.5 674 C 907.0867696 674 880 666.3888416 880 657 Z" fill="none" stroke="#000000" stroke-miterlimit="10"/></g><g transform="translate(-62,-102) scale(1,1)"><g><path fill="none" stroke="none"/><text fill="#000000" font-family="Arial" font-size="13px" font-style="normal" font-weight="bold" stroke="none" text-decoration="none" x="902.226806640625" y="662.5">MQTT Client</text></g></g><g transform="translate(-62,-102) scale(1,1)"><path d="M 661 657 L 879 657" fill="none" stroke="#000000" stroke-dasharray="3" stroke-miterlimit="10"/></g><g transform="translate(-62,-102) scale(1,1)"><path d="M 868.8373251423759 661.209517756016 L 879 657 L 868.8373251423758 652.790482243984" fill="none" stroke="#000000" stroke-miterlimit="10"/></g><g transform="translate(-62,-102) scale(1,1)"><g><path fill="none" stroke="none"/><text fill="#000000" font-family="Arial" font-size="13px" font-style="normal" font-weight="normal" stroke="none" text-decoration="none" x="743.5" y="651">«extend»</text></g></g><g transform="translate(-62,-102) scale(1,1)"><path d="M 1312.4093503196023 385.68 C 1312.4093503196023 380.886167936 1316.2951926445478 377 1321.088623046875 377 C 1325.8820534492022 377 1329.7678957741477 380.886167936 1329.7678957741477 385.68 C 1329.7678957741477 390.473832064 1325.8820534492022 394.36 1321.088623046875 394.36 C 1316.2951926445478 394.36 1312.4093503196023 390.473832064 1312.4093503196023 385.68 Z" fill="#ffffff" stroke="none"/></g><g transform="translate(-62,-102) scale(1,1)"><path d="M 1312.4093503196023 385.68 C 1312.4093503196023 380.886167936 1316.2951926445478 377 1321.088623046875 377 C 1325.8820534492022 377 1329.7678957741477 380.886167936 1329.7678957741477 385.68 C 1329.7678957741477 390.473832064 1325.8820534492022 394.36 1321.088623046875 394.36 C 1316.2951926445478 394.36 1312.4093503196023 390.473832064 1312.4093503196023 385.68 Z" fill="none" stroke="#000000" stroke-miterlimit="10"/></g><g transform="translate(-62,-102) scale(1,1)"><path d="M 1321.088623046875 394.36 L 1321.088623046875 411.64" fill="none" stroke="#000000" stroke-miterlimit="10"/></g><g transform="translate(-62,-102) scale(1,1)"><path d="M 1311.8988048650567 400.84 L 1330.2784412286933 400.84" fill="none" stroke="#000000" stroke-miterlimit="10"/></g><g transform="translate(-62,-102) scale(1,1)"><path d="M 1321.088623046875 411.64 L 1308.3249866832386 429" fill="none" stroke="#000000" stroke-miterlimit="10"/></g><g transform="translate(-62,-102) scale(1,1)"><path d="M 1321.088623046875 411.64 L 1333.8522594105114 429" fill="none" stroke="#000000" stroke-miterlimit="10"/></g><g transform="translate(-62,-102) scale(1,1)"><g><path fill="none" stroke="none"/><text fill="#000000" font-family="Arial" font-size="13px" font-style="normal" font-weight="bold" stroke="none" text-decoration="none" x="1307.003173828125" y="448">UGV</text></g></g><g transform="translate(-62,-102) scale(1,1)"><path d="M 753 385 Q 1088 384 950 639" fill="none" stroke="#000000" stroke-dasharray="3" stroke-miterlimit="10"/></g><g transform="translate(-62,-102) scale(1,1)"><path d="M 951.1347681364091 628.0586883201057 L 950 639 L 958.5390779282582 632.0657265604004" fill="none" stroke="#000000" stroke-miterlimit="10"/></g><g transform="translate(-62,-102) scale(1,1)"><g><path fill="none" stroke="none"/><text fill="#000000" font-family="Arial" font-size="13px" font-style="normal" font-weight="normal" stroke="none" text-decoration="none" x="959.5" y="507">«include»</text></g></g><g transform="translate(-62,-102) scale(1,1)"><path d="M 1111 424 C 1111 414.6111584 1139.8776304 407 1175.5 407 C 1211.1223696 407 1240 414.6111584 1240 424 C 1240 433.3888416 1211.1223696 441 1175.5 441 C 1139.8776304 441 1111 433.3888416 1111 424 Z" fill="#C0C0C0" opacity="0.2" stroke="none"/></g><g transform="translate(-62,-102) scale(1,1)"><path d="M 1104 417 C 1104 407.6111584 1132.8776304 400 1168.5 400 C 1204.1223696 400 1233 407.6111584 1233 417 C 1233 426.3888416 1204.1223696 434 1168.5 434 C 1132.8776304 434 1104 426.3888416 1104 417 Z" fill="#ffffff" stroke="none"/></g><g transform="translate(-62,-102) scale(1,1)"><path d="M 1104 417 C 1104 407.6111584 1132.8776304 400 1168.5 400 C 1204.1223696 400 1233 407.6111584 1233 417 C 1233 426.3888416 1204.1223696 434 1168.5 434 C 1132.8776304 434 1104 426.3888416 1104 417 Z" fill="none" stroke="#000000" stroke-miterlimit="10"/></g><g transform="translate(-62,-102) scale(1,1)"><g><path fill="none" stroke="none"/><text fill="#000000" font-family="Arial" font-size="13px" font-style="normal" font-weight="bold" stroke="none" text-decoration="none" x="1127.3291015625" y="422.5">MQTT Broker</text></g></g><g transform="translate(-62,-102) scale(1,1)"><path d="M 957 639 L 1151 435" fill="none" stroke="#000000" stroke-miterlimit="10"/></g><g transform="translate(-62,-102) scale(1,1)"><path d="M 1234 416 L 1295 415" fill="none" stroke="#000000" stroke-miterlimit="10"/></g></g></svg>