<?xml version="1.0" encoding="UTF-8" standalone="no"?><svg xmlns="http://www.w3.org/2000/svg" xmlns:xlink="http://www.w3.org/1999/xlink" height="630" version="1.1" width="1125"><defs/><g><g transform="translate(-86,-246) scale(1,1)"><path d="M 112.40935031960228 513.6800000000001 C 112.40935031960228 508.88616793600005 116.29519264454774 505 121.088623046875 505 C 125.88205344920226 505 129.76789577414772 508.88616793600005 129.76789577414772 513.6800000000001 C 129.76789577414772 518.473832064 125.88205344920226 522.36 121.088623046875 522.36 C 116.29519264454774 522.36 112.40935031960228 518.473832064 112.40935031960228 513.6800000000001 Z" fill="#ffffff" stroke="none"/></g><g transform="translate(-86,-246) scale(1,1)"><path d="M 112.40935031960228 513.6800000000001 C 112.40935031960228 508.88616793600005 116.29519264454774 505 121.088623046875 505 C 125.88205344920226 505 129.76789577414772 508.88616793600005 129.76789577414772 513.6800000000001 C 129.76789577414772 518.473832064 125.88205344920226 522.36 121.088623046875 522.36 C 116.29519264454774 522.36 112.40935031960228 518.473832064 112.40935031960228 513.6800000000001 Z" fill="none" stroke="#000000" stroke-miterlimit="10"/></g><g transform="translate(-86,-246) scale(1,1)"><path d="M 121.088623046875 522.36 L 121.088623046875 539.64" fill="none" stroke="#000000" stroke-miterlimit="10"/></g><g transform="translate(-86,-246) scale(1,1)"><path d="M 111.89880486505683 528.84 L 130.27844122869317 528.84" fill="none" stroke="#000000" stroke-miterlimit="10"/></g><g transform="translate(-86,-246) scale(1,1)"><path d="M 121.088623046875 539.64 L 108.32498668323865 557" fill="none" stroke="#000000" stroke-miterlimit="10"/></g><g transform="translate(-86,-246) scale(1,1)"><path d="M 121.088623046875 539.64 L 133.85225941051135 557" fill="none" stroke="#000000" stroke-miterlimit="10"/></g><g transform="translate(-86,-246) scale(1,1)"><g><path fill="none" stroke="none"/><text fill="#000000" font-family="Arial" font-size="13px" font-style="normal" font-weight="bold" stroke="none" text-decoration="none" x="101.588623046875" y="576.5">사용자</text></g></g><g transform="translate(-86,-246) scale(1,1)"><path d="M 1128.4093503196023 649.6800000000001 C 1128.4093503196023 644.8861679360001 1132.2951926445478 641 1137.088623046875 641 C 1141.8820534492022 641 1145.7678957741477 644.8861679360001 1145.7678957741477 649.6800000000001 C 1145.7678957741477 654.473832064 1141.8820534492022 658.36 1137.088623046875 658.36 C 1132.2951926445478 658.36 1128.4093503196023 654.473832064 1128.4093503196023 649.6800000000001 Z" fill="#ffffff" stroke="none"/></g><g transform="translate(-86,-246) scale(1,1)"><path d="M 1128.4093503196023 649.6800000000001 C 1128.4093503196023 644.8861679360001 1132.2951926445478 641 1137.088623046875 641 C 1141.8820534492022 641 1145.7678957741477 644.8861679360001 1145.7678957741477 649.6800000000001 C 1145.7678957741477 654.473832064 1141.8820534492022 658.36 1137.088623046875 658.36 C 1132.2951926445478 658.36 1128.4093503196023 654.473832064 1128.4093503196023 649.6800000000001 Z" fill="none" stroke="#000000" stroke-miterlimit="10"/></g><g transform="translate(-86,-246) scale(1,1)"><path d="M 1137.088623046875 658.36 L 1137.088623046875 675.64" fill="none" stroke="#000000" stroke-miterlimit="10"/></g><g transform="translate(-86,-246) scale(1,1)"><path d="M 1127.8988048650567 664.84 L 1146.2784412286933 664.84" fill="none" stroke="#000000" stroke-miterlimit="10"/></g><g transform="translate(-86,-246) scale(1,1)"><path d="M 1137.088623046875 675.64 L 1124.3249866832386 693" fill="none" stroke="#000000" stroke-miterlimit="10"/></g><g transform="translate(-86,-246) scale(1,1)"><path d="M 1137.088623046875 675.64 L 1149.8522594105114 693" fill="none" stroke="#000000" stroke-miterlimit="10"/></g><g transform="translate(-86,-246) scale(1,1)"><g><path fill="none" stroke="none"/><text fill="#000000" font-family="Arial" font-size="13px" font-style="normal" font-weight="bold" stroke="none" text-decoration="none" x="1123.003173828125" y="712">UGV</text></g></g><g transform="translate(-86,-246) scale(1,1)"><path d="M 311 552 C 311 542.6111584 333.6096176 535 361.5 535 C 389.3903824 535 412 542.6111584 412 552 C 412 561.3888416 389.3903824 569 361.5 569 C 333.6096176 569 311 561.3888416 311 552 Z" fill="#C0C0C0" opacity="0.2" stroke="none"/></g><g transform="translate(-86,-246) scale(1,1)"><path d="M 304 545 C 304 535.6111584 326.6096176 528 354.5 528 C 382.3903824 528 405 535.6111584 405 545 C 405 554.3888416 382.3903824 562 354.5 562 C 326.6096176 562 304 554.3888416 304 545 Z" fill="#ffffff" stroke="none"/></g><g transform="translate(-86,-246) scale(1,1)"><path d="M 304 545 C 304 535.6111584 326.6096176 528 354.5 528 C 382.3903824 528 405 535.6111584 405 545 C 405 554.3888416 382.3903824 562 354.5 562 C 326.6096176 562 304 554.3888416 304 545 Z" fill="none" stroke="#000000" stroke-miterlimit="10"/></g><g transform="translate(-86,-246) scale(1,1)"><g><path fill="none" stroke="none"/><text fill="#000000" font-family="Arial" font-size="13px" font-style="normal" font-weight="bold" stroke="none" text-decoration="none" x="328.5" y="551">수동제어</text></g></g><g transform="translate(-86,-246) scale(1,1)"><path d="M 147 543 L 303 545" fill="none" stroke="#000000" stroke-miterlimit="10"/></g><g transform="translate(-86,-246) scale(1,1)"><path d="M 495 608 C 495 598.6111584 517.6096176 591 545.5 591 C 573.3903824 591 596 598.6111584 596 608 C 596 617.3888416 573.3903824 625 545.5 625 C 517.6096176 625 495 617.3888416 495 608 Z" fill="#C0C0C0" opacity="0.2" stroke="none"/></g><g transform="translate(-86,-246) scale(1,1)"><path d="M 488 601 C 488 591.6111584 510.6096176 584 538.5 584 C 566.3903824 584 589 591.6111584 589 601 C 589 610.3888416 566.3903824 618 538.5 618 C 510.6096176 618 488 610.3888416 488 601 Z" fill="#ffffff" stroke="none"/></g><g transform="translate(-86,-246) scale(1,1)"><path d="M 488 601 C 488 591.6111584 510.6096176 584 538.5 584 C 566.3903824 584 589 591.6111584 589 601 C 589 610.3888416 566.3903824 618 538.5 618 C 510.6096176 618 488 610.3888416 488 601 Z" fill="none" stroke="#000000" stroke-miterlimit="10"/></g><g transform="translate(-86,-246) scale(1,1)"><g><path fill="none" stroke="none"/><text fill="#000000" font-family="Arial" font-size="13px" font-style="normal" font-weight="bold" stroke="none" text-decoration="none" x="510.694091796875" y="607">차량 정보</text></g></g><g transform="translate(-86,-246) scale(1,1)"><path d="M 727 648 C 727 638.6111584 749.6096176 631 777.5 631 C 805.3903824 631 828 638.6111584 828 648 C 828 657.3888416 805.3903824 665 777.5 665 C 749.6096176 665 727 657.3888416 727 648 Z" fill="#C0C0C0" opacity="0.2" stroke="none"/></g><g transform="translate(-86,-246) scale(1,1)"><path d="M 720 641 C 720 631.6111584 742.6096176 624 770.5 624 C 798.3903824 624 821 631.6111584 821 641 C 821 650.3888416 798.3903824 658 770.5 658 C 742.6096176 658 720 650.3888416 720 641 Z" fill="#ffffff" stroke="none"/></g><g transform="translate(-86,-246) scale(1,1)"><path d="M 720 641 C 720 631.6111584 742.6096176 624 770.5 624 C 798.3903824 624 821 631.6111584 821 641 C 821 650.3888416 798.3903824 658 770.5 658 C 742.6096176 658 720 650.3888416 720 641 Z" fill="none" stroke="#000000" stroke-miterlimit="10"/></g><g transform="translate(-86,-246) scale(1,1)"><g><path fill="none" stroke="none"/><text fill="#000000" font-family="Arial" font-size="13px" font-style="normal" font-weight="bold" stroke="none" text-decoration="none" x="742.694091796875" y="647">주행 속도</text></g></g><g transform="translate(-86,-246) scale(1,1)"><path d="M 406 561 L 487 585" fill="none" stroke="#000000" stroke-dasharray="3" stroke-miterlimit="10"/></g><g transform="translate(-86,-246) scale(1,1)"><path d="M 476.0601716583282 586.1489803543816 L 487 585 L 478.4519213945537 578.0768249946204" fill="none" stroke="#000000" stroke-miterlimit="10"/></g><g transform="translate(-86,-246) scale(1,1)"><g><path fill="none" stroke="none"/><text fill="#000000" font-family="Arial" font-size="13px" font-style="normal" font-weight="normal" stroke="none" text-decoration="none" x="420.5" y="570">«extend»</text></g></g><g transform="translate(-86,-246) scale(1,1)"><path d="M 590 610 L 719 632" fill="none" stroke="#000000" stroke-dasharray="3" stroke-miterlimit="10"/></g><g transform="translate(-86,-246) scale(1,1)"><path d="M 708.2742825672846 634.4411033475752 L 719 632 L 709.6896517395885 626.1418932008837" fill="none" stroke="#000000" stroke-miterlimit="10"/></g><g transform="translate(-86,-246) scale(1,1)"><g><path fill="none" stroke="none"/><text fill="#000000" font-family="Arial" font-size="13px" font-style="normal" font-weight="normal" stroke="none" text-decoration="none" x="632.5" y="596">«extend»</text></g></g><g transform="translate(-86,-246) scale(1,1)"><path d="M 503 448 C 503 438.6111584 525.6096176 431 553.5 431 C 581.3903824 431 604 438.6111584 604 448 C 604 457.3888416 581.3903824 465 553.5 465 C 525.6096176 465 503 457.3888416 503 448 Z" fill="#C0C0C0" opacity="0.2" stroke="none"/></g><g transform="translate(-86,-246) scale(1,1)"><path d="M 496 441 C 496 431.6111584 518.6096176 424 546.5 424 C 574.3903824 424 597 431.6111584 597 441 C 597 450.3888416 574.3903824 458 546.5 458 C 518.6096176 458 496 450.3888416 496 441 Z" fill="#ffffff" stroke="none"/></g><g transform="translate(-86,-246) scale(1,1)"><path d="M 496 441 C 496 431.6111584 518.6096176 424 546.5 424 C 574.3903824 424 597 431.6111584 597 441 C 597 450.3888416 574.3903824 458 546.5 458 C 518.6096176 458 496 450.3888416 496 441 Z" fill="none" stroke="#000000" stroke-miterlimit="10"/></g><g transform="translate(-86,-246) scale(1,1)"><g><path fill="none" stroke="none"/><text fill="#000000" font-family="Arial" font-size="13px" font-style="normal" font-weight="bold" stroke="none" text-decoration="none" x="518.694091796875" y="447">차량 제어</text></g></g><g transform="translate(-86,-246) scale(1,1)"><path d="M 439 376 C 439 366.6111584 464.743624 359 496.5 359 C 528.256376 359 554 366.6111584 554 376 C 554 385.3888416 528.256376 393 496.5 393 C 464.743624 393 439 385.3888416 439 376 Z" fill="#C0C0C0" opacity="0.2" stroke="none"/></g><g transform="translate(-86,-246) scale(1,1)"><path d="M 432 369 C 432 359.6111584 457.743624 352 489.5 352 C 521.256376 352 547 359.6111584 547 369 C 547 378.3888416 521.256376 386 489.5 386 C 457.743624 386 432 378.3888416 432 369 Z" fill="#ffffff" stroke="none"/></g><g transform="translate(-86,-246) scale(1,1)"><path d="M 432 369 C 432 359.6111584 457.743624 352 489.5 352 C 521.256376 352 547 359.6111584 547 369 C 547 378.3888416 521.256376 386 489.5 386 C 457.743624 386 432 378.3888416 432 369 Z" fill="none" stroke="#000000" stroke-miterlimit="10"/></g><g transform="translate(-86,-246) scale(1,1)"><g><path fill="none" stroke="none"/><text fill="#000000" font-family="Arial" font-size="13px" font-style="normal" font-weight="bold" stroke="none" text-decoration="none" x="453.38818359375" y="375">전/후진 제어</text></g></g><g transform="translate(-86,-246) scale(1,1)"><path d="M 367 280 C 367 270.6111584 411.5476624 263 466.5 263 C 521.4523376 263 566 270.6111584 566 280 C 566 289.3888416 521.4523376 297 466.5 297 C 411.5476624 297 367 289.3888416 367 280 Z" fill="#C0C0C0" opacity="0.2" stroke="none"/></g><g transform="translate(-86,-246) scale(1,1)"><path d="M 360 273 C 360 263.6111584 404.5476624 256 459.5 256 C 514.4523376 256 559 263.6111584 559 273 C 559 282.3888416 514.4523376 290 459.5 290 C 404.5476624 290 360 282.3888416 360 273 Z" fill="#ffffff" stroke="none"/></g><g transform="translate(-86,-246) scale(1,1)"><path d="M 360 273 C 360 263.6111584 404.5476624 256 459.5 256 C 514.4523376 256 559 263.6111584 559 273 C 559 282.3888416 514.4523376 290 459.5 290 C 404.5476624 290 360 282.3888416 360 273 Z" fill="none" stroke="#000000" stroke-miterlimit="10"/></g><g transform="translate(-86,-246) scale(1,1)"><g><path fill="none" stroke="none"/><text fill="#000000" font-family="Arial" font-size="13px" font-style="normal" font-weight="bold" stroke="none" text-decoration="none" x="393.7763671875" y="279">전/후진 최대 속도 설정</text></g></g><g transform="translate(-86,-246) scale(1,1)"><path d="M 583 376 C 583 366.6111584 605.6096176 359 633.5 359 C 661.3903824 359 684 366.6111584 684 376 C 684 385.3888416 661.3903824 393 633.5 393 C 605.6096176 393 583 385.3888416 583 376 Z" fill="#C0C0C0" opacity="0.2" stroke="none"/></g><g transform="translate(-86,-246) scale(1,1)"><path d="M 576 369 C 576 359.6111584 598.6096176 352 626.5 352 C 654.3903824 352 677 359.6111584 677 369 C 677 378.3888416 654.3903824 386 626.5 386 C 598.6096176 386 576 378.3888416 576 369 Z" fill="#ffffff" stroke="none"/></g><g transform="translate(-86,-246) scale(1,1)"><path d="M 576 369 C 576 359.6111584 598.6096176 352 626.5 352 C 654.3903824 352 677 359.6111584 677 369 C 677 378.3888416 654.3903824 386 626.5 386 C 598.6096176 386 576 378.3888416 576 369 Z" fill="none" stroke="#000000" stroke-miterlimit="10"/></g><g transform="translate(-86,-246) scale(1,1)"><g><path fill="none" stroke="none"/><text fill="#000000" font-family="Arial" font-size="13px" font-style="normal" font-weight="bold" stroke="none" text-decoration="none" x="598.694091796875" y="375">회전 제어</text></g></g><g transform="translate(-86,-246) scale(1,1)"><path d="M 591 280 C 591 270.6111584 630.17508 263 678.5 263 C 726.82492 263 766 270.6111584 766 280 C 766 289.3888416 726.82492 297 678.5 297 C 630.17508 297 591 289.3888416 591 280 Z" fill="#C0C0C0" opacity="0.2" stroke="none"/></g><g transform="translate(-86,-246) scale(1,1)"><path d="M 584 273 C 584 263.6111584 623.17508 256 671.5 256 C 719.82492 256 759 263.6111584 759 273 C 759 282.3888416 719.82492 290 671.5 290 C 623.17508 290 584 282.3888416 584 273 Z" fill="#ffffff" stroke="none"/></g><g transform="translate(-86,-246) scale(1,1)"><path d="M 584 273 C 584 263.6111584 623.17508 256 671.5 256 C 719.82492 256 759 263.6111584 759 273 C 759 282.3888416 719.82492 290 671.5 290 C 623.17508 290 584 282.3888416 584 273 Z" fill="none" stroke="#000000" stroke-miterlimit="10"/></g><g transform="translate(-86,-246) scale(1,1)"><g><path fill="none" stroke="none"/><text fill="#000000" font-family="Arial" font-size="13px" font-style="normal" font-weight="bold" stroke="none" text-decoration="none" x="614.082275390625" y="279">회전 최대 속도 설정</text></g></g><g transform="translate(-86,-246) scale(1,1)"><path d="M 387 527 L 513 459" fill="none" stroke="#000000" stroke-dasharray="3" stroke-miterlimit="10"/></g><g transform="translate(-86,-246) scale(1,1)"><path d="M 506.05585800899763 467.53105456604266 L 513 459 L 502.05738357431875 460.1221166429612" fill="none" stroke="#000000" stroke-miterlimit="10"/></g><g transform="translate(-86,-246) scale(1,1)"><g><path fill="none" stroke="none"/><text fill="#000000" font-family="Arial" font-size="13px" font-style="normal" font-weight="normal" stroke="none" text-decoration="none" x="423.5" y="491">«extend»</text></g></g><g transform="translate(-86,-246) scale(1,1)"><path d="M 532 423 L 503 387" fill="none" stroke="#000000" stroke-dasharray="3" stroke-miterlimit="10"/></g><g transform="translate(-86,-246) scale(1,1)"><path d="M 512.6535245298362 392.273467943569 L 503 387 L 506.09716771413036 397.5549776006654" fill="none" stroke="#000000" stroke-miterlimit="10"/></g><g transform="translate(-86,-246) scale(1,1)"><g><path fill="none" stroke="none"/><text fill="#000000" font-family="Arial" font-size="13px" font-style="normal" font-weight="normal" stroke="none" text-decoration="none" x="471.5" y="411">«extend»</text></g></g><g transform="translate(-86,-246) scale(1,1)"><path d="M 566 423 L 606 387" fill="none" stroke="#000000" stroke-dasharray="3" stroke-miterlimit="10"/></g><g transform="translate(-86,-246) scale(1,1)"><path d="M 601.2621621840278 396.92738096526693 L 606 387 L 595.6301243522015 390.66956115212656" fill="none" stroke="#000000" stroke-miterlimit="10"/></g><g transform="translate(-86,-246) scale(1,1)"><g><path fill="none" stroke="none"/><text fill="#000000" font-family="Arial" font-size="13px" font-style="normal" font-weight="normal" stroke="none" text-decoration="none" x="551.5" y="411">«extend»</text></g></g><g transform="translate(-86,-246) scale(1,1)"><path d="M 483 351 L 465 291" fill="none" stroke="#000000" stroke-dasharray="3" stroke-miterlimit="10"/></g><g transform="translate(-86,-246) scale(1,1)"><path d="M 471.95220988685384 299.5244810803434 L 465 291 L 463.8882363772193 301.94367313323374" fill="none" stroke="#000000" stroke-miterlimit="10"/></g><g transform="translate(-86,-246) scale(1,1)"><g><path fill="none" stroke="none"/><text fill="#000000" font-family="Arial" font-size="13px" font-style="normal" font-weight="normal" stroke="none" text-decoration="none" x="439.5" y="331">«include»</text></g></g><g transform="translate(-86,-246) scale(1,1)"><path d="M 634 351 L 663 291" fill="none" stroke="#000000" stroke-dasharray="3" stroke-miterlimit="10"/></g><g transform="translate(-86,-246) scale(1,1)"><path d="M 662.3675572983 301.981803869541 L 663 291 L 654.7874874911029 298.3181034627291" fill="none" stroke="#000000" stroke-miterlimit="10"/></g><g transform="translate(-86,-246) scale(1,1)"><g><path fill="none" stroke="none"/><text fill="#000000" font-family="Arial" font-size="13px" font-style="normal" font-weight="normal" stroke="none" text-decoration="none" x="615.5" y="331">«include»</text></g></g><g transform="translate(-86,-246) scale(1,1)"><path d="M 703 416 C 703 406.6111584 732.7730607999999 399 769.5 399 C 806.2269392000001 399 836 406.6111584 836 416 C 836 425.3888416 806.2269392000001 433 769.5 433 C 732.7730607999999 433 703 425.3888416 703 416 Z" fill="#C0C0C0" opacity="0.2" stroke="none"/></g><g transform="translate(-86,-246) scale(1,1)"><path d="M 696 409 C 696 399.6111584 725.7730607999999 392 762.5 392 C 799.2269392000001 392 829 399.6111584 829 409 C 829 418.3888416 799.2269392000001 426 762.5 426 C 725.7730607999999 426 696 418.3888416 696 409 Z" fill="#ffffff" stroke="none"/></g><g transform="translate(-86,-246) scale(1,1)"><path d="M 696 409 C 696 399.6111584 725.7730607999999 392 762.5 392 C 799.2269392000001 392 829 399.6111584 829 409 C 829 418.3888416 799.2269392000001 426 762.5 426 C 725.7730607999999 426 696 418.3888416 696 409 Z" fill="none" stroke="#000000" stroke-miterlimit="10"/></g><g transform="translate(-86,-246) scale(1,1)"><g><path fill="none" stroke="none"/><text fill="#000000" font-family="Arial" font-size="13px" font-style="normal" font-weight="bold" stroke="none" text-decoration="none" x="719.88818359375" y="415">기타 장비 제어</text></g></g><g transform="translate(-86,-246) scale(1,1)"><path d="M 598 433 L 695 419" fill="none" stroke="#000000" stroke-dasharray="3" stroke-miterlimit="10"/></g><g transform="translate(-86,-246) scale(1,1)"><path d="M 685.5428779261384 424.61808170820615 L 695 419 L 684.3402211779309 416.2853885241962" fill="none" stroke="#000000" stroke-miterlimit="10"/></g><g transform="translate(-86,-246) scale(1,1)"><g><path fill="none" stroke="none"/><text fill="#000000" font-family="Arial" font-size="13px" font-style="normal" font-weight="normal" stroke="none" text-decoration="none" x="615.5" y="426">«extend»</text></g></g><g transform="translate(-86,-246) scale(1,1)"><path d="M 775 336 C 775 326.6111584 804.7730607999999 319 841.5 319 C 878.2269392000001 319 908 326.6111584 908 336 C 908 345.3888416 878.2269392000001 353 841.5 353 C 804.7730607999999 353 775 345.3888416 775 336 Z" fill="#C0C0C0" opacity="0.2" stroke="none"/></g><g transform="translate(-86,-246) scale(1,1)"><path d="M 768 329 C 768 319.6111584 797.7730607999999 312 834.5 312 C 871.2269392000001 312 901 319.6111584 901 329 C 901 338.3888416 871.2269392000001 346 834.5 346 C 797.7730607999999 346 768 338.3888416 768 329 Z" fill="#ffffff" stroke="none"/></g><g transform="translate(-86,-246) scale(1,1)"><path d="M 768 329 C 768 319.6111584 797.7730607999999 312 834.5 312 C 871.2269392000001 312 901 319.6111584 901 329 C 901 338.3888416 871.2269392000001 346 834.5 346 C 797.7730607999999 346 768 338.3888416 768 329 Z" fill="none" stroke="#000000" stroke-miterlimit="10"/></g><g transform="translate(-86,-246) scale(1,1)"><g><path fill="none" stroke="none"/><text fill="#000000" font-family="Arial" font-size="13px" font-style="normal" font-weight="bold" stroke="none" text-decoration="none" x="791.88818359375" y="335">경적 사용 설정</text></g></g><g transform="translate(-86,-246) scale(1,1)"><path d="M 879 376 C 879 366.6111584 913.0263552 359 955 359 C 996.9736448 359 1031 366.6111584 1031 376 C 1031 385.3888416 996.9736448 393 955 393 C 913.0263552 393 879 385.3888416 879 376 Z" fill="#C0C0C0" opacity="0.2" stroke="none"/></g><g transform="translate(-86,-246) scale(1,1)"><path d="M 872 369 C 872 359.6111584 906.0263552 352 948 352 C 989.9736448 352 1024 359.6111584 1024 369 C 1024 378.3888416 989.9736448 386 948 386 C 906.0263552 386 872 378.3888416 872 369 Z" fill="#ffffff" stroke="none"/></g><g transform="translate(-86,-246) scale(1,1)"><path d="M 872 369 C 872 359.6111584 906.0263552 352 948 352 C 989.9736448 352 1024 359.6111584 1024 369 C 1024 378.3888416 989.9736448 386 948 386 C 906.0263552 386 872 378.3888416 872 369 Z" fill="none" stroke="#000000" stroke-miterlimit="10"/></g><g transform="translate(-86,-246) scale(1,1)"><g><path fill="none" stroke="none"/><text fill="#000000" font-family="Arial" font-size="13px" font-style="normal" font-weight="bold" stroke="none" text-decoration="none" x="898.88818359375" y="375">전조등 사용 설정</text></g></g><g transform="translate(-86,-246) scale(1,1)"><path d="M 871 440 C 871 430.6111584 909.055792 423 956 423 C 1002.944208 423 1041 430.6111584 1041 440 C 1041 449.3888416 1002.944208 457 956 457 C 909.055792 457 871 449.3888416 871 440 Z" fill="#C0C0C0" opacity="0.2" stroke="none"/></g><g transform="translate(-86,-246) scale(1,1)"><path d="M 864 433 C 864 423.6111584 902.055792 416 949 416 C 995.944208 416 1034 423.6111584 1034 433 C 1034 442.3888416 995.944208 450 949 450 C 902.055792 450 864 442.3888416 864 433 Z" fill="#ffffff" stroke="none"/></g><g transform="translate(-86,-246) scale(1,1)"><path d="M 864 433 C 864 423.6111584 902.055792 416 949 416 C 995.944208 416 1034 423.6111584 1034 433 C 1034 442.3888416 995.944208 450 949 450 C 902.055792 450 864 442.3888416 864 433 Z" fill="none" stroke="#000000" stroke-miterlimit="10"/></g><g transform="translate(-86,-246) scale(1,1)"><g><path fill="none" stroke="none"/><text fill="#000000" font-family="Arial" font-size="13px" font-style="normal" font-weight="bold" stroke="none" text-decoration="none" x="893.38818359375" y="439">좌회전등 사용 설정</text></g></g><g transform="translate(-86,-246) scale(1,1)"><path d="M 783 496 C 783 486.6111584 821.055792 479 868 479 C 914.944208 479 953 486.6111584 953 496 C 953 505.3888416 914.944208 513 868 513 C 821.055792 513 783 505.3888416 783 496 Z" fill="#C0C0C0" opacity="0.2" stroke="none"/></g><g transform="translate(-86,-246) scale(1,1)"><path d="M 776 489 C 776 479.6111584 814.055792 472 861 472 C 907.944208 472 946 479.6111584 946 489 C 946 498.3888416 907.944208 506 861 506 C 814.055792 506 776 498.3888416 776 489 Z" fill="#ffffff" stroke="none"/></g><g transform="translate(-86,-246) scale(1,1)"><path d="M 776 489 C 776 479.6111584 814.055792 472 861 472 C 907.944208 472 946 479.6111584 946 489 C 946 498.3888416 907.944208 506 861 506 C 814.055792 506 776 498.3888416 776 489 Z" fill="none" stroke="#000000" stroke-miterlimit="10"/></g><g transform="translate(-86,-246) scale(1,1)"><g><path fill="none" stroke="none"/><text fill="#000000" font-family="Arial" font-size="13px" font-style="normal" font-weight="bold" stroke="none" text-decoration="none" x="805.38818359375" y="495">우회전등 사용 설정</text></g></g><g transform="translate(-86,-246) scale(1,1)"><path d="M 778 391 L 818 347" fill="none" stroke="#000000" stroke-dasharray="3" stroke-miterlimit="10"/></g><g transform="translate(-86,-246) scale(1,1)"><path d="M 814.2786359863939 357.3513984503659 L 818 347 L 808.0490542316979 351.68814230973317" fill="none" stroke="#000000" stroke-miterlimit="10"/></g><g transform="translate(-86,-246) scale(1,1)"><g><path fill="none" stroke="none"/><text fill="#000000" font-family="Arial" font-size="13px" font-style="normal" font-weight="normal" stroke="none" text-decoration="none" x="750.5" y="371">«include»</text></g></g><g transform="translate(-86,-246) scale(1,1)"><path d="M 830 394 L 871 386" fill="none" stroke="#000000" stroke-dasharray="3" stroke-miterlimit="10"/></g><g transform="translate(-86,-246) scale(1,1)"><path d="M 861.8315964958638 392.07785958914343 L 871 386 L 860.2192639789878 383.8146554401538" fill="none" stroke="#000000" stroke-miterlimit="10"/></g><g transform="translate(-86,-246) scale(1,1)"><g><path fill="none" stroke="none"/><text fill="#000000" font-family="Arial" font-size="13px" font-style="normal" font-weight="normal" stroke="none" text-decoration="none" x="816.5" y="386">«include»</text></g></g><g transform="translate(-86,-246) scale(1,1)"><path d="M 830 418 L 863 422" fill="none" stroke="#000000" stroke-dasharray="3" stroke-miterlimit="10"/></g><g transform="translate(-86,-246) scale(1,1)"><path d="M 852.404632324834 424.95604191919654 L 863 422 L 853.4177063811898 416.5981809542609" fill="none" stroke="#000000" stroke-miterlimit="10"/></g><g transform="translate(-86,-246) scale(1,1)"><g><path fill="none" stroke="none"/><text fill="#000000" font-family="Arial" font-size="13px" font-style="normal" font-weight="normal" stroke="none" text-decoration="none" x="831.5" y="419">«include»</text></g></g><g transform="translate(-86,-246) scale(1,1)"><path d="M 784 427 L 839 471" fill="none" stroke="#000000" stroke-dasharray="3" stroke-miterlimit="10"/></g><g transform="translate(-86,-246) scale(1,1)"><path d="M 828.4346192883949 467.93850846500584 L 839 471 L 833.6939490779461 461.36434622806684" fill="none" stroke="#000000" stroke-miterlimit="10"/></g><g transform="translate(-86,-246) scale(1,1)"><g><path fill="none" stroke="none"/><text fill="#000000" font-family="Arial" font-size="13px" font-style="normal" font-weight="normal" stroke="none" text-decoration="none" x="783.5" y="451">«include»</text></g></g><g transform="translate(-86,-246) scale(1,1)"><path d="M 911 624 C 911 614.6111584 938.0867696 607 971.5 607 C 1004.9132304 607 1032 614.6111584 1032 624 C 1032 633.3888416 1004.9132304 641 971.5 641 C 938.0867696 641 911 633.3888416 911 624 Z" fill="#C0C0C0" opacity="0.2" stroke="none"/></g><g transform="translate(-86,-246) scale(1,1)"><path d="M 904 617 C 904 607.6111584 931.0867696 600 964.5 600 C 997.9132304 600 1025 607.6111584 1025 617 C 1025 626.3888416 997.9132304 634 964.5 634 C 931.0867696 634 904 626.3888416 904 617 Z" fill="#ffffff" stroke="none"/></g><g transform="translate(-86,-246) scale(1,1)"><path d="M 904 617 C 904 607.6111584 931.0867696 600 964.5 600 C 997.9132304 600 1025 607.6111584 1025 617 C 1025 626.3888416 997.9132304 634 964.5 634 C 931.0867696 634 904 626.3888416 904 617 Z" fill="none" stroke="#000000" stroke-miterlimit="10"/></g><g transform="translate(-86,-246) scale(1,1)"><g><path fill="none" stroke="none"/><text fill="#000000" font-family="Arial" font-size="13px" font-style="normal" font-weight="bold" stroke="none" text-decoration="none" x="926.226806640625" y="622.5">MQTT Client</text></g></g><g transform="translate(-86,-246) scale(1,1)"><path d="M 589 459 L 921 599" fill="none" stroke="#000000" stroke-dasharray="3" stroke-miterlimit="10"/></g><g transform="translate(-86,-246) scale(1,1)"><path d="M 910.0002226026751 598.9300199364053 L 921 599 L 913.2714661883248 591.1724994332934" fill="none" stroke="#000000" stroke-miterlimit="10"/></g><g transform="translate(-86,-246) scale(1,1)"><g><path fill="none" stroke="none"/><text fill="#000000" font-family="Arial" font-size="13px" font-style="normal" font-weight="normal" stroke="none" text-decoration="none" x="715.5" y="523">«include»</text></g></g><g transform="translate(-86,-246) scale(1,1)"><path d="M 1079 536 C 1079 526.6111584 1107.8776304 519 1143.5 519 C 1179.1223696 519 1208 526.6111584 1208 536 C 1208 545.3888416 1179.1223696 553 1143.5 553 C 1107.8776304 553 1079 545.3888416 1079 536 Z" fill="#C0C0C0" opacity="0.2" stroke="none"/></g><g transform="translate(-86,-246) scale(1,1)"><path d="M 1072 529 C 1072 519.6111584 1100.8776304 512 1136.5 512 C 1172.1223696 512 1201 519.6111584 1201 529 C 1201 538.3888416 1172.1223696 546 1136.5 546 C 1100.8776304 546 1072 538.3888416 1072 529 Z" fill="#ffffff" stroke="none"/></g><g transform="translate(-86,-246) scale(1,1)"><path d="M 1072 529 C 1072 519.6111584 1100.8776304 512 1136.5 512 C 1172.1223696 512 1201 519.6111584 1201 529 C 1201 538.3888416 1172.1223696 546 1136.5 546 C 1100.8776304 546 1072 538.3888416 1072 529 Z" fill="none" stroke="#000000" stroke-miterlimit="10"/></g><g transform="translate(-86,-246) scale(1,1)"><g><path fill="none" stroke="none"/><text fill="#000000" font-family="Arial" font-size="13px" font-style="normal" font-weight="bold" stroke="none" text-decoration="none" x="1095.3291015625" y="534.5">MQTT Broker</text></g></g><g transform="translate(-86,-246) scale(1,1)"><path d="M 999 599 L 1101 547" fill="none" stroke="#000000" stroke-miterlimit="10"/></g><g transform="translate(-86,-246) scale(1,1)"><path d="M 1136 547 L 1137 639" fill="none" stroke="#000000" stroke-miterlimit="10"/></g><g transform="translate(-86,-246) scale(1,1)"><path d="M 303 696 C 303 686.6111584 325.6096176 679 353.5 679 C 381.3903824 679 404 686.6111584 404 696 C 404 705.3888416 381.3903824 713 353.5 713 C 325.6096176 713 303 705.3888416 303 696 Z" fill="#C0C0C0" opacity="0.2" stroke="none"/></g><g transform="translate(-86,-246) scale(1,1)"><path d="M 296 689 C 296 679.6111584 318.6096176 672 346.5 672 C 374.3903824 672 397 679.6111584 397 689 C 397 698.3888416 374.3903824 706 346.5 706 C 318.6096176 706 296 698.3888416 296 689 Z" fill="#ffffff" stroke="none"/></g><g transform="translate(-86,-246) scale(1,1)"><path d="M 296 689 C 296 679.6111584 318.6096176 672 346.5 672 C 374.3903824 672 397 679.6111584 397 689 C 397 698.3888416 374.3903824 706 346.5 706 C 318.6096176 706 296 698.3888416 296 689 Z" fill="none" stroke="#000000" stroke-miterlimit="10"/></g><g transform="translate(-86,-246) scale(1,1)"><g><path fill="none" stroke="none"/><text fill="#000000" font-family="Arial" font-size="13px" font-style="normal" font-weight="bold" stroke="none" text-decoration="none" x="318.694091796875" y="695">차량 연결</text></g></g><g transform="translate(-86,-246) scale(1,1)"><path d="M 147 560 L 318 671" fill="none" stroke="#000000" stroke-miterlimit="10"/></g><g transform="translate(-86,-246) scale(1,1)"><path d="M 471 760 C 471 750.6111584 504.1309248 743 545 743 C 585.8690752 743 619 750.6111584 619 760 C 619 769.3888416 585.8690752 777 545 777 C 504.1309248 777 471 769.3888416 471 760 Z" fill="#C0C0C0" opacity="0.2" stroke="none"/></g><g transform="translate(-86,-246) scale(1,1)"><path d="M 464 753 C 464 743.6111584 497.1309248 736 538 736 C 578.8690752 736 612 743.6111584 612 753 C 612 762.3888416 578.8690752 770 538 770 C 497.1309248 770 464 762.3888416 464 753 Z" fill="#ffffff" stroke="none"/></g><g transform="translate(-86,-246) scale(1,1)"><path d="M 464 753 C 464 743.6111584 497.1309248 736 538 736 C 578.8690752 736 612 743.6111584 612 753 C 612 762.3888416 578.8690752 770 538 770 C 497.1309248 770 464 762.3888416 464 753 Z" fill="none" stroke="#000000" stroke-miterlimit="10"/></g><g transform="translate(-86,-246) scale(1,1)"><g><path fill="none" stroke="none"/><text fill="#000000" font-family="Arial" font-size="13px" font-style="normal" font-weight="bold" stroke="none" text-decoration="none" x="489.976806640625" y="759">MQTT 서버 연결</text></g></g><g transform="translate(-86,-246) scale(1,1)"><path d="M 484 735 L 398 706" fill="none" stroke="#000000" stroke-miterlimit="10"/></g><g transform="translate(-86,-246) scale(1,1)"><path d="M 419.9499533542308 704.5169127648403 L 398 706 L 414.56966190457763 720.4722598224323" fill="#FFFFFF" stroke="none"/></g><g transform="translate(-86,-246) scale(1,1)"><path d="M 419.9499533542308 704.5169127648403 L 398 706 L 414.56966190457763 720.4722598224323 L 419.9499533542308 704.5169127648403" fill="none" stroke="#000000" stroke-miterlimit="10"/></g><g transform="translate(-86,-246) scale(1,1)"><path d="M 655 856 C 655 846.6111584 688.1309248 839 729 839 C 769.8690752 839 803 846.6111584 803 856 C 803 865.3888416 769.8690752 873 729 873 C 688.1309248 873 655 865.3888416 655 856 Z" fill="#C0C0C0" opacity="0.2" stroke="none"/></g><g transform="translate(-86,-246) scale(1,1)"><path d="M 648 849 C 648 839.6111584 681.1309248 832 722 832 C 762.8690752 832 796 839.6111584 796 849 C 796 858.3888416 762.8690752 866 722 866 C 681.1309248 866 648 858.3888416 648 849 Z" fill="#ffffff" stroke="none"/></g><g transform="translate(-86,-246) scale(1,1)"><path d="M 648 849 C 648 839.6111584 681.1309248 832 722 832 C 762.8690752 832 796 839.6111584 796 849 C 796 858.3888416 762.8690752 866 722 866 C 681.1309248 866 648 858.3888416 648 849 Z" fill="none" stroke="#000000" stroke-miterlimit="10"/></g><g transform="translate(-86,-246) scale(1,1)"><g><path fill="none" stroke="none"/><text fill="#000000" font-family="Arial" font-size="13px" font-style="normal" font-weight="bold" stroke="none" text-decoration="none" x="673.976806640625" y="855">MQTT 서버 주소</text></g></g><g transform="translate(-86,-246) scale(1,1)"><path d="M 573 771 L 688 831" fill="none" stroke="#000000" stroke-dasharray="3" stroke-miterlimit="10"/></g><g transform="translate(-86,-246) scale(1,1)"><path d="M 677.0427466562116 830.0311867259171 L 688 831 L 680.9371062932358 822.5669974216207" fill="none" stroke="#000000" stroke-miterlimit="10"/></g><g transform="translate(-86,-246) scale(1,1)"><g><path fill="none" stroke="none"/><text fill="#000000" font-family="Arial" font-size="13px" font-style="normal" font-weight="normal" stroke="none" text-decoration="none" x="615.5" y="795">«include»</text></g></g><g transform="translate(-86,-246) scale(1,1)"><path d="M 594 735 L 908 635" fill="none" stroke="#000000" stroke-dasharray="3" stroke-miterlimit="10"/></g><g transform="translate(-86,-246) scale(1,1)"><path d="M 899.5939311458378 642.0949282180361 L 908 635 L 897.0391398550958 634.072883565106" fill="none" stroke="#000000" stroke-miterlimit="10"/></g><g transform="translate(-86,-246) scale(1,1)"><g><path fill="none" stroke="none"/><text fill="#000000" font-family="Arial" font-size="13px" font-style="normal" font-weight="normal" stroke="none" text-decoration="none" x="714.5" y="682">«extend»</text></g></g></g></svg>